<svg width="45" height="56" viewBox="0 0 45 56" fill="none" xmlns="http://www.w3.org/2000/svg">
<g clip-path="url(#clip0_289_37796)">
<g clip-path="url(#clip1_289_37796)">
<g clip-path="url(#clip2_289_37796)">
<mask id="mask0_289_37796" style="mask-type:luminance" maskUnits="userSpaceOnUse" x="0" y="3" width="45" height="44">
<path d="M44.7002 3.125H0.950195V46.875H44.7002V3.125Z" fill="white"/>
</mask>
<g mask="url(#mask0_289_37796)">
<path d="M22.8246 3.16846C10.7422 3.16846 0.950195 12.8339 0.950195 24.7556C0.950195 36.6764 10.7422 46.3429 22.8246 46.3429C34.9033 46.3429 44.7002 36.6764 44.7002 24.7556C44.7002 12.8339 34.9033 3.16846 22.8246 3.16846Z" fill="white"/>
<path d="M16.9855 23.8507C17.3781 22.3173 18.762 21.2469 20.3519 21.2469C21.95 21.2469 23.3272 22.3146 23.7216 23.8507H16.9855ZM24.9445 24.7825C25.1698 24.5058 25.2546 24.1439 25.1827 23.7625C24.8895 22.3802 24.1356 21.273 23.0026 20.5606C22.2243 20.0678 21.3161 19.8074 20.3759 19.8074C19.3386 19.8074 18.3511 20.1182 17.5198 20.7066C16.2207 21.6267 15.4453 23.1296 15.4453 24.7273C15.4453 25.1283 15.4951 25.5264 15.5931 25.9104C16.0924 27.8559 17.7716 29.3273 19.7716 29.5718C19.9651 29.5949 20.1588 29.6066 20.3472 29.6066C20.7479 29.6066 21.1377 29.5557 21.5384 29.4519C22.0593 29.3272 22.5555 29.1171 23.0139 28.8276C23.4468 28.5482 23.8456 28.1717 24.2649 27.6467L24.2924 27.6183C24.432 27.4447 24.497 27.2216 24.4705 27.0064C24.4466 26.8135 24.3541 26.6472 24.21 26.538C24.0733 26.4332 23.9103 26.3753 23.7515 26.3753C23.5966 26.3753 23.3691 26.4312 23.1634 26.6983L23.1473 26.7196C23.0793 26.8099 23.009 26.9032 22.9282 26.9957C22.651 27.3059 22.3323 27.5613 21.982 27.7548C21.4802 28.0213 20.938 28.1584 20.372 28.1624C18.5934 28.143 17.5044 26.9642 17.0788 25.8692C17.012 25.6721 16.9642 25.4921 16.9335 25.3253C16.933 25.3084 16.9317 25.2907 16.9306 25.2733L23.8164 25.2721C24.2947 25.2619 24.6954 25.088 24.9445 24.7825Z" fill="white"/>
<path d="M34.9784 23.397C34.2871 23.397 33.7246 23.9558 33.7246 24.6424C33.7246 25.3293 34.2871 25.8882 34.9784 25.8882C35.6686 25.8882 36.23 25.3293 36.23 24.6424C36.23 23.9558 35.6686 23.397 34.9784 23.397Z" fill="white"/>
<path d="M30.4108 20.5892C30.4108 20.198 30.0898 19.8799 29.6961 19.8799L29.4949 19.877C28.884 19.877 28.3065 20.0634 27.8199 20.4169C27.7268 20.1307 27.4544 19.9295 27.1471 19.9295C26.751 19.9295 26.4389 20.2386 26.4365 20.6334L26.4388 28.8058C26.4414 29.1951 26.7596 29.5119 27.1483 29.5119C27.5393 29.5119 27.8576 29.195 27.8576 28.8055V23.7795C27.8576 22.1511 27.9985 21.4705 29.4153 21.2959C29.5328 21.282 29.6589 21.2812 29.691 21.2812C30.108 21.2661 30.4108 20.9752 30.4108 20.5892Z" fill="white"/>
<path d="M11.7249 24.6949L15.3995 21.0241C15.5338 20.8928 15.608 20.7162 15.608 20.5271C15.608 20.1366 15.2874 19.8188 14.8937 19.8188C14.7031 19.8188 14.5232 19.894 14.3877 20.0303L10.7128 23.6825L7.02334 20.0235C6.88883 19.8916 6.71056 19.8188 6.52119 19.8188C6.1293 19.8188 5.81055 20.1366 5.81055 20.5271C5.81055 20.7166 5.88662 20.8965 6.02472 21.0332L9.70196 24.6919L6.03027 28.3553C5.88859 28.4899 5.81055 28.6707 5.81055 28.864C5.81055 29.2544 6.1293 29.5721 6.52119 29.5721C6.70768 29.5721 6.88595 29.4998 7.02363 29.3678L10.7092 25.7009L14.3788 29.3506C14.5196 29.4946 14.7024 29.5739 14.8937 29.5739C15.2874 29.5739 15.608 29.2554 15.608 28.864C15.608 28.6771 15.5339 28.4999 15.3997 28.3649L11.7249 24.6949Z" fill="white"/>
<path d="M34.978 28.0671C33.0797 28.0671 31.5355 26.5306 31.5355 24.6419C31.5355 22.7512 33.0797 21.2129 34.978 21.2129C36.8743 21.2129 38.417 22.7512 38.417 24.6419C38.417 26.5306 36.8743 28.0671 34.978 28.0671ZM34.9789 19.7532C32.2712 19.7532 30.0684 21.9462 30.0684 24.6417C30.0684 27.3365 32.2712 29.529 34.9789 29.529C37.6853 29.529 39.887 27.3365 39.887 24.6417C39.887 21.9462 37.6853 19.7532 34.9789 19.7532Z" fill="white"/>
</g>
</g>
</g>
</g>
<defs>
<clipPath id="clip0_289_37796">
<rect width="43.75" height="50" fill="white" transform="translate(0.950195)"/>
</clipPath>
<clipPath id="clip1_289_37796">
<rect width="43.75" height="50" fill="white" transform="translate(0.950195)"/>
</clipPath>
<clipPath id="clip2_289_37796">
<rect width="43.75" height="50" fill="white" transform="translate(0.950195)"/>
</clipPath>
</defs>
</svg>
