<svg width="9" height="7" viewBox="0 0 9 7" fill="none" xmlns="http://www.w3.org/2000/svg">
<path fill-rule="evenodd" clip-rule="evenodd" d="M8.45125 1.14871C8.29185 0.98933 8.07567 0.899792 7.85025 0.899792C7.62484 0.899792 7.40866 0.98933 7.24925 1.14871L4.35025 4.04771L1.45125 1.14771C1.29159 0.988448 1.0752 0.899133 0.849692 0.899415C0.62418 0.899696 0.408016 0.98955 0.248754 1.14921C0.0894909 1.30887 0.000175476 1.52526 0.00045681 1.75077C0.000738144 1.97628 0.0905924 2.19245 0.250253 2.35171L3.75025 5.85171C3.90966 6.01109 4.12584 6.10063 4.35125 6.10063C4.57667 6.10063 4.79285 6.01109 4.95225 5.85171L8.45225 2.35171C8.61163 2.19231 8.70117 1.97612 8.70117 1.75071C8.70117 1.5253 8.61163 1.30911 8.45225 1.14971L8.45125 1.14871Z" fill="#2D2D2D"/>
</svg>
