<svg width="70" height="71" viewBox="0 0 70 71" fill="none" xmlns="http://www.w3.org/2000/svg">
<g clip-path="url(#clip0_33_1192)">
<path opacity="0.927" fill-rule="evenodd" clip-rule="evenodd" d="M23.9445 11.4204C30.5614 10.986 35.755 13.4591 39.5254 18.8399C42.4826 23.9376 42.7975 29.1987 40.4697 34.6231C36.3406 41.9531 30.1127 44.8535 21.7861 43.3241C16.5029 41.7748 12.7931 38.4698 10.6568 33.409C8.39919 26.4827 9.8606 20.4797 15.0411 15.3999C17.6363 13.2252 20.6041 11.8987 23.9445 11.4204ZM24.0794 13.5788C30.4118 13.1806 35.1558 15.6987 38.3113 21.1331C41.1947 27.7606 40.003 33.5388 34.7364 38.4677C29.8285 42.1209 24.6123 42.6155 19.0881 39.9516C13.0941 36.1852 10.8232 30.8116 12.2756 23.8311C13.6279 19.3313 16.4832 16.2062 20.8418 14.4556C21.9154 14.0751 22.9946 13.7828 24.0794 13.5788ZM25.4283 26.5291C26.5968 26.5044 27.0239 27.044 26.7099 28.1479C26.0326 28.8787 25.403 28.8337 24.8213 28.013C24.6562 27.3555 24.8585 26.8608 25.4283 26.5291Z" fill="#202020"/>
<path opacity="0.886" fill-rule="evenodd" clip-rule="evenodd" d="M25.7767 15.3673C26.4974 15.1983 27.0243 15.4273 27.3577 16.0546C27.4494 16.6503 27.4494 17.2462 27.3577 17.8418C26.7281 18.8821 26.0407 18.928 25.2956 17.9793C25.2039 17.2919 25.2039 16.6046 25.2956 15.9172C25.4847 15.7515 25.645 15.5683 25.7767 15.3673Z" fill="#202020"/>
<path opacity="0.925" fill-rule="evenodd" clip-rule="evenodd" d="M33.4753 18.6667C34.6587 18.4984 35.1857 19.0026 35.0563 20.1789C33.2273 22.1455 31.3485 24.0702 29.4198 25.9529C30.0332 28.0563 29.3688 29.5915 27.4264 30.5584C26.5921 30.845 25.7672 30.8221 24.9518 30.4896C24.1519 31.2207 23.3729 31.9769 22.6148 32.758C21.2949 33.18 20.7221 32.6989 20.8963 31.3145C21.7232 30.5105 22.5251 29.6857 23.3021 28.8399C22.7054 27.2684 23.0262 25.9166 24.2645 24.7844C25.4058 24.1321 26.5972 23.9946 27.8388 24.372C29.7455 22.4884 31.6242 20.5866 33.4753 18.6667ZM25.9142 26.3654C25.3335 26.7034 25.1273 27.2075 25.2955 27.8776C25.8883 28.714 26.5299 28.7598 27.2202 28.0151C27.5402 26.8901 27.105 26.3402 25.9142 26.3654Z" fill="#202020"/>
<path opacity="0.933" fill-rule="evenodd" clip-rule="evenodd" d="M68.9999 42.4473C68.9999 43.0769 68.9999 43.7063 68.9999 44.3359C68.2371 47.0706 67.4502 49.8135 66.6392 52.5648C65.793 53.9437 64.5564 54.6406 62.9295 54.6557C61.2776 57.9709 58.6245 59.3199 54.9704 58.7027C53.1385 57.9385 52.2392 56.567 52.2724 54.5883C44.6275 54.5433 36.9833 54.5883 29.3395 54.7232C27.8074 57.7827 25.3343 59.1541 21.92 58.8376C20.5479 58.5443 19.5811 57.7575 19.0197 56.4769C18.8116 55.8637 18.6991 55.2343 18.6824 54.5883C17.0629 54.6108 15.4442 54.5883 13.826 54.5208C12.8144 54.0488 12.4322 53.2618 12.6794 52.1601C13.3589 49.4868 14.1008 46.8338 14.9052 44.201C15.5565 43.6341 16.1636 43.6792 16.7264 44.3359C16.8163 44.6957 16.8163 45.0553 16.7264 45.4151C16.1186 47.7559 15.5116 50.0942 14.9052 52.4299C16.3469 52.4747 17.7859 52.4297 19.222 52.295C20.9027 48.9849 23.5558 47.7034 27.1811 48.4503C28.9318 49.1911 29.7861 50.5175 29.7442 52.4299C34.8704 52.4299 39.9965 52.4299 45.1227 52.4299C47.3476 43.7993 49.6409 35.1882 52.0026 26.5966C49.6644 26.5517 47.326 26.5066 44.9878 26.4617C44.4315 26.3292 44.1617 25.9696 44.1784 25.3825C44.2051 24.9237 44.43 24.609 44.8529 24.4382C47.5509 24.3482 50.2489 24.3482 52.9469 24.4382C53.8942 24.7854 54.2989 25.4374 54.161 26.3943C57.0379 26.5066 59.9157 26.5741 62.7946 26.5966C63.7034 26.8308 64.3104 27.3929 64.6157 28.2828C64.7203 31.8349 64.8102 35.3872 64.8855 38.9399C65.9964 39.8213 67.1431 40.6531 68.3254 41.4356C68.5702 41.77 68.795 42.1072 68.9999 42.4473ZM53.6214 28.6875C56.4996 28.665 59.3774 28.6875 62.255 28.755C62.5132 29.4103 62.6031 30.1074 62.5248 30.8459C60.8155 30.8234 59.1067 30.8459 57.3986 30.9134C55.5318 31.5133 54.4301 32.7948 54.0935 34.758C53.8248 35.7881 53.5774 36.8224 53.3516 37.8607C53.4274 39.2061 54.1019 40.0829 55.3751 40.4913C58.0731 40.5362 60.7711 40.5812 63.4691 40.6262C64.5294 41.4392 65.6086 42.2261 66.7067 42.9869C66.837 43.2427 66.8819 43.5125 66.8416 43.7963C66.2553 43.7739 65.6708 43.7964 65.0879 43.8637C64.311 44.3888 64.221 45.0184 64.8181 45.7523C65.2481 45.9299 65.6979 45.9973 66.1671 45.9547C65.7829 47.6714 65.3556 49.3801 64.8855 51.0809C64.6114 51.7372 64.1392 52.1868 63.4691 52.4299C63.1124 49.7347 61.5834 48.2957 58.8825 48.1131C56.0033 48.3599 53.9349 49.7764 52.6771 52.3624C50.8785 52.4524 49.0797 52.4524 47.2811 52.3624C47.8546 50.2715 48.4391 48.1805 49.0348 46.0896C53.216 45.9772 57.3979 45.9098 61.5805 45.8872C62.1688 45.587 62.3711 45.1148 62.1875 44.4708C62.0751 44.1785 61.8728 43.9761 61.5805 43.8637C57.5784 43.8188 53.5765 43.7738 49.5744 43.7288C50.9756 38.7311 52.3246 33.7173 53.6214 28.6875ZM57.8033 33.0043C59.4105 32.961 61.0067 33.006 62.5922 33.1392C62.6597 34.8924 62.6822 36.6461 62.6597 38.4003C60.3335 38.4442 58.0178 38.3992 55.7123 38.2654C55.6449 38.1305 55.5774 37.9956 55.51 37.8607C55.868 36.6534 56.2053 35.4393 56.5217 34.2184C56.8495 33.6877 57.2768 33.283 57.8033 33.0043ZM24.8878 50.2715C27.1607 50.3188 27.9926 51.4429 27.3834 53.644C26.2711 55.9872 24.4499 56.954 21.92 56.5443C20.8029 55.6581 20.5556 54.5564 21.1781 53.2393C21.9634 51.6651 23.2001 50.6758 24.8878 50.2715ZM58.4778 50.2715C60.6614 50.3184 61.4933 51.3976 60.9734 53.5091C59.9331 55.9512 58.1119 56.9629 55.51 56.5443C55.03 56.2891 54.6928 55.9069 54.4982 55.3977C54.3349 53.4007 55.1219 51.8943 56.859 50.8785C57.399 50.6291 57.9386 50.4267 58.4778 50.2715Z" fill="#202020"/>
<path opacity="0.886" fill-rule="evenodd" clip-rule="evenodd" d="M14.7779 26.3648C15.5739 26.3093 16.3528 26.378 17.115 26.571C17.7391 27.3742 17.6016 28.0158 16.7025 28.4957C15.9989 28.6178 15.3115 28.572 14.6404 28.3582C14.0666 27.6546 14.1125 26.9902 14.7779 26.3648Z" fill="#202020"/>
<path opacity="0.88" fill-rule="evenodd" clip-rule="evenodd" d="M35.813 26.365C36.5635 26.3105 37.2966 26.3792 38.0126 26.5713C38.6211 27.3193 38.5294 27.9609 37.7376 28.4959C36.9885 28.6191 36.2554 28.5733 35.538 28.3584C34.937 27.5897 35.0285 26.9253 35.813 26.365Z" fill="#202020"/>
<path opacity="0.88" fill-rule="evenodd" clip-rule="evenodd" d="M25.9142 36.2632C26.5714 36.1451 27.0525 36.3742 27.3577 36.9505C27.4494 37.5921 27.4494 38.2336 27.3577 38.8752C27.0517 39.4747 26.5705 39.6809 25.9142 39.4938C25.6163 39.3793 25.4101 39.1731 25.2956 38.8752C25.2039 38.2336 25.2039 37.5921 25.2956 36.9505C25.4365 36.6499 25.6427 36.4207 25.9142 36.2632Z" fill="#202020"/>
<path opacity="0.927" fill-rule="evenodd" clip-rule="evenodd" d="M-0.0698242 42.1777C-0.0698242 41.8179 -0.0698242 41.4582 -0.0698242 41.0985C0.133911 40.9182 0.358744 40.7608 0.604674 40.6263C4.42682 40.5363 8.24899 40.5363 12.0711 40.6263C13.0899 41.2381 13.1348 41.9126 12.206 42.6498C8.29395 42.7398 4.38186 42.7398 0.469774 42.6498C0.220179 42.5567 0.0403125 42.3994 -0.0698242 42.1777Z" fill="#202020"/>
<path opacity="0.919" fill-rule="evenodd" clip-rule="evenodd" d="M3.84376 44.8758C6.22741 44.8532 8.61064 44.8758 10.9934 44.9432C12.0143 45.561 12.0592 46.2355 11.1283 46.9667C8.65519 47.0567 6.18202 47.0567 3.70886 46.9667C3.30201 46.7604 3.12213 46.4232 3.16927 45.955C3.17547 45.4549 3.4003 45.0952 3.84376 44.8758Z" fill="#202020"/>
<path opacity="0.901" fill-rule="evenodd" clip-rule="evenodd" d="M7.08105 49.1924C8.13046 49.1341 9.16469 49.2016 10.1837 49.3947C10.9252 50.0893 10.8802 50.7189 10.0488 51.2833C8.91068 51.4097 7.78652 51.3648 6.67636 51.1484C6.21552 50.35 6.35042 49.6978 7.08105 49.1924Z" fill="#202020"/>
<path opacity="0.856" fill-rule="evenodd" clip-rule="evenodd" d="M24.4018 52.7603C25.5239 52.76 25.9591 53.3099 25.7078 54.41C25.3623 54.9203 24.8812 55.0806 24.2643 54.8911C23.3267 54.1248 23.3725 53.4145 24.4018 52.7603Z" fill="#202020"/>
<path opacity="0.86" fill-rule="evenodd" clip-rule="evenodd" d="M58.6336 52.7603C59.6383 52.7794 60.0735 53.2833 59.9396 54.2725C59.5903 54.9006 59.0632 55.1068 58.3587 54.8911C57.8483 54.5334 57.6881 54.0523 57.8775 53.4476C58.0297 53.0884 58.2817 52.8592 58.6336 52.7603Z" fill="#202020"/>
</g>
<defs>
<clipPath id="clip0_33_1192">
<rect width="70.3876" height="70.3876" fill="white" transform="translate(0.000244141 0.0383301)"/>
</clipPath>
</defs>
</svg>
