<svg width="86" height="56" viewBox="0 0 86 56" fill="none" xmlns="http://www.w3.org/2000/svg">
<g clip-path="url(#clip0_289_37754)">
<g clip-path="url(#clip1_289_37754)">
<g clip-path="url(#clip2_289_37754)">
<path fill-rule="evenodd" clip-rule="evenodd" d="M10.4033 16.7917C10.62 16.575 10.7826 16.4124 10.5658 16.4124C10.5264 16.4124 10.4648 16.4164 10.3854 16.4218C9.70094 16.4672 7.69753 16.6003 7.26052 14.9494C6.77285 13.1071 9.42795 7.63434 9.53633 7.4176C9.59048 7.20086 9.42795 6.92993 9.10281 6.92993C8.91559 6.92993 8.75429 7.08515 8.65461 7.18109C8.60999 7.224 8.57769 7.25504 8.561 7.25504C7.88024 8.11274 7.12769 9.02176 6.37463 9.93141C4.13054 12.6421 1.882 15.3581 1.51686 16.7375C0.270601 21.3433 5.0931 23.2398 8.12748 23.5648C8.18167 23.5648 8.18167 23.5107 8.18167 23.5107V21.8851C8.23585 19.6635 9.04866 17.9837 10.4033 16.7917ZM85.7216 16.7375C85.3362 15.2839 82.8941 12.346 80.5234 9.49412L80.5226 9.49405C79.8888 8.73163 79.2604 7.97513 78.6774 7.25504C78.6689 7.2469 78.6581 7.23386 78.6451 7.21758C78.5704 7.12554 78.412 6.92993 78.1351 6.92993C77.8643 6.92993 77.6474 7.20086 77.7559 7.4176C77.8643 7.63434 80.5196 13.1612 80.0319 14.9494C79.595 16.6003 77.5913 16.4672 76.907 16.4218C76.8276 16.4164 76.766 16.4124 76.7266 16.4124C76.5099 16.4124 76.6724 16.575 76.8891 16.7917C78.2435 17.9837 79.1104 19.6635 79.1104 21.8309V23.4564C79.1104 23.4836 79.1104 23.4971 79.1173 23.5039C79.1243 23.5107 79.1381 23.5107 79.165 23.5107C82.2533 23.2398 86.9677 21.3433 85.7216 16.7375ZM73.7464 27.412C73.7464 28.9834 71.6331 29.8503 70.2785 29.8503C68.8155 29.8503 66.7565 28.9834 66.7565 27.412V21.8851C66.7565 20.3137 68.8155 19.6093 70.2785 19.6093C71.6331 19.6093 73.7464 20.3678 73.7464 21.8851V27.412ZM70.2785 16.1415C67.0274 16.1956 63.2344 18.0379 63.2344 21.8309V27.6288C63.2344 31.4759 67.0274 33.3182 70.2785 33.3182C73.4755 33.264 77.2684 31.4759 77.2684 27.6288V21.8851C77.2684 18.0921 73.4755 16.1956 70.2785 16.1415ZM45.7862 29.8503C47.1409 29.8503 49.2541 28.9834 49.2541 27.412V21.8851C49.2541 20.3678 47.1409 19.6093 45.7862 19.6093C44.3232 19.6093 42.2642 20.3137 42.2642 21.8851V27.412C42.2642 28.9834 44.3232 29.8503 45.7862 29.8503ZM38.688 21.8309C38.688 18.0379 42.4809 16.1956 45.7321 16.1415C48.929 16.1956 52.722 18.0921 52.722 21.8851V27.6288C52.722 31.4759 48.929 33.264 45.7321 33.3182C42.4809 33.3182 38.688 31.4759 38.688 27.6288V21.8309ZM31.1563 16.4667C33.974 16.4667 35.8704 16.7376 38.4714 17.442C38.5255 17.442 38.5798 17.5504 38.5798 17.6588C37.6586 18.3632 37.2251 19.3927 37.0084 20.4764C35.5995 20.0971 34.4074 19.9346 32.9445 19.8262V33.21C32.9445 33.2641 32.8903 33.2641 32.8361 33.2641H29.4766C29.4224 33.2641 29.3683 33.2641 29.3683 33.21V19.8262C27.851 19.9346 26.5506 20.1513 25.1418 20.4764C24.9792 19.3927 24.5999 18.4173 23.7329 17.6588C23.6787 17.6045 23.7329 17.4962 23.8413 17.442C26.4422 16.7376 28.3929 16.4667 31.1563 16.4667ZM63.3427 16.3036C63.0718 16.2495 62.3674 16.1411 61.7171 16.1952C58.5202 16.3036 54.8897 18.2001 54.8897 21.8847V33.3178C54.8897 33.372 54.944 33.372 54.9981 33.372H58.3576C58.4118 33.372 58.466 33.372 58.466 33.3178V21.8847C58.466 20.6384 59.9832 19.934 61.2295 19.6631C61.6088 18.471 62.3132 17.5499 63.3969 16.6829C63.5595 16.5204 63.5053 16.3036 63.3427 16.3036ZM20.0481 22.9682C20.1022 22.914 20.1022 22.914 20.1022 22.8599V21.8845C20.1022 20.3132 18.3141 19.5546 16.9053 19.5546C15.4423 19.5546 13.5458 20.3132 13.5458 21.8845V23.0224H19.9397C19.9938 23.0224 20.0481 23.0224 20.0481 22.9682ZM9.96954 21.8303C9.96954 17.9832 13.6 16.0867 16.9053 16.0325C20.1564 16.0867 23.5701 17.9832 23.5701 21.8845V25.0814C23.5701 25.5691 23.1908 25.9485 22.7032 25.9485H13.5458V27.6824C13.5458 29.2537 15.4423 30.1749 16.9053 30.1749C17.989 30.1749 19.5604 29.633 20.1564 28.6036C20.2106 28.5493 20.2106 28.5493 20.2648 28.5493C21.2712 29.0765 21.8961 29.4341 22.8144 29.9596C22.9344 30.0282 23.0593 30.0998 23.1908 30.1749C23.245 30.2291 23.2992 30.3375 23.245 30.3916C21.9446 32.5049 19.2895 33.4802 16.9053 33.4802C13.6 33.426 9.96954 31.5837 9.96954 27.6824V21.8303Z" fill="white"/>
</g>
</g>
</g>
<defs>
<clipPath id="clip0_289_37754">
<rect width="85.37" height="50" fill="white" transform="translate(0.580078)"/>
</clipPath>
<clipPath id="clip1_289_37754">
<rect width="85.37" height="50" fill="white" transform="translate(0.580078)"/>
</clipPath>
<clipPath id="clip2_289_37754">
<rect width="85.38" height="49.9973" fill="white" transform="translate(0.580078 0.00146484)"/>
</clipPath>
</defs>
</svg>
