<svg width="40" height="40" viewBox="0 0 40 40" fill="none" xmlns="http://www.w3.org/2000/svg">
<circle cx="20" cy="20" r="19.5" stroke="#3F80FF"/>
<path d="M30 26.25H23C22.59 26.25 22.25 25.91 22.25 25.5C22.25 25.09 22.59 24.75 23 24.75H30C30.41 24.75 30.75 25.09 30.75 25.5C30.75 25.91 30.41 26.25 30 26.25Z" fill="#3F80FF"/>
<path d="M13 26.25H10C9.59 26.25 9.25 25.91 9.25 25.5C9.25 25.09 9.59 24.75 10 24.75H13C13.41 24.75 13.75 25.09 13.75 25.5C13.75 25.91 13.41 26.25 13 26.25Z" fill="#3F80FF"/>
<path d="M30 15.25H27C26.59 15.25 26.25 14.91 26.25 14.5C26.25 14.09 26.59 13.75 27 13.75H30C30.41 13.75 30.75 14.09 30.75 14.5C30.75 14.91 30.41 15.25 30 15.25Z" fill="#3F80FF"/>
<path d="M17 15.25H10C9.59 15.25 9.25 14.91 9.25 14.5C9.25 14.09 9.59 13.75 10 13.75H17C17.41 13.75 17.75 14.09 17.75 14.5C17.75 14.91 17.41 15.25 17 15.25Z" fill="#3F80FF"/>
<path d="M21 29.25H15C13.28 29.25 12.25 28.22 12.25 26.5V24.5C12.25 22.78 13.28 21.75 15 21.75H21C22.72 21.75 23.75 22.78 23.75 24.5V26.5C23.75 28.22 22.72 29.25 21 29.25ZM15 23.25C14.11 23.25 13.75 23.61 13.75 24.5V26.5C13.75 27.39 14.11 27.75 15 27.75H21C21.89 27.75 22.25 27.39 22.25 26.5V24.5C22.25 23.61 21.89 23.25 21 23.25H15Z" fill="#3F80FF"/>
<path d="M25 18.25H19C17.28 18.25 16.25 17.22 16.25 15.5V13.5C16.25 11.78 17.28 10.75 19 10.75H25C26.72 10.75 27.75 11.78 27.75 13.5V15.5C27.75 17.22 26.72 18.25 25 18.25ZM19 12.25C18.11 12.25 17.75 12.61 17.75 13.5V15.5C17.75 16.39 18.11 16.75 19 16.75H25C25.89 16.75 26.25 16.39 26.25 15.5V13.5C26.25 12.61 25.89 12.25 25 12.25H19Z" fill="#3F80FF"/>
</svg>
