<svg width="40" height="40" viewBox="0 0 40 40" fill="none" xmlns="http://www.w3.org/2000/svg">
<circle cx="20" cy="20" r="19.5" stroke="#3F80FF"/>
<path d="M15.4999 23.2504C15.3099 23.2504 15.1199 23.1804 14.9699 23.0304C14.6799 22.7404 14.6799 22.2604 14.9699 21.9704L18.1699 18.7704C18.3299 18.6104 18.5399 18.5304 18.7699 18.5504C18.9899 18.5704 19.1899 18.6904 19.3199 18.8804L20.4099 20.5204L23.9599 16.9704C24.2499 16.6804 24.7299 16.6804 25.0199 16.9704C25.3099 17.2604 25.3099 17.7404 25.0199 18.0304L20.8199 22.2304C20.6599 22.3904 20.4499 22.4704 20.2199 22.4504C19.9999 22.4304 19.7999 22.3104 19.6699 22.1204L18.5799 20.4804L16.0299 23.0304C15.8799 23.1804 15.6899 23.2504 15.4999 23.2504Z" fill="#3F80FF"/>
<path d="M24.5 20.25C24.09 20.25 23.75 19.91 23.75 19.5V18.25H22.5C22.09 18.25 21.75 17.91 21.75 17.5C21.75 17.09 22.09 16.75 22.5 16.75H24.5C24.91 16.75 25.25 17.09 25.25 17.5V19.5C25.25 19.91 24.91 20.25 24.5 20.25Z" fill="#3F80FF"/>
<path d="M23 30.75H17C11.57 30.75 9.25 28.43 9.25 23V17C9.25 11.57 11.57 9.25 17 9.25H23C28.43 9.25 30.75 11.57 30.75 17V23C30.75 28.43 28.43 30.75 23 30.75ZM17 10.75C12.39 10.75 10.75 12.39 10.75 17V23C10.75 27.61 12.39 29.25 17 29.25H23C27.61 29.25 29.25 27.61 29.25 23V17C29.25 12.39 27.61 10.75 23 10.75H17Z" fill="#3F80FF"/>
</svg>
