<svg width="40" height="41" viewBox="0 0 40 41" fill="none" xmlns="http://www.w3.org/2000/svg">
<circle cx="20" cy="20.0566" r="19.5" stroke="#3F80FF"/>
<path d="M20.0001 22.5697C21.4194 22.5697 22.5701 21.4191 22.5701 19.9997C22.5701 18.5803 21.4194 17.4297 20.0001 17.4297C18.5807 17.4297 17.4301 18.5803 17.4301 19.9997C17.4301 21.4191 18.5807 22.5697 20.0001 22.5697Z" stroke="#3F80FF" stroke-width="1.5" stroke-linecap="round" stroke-linejoin="round"/>
<path fill-rule="evenodd" clip-rule="evenodd" d="M28.52 16.27L27.49 14.49C27.06 13.75 26.12 13.5 25.38 13.93L24.87 14.22C23.84 14.81 22.56 14.07 22.56 12.88V12.29C22.56 11.44 21.87 10.75 21.02 10.75H18.96C18.11 10.75 17.42 11.44 17.42 12.29V12.88C17.42 14.07 16.14 14.81 15.11 14.22L14.6 13.93C13.86 13.5 12.92 13.76 12.49 14.49L11.46 16.27C11.03 17.01 11.29 17.95 12.02 18.38L12.53 18.67C13.56 19.26 13.56 20.75 12.53 21.34L12.02 21.63C11.28 22.06 11.03 23 11.46 23.74L12.49 25.52C12.92 26.26 13.86 26.51 14.6 26.08L15.11 25.79C16.14 25.2 17.42 25.94 17.42 27.13V27.72C17.42 28.57 18.11 29.26 18.96 29.26H21.02C21.87 29.26 22.56 28.57 22.56 27.72V27.13C22.56 25.94 23.84 25.2 24.87 25.79L25.38 26.08C26.12 26.51 27.06 26.25 27.49 25.52L28.52 23.74C28.95 23 28.69 22.06 27.96 21.63L27.45 21.34C26.42 20.75 26.42 19.26 27.45 18.67L27.96 18.38C28.7 17.95 28.95 17 28.52 16.27Z" stroke="#3F80FF" stroke-width="1.5" stroke-linecap="round" stroke-linejoin="round"/>
</svg>
