<svg width="58" height="55" viewBox="0 0 58 55" fill="none" xmlns="http://www.w3.org/2000/svg">
<path opacity="0.944" fill-rule="evenodd" clip-rule="evenodd" d="M57.644 31.9322C57.644 32.2686 57.644 32.6049 57.644 32.9412C57.1157 33.4411 56.4804 33.628 55.7382 33.5018C55.7569 39.2194 55.7382 44.937 55.6821 50.6545C55.1776 52.6537 53.9257 53.9057 51.9264 54.4102C36.6048 54.4849 21.2833 54.4849 5.9616 54.4102C3.96232 53.9057 2.71042 52.6537 2.20593 50.6545C2.13119 45.7217 2.13119 40.7889 2.20593 35.8561C2.58332 35.2833 3.08781 35.1525 3.71941 35.4637C3.97363 35.6383 4.10443 35.8812 4.11179 36.1924C4.14916 40.901 4.18654 45.6096 4.2239 50.3182C4.85715 51.9904 6.07167 52.7004 7.86746 52.4482C7.84877 46.9174 7.86746 41.3866 7.92351 35.8561C8.25335 35.3344 8.72047 35.1662 9.32488 35.3516C9.58387 35.5351 9.75204 35.778 9.82937 36.0803C9.88542 41.5362 9.90411 46.9921 9.88542 52.4482C11.754 52.4482 13.6224 52.4482 15.4909 52.4482C15.4722 44.0774 15.4909 35.7065 15.5469 27.3357C15.9352 26.6448 16.4771 26.4954 17.1725 26.8873C17.2941 27.0179 17.3874 27.1674 17.4528 27.3357C17.5089 35.7065 17.5276 44.0774 17.5089 52.4482C19.3774 52.4482 21.2458 52.4482 23.1143 52.4482C23.0956 47.0295 23.1143 41.6109 23.1704 36.1924C23.4192 35.3303 23.961 35.0874 24.796 35.4637C24.9306 35.5649 25.0241 35.6956 25.0762 35.8561C25.1323 41.3866 25.151 46.9174 25.1323 52.4482C27.0382 52.4482 28.944 52.4482 30.8499 52.4482C30.8312 46.5811 30.8499 40.714 30.9059 34.8471C31.3606 34.2597 31.9026 34.1663 32.5315 34.5668C32.668 34.7516 32.7613 34.9571 32.8118 35.1834C32.8678 40.9382 32.8866 46.6932 32.8678 52.4482C34.7364 52.4482 36.6048 52.4482 38.4733 52.4482C38.4546 41.4989 38.4733 30.5495 38.5294 19.6002C38.8542 19.0783 39.3212 18.9102 39.9307 19.0957C40.1803 19.2333 40.3485 19.4389 40.4352 19.7123C40.4913 30.6242 40.51 41.5362 40.4913 52.4482C42.3598 52.4482 44.2282 52.4482 46.0968 52.4482C46.078 46.0206 46.0968 39.5929 46.1528 33.1654C46.4429 32.4579 46.9474 32.2524 47.6663 32.5488C47.8399 32.6849 47.9707 32.8531 48.0587 33.0533C48.1147 39.5182 48.1334 45.9831 48.1147 52.4482C49.3939 52.4968 50.6645 52.4407 51.9264 52.2801C52.8225 51.9072 53.4017 51.2533 53.6641 50.3182C53.7202 44.638 53.7389 38.9579 53.7202 33.2775C53.1568 33.1268 52.6336 32.8838 52.1507 32.5488C50.8705 31.3067 49.8054 29.9053 48.9555 28.3447C47.8631 26.1224 46.7421 23.9176 45.5923 21.7303C44.6703 19.949 43.4558 18.3982 41.9487 17.0777C39.799 15.7601 37.8744 16.0404 36.1751 17.9186C35.257 19.1001 34.4722 20.3706 33.8208 21.7303C32.6866 24.4474 31.4907 27.138 30.2333 29.8021C29.6354 30.9605 28.832 31.9507 27.8229 32.773C25.4036 33.9783 23.3296 33.5486 21.6009 31.4838C20.6943 29.6703 19.9096 27.8018 19.2466 25.8783C18.4132 24.1439 17.0865 23.5647 15.2667 24.1406C14.8094 24.3733 14.417 24.6909 14.0895 25.0936C13.1268 26.7571 12.1926 28.4388 11.2868 30.1385C9.92362 32.2123 7.99907 33.3148 5.51316 33.4457C4.01837 33.5205 2.52357 33.5205 1.02878 33.4457C0.722349 33.3444 0.460761 33.1762 0.244019 32.9412C0.244019 32.6049 0.244019 32.2686 0.244019 31.9322C0.413334 31.7824 0.600183 31.6516 0.804565 31.5398C1.25145 31.4839 1.69989 31.4652 2.14988 31.4838C2.13119 22.5524 2.14988 13.621 2.20593 4.68965C2.71042 2.69037 3.96232 1.43848 5.9616 0.933987C21.2833 0.859244 36.6048 0.859244 51.9264 0.933987C53.9257 1.43848 55.1776 2.69037 55.6821 4.68965C55.7569 12.8363 55.7569 20.9828 55.6821 29.1295C55.0842 29.8769 54.4862 29.8769 53.8884 29.1295C53.851 28.9801 53.8136 28.8305 53.7762 28.6811C53.7389 20.7961 53.7015 12.911 53.6641 5.02598C53.3465 3.96094 52.6552 3.2696 51.5901 2.95196C36.4927 2.87721 21.3954 2.87721 6.29792 2.95196C5.23289 3.2696 4.54154 3.96094 4.2239 5.02598C4.16785 13.8452 4.14916 22.6645 4.16785 31.4838C6.5638 31.6776 8.41361 30.7808 9.71726 28.7932C10.5753 27.0014 11.547 25.2825 12.6321 23.6361C14.6177 21.6869 16.8413 21.3692 19.3026 22.6832C20.2286 23.507 20.92 24.4972 21.3766 25.6541C21.7877 26.7752 22.1987 27.8963 22.6098 29.0174C22.9983 30.0775 23.6896 30.8435 24.6839 31.3156C25.534 31.5657 26.3 31.3976 26.9821 30.8111C27.4851 30.2533 27.9336 29.6554 28.3274 29.0174C29.5034 26.6281 30.5872 24.199 31.5786 21.7303C32.4709 19.5881 33.6853 17.6635 35.2221 15.9566C37.8603 13.7704 40.5883 13.6583 43.4061 15.6203C44.5573 16.6219 45.5475 17.7616 46.377 19.0396C48.0695 22.0134 49.6765 25.0403 51.1977 28.1205C51.8158 29.1861 52.5818 30.139 53.496 30.9793C53.8455 31.1915 54.2192 31.341 54.6171 31.4277C55.4392 31.4651 56.2614 31.5025 57.0835 31.5398C57.2878 31.6516 57.4747 31.7824 57.644 31.9322Z" fill="black"/>
</svg>
