<svg width="40" height="41" viewBox="0 0 40 41" fill="none" xmlns="http://www.w3.org/2000/svg">
<circle cx="20" cy="20.0566" r="19.5" stroke="#3F80FF"/>
<path d="M30 30.75H13C10.93 30.75 9.25 29.07 9.25 27V10C9.25 9.59 9.59 9.25 10 9.25C10.41 9.25 10.75 9.59 10.75 10V27C10.75 28.24 11.76 29.25 13 29.25H30C30.41 29.25 30.75 29.59 30.75 30C30.75 30.41 30.41 30.75 30 30.75Z" fill="#3F80FF"/>
<path d="M12.9998 25.7498C12.8298 25.7498 12.6498 25.6898 12.5098 25.5698C12.1998 25.2998 12.1598 24.8298 12.4298 24.5098L17.0198 19.1498C17.5198 18.5698 18.2398 18.2198 18.9998 18.1898C19.7598 18.1698 20.5098 18.4498 21.0498 18.9898L21.9998 19.9398C22.2498 20.1898 22.5798 20.3098 22.9298 20.3098C23.2798 20.2998 23.5998 20.1398 23.8298 19.8698L28.4198 14.5098C28.6898 14.1998 29.1598 14.1598 29.4798 14.4298C29.7898 14.6998 29.8298 15.1698 29.5598 15.4898L24.9698 20.8498C24.4698 21.4298 23.7498 21.7798 22.9898 21.8098C22.2298 21.8298 21.4798 21.5498 20.9398 21.0098L19.9998 20.0598C19.7498 19.8098 19.4198 19.6798 19.0698 19.6898C18.7198 19.6998 18.3998 19.8598 18.1698 20.1298L13.5798 25.4898C13.4198 25.6598 13.2098 25.7498 12.9998 25.7498Z" fill="#3F80FF"/>
</svg>
