<svg width="116" height="56" viewBox="0 0 116 56" fill="none" xmlns="http://www.w3.org/2000/svg">
<g clip-path="url(#clip0_289_37759)">
<g clip-path="url(#clip1_289_37759)">
<g clip-path="url(#clip2_289_37759)">
<path d="M0.950195 6.25049H38.4503V43.7493H0.950195V6.25049Z" fill="white"/>
<path d="M46.7842 20.8489H49.0036V24.0335H51.6358V20.8489H53.8621V29.1804H51.6358V25.6082H49.0036V29.1804H46.7842V20.8489Z" fill="white"/>
<path d="M57.1735 26.7335C57.1735 26.1375 57.4599 25.8383 57.9283 25.5891C58.5602 26.1708 59.1867 26.7688 59.7792 27.4238C59.3638 27.738 59.0135 27.8826 58.5133 27.8826C57.8421 27.8826 57.1735 27.4516 57.1735 26.7335ZM61.6328 24.6667C61.6111 25.2023 61.4685 25.752 61.0857 26.1715C60.6181 25.7181 60.1362 25.2755 59.6475 24.8452C60.5353 24.3294 61.4407 23.7932 61.4407 22.7405C61.4407 21.1841 60.0086 20.6853 58.5473 20.6853C57.2401 20.6853 55.7706 21.2072 55.7706 22.6794C55.7706 23.4104 56.1072 23.9819 56.7785 24.5092C55.7495 24.9891 55.1387 25.623 55.1387 26.7803C55.1387 28.5016 56.7092 29.316 58.2969 29.316C59.2043 29.316 60.1756 29.1634 60.8917 28.5389C61.0756 28.7304 61.2243 28.9455 61.3939 29.1728H63.7743L62.2926 27.5228C63.0663 26.7552 63.5225 25.7283 63.5733 24.666L61.6328 24.6667ZM57.6887 22.7873C57.6887 22.3692 58.0565 22.0461 58.5751 22.0461C59.0889 22.0461 59.5056 22.2973 59.5056 22.7873C59.5056 23.3378 58.8948 23.6737 58.4903 23.9133C58.155 23.6486 57.6887 23.2672 57.6887 22.7873Z" fill="white"/>
<path d="M66.9507 22.4073H67.5412C68.3842 22.4073 69.1654 22.5497 69.1654 23.3276C69.1654 24.269 68.2572 24.2934 67.5412 24.2934H66.9507V22.4073ZM64.7292 29.1729H66.9507V25.8701H67.4183C68.2423 25.8701 68.5301 26.2326 68.9849 27.6661L69.4634 29.1729H71.7806L70.9722 26.8984C70.5541 25.8844 70.5052 25.2491 69.7891 25.0584V25.0366C70.8602 24.7842 71.3876 24.043 71.3876 22.9299C71.3876 21.4963 70.1842 20.8271 68.6978 20.8271H64.7285L64.7292 29.1729Z" fill="white"/>
<path d="M78.5892 25.6332H79.2678C80.0341 25.6332 80.9114 25.7181 80.9114 26.6283C80.9114 27.4767 80.0591 27.5935 79.2459 27.5935H78.5892V25.6332ZM76.3643 29.1729H79.8787C81.3771 29.1729 83.1356 28.7555 83.1356 26.7552C83.1356 25.7418 82.5575 25.1418 81.4497 24.9165V24.8908C82.3817 24.5819 82.9161 23.9935 82.9161 22.9428C82.9161 21.5066 81.7599 20.8271 80.2037 20.8271H76.365L76.3643 29.1729ZM78.5892 22.4073H79.2326C79.9748 22.4073 80.6919 22.4778 80.6919 23.2448C80.6919 23.9493 79.9388 24.1258 79.2099 24.1258H78.5885L78.5892 22.4073Z" fill="white"/>
<path d="M84.4004 20.8279H86.6261V27.5236H90.0674V29.1729H84.4004V20.8279Z" fill="white"/>
<path d="M92.646 25.002C92.646 23.555 93.1827 22.3339 94.5319 22.3339C95.885 22.3339 96.4256 23.555 96.4256 25.002C96.4256 26.3779 95.885 27.6667 94.5319 27.6667C93.1827 27.6667 92.646 26.3779 92.646 25.002ZM90.3516 25.002C90.3516 27.6511 91.8078 29.316 94.5319 29.316C97.2599 29.316 98.7185 27.6511 98.7185 25.002C98.7185 22.3224 97.2818 20.6853 94.5319 20.6853C91.7804 20.6853 90.3516 22.3224 90.3516 25.002Z" fill="white"/>
<path d="M106.865 28.9794C106.231 29.1348 105.522 29.316 104.39 29.316C102.167 29.316 99.5957 28.1934 99.5957 25.0366C99.5957 22.1289 101.623 20.6846 104.375 20.6846C105.228 20.6846 106.054 20.8753 106.853 21.1149L106.674 22.9169C105.953 22.5219 105.263 22.3332 104.499 22.3332C102.915 22.3332 101.887 23.4803 101.887 25.0366C101.887 26.6751 103.048 27.6661 104.674 27.6661C105.405 27.6661 106.148 27.476 106.754 27.2329L106.865 28.9794Z" fill="white"/>
<path d="M107.901 20.8406H110.108V24.2512H110.132L112.692 20.8406H115.338L112.289 24.7229L115.575 29.1714H112.776L110.132 25.3806H110.108V29.1714H107.901V20.8406Z" fill="white"/>
</g>
</g>
</g>
<defs>
<clipPath id="clip0_289_37759">
<rect width="114.85" height="50" fill="white" transform="translate(0.950195)"/>
</clipPath>
<clipPath id="clip1_289_37759">
<rect width="114.85" height="50" fill="white" transform="translate(0.950195)"/>
</clipPath>
<clipPath id="clip2_289_37759">
<rect width="114.84" height="49.9984" fill="white" transform="translate(0.950195 0.000732422)"/>
</clipPath>
</defs>
</svg>
