<svg width="58" height="58" viewBox="0 0 58 58" fill="none" xmlns="http://www.w3.org/2000/svg">
<g clip-path="url(#clip0_35_8559)">
<path opacity="0.94" fill-rule="evenodd" clip-rule="evenodd" d="M52.9353 0.244141C53.5332 0.244141 54.1312 0.244141 54.7291 0.244141C56.1865 0.729948 57.1581 1.70156 57.6439 3.15898C57.6439 3.7569 57.6439 4.35482 57.6439 4.95273C56.5589 7.70074 54.6343 8.52287 51.8703 7.41914C48.5257 10.7637 45.181 14.1084 41.8365 17.4529C42.7909 19.4647 42.4172 21.1837 40.7154 22.61C39.0934 23.4883 37.5239 23.4136 36.0068 22.3857C34.591 20.9364 34.2734 19.2735 35.0539 17.3969C33.6898 16.0328 32.3259 14.6689 30.9619 13.3049C30.5181 13.3895 30.0697 13.5016 29.6166 13.6412C28.4459 13.8072 27.3996 13.527 26.4775 12.8004C20.2383 18.9836 14.0162 25.1869 7.81128 31.4105C8.21118 33.0661 7.8188 34.5048 6.63413 35.7268C4.49757 37.1363 2.57304 36.8934 0.860498 34.998C0.618129 34.5517 0.412595 34.1033 0.243896 33.6527C0.243896 33.0549 0.243896 32.4569 0.243896 31.859C1.01332 29.6232 2.58285 28.6703 4.95249 29.0002C5.54031 29.2022 6.10086 29.4264 6.63413 29.6728C12.8189 23.4881 19.0035 17.3035 25.1882 11.1187C24.6984 8.60377 25.6514 6.90344 28.047 6.01777C30.8727 5.74138 32.4796 7.01195 32.8677 9.82949C32.8164 10.5066 32.6295 11.1419 32.3072 11.7354C33.6898 13.118 35.0726 14.5008 36.4552 15.8834C37.1218 15.6829 37.8132 15.5521 38.5292 15.491C39.2176 15.5042 39.8529 15.691 40.4351 16.0516C43.7797 12.707 47.1243 9.36237 50.4689 6.01777C49.3652 3.25367 50.1873 1.32913 52.9353 0.244141ZM53.2716 2.26211C54.9324 2.18508 55.6985 2.96984 55.5699 4.61641C54.946 5.9077 53.9931 6.22536 52.7111 5.56934C51.5823 4.23739 51.7691 3.13497 53.2716 2.26211ZM28.4955 7.97969C29.8233 7.90626 30.608 8.52286 30.8498 9.82949C30.6322 11.0938 29.8847 11.6917 28.6076 11.6232C27.1682 11.082 26.7758 10.1291 27.4304 8.76445C27.7139 8.38497 28.069 8.12339 28.4955 7.97969ZM38.1369 17.509C39.2402 17.4354 39.969 17.9213 40.323 18.9664C40.4545 20.0299 40.0248 20.7586 39.0337 21.1525C37.3708 21.2834 36.6047 20.5172 36.7355 18.8543C36.983 18.1634 37.4502 17.7149 38.1369 17.509ZM3.49507 30.9621C4.8604 30.8346 5.68254 31.4325 5.96147 32.7559C5.812 33.877 5.17671 34.5123 4.05562 34.6617C2.45522 34.2637 1.95073 33.2922 2.54214 31.7469C2.81582 31.4157 3.13346 31.1542 3.49507 30.9621Z" fill="#2D2D2D"/>
<path opacity="0.949" fill-rule="evenodd" clip-rule="evenodd" d="M57.644 56.186C57.644 56.5223 57.644 56.8586 57.644 57.195C57.4571 57.3071 57.3077 57.4565 57.1956 57.6434C54.9534 57.6434 52.7112 57.6434 50.469 57.6434C50.1938 57.4595 50.0256 57.198 49.9645 56.8586C49.9085 46.9183 49.8898 36.9779 49.9085 27.0375C48.6753 27.0375 47.4421 27.0375 46.2089 27.0375C46.2276 37.0527 46.2089 47.0678 46.1528 57.0828C46.0379 57.328 45.8697 57.5149 45.6483 57.6434C44.0788 57.6434 42.5093 57.6434 40.9397 57.6434C40.7183 57.5149 40.5501 57.328 40.4352 57.0828C40.3792 51.5523 40.3605 46.0215 40.3792 40.4907C39.146 40.4907 37.9128 40.4907 36.6796 40.4907C36.6983 46.0589 36.6796 51.6269 36.6235 57.195C36.4692 57.33 36.3385 57.4795 36.2311 57.6434C34.5868 57.6434 32.9426 57.6434 31.2983 57.6434C31.1909 57.4795 31.0602 57.33 30.9059 57.195C30.8499 49.7211 30.8312 42.2471 30.8499 34.7731C29.5793 34.7731 28.3087 34.7731 27.0382 34.7731C27.0569 42.2471 27.0382 49.7211 26.9821 57.195C26.8278 57.33 26.6971 57.4795 26.5897 57.6434C24.9829 57.6434 23.3759 57.6434 21.769 57.6434C21.4938 57.4595 21.3256 57.198 21.2645 56.8586C21.2085 50.7675 21.1898 44.6761 21.2085 38.5848C19.9753 38.5848 18.7421 38.5848 17.5089 38.5848C17.5276 44.7509 17.5089 50.9169 17.4528 57.0828C17.3379 57.328 17.1697 57.5149 16.9483 57.6434C15.3788 57.6434 13.8093 57.6434 12.2397 57.6434C12.0183 57.5149 11.8501 57.328 11.7352 57.0828C11.6792 53.4581 11.6605 49.8333 11.6792 46.2082C10.446 46.2082 9.21277 46.2082 7.97957 46.2082C7.99824 49.7585 7.97957 53.3087 7.92351 56.8586C7.86241 57.198 7.69425 57.4595 7.41902 57.6434C5.17683 57.6434 2.93464 57.6434 0.692456 57.6434C0.580347 57.4565 0.430868 57.3071 0.244019 57.195C0.244019 56.8586 0.244019 56.5223 0.244019 56.186C0.47449 55.9002 0.773448 55.732 1.14089 55.6815C2.74736 55.6254 4.35426 55.6067 5.9616 55.6254C5.94292 52.0004 5.9616 48.3755 6.01765 44.7508C6.15524 44.5013 6.36078 44.3331 6.63425 44.2463C8.76433 44.1715 10.8944 44.1715 13.0245 44.2463C13.3048 44.3771 13.5103 44.5826 13.6411 44.8629C13.6971 48.4502 13.7159 52.0377 13.6971 55.6254C14.295 55.6254 14.893 55.6254 15.4909 55.6254C15.4722 49.4966 15.4909 43.3681 15.5469 37.2395C15.6337 36.966 15.8019 36.7604 16.0514 36.6229C18.2563 36.5481 20.461 36.5481 22.6659 36.6229C22.9088 36.7163 23.077 36.8844 23.1704 37.1274C23.2264 43.2933 23.2452 49.4593 23.2264 55.6254C23.8243 55.6254 24.4223 55.6254 25.0202 55.6254C25.0015 48.3009 25.0202 40.9763 25.0762 33.652C25.1023 33.289 25.2704 33.0087 25.5807 32.8112C27.8229 32.7364 30.0651 32.7364 32.3073 32.8112C32.6176 33.0087 32.7858 33.289 32.8118 33.652C32.8678 40.9763 32.8866 48.3009 32.8678 55.6254C33.4657 55.6254 34.0637 55.6254 34.6616 55.6254C34.6429 50.2067 34.6616 44.788 34.7177 39.3696C34.7742 38.9749 34.9797 38.6947 35.3343 38.5287C37.5017 38.454 39.6692 38.454 41.8366 38.5287C42.0862 38.6663 42.2543 38.8719 42.3411 39.1453C42.3971 44.6386 42.4159 50.1319 42.3971 55.6254C42.995 55.6254 43.593 55.6254 44.1909 55.6254C44.1722 45.685 44.1909 35.7446 44.2469 25.8043C44.356 25.3664 44.6363 25.1235 45.0878 25.0756C47.0684 25.0008 49.0489 25.0008 51.0296 25.0756C51.4354 25.1075 51.7157 25.3129 51.8704 25.6922C51.9264 35.6698 51.9452 45.6476 51.9264 55.6254C53.5338 55.6067 55.1407 55.6254 56.7471 55.6815C57.1146 55.732 57.4135 55.9002 57.644 56.186Z" fill="#2D2D2D"/>
</g>
<defs>
<clipPath id="clip0_35_8559">
<rect width="57.4" height="57.4" fill="white" transform="translate(0.300049 0.299805)"/>
</clipPath>
</defs>
</svg>
