<svg width="150" height="36" viewBox="0 0 150 36" fill="none" xmlns="http://www.w3.org/2000/svg">
<path d="M9.67365 35.2859C7.54513 35.2859 5.78195 34.9206 4.38412 34.1899C3.01805 33.4592 2.00144 32.522 1.3343 31.3783C0.667148 30.2347 0.333574 29.0592 0.333574 27.852C0.333574 26.6765 0.619495 25.5646 1.19134 24.5162C1.76318 23.4361 2.57329 22.5466 3.62166 21.8477C4.70181 21.1487 5.97256 20.7993 7.43394 20.7993C7.40217 21.0852 7.38628 21.3552 7.38628 21.6094C7.38628 21.8318 7.38628 21.943 7.38628 21.943C7.38628 24.0715 7.59278 25.7552 8.00578 26.9942C8.41877 28.2014 8.94296 29.0751 9.57834 29.6152C10.2137 30.1235 10.865 30.3776 11.5321 30.3776C12.5487 30.3776 13.4542 29.9805 14.2484 29.1863C15.0426 28.3603 15.4397 27.4072 15.4397 26.3271C15.4397 25.1199 14.9155 24.0556 13.8671 23.1343C12.8505 22.213 11.548 21.1964 9.95957 20.0845C9.07004 19.4173 8.11697 18.6708 7.10036 17.8448C6.11552 16.987 5.27365 15.9863 4.57473 14.8426C3.87581 13.6671 3.52635 12.2852 3.52635 10.6967C3.52635 9.04476 3.90758 7.58339 4.67004 6.31263C5.46426 5.04187 6.49675 3.97762 7.76751 3.11985C9.07004 2.23032 10.4838 1.56317 12.0087 1.11841C13.5653 0.641876 15.1061 0.403609 16.631 0.403609C18.5054 0.403609 20.0462 0.705414 21.2534 1.30902C22.4607 1.91263 23.3661 2.69097 23.9697 3.64404C24.5733 4.59711 24.8751 5.58195 24.8751 6.59855C24.8751 7.55162 24.6051 8.47292 24.065 9.36245C23.5567 10.2202 22.7942 10.9191 21.7776 11.4592C20.761 11.9993 19.5061 12.2693 18.013 12.2693C18.1083 11.8245 18.1718 11.4274 18.2036 11.078C18.2354 10.6967 18.2513 10.3632 18.2513 10.0773C18.2513 8.48881 17.9018 7.36101 17.2029 6.69386C16.5357 5.99494 15.7892 5.64548 14.9632 5.64548C14.169 5.64548 13.4065 5.94729 12.6758 6.5509C11.9451 7.12274 11.5798 8.05992 11.5798 9.36245C11.5798 10.4744 11.8657 11.4274 12.4375 12.2217C13.0412 13.0159 13.8036 13.7148 14.7249 14.3184C15.678 14.922 16.6787 15.5097 17.7271 16.0816C18.8072 16.6534 19.8397 17.2888 20.8245 17.9877C21.8412 18.6549 22.683 19.4491 23.3502 20.3704C24.0173 21.2917 24.3509 22.4513 24.3509 23.8491C24.3509 25.3105 23.9538 26.7401 23.1596 28.1379C22.3653 29.504 21.2852 30.7271 19.9191 31.8072C18.5531 32.8556 16.9805 33.6975 15.2014 34.3329C13.4542 34.9682 11.6116 35.2859 9.67365 35.2859ZM37.4098 35.3336C35.0907 35.3336 33.1687 34.8729 31.6437 33.9516C30.1188 32.9986 28.9751 31.7596 28.2127 30.2347C27.4502 28.678 27.069 27.0101 27.069 25.231C27.069 23.5473 27.3867 21.8635 28.0221 20.1798C28.6892 18.4643 29.6423 16.9076 30.8813 15.5097C32.152 14.1119 33.677 12.9841 35.456 12.1264C37.2668 11.2686 39.3001 10.8397 41.5557 10.8397C44.3513 10.8397 46.3845 11.4751 47.6553 12.7458C48.9578 13.9848 49.6091 15.4939 49.6091 17.2729C49.6091 18.7978 49.1961 20.2116 48.3701 21.5141C47.5759 22.7848 46.5116 23.8173 45.1773 24.6116C43.843 25.374 42.3816 25.7552 40.7932 25.7552C39.9672 25.7552 39.1253 25.6282 38.2676 25.374C37.4098 25.1199 36.5679 24.7227 35.7419 24.1827C35.9008 26.1523 36.4726 27.5819 37.4575 28.4715C38.4423 29.361 39.6177 29.8058 40.9838 29.8058C41.9369 29.8058 42.89 29.631 43.843 29.2816C44.7961 28.9004 45.6697 28.4238 46.464 27.852C47.29 27.2484 47.9253 26.613 48.3701 25.9458L48.7037 26.1841C48.7037 27.8361 48.3542 29.2498 47.6553 30.4253C46.9881 31.569 46.0986 32.5061 44.9867 33.2368C43.8748 33.9675 42.6517 34.5076 41.3174 34.857C40.0149 35.1747 38.7123 35.3336 37.4098 35.3336ZM38.5058 22.4671C39.5224 22.4671 40.3484 22.1812 40.9838 21.6094C41.6192 21.0058 42.0957 20.3069 42.4134 19.5126C42.7311 18.7184 42.89 18.0195 42.89 17.4159C42.89 16.6852 42.6835 16.0816 42.2705 15.6051C41.8575 15.0968 41.2856 14.8426 40.5549 14.8426C39.9831 14.8426 39.3477 15.0491 38.6488 15.4621C37.9816 15.8751 37.378 16.5899 36.838 17.6065C36.2979 18.5913 35.9484 19.9733 35.7896 21.7523C36.8062 22.2289 37.7116 22.4671 38.5058 22.4671ZM57.2612 35.1906C56.4034 35.1906 55.5615 34.9841 54.7355 34.5711C53.9413 34.1264 53.2901 33.4274 52.7818 32.4744C52.2735 31.5213 52.0193 30.2982 52.0193 28.8051C52.0193 27.4708 52.194 25.9141 52.5435 24.135C52.9247 22.3242 53.3377 20.4498 53.7825 18.5119C54.259 16.574 54.672 14.6838 55.0215 12.8412C55.3709 10.9986 55.5298 9.36245 55.498 7.93285C55.498 6.56679 55.3392 5.59783 55.0215 5.02599L54.9738 4.88303C55.3233 3.86642 55.9428 3.0722 56.8323 2.50036C57.7218 1.92852 58.659 1.6426 59.6439 1.6426C60.7558 1.6426 61.7406 2.07148 62.5984 2.92924C63.4879 3.75523 63.9327 5.15307 63.9327 7.12274C63.9327 8.17112 63.8056 9.42599 63.5514 10.8874C63.2973 12.317 62.9955 13.8578 62.646 15.5097C62.2966 17.13 61.9312 18.7343 61.55 20.3227C61.2005 21.9112 60.8987 23.3726 60.6446 24.7069C60.3904 26.0412 60.2633 27.1372 60.2633 27.9949C60.2633 28.8845 60.3904 29.504 60.6446 29.8534C60.8987 30.1711 61.1846 30.33 61.5023 30.33C61.8518 30.33 62.1854 30.2029 62.5031 29.9487C62.8207 29.6628 63.0272 29.4087 63.1226 29.1863L63.5038 29.2816C63.472 30.4253 63.1384 31.4419 62.5031 32.3314C61.8994 33.2209 61.1211 33.9199 60.168 34.4282C59.2467 34.9365 58.2778 35.1906 57.2612 35.1906ZM71.8271 35.1906C70.9694 35.1906 70.1275 34.9841 69.3015 34.5711C68.5073 34.1264 67.856 33.4274 67.3477 32.4744C66.8394 31.5213 66.5852 30.2982 66.5852 28.8051C66.5852 27.4708 66.76 25.9141 67.1094 24.135C67.4907 22.3242 67.9037 20.4498 68.3484 18.5119C68.825 16.574 69.238 14.6838 69.5874 12.8412C69.9369 10.9986 70.0957 9.36245 70.0639 7.93285C70.0639 6.56679 69.9051 5.59783 69.5874 5.02599L69.5398 4.88303C69.8892 3.86642 70.5087 3.0722 71.3982 2.50036C72.2878 1.92852 73.225 1.6426 74.2098 1.6426C75.3217 1.6426 76.3065 2.07148 77.1643 2.92924C78.0538 3.75523 78.4986 5.15307 78.4986 7.12274C78.4986 8.17112 78.3715 9.42599 78.1174 10.8874C77.8632 12.317 77.5614 13.8578 77.212 15.5097C76.8625 17.13 76.4972 18.7343 76.1159 20.3227C75.7665 21.9112 75.4647 23.3726 75.2105 24.7069C74.9564 26.0412 74.8293 27.1372 74.8293 27.9949C74.8293 28.8845 74.9564 29.504 75.2105 29.8534C75.4647 30.1711 75.7506 30.33 76.0683 30.33C76.4177 30.33 76.7513 30.2029 77.069 29.9487C77.3867 29.6628 77.5932 29.4087 77.6885 29.1863L78.0697 29.2816C78.038 30.4253 77.7044 31.4419 77.069 32.3314C76.4654 33.2209 75.687 33.9199 74.734 34.4282C73.8127 34.9365 72.8437 35.1906 71.8271 35.1906Z" fill="#3F80FF"/>
<path d="M111.015 35.3336C109.744 35.3336 108.696 35.0477 107.87 34.4758C107.044 33.904 106.377 33.1415 105.868 32.1884C105.36 31.2036 104.947 30.1235 104.629 28.948C104.344 27.7408 104.073 26.5336 103.819 25.3264C103.502 23.6426 103.105 22.07 102.628 20.6087C102.183 19.1473 101.453 18.1307 100.436 17.5588C99.8006 19.878 99.1969 22.213 98.6251 24.5639C98.0533 26.883 97.7673 29.1863 97.7673 31.4736C97.7673 31.8231 97.7673 32.1884 97.7673 32.5697C97.7991 32.9191 97.8309 33.2686 97.8627 33.6181C96.7507 34.6664 95.4641 35.1906 94.0027 35.1906C92.7955 35.1906 91.6995 34.73 90.7146 33.8087C89.7616 32.8874 89.285 31.3942 89.285 29.3292C89.285 27.7726 89.5392 26.1841 90.0475 24.5639C90.5558 22.9437 91.1435 21.3076 91.8107 19.6556C92.5096 18.0036 93.1132 16.3675 93.6215 14.7473C94.1298 13.0953 94.3839 11.4751 94.3839 9.88664C94.3839 8.83827 94.2569 8.10758 94.0027 7.69458C93.7486 7.24982 93.415 7.02744 93.002 7.02744C92.5572 7.02744 92.0648 7.24982 91.5247 7.69458C91.0164 8.13935 90.524 8.82238 90.0475 9.74368L89.7139 9.64837C89.7775 8.02816 90.1428 6.53502 90.8099 5.16895C91.4771 3.80289 92.3666 2.72274 93.4785 1.92852C94.6222 1.10253 95.8612 0.689528 97.1955 0.689528C98.5298 0.689528 99.7052 1.19783 100.722 2.21444C101.738 3.19928 102.247 4.9148 102.247 7.36101C102.247 8.44115 102.136 9.60072 101.913 10.8397C101.723 12.0469 101.484 13.2859 101.198 14.5567C102.628 13.3177 103.867 11.9516 104.915 10.4585C105.996 8.93357 106.821 7.45632 107.393 6.02671C107.997 4.56534 108.299 3.29458 108.299 2.21444C108.299 1.51552 108.156 0.927795 107.87 0.451261C109.427 0.451261 110.808 0.673644 112.016 1.11841C113.255 1.56317 114.24 2.18267 114.97 2.97689C115.701 3.73935 116.066 4.62888 116.066 5.64548C116.066 7.01155 115.288 8.50469 113.731 10.1249C112.206 11.7451 109.617 13.3495 105.964 14.9379C106.885 15.3509 107.632 15.9704 108.203 16.7964C108.807 17.5906 109.299 18.4643 109.681 19.4173C110.094 20.3386 110.443 21.244 110.729 22.1336C111.269 23.6903 111.793 25.0087 112.302 26.0888C112.842 27.1372 113.604 27.6614 114.589 27.6614C115.224 27.6614 115.78 27.4549 116.257 27.0419C116.765 26.6289 117.131 26.1682 117.353 25.6599L117.639 25.8029C117.639 27.5184 117.385 29.1069 116.876 30.5682C116.368 31.9978 115.621 33.1574 114.637 34.0469C113.652 34.9047 112.445 35.3336 111.015 35.3336ZM127.94 9.50541C126.669 9.50541 125.621 9.12419 124.795 8.36173C124 7.56751 123.603 6.58267 123.603 5.40722C123.603 4.13646 124.08 3.04043 125.033 2.11913C125.986 1.19783 127.146 0.737181 128.512 0.737181C129.782 0.737181 130.815 1.13429 131.609 1.92852C132.435 2.72274 132.848 3.70758 132.848 4.88303C132.848 6.15379 132.372 7.24982 131.418 8.17112C130.465 9.06065 129.306 9.50541 127.94 9.50541ZM124.604 35.1906C123.365 35.1906 122.253 34.7617 121.268 33.904C120.283 33.0144 119.791 31.6007 119.791 29.6628C119.791 28.5509 119.934 27.5184 120.22 26.5653C120.538 25.5805 120.887 24.6274 121.268 23.7061C121.681 22.7848 122.031 21.8953 122.317 21.0375C122.634 20.148 122.793 19.2744 122.793 18.4166C122.793 17.6542 122.666 17.1141 122.412 16.7964C122.158 16.4469 121.856 16.2722 121.507 16.2722C120.966 16.2722 120.442 16.6217 119.934 17.3206L119.6 17.13C119.728 15.8592 120.125 14.7791 120.792 13.8895C121.491 12.9682 122.333 12.2534 123.317 11.7451C124.334 11.2368 125.335 10.9827 126.32 10.9827C127.527 10.9827 128.575 11.3798 129.465 12.174C130.354 12.9365 130.799 14.1913 130.799 15.9386C130.799 16.987 130.64 18.0989 130.322 19.2744C130.037 20.418 129.687 21.5617 129.274 22.7054C128.893 23.8491 128.543 24.9134 128.226 25.8982C127.94 26.883 127.797 27.7249 127.797 28.4238C127.797 29.0274 127.908 29.4563 128.13 29.7105C128.385 29.9646 128.655 30.0917 128.941 30.0917C129.226 30.0917 129.496 30.0123 129.751 29.8534C130.037 29.6628 130.243 29.4563 130.37 29.2339L130.704 29.3292C130.704 30.5047 130.386 31.5372 129.751 32.4267C129.147 33.2845 128.385 33.9675 127.463 34.4758C126.542 34.9523 125.589 35.1906 124.604 35.1906ZM141.244 35.1906C140.228 35.1906 139.259 34.9682 138.338 34.5235C137.448 34.0469 136.717 33.3162 136.145 32.3314C135.605 31.3466 135.335 30.0917 135.335 28.5668C135.335 27.7408 135.415 26.6606 135.574 25.3264C135.732 23.9921 135.939 22.5307 136.193 20.9422C136.479 19.3538 136.765 17.7653 137.051 16.1769C136.416 16.2087 135.796 16.2722 135.192 16.3675C134.621 16.4628 134.049 16.574 133.477 16.7011L133.382 16.3675C134.017 15.6051 134.684 14.9538 135.383 14.4137C136.082 13.8736 136.813 13.4289 137.575 13.0794C137.988 10.9827 138.338 9.17184 138.623 7.64693C138.909 6.09025 139.052 5.16895 139.052 4.88303C139.052 4.34296 139.465 3.89819 140.291 3.54873C141.149 3.19928 142.102 3.02455 143.151 3.02455C144.072 3.02455 144.93 3.19928 145.724 3.54873C146.55 3.89819 147.106 4.48592 147.392 5.31191C147.201 5.50252 146.931 6.21733 146.582 7.45632C146.232 8.66354 145.867 10.1408 145.486 11.8881C146.089 11.9199 146.709 11.9516 147.344 11.9834C147.979 12.0152 148.631 12.0628 149.298 12.1264C149.361 12.317 149.409 12.5235 149.441 12.7458C149.473 12.9682 149.488 13.2065 149.488 13.4606C149.488 13.9372 149.409 14.4614 149.25 15.0332C149.123 15.5733 148.964 16.0657 148.774 16.5105C148.011 16.4469 147.296 16.3834 146.629 16.3199C145.962 16.2245 145.311 16.161 144.675 16.1292C144.421 17.4953 144.183 18.8614 143.961 20.2274C143.77 21.5935 143.611 22.8325 143.484 23.9444C143.389 25.0563 143.341 25.93 143.341 26.5653C143.341 27.8996 143.579 28.7892 144.056 29.2339C144.564 29.6787 145.168 29.9011 145.867 29.9011C146.502 29.9011 147.074 29.774 147.582 29.5199C148.091 29.2657 148.456 28.9639 148.678 28.6144L149.155 28.7574C148.964 30.0599 148.456 31.2036 147.63 32.1884C146.804 33.1415 145.819 33.8881 144.675 34.4282C143.532 34.9365 142.388 35.1906 141.244 35.1906Z" fill="white"/>
</svg>
