<svg width="70" height="71" viewBox="0 0 70 71" fill="none" xmlns="http://www.w3.org/2000/svg">
<g clip-path="url(#clip0_33_1169)">
<path opacity="0.953" fill-rule="evenodd" clip-rule="evenodd" d="M26.1899 2.3134C33.6137 2.29049 41.0374 2.3134 48.461 2.38214C51.28 3.22847 52.7235 5.13023 52.7915 8.08739C54.5149 6.56775 56.4166 6.3157 58.4967 7.33127C60.3145 8.65978 60.9332 10.4241 60.3526 12.6241C60.1012 13.2191 59.7805 13.769 59.3903 14.2738C58.514 15.1957 57.6892 16.158 56.9157 17.1608C56.2241 18.0098 55.4909 18.0556 54.7161 17.2983C54.558 16.9884 54.5121 16.6677 54.5786 16.3359C55.7242 14.9154 56.8699 13.4948 58.0155 12.0742C58.4856 10.356 57.844 9.34782 56.0909 9.04972C55.6607 9.02623 55.2711 9.14078 54.9223 9.39341C54.1636 10.1566 53.4533 10.9585 52.7915 11.7992C52.7227 14.7775 52.6998 17.7562 52.7227 20.7352C55.9711 21.1341 57.4146 22.9671 57.0532 26.2342C56.835 27.1982 56.3539 28.0001 55.6097 28.64C57.9003 30.2367 58.4732 32.3218 57.3282 34.8952C56.6439 35.7857 55.9336 36.6565 55.1973 37.5072C57.7527 39.0662 58.4172 41.22 57.1907 43.9686C56.3026 45.0861 55.3631 46.1631 54.3724 47.1993C53.8517 47.4712 53.3247 47.7232 52.7915 47.9554C53.2523 51.0435 52.1295 53.3119 49.4233 54.7604C49.1088 54.8734 48.7879 54.9651 48.461 55.0354C44.1992 55.1271 39.9375 55.1271 35.6757 55.0354C35.2611 54.8252 35.0778 54.4815 35.1258 54.0043C35.0778 53.5271 35.2611 53.1835 35.6757 52.9733C39.525 52.9275 43.3744 52.8816 47.2237 52.8358C48.6155 52.7702 49.6008 52.1058 50.1794 50.8424C50.4582 49.8545 50.5727 48.8462 50.5231 47.8179C48.0205 46.9865 46.9436 45.2452 47.2924 42.5938C47.4219 42.1136 47.6052 41.6554 47.8423 41.2191C48.5008 40.3311 49.2112 39.4833 49.9732 38.6758C47.8588 37.5397 47.011 35.7754 47.4299 33.3829C47.6214 32.8625 47.8504 32.3585 48.1173 31.8707C48.7817 31.1146 49.4463 30.3585 50.1107 29.6024C47.7908 27.9437 47.2638 25.8128 48.5297 23.2097C49.0796 22.4766 49.7212 21.835 50.4544 21.2851C50.5461 16.7941 50.5461 12.3033 50.4544 7.81244C50.2024 5.91069 49.1254 4.83379 47.2237 4.58176C40.6248 4.4901 34.026 4.4901 27.4272 4.58176C25.5277 4.83152 24.4508 5.90842 24.1965 7.81244C24.1048 17.7107 24.1048 27.609 24.1965 37.5072C29.7171 41.9037 32.5582 47.6319 32.72 54.6917C31.9936 55.2729 31.3062 55.2272 30.6578 54.5542C30.0978 47.9789 27.2108 42.709 21.9969 38.7445C21.9511 35.0784 21.9052 31.4125 21.8594 27.7464C21.9059 26.2831 21.5851 24.9084 20.8971 23.6222C20.0183 22.5758 18.8955 22.1176 17.5289 22.2474C17.5519 25.7763 17.5289 29.3047 17.4602 32.833C16.8186 35.8575 16.1771 38.882 15.5355 41.9064C15.425 43.3325 15.4707 44.7532 15.673 46.1682C16.6075 49.2926 17.5699 52.4088 18.56 55.5166C18.6517 55.929 18.6517 56.3414 18.56 56.7538C16.6811 60.5115 14.8023 64.2692 12.9235 68.0269C11.4644 68.6737 10.8229 68.2155 10.9988 66.6521C12.7631 63.1235 14.5274 59.5951 16.2916 56.0665C15.0785 52.588 14.0475 49.0595 13.1984 45.4808C13.0849 43.9174 13.1307 42.3593 13.3359 40.8066C13.9949 37.8318 14.6365 34.8532 15.2605 31.8707C15.3063 28.0672 15.3522 24.2638 15.398 20.4602C15.5649 20.2473 15.7711 20.087 16.0167 19.979C17.5623 19.797 19.0745 19.9345 20.5534 20.3915C21.0117 20.5745 21.4241 20.8266 21.7907 21.1476C21.9052 16.2907 21.9739 11.4333 21.9969 6.57515C22.5947 4.3506 23.9925 2.93001 26.1899 2.3134ZM52.1728 23.0723C54.0037 23.0927 54.8515 24.0092 54.7161 25.8218C53.7578 27.8839 52.383 28.2506 50.5918 26.9216C49.9391 25.1564 50.4662 23.8733 52.1728 23.0723ZM52.8602 30.496C54.4346 30.3513 55.351 31.0617 55.6097 32.6268C55.5345 33.1664 55.3283 33.6476 54.9911 34.0703C54.4412 34.7119 53.8913 35.3534 53.3414 35.995C51.8539 37.0173 50.6624 36.7423 49.767 35.1701C49.6753 34.7119 49.6753 34.2536 49.767 33.7954C50.6011 32.4811 51.6321 31.3813 52.8602 30.496ZM52.7227 39.5694C54.5936 39.447 55.4872 40.3176 55.4035 42.1814C55.266 42.4563 55.1285 42.7313 54.9911 43.0063C54.3724 43.7166 53.7538 44.4268 53.1351 45.1371C52.2471 45.7116 51.3305 45.7574 50.3856 45.2746C49.6948 44.6685 49.4428 43.9124 49.6295 43.0063C50.4071 41.6111 51.4381 40.4656 52.7227 39.5694Z" fill="#202020"/>
<path opacity="0.976" fill-rule="evenodd" clip-rule="evenodd" d="M33.4754 6.71257C36.0421 6.68966 38.6082 6.71258 41.174 6.7813C41.426 6.85004 41.5865 7.01043 41.6552 7.26247C41.7469 7.62908 41.7469 7.99567 41.6552 8.36228C41.5865 8.61431 41.426 8.7747 41.174 8.84344C38.6078 8.9351 36.0417 8.9351 33.4754 8.84344C33.0608 8.6333 32.8775 8.28961 32.9255 7.81237C32.8955 7.32216 33.0789 6.95555 33.4754 6.71257Z" fill="#202020"/>
<path opacity="0.929" fill-rule="evenodd" clip-rule="evenodd" d="M35.6745 15.5112C37.7738 15.2857 39.7901 15.5836 41.7234 16.4048C42.3964 17.0531 42.4422 17.7405 41.8609 18.4669C41.65 18.5938 41.4209 18.6626 41.1735 18.6731C37.316 16.9854 33.9937 17.7186 31.2065 20.8728C29.0732 24.3818 29.3253 27.7041 31.9626 30.8398C34.2317 32.8847 36.8437 33.4804 39.7988 32.6269C43.0293 31.3179 44.7937 28.9121 45.0916 25.4095C45.7182 24.5699 46.4056 24.5241 47.1537 25.272C47.2089 29.2604 45.4904 32.2619 41.9984 34.2767C37.0164 36.3877 32.7775 35.4026 29.2819 31.3209C27.3542 28.4811 26.896 25.4108 27.9071 22.11C29.3212 18.5075 31.9104 16.3079 35.6745 15.5112Z" fill="#202020"/>
<path opacity="0.924" fill-rule="evenodd" clip-rule="evenodd" d="M44.4737 19.2227C45.8967 19.0488 46.4236 19.6445 46.0546 21.0099C43.3739 23.6907 40.6931 26.3715 38.0123 29.0522C37.4808 29.3437 36.9767 29.2978 36.5001 28.9148C35.3773 27.792 34.2547 26.6694 33.1319 25.5466C32.6407 24.1597 33.1219 23.5411 34.5754 23.6907C35.5564 24.5341 36.4958 25.4277 37.3937 26.3715C39.7813 24.0067 42.1414 21.6237 44.4737 19.2227Z" fill="#202020"/>
<path opacity="0.97" fill-rule="evenodd" clip-rule="evenodd" d="M45.5733 57.3037C46.9247 57.074 47.4517 57.6239 47.1543 58.9534C45.1215 62.4113 42.0742 64.1068 38.0122 64.04C37.6914 64.6816 37.3706 65.3231 37.0498 65.9647C42.09 66.0792 47.1308 66.1479 52.1722 66.1709C52.5868 66.3811 52.7701 66.7248 52.7221 67.202C52.7701 67.6791 52.5868 68.0228 52.1722 68.233C43.0071 68.3247 33.8421 68.3247 24.677 68.233C24.425 68.1643 24.2646 68.0039 24.1958 67.7519C24.1042 67.3852 24.1042 67.0187 24.1958 66.6521C24.2646 66.4001 24.425 66.2396 24.677 66.1709C27.9316 66.1479 31.1851 66.0792 34.4378 65.9647C35.1076 64.6022 35.795 63.2502 36.4999 61.9091C37.7655 61.6411 39.0486 61.4578 40.3493 61.3592C41.8466 61.0576 43.1069 60.3474 44.1298 59.2284C44.582 58.5476 45.0632 57.906 45.5733 57.3037Z" fill="#202020"/>
<path opacity="0.903" fill-rule="evenodd" clip-rule="evenodd" d="M55.471 66.1021C56.7908 65.7973 57.4095 66.3015 57.327 67.6144C57.219 67.8599 57.0587 68.0661 56.8458 68.233C55.3825 68.6402 54.7639 68.1133 54.9899 66.652C55.0847 66.3977 55.245 66.2143 55.471 66.1021Z" fill="#202020"/>
</g>
<defs>
<clipPath id="clip0_33_1169">
<rect width="70" height="70" fill="white" transform="translate(0 0.307495)"/>
</clipPath>
</defs>
</svg>
