<svg width="24" height="25" viewBox="0 0 24 25" fill="none" xmlns="http://www.w3.org/2000/svg">
<circle cx="12" cy="12.5889" r="12" fill="white"/>
<path d="M5.81934 17.1711V14.1786C5.81934 12.8736 6.87684 11.8086 8.18934 11.8086H15.8168C17.1218 11.8086 18.1868 12.8661 18.1868 14.1786V17.1711C18.1868 18.4761 17.1293 19.5411 15.8168 19.5411H8.18934C6.87684 19.5411 5.81934 18.4836 5.81934 17.1711Z" stroke="#284D80" stroke-width="1.5" stroke-linecap="round" stroke-linejoin="round"/>
<path d="M8.13672 11.816V9.52852C8.13672 7.39852 9.86921 5.66602 11.9992 5.66602C14.1292 5.66602 15.8617 7.39852 15.8617 9.52852V11.816H8.13672Z" stroke="#284D80" stroke-width="1.5" stroke-linecap="round" stroke-linejoin="round"/>
<path d="M12 17.2241V15.2891" stroke="#284D80" stroke-width="1.5" stroke-linecap="round" stroke-linejoin="round"/>
<path d="M11.9991 15.6788C12.4257 15.6788 12.7716 15.3329 12.7716 14.9063C12.7716 14.4796 12.4257 14.1338 11.9991 14.1338C11.5724 14.1338 11.2266 14.4796 11.2266 14.9063C11.2266 15.3329 11.5724 15.6788 11.9991 15.6788Z" fill="#FF7979" stroke="#284D80" stroke-width="1.5" stroke-linecap="round" stroke-linejoin="round"/>
</svg>
