<svg width="63" height="63" viewBox="0 0 63 63" fill="none" xmlns="http://www.w3.org/2000/svg">
<g clip-path="url(#clip0_580_4245)">
<path opacity="0.946" fill-rule="evenodd" clip-rule="evenodd" d="M14.4577 4.36804C18.6005 4.34753 22.7431 4.36804 26.8855 4.42957C22.8073 8.29307 18.7058 12.128 14.5808 15.9345C14.4577 12.0799 14.4168 8.22438 14.4577 4.36804Z" fill="white"/>
<path opacity="0.945" fill-rule="evenodd" clip-rule="evenodd" d="M35.9912 4.49085C40.1128 4.36801 44.2554 4.327 48.4189 4.3678C48.4599 8.22414 48.4189 12.0796 48.2959 15.9342C44.1903 12.1189 40.0888 8.30441 35.9912 4.49085Z" fill="white"/>
<path opacity="0.978" fill-rule="evenodd" clip-rule="evenodd" d="M31.3154 5.10645C31.7796 5.42564 32.2308 5.77427 32.6689 6.15234C36.9756 10.2129 41.2822 14.2734 45.5889 18.334C36.1552 18.4161 26.7217 18.4161 17.2881 18.334C21.9965 13.9513 26.6723 9.54211 31.3154 5.10645Z" fill="white"/>
<path opacity="0.971" fill-rule="evenodd" clip-rule="evenodd" d="M10.7666 7.19824C10.8894 10.9096 10.9304 14.642 10.8896 18.3955C7.36207 18.4161 3.83472 18.3955 0.307617 18.334C3.77408 14.601 7.26041 10.8891 10.7666 7.19824Z" fill="white"/>
<path opacity="0.972" fill-rule="evenodd" clip-rule="evenodd" d="M51.9873 7.19824C55.576 10.8485 59.1034 14.5605 62.5693 18.334C59.0422 18.3955 55.5149 18.4161 51.9873 18.3955C51.9873 14.6631 51.9873 10.9307 51.9873 7.19824Z" fill="white"/>
<path opacity="0.962" fill-rule="evenodd" clip-rule="evenodd" d="M-0.0615234 21.9636C3.83583 21.9226 7.7323 21.9636 11.6279 22.0867C15.9346 31.9304 20.2412 41.7742 24.5479 51.6179C24.2628 51.528 23.9961 51.3228 23.748 51.0027C15.8386 41.3736 7.90208 31.776 -0.0615234 22.2097C-0.0615234 22.1276 -0.0615234 22.0457 -0.0615234 21.9636Z" fill="white"/>
<path opacity="0.985" fill-rule="evenodd" clip-rule="evenodd" d="M15.4424 22.0865C26.0858 21.943 36.7499 21.9226 47.4346 22.0249C42.1199 34.1924 36.7878 46.3536 31.4385 58.5083C26.1008 46.3577 20.7688 34.2172 15.4424 22.0865Z" fill="white"/>
<path opacity="0.963" fill-rule="evenodd" clip-rule="evenodd" d="M62.9385 21.9636C62.9385 22.0457 62.9385 22.1276 62.9385 22.2097C54.7829 32.048 46.6207 41.8918 38.4521 51.7409C38.4112 51.7 38.3701 51.6589 38.3291 51.6179C42.6357 41.7742 46.9424 31.9304 51.249 22.0867C55.1447 21.9636 59.0411 21.9226 62.9385 21.9636Z" fill="white"/>
</g>
<defs>
<clipPath id="clip0_580_4245">
<rect width="63" height="63" fill="white"/>
</clipPath>
</defs>
</svg>
