<svg width="24" height="25" viewBox="0 0 24 25" fill="none" xmlns="http://www.w3.org/2000/svg">
<g clip-path="url(#clip0_632_9401)">
<path d="M17.9998 8.56277C17.9998 9.22581 17.7364 9.8617 17.2675 10.3305C16.7987 10.7994 16.1628 11.0628 15.4998 11.0628C14.8367 11.0628 14.2008 10.7994 13.732 10.3305C13.2632 9.8617 12.9998 9.22581 12.9998 8.56277C12.9998 7.89973 13.2632 7.26385 13.732 6.79501C14.2008 6.32617 14.8367 6.06277 15.4998 6.06277C16.1628 6.06277 16.7987 6.32617 17.2675 6.79501C17.7364 7.26385 17.9998 7.89973 17.9998 8.56277ZM17.9938 15.4288C17.9388 17.0176 17.5422 18.576 16.8308 19.9978C16.1753 21.2373 15.1911 22.2724 13.9861 22.9895C12.7811 23.7066 11.4019 24.0779 9.99977 24.0628H8.99977V18.5628C8.99531 17.6359 8.62512 16.7482 7.96971 16.0928C7.3143 15.4374 6.42665 15.0672 5.49977 15.0628H-0.000226557V14.0628C-0.0153649 12.6606 0.355967 11.2814 1.07303 10.0764C1.7901 8.87146 2.8252 7.88724 4.06477 7.23177C5.48654 6.52037 7.04491 6.1237 8.63377 6.06877C10.0906 4.18701 11.9615 2.6663 14.1013 1.6247C16.241 0.583101 18.592 0.048627 20.9718 0.0627737C21.3678 0.0602715 21.7603 0.135957 22.127 0.28549C22.4937 0.435022 22.8273 0.655462 23.1086 0.934169C23.3899 1.21288 23.6134 1.54437 23.7663 1.90964C23.9193 2.27491 23.9986 2.66678 23.9998 3.06277C24.0167 5.44699 23.4836 7.803 22.442 9.9477C21.4003 12.0924 19.8782 13.968 17.9938 15.4288ZM2.08377 13.0628H4.34577C5.08842 11.4088 5.96081 9.81612 6.95477 8.29977C6.26439 8.46039 5.59541 8.70207 4.96177 9.01977C4.19971 9.42219 3.54248 9.99747 3.04271 10.6995C2.54294 11.4016 2.21453 12.211 2.08377 13.0628ZM15.7628 17.1078C14.2464 18.1017 12.6538 18.9741 10.9998 19.7168V21.9788C11.8516 21.848 12.6609 21.5196 13.363 21.0198C14.0651 20.5201 14.6404 19.8628 15.0428 19.1008C15.3605 18.4671 15.6022 17.7982 15.7628 17.1078ZM21.9998 3.03477C21.9925 2.77444 21.8839 2.52722 21.6972 2.3457C21.5104 2.16418 21.2602 2.06267 20.9998 2.06277C15.8398 2.20977 12.3498 4.18677 8.98177 8.88477C8.04192 10.238 7.21544 11.6665 6.51077 13.1558C7.60269 13.3591 8.60746 13.8883 9.39284 14.6737C10.1782 15.4591 10.7074 16.4639 10.9108 17.5558C12.4 16.8511 13.8286 16.0246 15.1818 15.0848C19.8758 11.7128 21.8528 8.22277 21.9998 3.03477ZM6.12177 17.9418C6.68054 18.5063 6.99398 19.2685 6.99398 20.0628C6.99398 20.8571 6.68054 21.6193 6.12177 22.1838C5.21477 23.0898 2.49977 23.6488 1.37377 23.8478L-0.0322266 24.0948L0.214773 22.6888C0.414773 21.5628 0.972773 18.8478 1.87877 17.9408C2.45052 17.3954 3.21035 17.0913 4.00047 17.0915C4.79059 17.0916 5.55028 17.3962 6.12177 17.9418ZM4.99977 20.0628C5.00013 19.9314 4.97442 19.8013 4.92412 19.6799C4.87383 19.5586 4.79995 19.4484 4.70677 19.3558C4.51925 19.1683 4.26494 19.063 3.99977 19.063C3.73461 19.063 3.4803 19.1683 3.29277 19.3558C2.91152 20.044 2.64375 20.7893 2.49977 21.5628C3.27358 21.4182 4.0191 21.1501 4.70777 20.7688C4.80065 20.6762 4.87427 20.5662 4.92439 20.445C4.97451 20.3238 5.00013 20.1939 4.99977 20.0628Z" fill="#4673A3"/>
</g>
<defs>
<clipPath id="clip0_632_9401">
<rect width="24" height="24" fill="white" transform="translate(0 0.0625)"/>
</clipPath>
</defs>
</svg>
