<svg width="70" height="71" viewBox="0 0 70 71" fill="none" xmlns="http://www.w3.org/2000/svg">
<g clip-path="url(#clip0_33_1183)">
<g clip-path="url(#clip1_33_1183)">
<path opacity="0.938" fill-rule="evenodd" clip-rule="evenodd" d="M69.6078 55.6309C69.6078 56.933 69.6078 58.2351 69.6078 59.5372C69.3182 60.298 68.7794 60.8143 67.9914 61.0863C46.0798 61.1761 24.1683 61.1761 2.25669 61.0863C1.46866 60.8143 0.929847 60.298 0.640259 59.5372C0.640259 58.2351 0.640259 56.933 0.640259 55.6309C2.44423 52.2478 4.21782 48.8354 5.961 45.3935C6.0059 33.5845 6.05081 21.7757 6.0957 9.96677C6.13345 9.01283 6.6049 8.40667 7.51008 8.14829C25.9194 8.05848 44.3287 8.05848 62.738 8.14829C63.6432 8.40667 64.1147 9.01283 64.1524 9.96677C64.1973 21.7757 64.2423 33.5845 64.2871 45.3935C66.0303 48.8354 67.8039 52.2478 69.6078 55.6309ZM8.18359 10.2362C26.1439 10.2362 44.1043 10.2362 62.0645 10.2362C62.0645 21.596 62.0645 32.956 62.0645 44.3159C44.1043 44.3159 26.1439 44.3159 8.18359 44.3159C8.18359 32.956 8.18359 21.596 8.18359 10.2362ZM7.77948 46.4711C26.0094 46.4262 44.2391 46.4711 62.4686 46.6058C63.9398 49.4135 65.3767 52.2423 66.7791 55.092C59.4603 55.2716 52.1414 55.2716 44.8226 55.092C44.4411 53.7458 44.0595 52.3988 43.6777 51.051C43.4029 50.3268 42.8865 49.9002 42.1286 49.7713C37.4589 49.6815 32.7893 49.6815 28.1195 49.7713C27.3616 49.9002 26.8452 50.3268 26.5705 51.051C26.1886 52.3988 25.807 53.7458 25.4255 55.092C18.1067 55.2716 10.7878 55.2716 3.46901 55.092C4.90941 52.2113 6.34624 49.3376 7.77948 46.4711ZM28.5236 51.8592C32.924 51.8592 37.3241 51.8592 41.7245 51.8592C41.9726 52.9864 42.242 54.109 42.5327 55.2267C37.5936 55.2267 32.6546 55.2267 27.7154 55.2267C28.0061 54.109 28.2755 52.9864 28.5236 51.8592ZM2.66079 57.382C24.303 57.382 45.9451 57.382 67.5873 57.382C67.6222 57.8858 67.5773 58.3796 67.4526 58.8637C45.9002 59.0433 24.3479 59.0433 2.7955 58.8637C2.67078 58.3796 2.62588 57.8858 2.66079 57.382Z" fill="#202020"/>
<path opacity="0.935" fill-rule="evenodd" clip-rule="evenodd" d="M10.7921 12.3422C27.0142 12.3193 43.2364 12.3422 59.4585 12.411C60.0695 12.7011 60.4132 13.1823 60.4896 13.8544C60.5813 17.5663 60.5813 21.2781 60.4896 24.99C60.2882 25.8359 59.7612 26.1338 58.9086 25.8836C58.7024 25.7691 58.542 25.6086 58.4275 25.4024C58.3587 21.7825 58.3358 18.1623 58.3587 14.5418C42.8697 14.5418 27.3809 14.5418 11.8919 14.5418C11.9148 18.1623 11.8919 21.7825 11.8231 25.4024C11.4715 25.9127 10.9904 26.073 10.3796 25.8836C10.023 25.6995 9.81678 25.4016 9.761 24.99C9.66935 21.2781 9.66935 17.5663 9.761 13.8544C9.86602 13.1784 10.2097 12.6743 10.7921 12.3422Z" fill="#202020"/>
<path fill-rule="evenodd" clip-rule="evenodd" d="M10.6546 29.252C11.1274 29.2642 11.5169 29.4474 11.8231 29.8019C11.8919 33.4676 11.9148 37.1336 11.8919 40.7999C27.3809 40.7999 42.8697 40.7999 58.3587 40.7999C58.3358 37.1336 58.3587 33.4676 58.4275 29.8019C59.0691 29.0687 59.7105 29.0687 60.3521 29.8019C60.3979 29.9851 60.4438 30.1685 60.4896 30.3518C60.5813 34.0178 60.5813 37.6838 60.4896 41.3498C60.4185 41.9736 60.1206 42.4547 59.596 42.7933C43.4715 43.0214 27.3409 43.0672 11.2045 42.9308C10.2991 42.7933 9.81792 42.2664 9.761 41.3498C9.66935 37.6838 9.66935 34.0178 9.761 30.3518C9.83986 29.7931 10.1377 29.4264 10.6546 29.252Z" fill="#202020"/>
</g>
</g>
<defs>
<clipPath id="clip0_33_1183">
<rect width="70" height="70" fill="white" transform="translate(0 0.307495)"/>
</clipPath>
<clipPath id="clip1_33_1183">
<rect width="70.3876" height="70.3876" fill="white" transform="translate(0.000244141 0.0383301)"/>
</clipPath>
</defs>
</svg>
