<svg width="40" height="41" viewBox="0 0 40 41" fill="none" xmlns="http://www.w3.org/2000/svg">
<circle cx="20" cy="20.0566" r="19.5" stroke="#3F80FF"/>
<path d="M25.6601 30.6703C25.1301 30.6703 24.4501 30.5003 23.6001 30.0003L20.6101 28.2303C20.3001 28.0503 19.7001 28.0503 19.4001 28.2303L16.4001 30.0003C14.6301 31.0503 13.5901 30.6303 13.1201 30.2903C12.6601 29.9503 11.9401 29.0803 12.4101 27.0803L13.1201 24.0103C13.2001 23.6903 13.0401 23.1403 12.8001 22.9003L10.3201 20.4203C9.08012 19.1803 9.18012 18.1203 9.35012 17.6003C9.52012 17.0803 10.0601 16.1603 11.7801 15.8703L14.9701 15.3403C15.2701 15.2903 15.7001 14.9703 15.8301 14.7003L17.6001 11.1703C18.4001 9.56031 19.4501 9.32031 20.0001 9.32031C20.5501 9.32031 21.6001 9.56031 22.4001 11.1703L24.1601 14.6903C24.3001 14.9603 24.7301 15.2803 25.0301 15.3303L28.2201 15.8603C29.9501 16.1503 30.4901 17.0703 30.6501 17.5903C30.8101 18.1103 30.9101 19.1703 29.6801 20.4103L27.2001 22.9003C26.9601 23.1403 26.8101 23.6803 26.8801 24.0103L27.5901 27.0803C28.0501 29.0803 27.3401 29.9503 26.8801 30.2903C26.6301 30.4703 26.2301 30.6703 25.6601 30.6703ZM20.0001 26.5903C20.4901 26.5903 20.9801 26.7103 21.3701 26.9403L24.3601 28.7103C25.2301 29.2303 25.7801 29.2303 25.9901 29.0803C26.2001 28.9303 26.3501 28.4003 26.1301 27.4203L25.4201 24.3503C25.2301 23.5203 25.5401 22.4503 26.1401 21.8403L28.6201 19.3603C29.1101 18.8703 29.3301 18.3903 29.2301 18.0603C29.1201 17.7303 28.6601 17.4603 27.9801 17.3503L24.7901 16.8203C24.0201 16.6903 23.1801 16.0703 22.8301 15.3703L21.0701 11.8503C20.7501 11.2103 20.3501 10.8303 20.0001 10.8303C19.6501 10.8303 19.2501 11.2103 18.9401 11.8503L17.1701 15.3703C16.8201 16.0703 15.9801 16.6903 15.2101 16.8203L12.0301 17.3503C11.3501 17.4603 10.8901 17.7303 10.7801 18.0603C10.6701 18.3903 10.9001 18.8803 11.3901 19.3603L13.8701 21.8403C14.4701 22.4403 14.7801 23.5203 14.5901 24.3503L13.8801 27.4203C13.6501 28.4103 13.8101 28.9303 14.0201 29.0803C14.2301 29.2303 14.7701 29.2203 15.6501 28.7103L18.6401 26.9403C19.0201 26.7103 19.5101 26.5903 20.0001 26.5903Z" fill="#3F80FF"/>
</svg>
