<svg width="40" height="40" viewBox="0 0 40 40" fill="none" xmlns="http://www.w3.org/2000/svg">
<circle cx="20" cy="20" r="19.5" stroke="#3F80FF"/>
<path d="M16.67 30.583H10C9.59 30.583 9.25 30.243 9.25 29.833V23.833C9.25 22.313 10.48 21.083 12 21.083H16.67C17.08 21.083 17.42 21.423 17.42 21.833V29.833C17.42 30.243 17.08 30.583 16.67 30.583ZM10.75 29.083H15.92V22.583H12C11.31 22.583 10.75 23.143 10.75 23.833V29.083Z" fill="#3F80FF"/>
<path d="M23.3302 30.583H16.6602C16.2502 30.583 15.9102 30.243 15.9102 29.833V19.833C15.9102 18.313 17.1402 17.083 18.6602 17.083H21.3302C22.8502 17.083 24.0802 18.313 24.0802 19.833V29.833C24.0802 30.243 23.7502 30.583 23.3302 30.583ZM17.4202 29.083H22.5902V19.833C22.5902 19.143 22.0302 18.583 21.3402 18.583H18.6702C17.9802 18.583 17.4202 19.143 17.4202 19.833V29.083Z" fill="#3F80FF"/>
<path d="M30.0001 30.583H23.3301C22.9201 30.583 22.5801 30.243 22.5801 29.833V24.833C22.5801 24.423 22.9201 24.083 23.3301 24.083H28.0001C29.5201 24.083 30.7501 25.313 30.7501 26.833V29.833C30.7501 30.243 30.4101 30.583 30.0001 30.583ZM24.0801 29.083H29.2501V26.833C29.2501 26.143 28.6901 25.583 28.0001 25.583H24.0801V29.083Z" fill="#3F80FF"/>
<path d="M21.6999 16.1832C21.4599 16.1832 21.1599 16.1132 20.8199 15.9132L19.9999 15.4232L19.1899 15.9032C18.3699 16.3932 17.8299 16.1032 17.6299 15.9632C17.4299 15.8232 16.9999 15.3832 17.2099 14.4632L17.3999 13.6332L16.7199 12.9532C16.2999 12.5332 16.1499 12.0332 16.2999 11.5732C16.4499 11.1132 16.8599 10.7932 17.4399 10.6932L18.3099 10.5432L18.7999 9.56324C19.3399 8.49324 20.6499 8.49324 21.1799 9.56324L21.6699 10.5432L22.5399 10.6932C23.1199 10.7932 23.5399 11.1132 23.6799 11.5732C23.8299 12.0332 23.6699 12.5332 23.2599 12.9532L22.5799 13.6332L22.7699 14.4632C22.9799 15.3932 22.5499 15.8232 22.3499 15.9732C22.2599 16.0532 22.0299 16.1832 21.6999 16.1832ZM19.9999 13.9132C20.2399 13.9132 20.4799 13.9732 20.6799 14.0932L21.2399 14.4232L21.1199 13.8832C21.0199 13.4632 21.1699 12.9532 21.4799 12.6432L21.9899 12.1332L21.3599 12.0232C20.9599 11.9532 20.5699 11.6632 20.3899 11.3032L19.9999 10.5532L19.6199 11.3032C19.4399 11.6632 19.0499 11.9532 18.6499 12.0232L18.0199 12.1232L18.5299 12.6332C18.8399 12.9432 18.9799 13.4532 18.8899 13.8732L18.7699 14.4132L19.3299 14.0832C19.5199 13.9632 19.7599 13.9132 19.9999 13.9132Z" fill="#3F80FF"/>
</svg>
