<svg width="40" height="40" viewBox="0 0 40 40" fill="none" xmlns="http://www.w3.org/2000/svg">
<circle cx="20" cy="20" r="19.5" stroke="#3F80FF"/>
<path d="M17.99 30.5826C17.79 30.5826 17.63 30.5426 17.51 30.4926C17.11 30.3426 16.43 29.8526 16.43 28.3026V21.8526H14.09C12.75 21.8526 12.27 21.2226 12.1 20.8526C11.93 20.4726 11.78 19.7026 12.66 18.6926L20.23 10.0926C21.25 8.93265 22.08 9.01265 22.48 9.16265C22.88 9.31265 23.56 9.80265 23.56 11.3526V17.8026H25.9C27.24 17.8026 27.72 18.4326 27.89 18.8026C28.06 19.1826 28.21 19.9526 27.33 20.9626L19.76 29.5626C19.05 30.3726 18.43 30.5826 17.99 30.5826ZM21.93 10.5726C21.9 10.6126 21.69 10.7126 21.36 11.0926L13.79 19.6926C13.51 20.0126 13.47 20.2126 13.47 20.2526C13.49 20.2626 13.67 20.3626 14.09 20.3626H17.18C17.59 20.3626 17.93 20.7026 17.93 21.1126V28.3126C17.93 28.8126 18.02 29.0326 18.06 29.0926C18.09 29.0526 18.3 28.9526 18.63 28.5726L26.2 19.9726C26.48 19.6526 26.52 19.4526 26.52 19.4126C26.5 19.4026 26.32 19.3026 25.9 19.3026H22.81C22.4 19.3026 22.06 18.9626 22.06 18.5526V11.3526C22.07 10.8526 21.97 10.6426 21.93 10.5726Z" fill="#3F80FF"/>
</svg>
