<svg width="40" height="40" viewBox="0 0 40 40" fill="none" xmlns="http://www.w3.org/2000/svg">
<circle cx="20" cy="20" r="19.5" stroke="#3F80FF"/>
<path d="M20 24.583C19.6 24.583 19.2 24.553 18.82 24.483C16.7 24.173 14.77 22.953 13.55 21.143C12.7 19.863 12.25 18.373 12.25 16.833C12.25 12.563 15.73 9.08301 20 9.08301C24.27 9.08301 27.75 12.563 27.75 16.833C27.75 18.373 27.3 19.863 26.45 21.143C25.22 22.963 23.29 24.173 21.15 24.493C20.8 24.553 20.4 24.583 20 24.583ZM20 10.583C16.55 10.583 13.75 13.383 13.75 16.833C13.75 18.083 14.11 19.283 14.79 20.303C15.78 21.763 17.33 22.743 19.05 22.993C19.69 23.103 20.32 23.103 20.91 22.993C22.66 22.743 24.21 21.753 25.2 20.293C25.88 19.273 26.24 18.073 26.24 16.823C26.25 13.383 23.45 10.583 20 10.583Z" fill="#3F80FF"/>
<path d="M14.4698 30.423C14.3298 30.423 14.1998 30.403 14.0598 30.373C13.4098 30.223 12.9098 29.723 12.7598 29.073L12.4098 27.603C12.3898 27.513 12.3198 27.443 12.2198 27.413L10.5698 27.023C9.94982 26.873 9.45982 26.413 9.28982 25.803C9.11982 25.193 9.28982 24.533 9.73982 24.083L13.6398 20.183C13.7998 20.023 14.0198 19.943 14.2398 19.963C14.4598 19.983 14.6598 20.103 14.7898 20.293C15.7798 21.753 17.3298 22.743 19.0598 22.993C19.6998 23.103 20.3298 23.103 20.9198 22.993C22.6698 22.743 24.2198 21.753 25.2098 20.293C25.3298 20.103 25.5398 19.983 25.7598 19.963C25.9798 19.943 26.1998 20.023 26.3598 20.183L30.2598 24.083C30.7098 24.533 30.8798 25.193 30.7098 25.803C30.5398 26.413 30.0398 26.883 29.4298 27.023L27.7798 27.413C27.6898 27.433 27.6198 27.503 27.5898 27.603L27.2398 29.073C27.0898 29.723 26.5898 30.223 25.9398 30.373C25.2898 30.533 24.6198 30.303 24.1998 29.793L19.9998 24.963L15.7998 29.803C15.4598 30.203 14.9798 30.423 14.4698 30.423ZM14.0898 21.863L10.7998 25.153C10.7098 25.243 10.7198 25.343 10.7398 25.403C10.7498 25.453 10.7998 25.553 10.9198 25.573L12.5698 25.963C13.2198 26.113 13.7198 26.613 13.8698 27.263L14.2198 28.733C14.2498 28.863 14.3498 28.903 14.4098 28.923C14.4698 28.933 14.5698 28.943 14.6598 28.843L18.4898 24.433C16.7898 24.103 15.2298 23.193 14.0898 21.863ZM21.5098 24.423L25.3398 28.823C25.4298 28.933 25.5398 28.933 25.5998 28.913C25.6598 28.903 25.7498 28.853 25.7898 28.723L26.1398 27.253C26.2898 26.603 26.7898 26.103 27.4398 25.953L29.0898 25.563C29.2098 25.533 29.2598 25.443 29.2698 25.393C29.2898 25.343 29.2998 25.233 29.2098 25.143L25.9198 21.853C24.7698 23.183 23.2198 24.093 21.5098 24.423Z" fill="#3F80FF"/>
<path d="M21.8901 20.7233C21.6301 20.7233 21.3201 20.6533 20.9501 20.4333L20.0001 19.8633L19.0501 20.4232C18.1801 20.9432 17.6101 20.6433 17.4001 20.4933C17.1901 20.3433 16.7401 19.8933 16.9701 18.9033L17.2101 17.8733L16.4101 17.1332C15.9701 16.6932 15.8101 16.1633 15.9601 15.6833C16.1101 15.2033 16.5501 14.8632 17.1701 14.7632L18.2401 14.5833L18.7501 13.4633C19.0401 12.8933 19.4901 12.5732 20.0001 12.5732C20.5101 12.5732 20.9701 12.9033 21.2501 13.4733L21.8401 14.6533L22.8301 14.7733C23.4401 14.8733 23.8801 15.2132 24.0401 15.6932C24.1901 16.1732 24.0301 16.7032 23.5901 17.1432L22.7601 17.9733L23.0201 18.9033C23.2501 19.8933 22.8001 20.3433 22.5901 20.4933C22.4801 20.5833 22.2401 20.7233 21.8901 20.7233ZM17.6101 16.2233L18.3001 16.9132C18.6201 17.2332 18.7801 17.7733 18.6801 18.2133L18.4901 19.0132L19.2901 18.5432C19.7201 18.2932 20.3001 18.2932 20.7201 18.5432L21.5201 19.0132L21.3401 18.2133C21.2401 17.7633 21.3901 17.2332 21.7101 16.9132L22.4001 16.2233L21.5301 16.0732C21.1101 16.0032 20.6901 15.6933 20.5001 15.3133L20.0001 14.3333L19.5001 15.3333C19.3201 15.7033 18.9001 16.0233 18.4801 16.0933L17.6101 16.2233Z" fill="#3F80FF"/>
</svg>
