<svg width="40" height="40" viewBox="0 0 40 40" fill="none" xmlns="http://www.w3.org/2000/svg">
<circle cx="20" cy="20" r="19.5" stroke="#3F80FF"/>
<path d="M23 30.583H17C11.57 30.583 9.25 28.263 9.25 22.833V16.833C9.25 11.403 11.57 9.08301 17 9.08301H23C28.43 9.08301 30.75 11.403 30.75 16.833V22.833C30.75 28.263 28.43 30.583 23 30.583ZM17 10.583C12.39 10.583 10.75 12.223 10.75 16.833V22.833C10.75 27.443 12.39 29.083 17 29.083H23C27.61 29.083 29.25 27.443 29.25 22.833V16.833C29.25 12.223 27.61 10.583 23 10.583H17Z" fill="#3F80FF"/>
<path d="M18.5799 23.4126C18.3799 23.4126 18.1899 23.3326 18.0499 23.1926L15.2199 20.3626C14.9299 20.0726 14.9299 19.5926 15.2199 19.3026C15.5099 19.0126 15.9899 19.0126 16.2799 19.3026L18.5799 21.6026L23.7199 16.4626C24.0099 16.1726 24.4899 16.1726 24.7799 16.4626C25.0699 16.7526 25.0699 17.2326 24.7799 17.5226L19.1099 23.1926C18.9699 23.3326 18.7799 23.4126 18.5799 23.4126Z" fill="#3F80FF"/>
</svg>
