<svg width="40" height="41" viewBox="0 0 40 41" fill="none" xmlns="http://www.w3.org/2000/svg">
<circle cx="20" cy="20.0566" r="19.5" stroke="#3F80FF"/>
<path d="M20.0099 30.7498C19.3799 30.7498 18.7499 30.5397 18.2599 30.1197L16.6799 28.7598C16.5199 28.6198 16.1199 28.4797 15.9099 28.4797H14.1799C12.6999 28.4797 11.4999 27.2798 11.4999 25.7998V24.0897C11.4999 23.8797 11.3599 23.4897 11.2199 23.3297L9.86988 21.7397C9.04988 20.7697 9.04988 19.2398 9.86988 18.2698L11.2199 16.6798C11.3599 16.5198 11.4999 16.1298 11.4999 15.9198V14.2097C11.4999 12.7297 12.6999 11.5298 14.1799 11.5298H15.9099C16.1199 11.5298 16.5199 11.3798 16.6799 11.2498L18.2599 9.88977C19.2399 9.04977 20.7699 9.04977 21.7499 9.88977L23.3299 11.2498C23.4899 11.3898 23.8899 11.5298 24.0999 11.5298H25.7999C27.2799 11.5298 28.4799 12.7297 28.4799 14.2097V15.9098C28.4799 16.1198 28.6299 16.5198 28.7699 16.6798L30.1199 18.2598C30.9599 19.2398 30.9599 20.7698 30.1199 21.7498L28.7699 23.3297C28.6299 23.4897 28.4899 23.8897 28.4899 24.0997V25.7998C28.4899 27.2798 27.2899 28.4797 25.8099 28.4797H24.1099C23.8999 28.4797 23.4999 28.6298 23.3399 28.7598L21.7599 30.1197C21.2599 30.5397 20.6299 30.7498 20.0099 30.7498ZM14.1799 13.0198C13.5299 13.0198 12.9999 13.5497 12.9999 14.1997V15.9098C12.9999 16.4798 12.7299 17.2098 12.3699 17.6398L11.0199 19.2297C10.6699 19.6397 10.6699 20.3498 11.0199 20.7598L12.3699 22.3497C12.7399 22.7897 13.0099 23.5197 13.0099 24.0797V25.7898C13.0099 26.4398 13.5399 26.9697 14.1899 26.9697H15.9199C16.4999 26.9697 17.2299 27.2397 17.6699 27.6197L19.2499 28.9797C19.6599 29.3297 20.3799 29.3297 20.7899 28.9797L22.3699 27.6197C22.8099 27.2497 23.5399 26.9697 24.1199 26.9697H25.8199C26.4699 26.9697 26.9999 26.4398 26.9999 25.7898V24.0897C26.9999 23.5097 27.2699 22.7797 27.6499 22.3397L28.9999 20.7598C29.3499 20.3498 29.3499 19.6297 28.9999 19.2197L27.6499 17.6398C27.2799 17.1998 26.9999 16.4698 26.9999 15.8898V14.1897C26.9999 13.5397 26.4699 13.0098 25.8199 13.0098H24.1199C23.5499 13.0098 22.8099 12.7397 22.3699 12.3597L20.7899 10.9998C20.3799 10.6498 19.6599 10.6498 19.2499 10.9998L17.6699 12.3597C17.2299 12.7297 16.4999 13.0098 15.9199 13.0098H14.1799V13.0198Z" fill="#3F80FF"/>
<path d="M21.9998 24.9698H20.2198C19.7998 24.9698 19.1697 24.8398 18.7997 24.4698L17.4198 23.4099L18.3398 22.2198L19.7898 23.3398C19.8898 23.4098 20.0698 23.4598 20.2198 23.4598H21.9998C22.2398 23.4598 22.5297 23.2499 22.5797 23.0399L23.7198 19.5698C23.7498 19.4798 23.7497 19.4199 23.7397 19.3999C23.7197 19.3699 23.6497 19.3398 23.5497 19.3398H21.6797C21.3197 19.3398 20.9898 19.1899 20.7498 18.9199C20.5198 18.6499 20.4097 18.2899 20.4597 17.9199L20.6998 16.4099C20.7198 16.3299 20.6598 16.2298 20.5998 16.2098C20.5398 16.1998 20.4498 16.2199 20.4198 16.2499L18.5098 19.0898L17.2598 18.2499L19.1797 15.3999C19.5797 14.7999 20.4198 14.5399 21.0998 14.7899C21.8598 15.0399 22.3497 15.8999 22.1797 16.6799L21.9998 17.8198H23.5497C24.1397 17.8198 24.6598 18.0699 24.9698 18.5099C25.2698 18.9399 25.3397 19.4999 25.1497 20.0299L24.0298 23.4299C23.8198 24.2899 22.9298 24.9698 21.9998 24.9698Z" fill="#3F80FF"/>
<path d="M16.9002 24.4596H16.4302C14.9602 24.4596 14.7402 23.4296 14.7402 22.8196V18.2396C14.7402 17.6296 14.9602 16.5996 16.4302 16.5996H16.9002C18.3702 16.5996 18.5902 17.6296 18.5902 18.2396V22.8196C18.5902 23.4296 18.3702 24.4596 16.9002 24.4596ZM16.2603 22.9496C16.3003 22.9596 16.3602 22.9596 16.4402 22.9596H16.9102C16.9902 22.9596 17.0502 22.9596 17.0902 22.9496C17.0902 22.9196 17.1003 22.8796 17.1003 22.8196V18.2396C17.1003 18.1796 17.1002 18.1396 17.0902 18.1096C17.0502 18.0996 16.9902 18.0996 16.9102 18.0996H16.4402C16.3602 18.0996 16.3003 18.0996 16.2603 18.1096C16.2603 18.1396 16.2502 18.1796 16.2502 18.2396V22.8196C16.2502 22.8796 16.2503 22.9196 16.2603 22.9496Z" fill="#3F80FF"/>
</svg>
