<svg width="40" height="41" viewBox="0 0 40 41" fill="none" xmlns="http://www.w3.org/2000/svg">
<circle cx="20" cy="20.0566" r="19.5" stroke="#3F80FF"/>
<path d="M25.74 30.7498H15.63C15.31 30.7498 15.03 30.5498 14.92 30.2598C14.81 29.9598 14.9 29.6297 15.14 29.4297C15.38 29.2297 15.6 28.9698 15.76 28.6898C16.08 28.1798 16.24 27.5998 16.24 27.0098C16.24 25.2198 14.78 23.7598 12.99 23.7598C12.25 23.7598 11.55 24.0097 10.96 24.4797C10.74 24.6597 10.43 24.6898 10.17 24.5698C9.91 24.4498 9.75 24.1798 9.75 23.8898V19.5198C9.75 17.0298 11.77 15.0098 14.26 15.0098H25.74C28.23 15.0098 30.25 17.0298 30.25 19.5198V20.9598C30.25 21.3698 29.91 21.7098 29.5 21.7098H27.48C27.13 21.7098 26.81 21.8398 26.58 22.0798L26.57 22.0898C26.29 22.3598 26.16 22.7297 26.19 23.1097C26.25 23.7697 26.88 24.2997 27.6 24.2997H29.5C29.91 24.2997 30.25 24.6397 30.25 25.0497V26.2397C30.25 28.7297 28.23 30.7498 25.74 30.7498ZM17.18 29.2498H25.74C27.4 29.2498 28.75 27.8997 28.75 26.2397V25.7997H27.6C26.09 25.7997 24.81 24.6797 24.69 23.2397C24.61 22.4197 24.91 21.6098 25.51 21.0198C26.03 20.4898 26.73 20.1998 27.48 20.1998H28.75V19.5098C28.75 17.8498 27.4 16.4998 25.74 16.4998H14.26C12.6 16.4998 11.25 17.8498 11.25 19.5098V22.5898C11.81 22.3698 12.4 22.2498 13 22.2498C15.62 22.2498 17.75 24.3798 17.75 26.9998C17.75 27.7898 17.55 28.5698 17.18 29.2498Z" fill="#3F80FF"/>
<path d="M10.5 21.16C10.09 21.16 9.75 20.82 9.75 20.41V15.8401C9.75 14.3501 10.69 13 12.08 12.47L20.02 9.47001C20.84 9.16001 21.75 9.27005 22.46 9.77005C23.18 10.2701 23.6 11.08 23.6 11.95V15.75C23.6 16.16 23.26 16.5 22.85 16.5C22.44 16.5 22.1 16.16 22.1 15.75V11.95C22.1 11.57 21.92 11.22 21.6 11C21.28 10.78 20.9 10.73 20.54 10.87L12.6 13.87C11.79 14.18 11.24 14.9701 11.24 15.8401V20.41C11.25 20.83 10.91 21.16 10.5 21.16Z" fill="#3F80FF"/>
<path d="M27.6 25.7992C26.09 25.7992 24.81 24.6792 24.69 23.2392C24.61 22.4092 24.91 21.5992 25.51 21.0092C26.02 20.4892 26.72 20.1992 27.47 20.1992H29.55C30.54 20.2292 31.3 21.0092 31.3 21.9692V24.0292C31.3 24.9892 30.54 25.7692 29.58 25.7992H27.6ZM29.53 21.6992H27.48C27.13 21.6992 26.81 21.8292 26.58 22.0692C26.29 22.3492 26.15 22.7292 26.19 23.1092C26.25 23.7692 26.88 24.2992 27.6 24.2992H29.56C29.69 24.2992 29.81 24.1792 29.81 24.0292V21.9692C29.81 21.8192 29.69 21.7092 29.53 21.6992Z" fill="#3F80FF"/>
<path d="M22 20.75H15C14.59 20.75 14.25 20.41 14.25 20C14.25 19.59 14.59 19.25 15 19.25H22C22.41 19.25 22.75 19.59 22.75 20C22.75 20.41 22.41 20.75 22 20.75Z" fill="#3F80FF"/>
<path d="M13 31.75C11.34 31.75 9.78 30.87 8.94 29.44C8.49 28.72 8.25 27.87 8.25 27C8.25 25.54 8.9 24.19 10.03 23.29C10.87 22.62 11.93 22.25 13 22.25C15.62 22.25 17.75 24.38 17.75 27C17.75 27.87 17.51 28.72 17.06 29.45C16.82 29.87 16.49 30.25 16.11 30.57C15.28 31.33 14.17 31.75 13 31.75ZM13 23.75C12.26 23.75 11.56 24 10.97 24.47C10.2 25.08 9.75 26.01 9.75 27C9.75 27.59 9.91 28.17 10.22 28.67C10.81 29.67 11.85 30.25 13 30.25C13.79 30.25 14.55 29.96 15.13 29.44C15.39 29.22 15.61 28.96 15.77 28.68C16.09 28.17 16.25 27.59 16.25 27C16.25 25.21 14.79 23.75 13 23.75Z" fill="#3F80FF"/>
<path d="M12.4299 28.7396C12.2399 28.7396 12.0499 28.6696 11.8999 28.5196L10.9099 27.5296C10.6199 27.2396 10.6199 26.7595 10.9099 26.4695C11.1999 26.1795 11.6799 26.1795 11.9699 26.4695L12.4499 26.9496L14.0499 25.4695C14.3499 25.1895 14.8299 25.2096 15.1099 25.5096C15.3899 25.8096 15.3699 26.2896 15.0699 26.5696L12.9399 28.5396C12.7899 28.6696 12.6099 28.7396 12.4299 28.7396Z" fill="#3F80FF"/>
</svg>
