<svg width="71" height="41" viewBox="0 0 71 41" fill="none" xmlns="http://www.w3.org/2000/svg">
<path fill-rule="evenodd" clip-rule="evenodd" d="M29.8168 3.25741H3.72624C3.46893 3.25741 3.26034 3.466 3.26034 3.72331V14.905C3.26034 15.1623 3.46893 15.3709 3.72624 15.3709H29.8168C30.0741 15.3709 30.2827 15.1623 30.2827 14.905V3.72331C30.2827 3.466 30.0741 3.25741 29.8168 3.25741ZM3.72624 -0.00390625C1.66776 -0.00390625 -0.000976562 1.66483 -0.000976562 3.72331V14.905C-0.000976562 16.9635 1.66776 18.6322 3.72624 18.6322H29.8168C31.8752 18.6322 33.544 16.9635 33.544 14.905V3.72331C33.544 1.66483 31.8752 -0.00390625 29.8168 -0.00390625H3.72624Z" fill="white"/>
<path d="M37.2715 3.72331C37.2715 1.66483 38.9402 -0.00390625 40.9987 -0.00390625H67.0892C69.1477 -0.00390625 70.8164 1.66483 70.8164 3.72331V14.905C70.8164 16.9635 69.1477 18.6322 67.0892 18.6322H40.9987C38.9402 18.6322 37.2715 16.9635 37.2715 14.905V3.72331Z" fill="white"/>
<path d="M-0.000976562 26.0876C-0.000976562 24.0291 1.66776 22.3604 3.72624 22.3604H29.8168C31.8752 22.3604 33.544 24.0291 33.544 26.0876V37.2692C33.544 39.3277 31.8752 40.9964 29.8168 40.9964H3.72624C1.66776 40.9964 -0.000976562 39.3277 -0.000976562 37.2692V26.0876Z" fill="white"/>
<path d="M37.2715 26.0876C37.2715 24.0291 38.9402 22.3604 40.9987 22.3604H67.0892C69.1477 22.3604 70.8164 24.0291 70.8164 26.0876V37.2692C70.8164 39.3277 69.1477 40.9964 67.0892 40.9964H40.9987C38.9402 40.9964 37.2715 39.3277 37.2715 37.2692V26.0876Z" fill="white"/>
</svg>
