<svg width="63" height="46" viewBox="0 0 63 46" fill="none" xmlns="http://www.w3.org/2000/svg">
<path d="M3.50183 18.3923C-3.7406 37.0728 1.02155 48.01 10.7443 45.6871C17.2346 44.1364 23.2449 34.3622 28.3415 25.3612C25.9236 20.0373 21.6485 11.7134 19.3757 8.22892C17.2922 5.03485 9.29578 3.44789 3.50183 18.3923Z" fill="white"/>
<path d="M54.3973 45.6871C58.8949 45.0418 66.5408 39.8022 61.1437 24.0061C54.3973 4.26093 50.7265 -0.191815 42.988 0.00206988C38.7219 1.06686 36.698 5.84828 33.7613 13.3592C32.541 16.4805 30.6626 20.8427 28.3415 25.3612C23.2449 34.3622 17.2346 44.1364 10.7443 45.6871H54.3973Z" fill="#458FFF"/>
</svg>
