<svg width="62" height="40" viewBox="0 0 62 40" fill="none" xmlns="http://www.w3.org/2000/svg">
<path d="M40.5333 34.905C41.8478 34.905 43.1624 34.905 44.477 34.905C45.2438 34.905 45.2438 34.6871 45.2438 34.0334C45.2438 30.6558 45.2438 27.2783 45.2438 24.0097C45.2438 23.3559 45.3533 23.138 46.0106 23.247C46.6679 23.3559 47.4347 23.3559 48.092 23.247C48.6397 23.247 48.9683 23.3559 49.297 23.9007C51.4879 27.3872 53.6788 30.8737 55.8698 34.3602C55.9793 34.5781 56.0888 35.014 56.4175 35.014C58.1702 35.014 59.923 35.014 61.7853 35.014C61.5662 34.6871 61.4566 34.4692 61.3471 34.3602C58.6084 30.22 55.8698 26.0798 53.0216 21.8306C52.5834 21.2858 52.5834 20.85 53.0216 20.3052C54.8838 17.9083 56.7461 15.4023 58.6084 12.8964C59.2657 11.9158 60.0325 11.0442 60.7993 9.95467C59.1561 9.95467 57.6225 9.95467 56.0888 9.95467C55.5411 9.95467 55.2125 10.1726 54.8838 10.6084C53.3502 12.7875 51.8165 14.8576 50.2829 17.0366C48.6397 19.3247 48.6397 19.3247 45.7915 19.2157H45.682C45.1342 19.3247 45.1342 18.9978 45.1342 18.562C45.1342 17.9083 45.1342 17.1456 45.1342 16.4919C45.1342 11.3711 45.1342 6.1413 45.1342 1.02049C45.1342 0.257818 44.9151 0.0399105 44.1483 0.148864C43.1624 0.257817 42.1765 0.148864 41.081 0.148864C40.4237 0.148864 40.2047 0.257817 40.2047 0.911538C40.4237 12.1337 40.4237 23.5739 40.5333 34.905C35.1655 34.905 29.9073 34.905 24.5395 34.905C21.2532 34.905 17.9668 34.905 14.6804 34.905C14.1327 34.905 13.804 35.014 13.9136 35.6677C13.9136 36.4304 13.9136 37.302 13.9136 38.0647C13.9136 38.6094 14.1327 38.8273 14.6804 38.8273C23.0059 38.8273 31.441 38.8273 39.7665 38.8273C40.4237 38.8273 40.5333 38.6094 40.5333 38.0647C40.5333 36.9751 40.5333 35.8856 40.5333 34.905Z" fill="white"/>
<path d="M4.81596 15.7285C4.81596 13.9853 4.81596 12.242 4.81596 10.4988C4.81596 9.954 4.70641 9.84504 4.15868 9.84504C3.06322 9.84504 1.85821 9.84504 0.762746 9.84504C0.324561 9.84504 0.105469 9.954 0.105469 10.4988C0.105469 18.4524 0.105469 26.297 0.105469 34.2506C0.105469 34.7954 0.324561 34.9043 0.872292 34.9043C1.96775 34.9043 3.17276 34.9043 4.26822 34.9043C4.81596 34.9043 5.03505 34.7954 5.03505 34.1417C5.03505 31.4178 5.03505 28.694 5.03505 26.0791C5.03505 24.5538 5.03505 23.0284 5.36369 21.5031C6.24006 16.7091 8.75962 14.53 13.5797 14.4211C14.0178 14.4211 14.0178 14.3121 14.0178 13.8763C14.0178 12.8957 14.0178 11.9152 14.0178 10.9346C14.0178 9.51818 14.0178 9.51818 12.5937 9.62714C9.74553 9.73609 7.66416 11.2614 6.13051 13.6584C5.58278 14.3121 5.25414 15.0748 4.81596 15.7285Z" fill="white"/>
<path d="M40.4199 34.9009C40.4199 23.5697 40.4199 12.1296 40.4199 0.798458C40.4199 0.035784 40.639 -0.0731703 41.2963 0.0357832C42.2822 0.0357832 43.3777 0.144737 44.3636 0.0357832C45.1304 0.0357832 45.3495 0.144737 45.3495 0.907411C45.3495 6.02822 45.3495 11.258 45.3495 16.3788C45.3495 17.0325 45.3495 17.7952 45.3495 18.4489C45.3495 18.8847 45.459 19.1026 45.8972 19.1026H46.0068C48.855 19.2116 48.855 19.2116 50.4982 16.9236C52.0318 14.7445 53.5655 12.6744 55.0991 10.4953C55.4278 10.0595 55.7564 9.84159 56.3041 9.84159C57.8378 9.84159 59.3714 9.84159 61.0146 9.84159C60.2478 10.9311 59.481 11.9117 58.8237 12.7833C56.9614 15.2893 55.2087 17.6862 53.2368 20.1922C52.7986 20.7369 52.7986 21.1727 53.2368 21.7175C55.9755 25.8577 58.7141 29.998 61.5623 34.2472C61.6719 34.4651 61.7814 34.574 62.0005 34.9009C60.1382 34.9009 58.3855 34.9009 56.6328 34.9009C56.3041 34.9009 56.1946 34.574 56.085 34.2472C53.8941 30.7606 51.7032 27.2741 49.5123 23.7876C49.1836 23.2429 48.855 23.1339 48.3073 23.1339C47.65 23.1339 46.8831 23.2429 46.2259 23.1339C45.5686 23.025 45.459 23.3518 45.459 23.8966C45.459 27.2741 45.459 30.6517 45.459 33.9203C45.459 34.574 45.3495 34.7919 44.6922 34.7919C43.1586 34.9009 41.844 34.9009 40.4199 34.9009C40.5295 34.9009 40.5295 34.9009 40.4199 34.9009Z" fill="white"/>
<path d="M4.82003 15.7208C5.25822 14.9581 5.58686 14.1955 6.02504 13.5417C7.55869 11.1448 9.64006 9.72836 12.4883 9.51045C13.9124 9.4015 13.9124 9.51045 13.9124 10.8179C13.9124 11.7985 13.9124 12.7791 13.9124 13.7596C13.9124 14.0865 13.8028 14.3044 13.4742 14.3044C8.65415 14.4134 6.13459 16.5924 5.25822 21.3864C4.92958 22.9117 4.92958 24.4371 4.92958 25.9624C4.92958 28.6863 4.92958 31.4101 4.92958 34.025C4.92958 34.5697 4.71049 34.7876 4.16276 34.7876C3.06729 34.7876 1.86229 34.7876 0.766823 34.7876C0.219092 34.7876 0 34.6787 0 34.1339C0 26.1803 0 18.3357 0 10.3821C0 9.83731 0.219093 9.72836 0.657277 9.72836C1.75274 9.72836 2.95775 9.72836 4.05321 9.72836C4.60094 9.72836 4.71049 9.83731 4.71049 10.3821C4.82003 12.2343 4.82003 13.9775 4.82003 15.7208Z" fill="white"/>
<path d="M40.8697 34.2834C41.0028 34.2834 41.0028 34.2834 40.8697 34.2834C41.0028 35.5637 40.8697 36.9862 40.8697 38.2665C40.8697 38.9778 40.7367 39.2623 39.9383 39.2623C29.8254 39.2623 19.5795 39.2623 9.4666 39.2623C8.80128 39.2623 8.53516 39.1201 8.53516 38.2665C8.53516 37.2707 8.53516 36.1327 8.53516 35.1369C8.53516 34.2834 8.80128 34.1411 9.4666 34.1411C13.4585 34.1411 17.4504 34.1411 21.4424 34.1411C28.0956 34.2834 34.4827 34.2834 40.8697 34.2834Z" fill="#44C851"/>
</svg>
