<svg width="28" height="39" viewBox="0 0 28 39" fill="none" xmlns="http://www.w3.org/2000/svg">
<path d="M13.731 12.3608V1.17074C17.1719 2.42374 20.3058 5.30242 22.7148 8.98281C25.1456 12.6965 26.8037 17.1754 27.2871 21.4848C27.7711 25.8001 27.0722 29.8821 24.8737 32.8703C22.6919 35.8359 18.9617 37.8206 13.164 37.8206C8.78656 37.8206 5.78385 36.3923 3.81351 34.2007C1.82995 31.9944 0.834445 28.9495 0.614411 25.6237C0.394574 22.3008 0.952994 18.7427 2.02883 15.5709C3.09509 12.4273 4.65343 9.71004 6.41489 7.9845L11.9149 13.1469C12.6034 13.7931 13.731 13.305 13.731 12.3608Z" stroke="#EE1C70" stroke-width="1.13415" stroke-linecap="round" stroke-linejoin="round"/>
</svg>
