<svg width="18" height="15" viewBox="0 0 18 15" fill="none" xmlns="http://www.w3.org/2000/svg">
<path d="M1.28684 0.96114L1.27524 0.961977L1.26519 0.967853C1.09427 1.06784 0.986079 1.18947 0.957494 1.33597C0.928981 1.4821 0.982561 1.63838 1.10163 1.80126L1.11392 1.81807L1.1345 1.82119C1.46511 1.87133 1.79893 1.90848 2.13598 1.93264C2.95849 2.14137 3.48112 2.65214 3.70903 3.46999C3.91941 5.20247 4.14194 6.93324 4.37663 8.66227L4.3761 8.66234L4.37814 8.66939C4.4892 9.05456 4.68474 9.38931 4.96439 9.67297C4.76742 9.84495 4.63352 10.0583 4.56352 10.3122L4.56336 10.3121L4.5626 10.3162C4.48034 10.7502 4.51856 11.1239 4.68299 11.4335C4.84101 11.7309 5.11245 11.9631 5.49162 12.1324C5.30723 12.5517 5.25567 12.9433 5.34231 13.3053C5.43214 13.6807 5.669 14.0176 6.04649 14.3168L6.04595 14.3175L6.05421 14.3218C6.4105 14.5098 6.7588 14.5896 7.09808 14.5576C7.43738 14.5256 7.76338 14.3822 8.07568 14.131L8.07606 14.1315L8.08134 14.1257C8.35253 13.8274 8.51574 13.5116 8.56701 13.1784C8.61492 12.867 8.56447 12.5442 8.41855 12.2113C10.0713 12.188 11.724 12.188 13.3767 12.2112C13.2653 12.4181 13.2029 12.6424 13.1897 12.8833L13.1892 12.8832L13.1898 12.8903C13.2326 13.3916 13.3898 13.7865 13.666 14.0692C13.9423 14.3519 14.3323 14.5168 14.8302 14.5686L14.8301 14.5692L14.8384 14.5687C15.2975 14.5408 15.6691 14.4068 15.9484 14.1627C16.2278 13.9187 16.4101 13.5689 16.4987 13.1183L16.4991 13.1184L16.4995 13.1117C16.5258 12.6819 16.4462 12.3161 16.2569 12.0177C16.0675 11.7192 15.7714 11.4928 15.3732 11.3365L15.3647 11.3332L15.3557 11.3331C12.2279 11.284 9.09863 11.2593 5.96767 11.2589C5.73917 11.2453 5.57726 11.1399 5.47563 10.9395C5.42842 10.722 5.44995 10.5594 5.52832 10.4432C5.60693 10.3266 5.75018 10.2457 5.97049 10.2085L14.4645 10.1714L14.4645 10.1726L14.4756 10.1701C15.2493 9.99015 15.776 9.52692 16.0512 8.78424L16.0513 8.78427L16.052 8.78173C16.6063 7.00131 17.1568 5.21999 17.7035 3.43778L17.7059 3.4298L17.7056 3.42146C17.7023 3.32131 17.6771 3.23309 17.6277 3.15906C17.5783 3.085 17.5069 3.02827 17.4163 2.98781L17.4067 2.98352L17.3961 2.98347C13.1045 2.96497 8.81278 2.95876 4.52111 2.96486C4.47037 2.76464 4.39112 2.5748 4.28351 2.39544L4.28359 2.39539L4.28186 2.39288C3.56426 1.34722 2.56371 0.869144 1.28684 0.96114ZM4.68755 3.91791C8.6477 3.88145 12.614 3.86916 16.5863 3.88112C16.1037 5.46875 15.6098 7.05375 15.1045 8.63605C14.931 8.9614 14.667 9.16698 14.3096 9.25501C11.5923 9.27969 8.87495 9.27969 6.15766 9.25501C5.90348 9.19625 5.70349 9.08866 5.55475 8.9341C5.40531 8.77879 5.30468 8.57302 5.25491 8.31384C5.07702 6.84177 4.88789 5.37646 4.68755 3.91791ZM6.35939 12.4709C6.49518 12.338 6.65076 12.246 6.82658 12.1939C7.13552 12.1985 7.34965 12.2785 7.48089 12.4237C7.61197 12.5688 7.66977 12.7892 7.64277 13.0957C7.52153 13.3608 7.36794 13.519 7.18615 13.5833C7.0041 13.6477 6.782 13.6221 6.51487 13.494C6.36017 13.3416 6.27268 13.1818 6.24717 13.0145C6.22163 12.8471 6.25732 12.6664 6.35939 12.4709ZM14.3512 12.3843C14.4723 12.3015 14.5989 12.2382 14.7312 12.1941C15.0882 12.2081 15.3205 12.3051 15.4453 12.4715C15.5701 12.6379 15.5985 12.8885 15.5127 13.2363C15.3804 13.4278 15.2305 13.5441 15.0643 13.5919C14.8975 13.64 14.7072 13.6213 14.4905 13.5294C14.2826 13.3576 14.1728 13.1785 14.1503 12.993C14.1279 12.8075 14.1913 12.6053 14.3512 12.3843Z" fill="white" stroke="white" stroke-width="0.1"/>
</svg>
