<svg width="32" height="26" viewBox="0 0 32 26" fill="none" xmlns="http://www.w3.org/2000/svg">
<path d="M1.04097 0.470775L1.02937 0.471611L1.01932 0.477488C0.704457 0.661679 0.513474 0.880884 0.463241 1.13832C0.413082 1.39539 0.506162 1.67598 0.725883 1.97654L0.738168 1.99335L0.75875 1.99647C1.37875 2.09051 2.00481 2.16013 2.63694 2.20534C4.19761 2.60023 5.19106 3.571 5.62246 5.12269C6.01701 8.37197 6.43437 11.6181 6.87454 14.8609L6.87401 14.8609L6.87604 14.868C7.08662 15.5983 7.46057 16.2306 7.99749 16.7643C7.61511 17.0864 7.35689 17.4892 7.22378 17.972L7.22362 17.9719L7.22286 17.9759C7.06992 18.7828 7.14181 19.4729 7.44424 20.0422C7.74032 20.5995 8.25411 21.035 8.9796 21.3509C8.62223 22.1458 8.52195 22.8836 8.68438 23.5623C8.84998 24.2543 9.28709 24.8782 9.98934 25.4347L9.98881 25.4354L9.99706 25.4397C10.6591 25.7891 11.3037 25.936 11.9298 25.8769C12.5559 25.8178 13.1593 25.5532 13.7395 25.0866L13.7399 25.0871L13.7451 25.0813C14.2491 24.527 14.5503 23.9425 14.6449 23.3278C14.7361 22.7348 14.6344 22.1179 14.3427 21.4783C17.4885 21.4335 20.6343 21.4334 23.7801 21.4782C23.5521 21.8781 23.4252 22.3134 23.3994 22.7835L23.3989 22.7835L23.3995 22.7905C23.4792 23.7236 23.7711 24.4534 24.2801 24.9742C24.789 25.495 25.5097 25.8012 26.4361 25.8975L26.4361 25.8982L26.4443 25.8977C27.2982 25.8457 27.9848 25.5969 28.4995 25.1472C29.0143 24.6975 29.3524 24.0512 29.5171 23.2134L29.5175 23.2135L29.5179 23.2068C29.5668 22.4079 29.4187 21.7317 29.0697 21.1816C28.7207 20.6315 28.1738 20.2122 27.4337 19.9217L27.4253 19.9184L27.4162 19.9183C21.5515 19.8262 15.6839 19.7799 9.81312 19.7791C9.36676 19.753 9.04795 19.5448 8.85024 19.1513C8.7588 18.7344 8.79751 18.414 8.95432 18.1815C9.11138 17.9486 9.3944 17.7928 9.81591 17.7221L17.7788 17.6873L25.7457 17.6526L25.7457 17.6538L25.7568 17.6513C27.1933 17.3172 28.1692 16.4589 28.68 15.0803L28.68 15.0803L28.6808 15.0777C29.7201 11.7395 30.7523 8.39959 31.7772 5.05801L31.7796 5.05003L31.7794 5.04169C31.7733 4.86051 31.7278 4.70337 31.6406 4.57251C31.5533 4.44162 31.4264 4.34017 31.2627 4.2671L31.2531 4.26281L31.2425 4.26276C23.1843 4.22803 15.1261 4.21639 7.0679 4.22791C6.97426 3.84451 6.82458 3.4815 6.61906 3.13896L6.61914 3.13892L6.61741 3.1364C5.28082 1.18875 3.41979 0.299384 1.04097 0.470775ZM7.36405 5.92778C14.8256 5.85889 22.2987 5.83576 29.7833 5.85853C28.8726 8.85562 27.9403 11.8477 26.9865 14.8347C26.6545 15.4592 26.1469 15.8542 25.461 16.0218C20.3625 16.0682 15.2639 16.0682 10.1654 16.0218C9.67997 15.9104 9.29536 15.7047 9.00864 15.4068C8.7212 15.1081 8.52921 14.7135 8.4347 14.2202C8.09913 11.4432 7.74223 8.6791 7.36405 5.92778ZM10.5133 21.9815C10.7756 21.7233 11.0773 21.5447 11.4188 21.4448C12.008 21.4523 12.4258 21.6043 12.6841 21.8902C12.9423 22.1759 13.0509 22.6058 12.9981 23.1908C12.7675 23.6981 12.4713 24.0084 12.1136 24.1349C11.7557 24.2616 11.3245 24.2083 10.8149 23.9625C10.5165 23.6703 10.3451 23.3607 10.2952 23.0339C10.2453 22.7068 10.3163 22.3565 10.5133 21.9815ZM25.5026 21.8137C25.737 21.6526 25.9827 21.5298 26.2397 21.445C26.9192 21.4702 27.3733 21.6541 27.6199 21.9828C27.8664 22.3115 27.9165 22.8 27.7518 23.4612C27.4986 23.8302 27.2085 24.0581 26.8826 24.1519C26.5563 24.246 26.1869 24.2077 25.7717 24.0303C25.3734 23.7025 25.1576 23.3562 25.1134 22.9921C25.0693 22.6281 25.1954 22.236 25.5026 21.8137Z" fill="#86868B" stroke="#86868B" stroke-width="0.1"/>
</svg>
