<svg width="16" height="20" viewBox="0 0 16 20" fill="none" xmlns="http://www.w3.org/2000/svg">
<path d="M7.9998 0C3.8898 0 0.549805 3.34 0.549805 7.45C0.549805 12.34 6.72981 19.26 6.98981 19.55C7.24981 19.84 7.6198 20 7.9998 20C8.3798 20 8.7498 19.84 9.0098 19.55C9.6698 18.82 15.4498 12.23 15.4498 7.45C15.4498 3.34 12.1098 0 7.9998 0ZM4.87981 7.45C4.87981 5.73 6.2798 4.33 7.9998 4.33C9.7198 4.33 11.1198 5.73 11.1198 7.45C11.1198 9.17 9.7198 10.57 7.9998 10.57C6.2798 10.57 4.87981 9.17 4.87981 7.45Z" fill="#F39325"/>
</svg>
