<svg width="25" height="25" viewBox="0 0 25 25" fill="none" xmlns="http://www.w3.org/2000/svg">
<path d="M20.07 11.75H16.03C14.02 11.75 13.05 10.86 13.05 9.02V4.48C13.05 2.64 14.03 1.75 16.03 1.75H20.07C22.08 1.75 23.05 2.64 23.05 4.48V9.01C23.05 10.86 22.07 11.75 20.07 11.75ZM16.03 3.25C14.69 3.25 14.55 3.63 14.55 4.48V9.01C14.55 9.87 14.69 10.24 16.03 10.24H20.07C21.41 10.24 21.55 9.86 21.55 9.01V4.48C21.55 3.62 21.41 3.25 20.07 3.25H16.03Z" fill="#F39325"/>
<path d="M20.07 23.25H16.03C14.02 23.25 13.05 22.27 13.05 20.27V16.23C13.05 14.22 14.03 13.25 16.03 13.25H20.07C22.08 13.25 23.05 14.23 23.05 16.23V20.27C23.05 22.27 22.07 23.25 20.07 23.25ZM16.03 14.75C14.85 14.75 14.55 15.05 14.55 16.23V20.27C14.55 21.45 14.85 21.75 16.03 21.75H20.07C21.25 21.75 21.55 21.45 21.55 20.27V16.23C21.55 15.05 21.25 14.75 20.07 14.75H16.03Z" fill="#F39325"/>
<path d="M8.56999 11.75H4.52999C2.51999 11.75 1.54999 10.86 1.54999 9.02V4.48C1.54999 2.64 2.52999 1.75 4.52999 1.75H8.56999C10.58 1.75 11.55 2.64 11.55 4.48V9.01C11.55 10.86 10.57 11.75 8.56999 11.75ZM4.52999 3.25C3.18999 3.25 3.04999 3.63 3.04999 4.48V9.01C3.04999 9.87 3.18999 10.24 4.52999 10.24H8.56999C9.90999 10.24 10.05 9.86 10.05 9.01V4.48C10.05 3.62 9.90999 3.25 8.56999 3.25H4.52999Z" fill="#F39325"/>
<path d="M8.56999 23.25H4.52999C2.51999 23.25 1.54999 22.27 1.54999 20.27V16.23C1.54999 14.22 2.52999 13.25 4.52999 13.25H8.56999C10.58 13.25 11.55 14.23 11.55 16.23V20.27C11.55 22.27 10.57 23.25 8.56999 23.25ZM4.52999 14.75C3.34999 14.75 3.04999 15.05 3.04999 16.23V20.27C3.04999 21.45 3.34999 21.75 4.52999 21.75H8.56999C9.74999 21.75 10.05 21.45 10.05 20.27V16.23C10.05 15.05 9.74999 14.75 8.56999 14.75H4.52999Z" fill="#F39325"/>
</svg>
