<svg width="203" height="48" viewBox="0 0 203 48" fill="none" xmlns="http://www.w3.org/2000/svg">
<path d="M13.0917 47.3869C10.2111 47.3869 7.82491 46.8925 5.93317 45.9037C4.08443 44.9148 2.70862 43.6465 1.80575 42.0987C0.902874 40.5509 0.451437 38.9601 0.451437 37.3264C0.451437 35.7356 0.838383 34.2308 1.61227 32.812C2.38617 31.3502 3.48251 30.1464 4.90131 29.2005C6.36311 28.2546 8.08287 27.7817 10.0606 27.7817C10.0176 28.1686 9.9961 28.5341 9.9961 28.878C9.9961 29.179 9.9961 29.3295 9.9961 29.3295C9.9961 32.2101 10.2756 34.4887 10.8345 36.1655C11.3934 37.7993 12.1028 38.9816 12.9627 39.7125C13.8226 40.4004 14.7039 40.7444 15.6068 40.7444C16.9826 40.7444 18.208 40.207 19.2828 39.1321C20.3577 38.0143 20.8951 36.7244 20.8951 35.2626C20.8951 33.6289 20.1857 32.1886 18.7669 30.9417C17.3911 29.6949 15.6283 28.3191 13.4786 26.8143C12.2748 25.9114 10.985 24.9011 9.60916 23.7832C8.27634 22.6224 7.137 21.2681 6.19113 19.7203C5.24527 18.1295 4.77233 16.2593 4.77233 14.1096C4.77233 11.8739 5.28826 9.89619 6.32012 8.17643C7.39497 6.45667 8.79227 5.01637 10.512 3.85554C12.2748 2.6517 14.188 1.74883 16.2517 1.14692C18.3584 0.502006 20.4436 0.179552 22.5074 0.179552C25.044 0.179552 27.1292 0.587995 28.763 1.40488C30.3967 2.22177 31.6221 3.27512 32.439 4.56494C33.2558 5.85476 33.6643 7.18757 33.6643 8.56338C33.6643 9.8532 33.2988 11.1 32.5679 12.3039C31.88 13.4647 30.8482 14.4106 29.4724 15.1415C28.0966 15.8724 26.3983 16.2378 24.3776 16.2378C24.5066 15.6359 24.5926 15.0985 24.6356 14.6255C24.6785 14.1096 24.7 13.6582 24.7 13.2712C24.7 11.1215 24.2271 9.59523 23.2812 8.69236C22.3784 7.74649 21.368 7.27356 20.2502 7.27356C19.1753 7.27356 18.1435 7.682 17.1546 8.49889C16.1657 9.27278 15.6713 10.5411 15.6713 12.3039C15.6713 13.8086 16.0583 15.0985 16.8321 16.1733C17.649 17.2482 18.6809 18.194 19.9277 19.0109C21.2175 19.8278 22.5718 20.6232 23.9906 21.3971C25.4524 22.171 26.8497 23.0309 28.1826 23.9767C29.5584 24.8796 30.6977 25.9544 31.6006 27.2013C32.5035 28.4481 32.9549 30.0174 32.9549 31.9091C32.9549 33.8868 32.4175 35.8216 31.3426 37.7133C30.2678 39.562 28.806 41.2173 26.9572 42.6791C25.1085 44.0979 22.9803 45.2372 20.5726 46.0971C18.208 46.957 15.7143 47.3869 13.0917 47.3869ZM50.6279 47.4514C47.4894 47.4514 44.8882 46.828 42.8245 45.5812C40.7608 44.2914 39.213 42.6146 38.1812 40.5509C37.1493 38.4442 36.6334 36.187 36.6334 33.7793C36.6334 31.5007 37.0633 29.222 37.9232 26.9433C38.8261 24.6216 40.1159 22.5149 41.7927 20.6232C43.5124 18.7315 45.5761 17.2052 47.9838 16.0443C50.4345 14.8835 53.1861 14.3031 56.2386 14.3031C60.0221 14.3031 62.7737 15.163 64.4935 16.8827C66.2562 18.5595 67.1376 20.6017 67.1376 23.0094C67.1376 25.0731 66.5787 26.9863 65.4609 28.7491C64.386 30.4688 62.9457 31.8661 61.14 32.941C59.3342 33.9728 57.3565 34.4888 55.2068 34.4888C54.0889 34.4888 52.9496 34.3168 51.7888 33.9728C50.6279 33.6289 49.4886 33.0914 48.3707 32.3605C48.5857 35.0262 49.3596 36.9609 50.6924 38.1647C52.0252 39.3686 53.616 39.9705 55.4648 39.9705C56.7546 39.9705 58.0444 39.734 59.3342 39.2611C60.624 38.7452 61.8064 38.1002 62.8812 37.3264C63.9991 36.5095 64.8589 35.6496 65.4609 34.7467L65.9123 35.0692C65.9123 37.3049 65.4394 39.2181 64.4935 40.8089C63.5906 42.3566 62.3868 43.625 60.882 44.6138C59.3772 45.6027 57.7219 46.3336 55.9162 46.8065C54.1534 47.2365 52.3907 47.4514 50.6279 47.4514ZM52.1112 30.0389C53.487 30.0389 54.6049 29.6519 55.4648 28.878C56.3246 28.0611 56.9695 27.1153 57.3995 26.0404C57.8294 24.9656 58.0444 24.0197 58.0444 23.2028C58.0444 22.214 57.7649 21.3971 57.206 20.7522C56.6471 20.0643 55.8732 19.7203 54.8843 19.7203C54.1104 19.7203 53.2506 19.9998 52.3047 20.5587C51.4018 21.1176 50.5849 22.085 49.854 23.4608C49.1231 24.7936 48.6502 26.6638 48.4352 29.0715C49.811 29.7164 51.0364 30.0389 52.1112 30.0389ZM77.4935 47.258C76.3326 47.258 75.1933 46.9785 74.0754 46.4196C73.0006 45.8177 72.1192 44.8718 71.4313 43.582C70.7434 42.2922 70.3994 40.6369 70.3994 38.6162C70.3994 36.8104 70.6359 34.7037 71.1089 32.2961C71.6248 29.8454 72.1837 27.3088 72.7856 24.6861C73.4305 22.0635 73.9894 19.5053 74.4624 17.0117C74.9353 14.518 75.1503 12.3039 75.1073 10.3691C75.1073 8.52038 74.8923 7.20907 74.4624 6.43518L74.3979 6.2417C74.8708 4.86589 75.7092 3.79104 76.913 3.01715C78.1169 2.24326 79.3852 1.85631 80.718 1.85631C82.2228 1.85631 83.5556 2.43673 84.7164 3.59757C85.9203 4.71542 86.5222 6.60715 86.5222 9.27278C86.5222 10.6916 86.3502 12.3898 86.0063 14.3676C85.6623 16.3023 85.2539 18.3875 84.7809 20.6232C84.308 22.8159 83.8136 24.9871 83.2976 27.1368C82.8247 29.2865 82.4163 31.2642 82.0723 33.0699C81.7284 34.8757 81.5564 36.359 81.5564 37.5198C81.5564 38.7237 81.7284 39.562 82.0723 40.035C82.4163 40.4649 82.8032 40.6799 83.2332 40.6799C83.7061 40.6799 84.1575 40.5079 84.5875 40.164C85.0174 39.777 85.2969 39.4331 85.4258 39.1321L85.9418 39.2611C85.8988 40.8089 85.4473 42.1847 84.5875 43.3885C83.7706 44.5923 82.7172 45.5382 81.4274 46.2261C80.1806 46.914 78.8693 47.258 77.4935 47.258ZM97.206 47.258C96.0452 47.258 94.9059 46.9785 93.788 46.4196C92.7132 45.8177 91.8318 44.8718 91.1439 43.582C90.456 42.2922 90.112 40.6369 90.112 38.6162C90.112 36.8104 90.3485 34.7037 90.8214 32.2961C91.3374 29.8454 91.8963 27.3088 92.4982 24.6861C93.1431 22.0635 93.702 19.5053 94.175 17.0117C94.6479 14.518 94.8629 12.3039 94.8199 10.3691C94.8199 8.52038 94.6049 7.20907 94.175 6.43518L94.1105 6.2417C94.5834 4.86589 95.4218 3.79104 96.6256 3.01715C97.8294 2.24326 99.0978 1.85631 100.431 1.85631C101.935 1.85631 103.268 2.43673 104.429 3.59757C105.633 4.71542 106.235 6.60715 106.235 9.27278C106.235 10.6916 106.063 12.3898 105.719 14.3676C105.375 16.3023 104.966 18.3875 104.494 20.6232C104.021 22.8159 103.526 24.9871 103.01 27.1368C102.537 29.2865 102.129 31.2642 101.785 33.0699C101.441 34.8757 101.269 36.359 101.269 37.5198C101.269 38.7237 101.441 39.562 101.785 40.035C102.129 40.4649 102.516 40.6799 102.946 40.6799C103.419 40.6799 103.87 40.5079 104.3 40.164C104.73 39.777 105.009 39.4331 105.138 39.1321L105.654 39.2611C105.611 40.8089 105.16 42.1847 104.3 43.3885C103.483 44.5923 102.43 45.5382 101.14 46.2261C99.8932 46.914 98.5818 47.258 97.206 47.258Z" fill="#3F80FF"/>
<path d="M150.24 47.4514C148.521 47.4514 147.102 47.0645 145.984 46.2906C144.866 45.5167 143.963 44.4849 143.275 43.195C142.587 41.8622 142.028 40.4004 141.598 38.8096C141.212 37.1759 140.846 35.5421 140.502 33.9083C140.072 31.6297 139.535 29.5014 138.89 27.5237C138.288 25.546 137.299 24.1702 135.923 23.3963C135.063 26.5349 134.247 29.6949 133.473 32.8765C132.699 36.015 132.312 39.1321 132.312 42.2277C132.312 42.7006 132.312 43.195 132.312 43.711C132.355 44.1839 132.398 44.6568 132.441 45.1298C130.936 46.5486 129.195 47.258 127.217 47.258C125.583 47.258 124.1 46.6346 122.767 45.3877C121.477 44.1409 120.832 42.1202 120.832 39.3256C120.832 37.2189 121.176 35.0692 121.864 32.8765C122.552 30.6838 123.348 28.4696 124.25 26.2339C125.196 23.9982 126.013 21.784 126.701 19.5913C127.389 17.3556 127.733 15.163 127.733 13.0133C127.733 11.5945 127.561 10.6056 127.217 10.0467C126.873 9.44476 126.422 9.1438 125.863 9.1438C125.261 9.1438 124.594 9.44476 123.863 10.0467C123.176 10.6486 122.509 11.573 121.864 12.8198L121.413 12.6908C121.499 10.4981 121.993 8.47739 122.896 6.62865C123.799 4.77991 125.003 3.31811 126.508 2.24326C128.055 1.12542 129.732 0.566497 131.538 0.566497C133.344 0.566497 134.934 1.2544 136.31 2.63021C137.686 3.96302 138.374 6.2847 138.374 9.59523C138.374 11.057 138.223 12.6263 137.923 14.3031C137.665 15.9368 137.342 17.6136 136.955 19.3334C138.89 17.6566 140.567 15.8079 141.985 13.7871C143.447 11.7234 144.565 9.72421 145.339 7.78948C146.156 5.81176 146.564 4.092 146.564 2.63021C146.564 1.68434 146.371 0.888951 145.984 0.244042C148.091 0.244042 149.961 0.545 151.595 1.14692C153.271 1.74883 154.604 2.58721 155.593 3.66206C156.582 4.69392 157.076 5.89775 157.076 7.27356C157.076 9.1223 156.023 11.143 153.916 13.3357C151.853 15.5284 148.349 17.6996 143.404 19.8493C144.651 20.4082 145.661 21.2466 146.435 22.3644C147.252 23.4393 147.919 24.6216 148.435 25.9114C148.993 27.1583 149.466 28.3836 149.853 29.5874C150.584 31.6941 151.294 33.4784 151.982 34.9402C152.712 36.359 153.744 37.0684 155.077 37.0684C155.937 37.0684 156.689 36.7889 157.334 36.23C158.022 35.6711 158.517 35.0477 158.818 34.3598L159.205 34.5532C159.205 36.8749 158.861 39.0246 158.173 41.0023C157.485 42.9371 156.474 44.5063 155.142 45.7102C153.809 46.871 152.175 47.4514 150.24 47.4514ZM173.145 12.4973C171.425 12.4973 170.007 11.9814 168.889 10.9495C167.814 9.87469 167.276 8.54188 167.276 6.9511C167.276 5.23134 167.921 3.74805 169.211 2.50122C170.501 1.2544 172.07 0.630987 173.919 0.630987C175.639 0.630987 177.036 1.16841 178.111 2.24326C179.229 3.31811 179.788 4.65092 179.788 6.2417C179.788 7.96146 179.143 9.44476 177.853 10.6916C176.563 11.8954 174.994 12.4973 173.145 12.4973ZM168.631 47.258C166.954 47.258 165.449 46.6775 164.116 45.5167C162.784 44.3129 162.117 42.3996 162.117 39.777C162.117 38.2722 162.311 36.8749 162.698 35.5851C163.128 34.2523 163.601 32.9625 164.116 31.7156C164.675 30.4688 165.148 29.265 165.535 28.1041C165.965 26.9003 166.18 25.718 166.18 24.5571C166.18 23.5253 166.008 22.7944 165.664 22.3644C165.32 21.8915 164.912 21.655 164.439 21.655C163.708 21.655 162.999 22.128 162.311 23.0738L161.859 22.8159C162.031 21.0961 162.569 19.6343 163.472 18.4305C164.417 17.1837 165.557 16.2163 166.89 15.5284C168.265 14.8405 169.62 14.4965 170.952 14.4965C172.586 14.4965 174.005 15.034 175.209 16.1088C176.413 17.1407 177.015 18.8389 177.015 21.2036C177.015 22.6224 176.8 24.1272 176.37 25.718C175.983 27.2658 175.51 28.8135 174.951 30.3613C174.435 31.9091 173.962 33.3494 173.532 34.6822C173.145 36.015 172.952 37.1544 172.952 38.1002C172.952 38.9171 173.102 39.4975 173.403 39.8415C173.747 40.1855 174.113 40.3574 174.499 40.3574C174.886 40.3574 175.252 40.2499 175.596 40.035C175.983 39.777 176.262 39.4975 176.434 39.1966L176.886 39.3256C176.886 40.9164 176.456 42.3137 175.596 43.5175C174.779 44.6783 173.747 45.6027 172.5 46.2906C171.253 46.9355 169.964 47.258 168.631 47.258ZM191.151 47.258C189.775 47.258 188.464 46.957 187.217 46.3551C186.013 45.7102 185.024 44.7213 184.25 43.3885C183.519 42.0557 183.154 40.3574 183.154 38.2937C183.154 37.1759 183.261 35.7141 183.476 33.9083C183.691 32.1026 183.971 30.1249 184.315 27.9752C184.702 25.8255 185.089 23.6758 185.476 21.5261C184.616 21.5691 183.777 21.655 182.96 21.784C182.186 21.913 181.413 22.0635 180.639 22.2355L180.51 21.784C181.37 20.7522 182.272 19.8708 183.218 19.1399C184.164 18.409 185.153 17.8071 186.185 17.3342C186.744 14.4965 187.217 12.0459 187.604 9.98218C187.991 7.87547 188.184 6.62865 188.184 6.2417C188.184 5.5108 188.743 4.90889 189.861 4.43596C191.022 3.96302 192.312 3.72656 193.73 3.72656C194.977 3.72656 196.138 3.96302 197.213 4.43596C198.331 4.90889 199.083 5.70428 199.47 6.82212C199.212 7.08008 198.847 8.04745 198.374 9.72422C197.901 11.358 197.406 13.3572 196.89 15.7219C197.707 15.7649 198.546 15.8079 199.406 15.8509C200.265 15.8939 201.147 15.9583 202.05 16.0443C202.136 16.3023 202.2 16.5818 202.243 16.8827C202.286 17.1837 202.308 17.5061 202.308 17.8501C202.308 18.495 202.2 19.2044 201.985 19.9783C201.813 20.7092 201.598 21.3756 201.34 21.9775C200.308 21.8915 199.341 21.8055 198.438 21.7195C197.535 21.5906 196.654 21.5046 195.794 21.4616C195.45 23.3103 195.128 25.1591 194.827 27.0078C194.569 28.8565 194.354 30.5333 194.182 32.0381C194.053 33.5429 193.988 34.7252 193.988 35.5851C193.988 37.3908 194.311 38.5947 194.956 39.1966C195.644 39.7985 196.46 40.0995 197.406 40.0995C198.266 40.0995 199.04 39.9275 199.728 39.5835C200.416 39.2396 200.91 38.8311 201.211 38.3582L201.856 38.5517C201.598 40.3144 200.91 41.8622 199.793 43.195C198.675 44.4849 197.342 45.4952 195.794 46.2261C194.246 46.914 192.699 47.258 191.151 47.258Z" fill="white"/>
</svg>
