<svg width="604" height="293" viewBox="0 0 604 293" fill="none" xmlns="http://www.w3.org/2000/svg">
<g clip-path="url(#clip0_708_3602)">
<path d="M182.82 137.301L183.557 136.625L182.82 137.301ZM306.702 72.4329L305.71 72.5565L306.702 72.4329ZM88.3546 240.983L88.6025 240.014L88.3546 240.983ZM-5.84526 81.8786C-6.18523 81.4434 -6.81366 81.3661 -7.24892 81.7061L-14.3416 87.2463C-14.7768 87.5863 -14.854 88.2148 -14.5141 88.65C-14.1741 89.0852 -13.5457 89.1625 -13.1104 88.8225L-6.80582 83.8978L-1.88116 90.2024C-1.54119 90.6377 -0.912757 90.7149 -0.477526 90.3749C-0.0422664 90.035 0.0349372 89.4065 -0.305029 88.9713L-5.84526 81.8786ZM384.786 83.1299C384.654 83.7423 384.513 84.364 384.365 84.9947L386.312 85.4523C386.463 84.8103 386.606 84.1769 386.741 83.5527L384.786 83.1299ZM383.391 88.847C383.059 90.0756 382.7 91.3314 382.315 92.6114L384.23 93.188C384.621 91.8903 384.985 90.6162 385.322 89.3685L383.391 88.847ZM381.13 96.3653C380.722 97.604 380.29 98.8611 379.835 100.134L381.719 100.807C382.179 99.5186 382.616 98.246 383.03 96.9917L381.13 96.3653ZM378.479 103.801C378.013 105.017 377.527 106.246 377.021 107.485L378.873 108.241C379.384 106.989 379.875 105.746 380.347 104.516L378.479 103.801ZM375.491 111.12C374.974 112.315 374.438 113.516 373.885 114.724L375.703 115.557C376.262 114.337 376.803 113.123 377.327 111.915L375.491 111.12ZM372.197 118.306C371.63 119.479 371.047 120.655 370.447 121.833L372.229 122.74C372.835 121.55 373.425 120.362 373.998 119.177L372.197 118.306ZM368.611 125.347C367.995 126.496 367.364 127.646 366.718 128.795L368.461 129.776C369.114 128.615 369.752 127.453 370.374 126.291L368.611 125.347ZM364.737 132.228C364.073 133.353 363.393 134.475 362.699 135.594L364.398 136.648C365.1 135.517 365.787 134.383 366.459 133.246L364.737 132.228ZM360.575 138.934C359.86 140.03 359.131 141.122 358.388 142.208L360.039 143.337C360.79 142.239 361.528 141.135 362.251 140.026L360.575 138.934ZM356.118 145.442C355.352 146.507 354.572 147.564 353.778 148.612L355.373 149.82C356.176 148.758 356.966 147.688 357.741 146.611L356.118 145.442ZM351.356 151.729C350.537 152.755 349.705 153.772 348.859 154.777L350.389 156.065C351.247 155.046 352.09 154.016 352.92 152.976L351.356 151.729ZM346.28 157.758C345.407 158.74 344.52 159.71 343.619 160.666L345.075 162.037C345.989 161.067 346.889 160.084 347.775 159.087L346.28 157.758ZM340.878 163.49C339.948 164.42 339.004 165.334 338.048 166.232L339.417 167.69C340.389 166.778 341.347 165.849 342.292 164.905L340.878 163.49ZM335.138 168.876C334.15 169.744 333.149 170.593 332.135 171.423L333.402 172.971C334.435 172.126 335.453 171.261 336.458 170.379L335.138 168.876ZM329.052 173.857C328.006 174.651 326.947 175.425 325.875 176.177L327.023 177.814C328.117 177.048 329.196 176.259 330.262 175.449L329.052 173.857ZM322.618 178.365C321.515 179.075 320.399 179.76 319.27 180.421L320.28 182.147C321.434 181.472 322.573 180.772 323.699 180.048L322.618 178.365ZM315.843 182.327C314.686 182.937 313.516 183.521 312.333 184.078L313.184 185.888C314.395 185.318 315.593 184.72 316.776 184.096L315.843 182.327ZM308.748 185.662C307.543 186.161 306.324 186.63 305.093 187.07L305.766 188.954C307.028 188.503 308.277 188.021 309.513 187.51L308.748 185.662ZM301.373 188.295C300.127 188.67 298.869 189.014 297.599 189.327L298.076 191.269C299.38 190.948 300.672 190.595 301.95 190.21L301.373 188.295ZM293.773 190.161C292.499 190.404 291.213 190.615 289.915 190.793L290.186 192.774C291.519 192.592 292.84 192.376 294.148 192.126L293.773 190.161ZM286.022 191.22C284.733 191.327 283.433 191.401 282.122 191.441L282.182 193.44C283.529 193.399 284.864 193.323 286.187 193.213L286.022 191.22ZM278.198 191.458C276.91 191.43 275.612 191.369 274.303 191.274L274.159 193.269C275.501 193.366 276.833 193.428 278.154 193.457L278.198 191.458ZM270.379 190.892C269.108 190.736 267.827 190.548 266.536 190.328L266.199 192.299C267.521 192.525 268.833 192.717 270.135 192.877L270.379 190.892ZM262.636 189.566C261.393 189.294 260.141 188.991 258.881 188.657L258.369 190.59C259.656 190.931 260.936 191.241 262.207 191.52L262.636 189.566ZM255.082 187.562C253.854 187.18 252.618 186.768 251.375 186.327L250.705 188.211C251.974 188.662 253.234 189.082 254.488 189.471L255.082 187.562ZM247.71 184.946C246.491 184.46 245.264 183.945 244.03 183.401L243.223 185.231C244.479 185.785 245.728 186.309 246.97 186.804L247.71 184.946ZM240.526 181.784C239.351 181.218 238.17 180.626 236.982 180.006L236.056 181.779C237.263 182.409 238.464 183.011 239.658 183.586L240.526 181.784ZM233.511 178.127C232.396 177.501 231.275 176.851 230.148 176.177L229.121 177.893C230.263 178.577 231.4 179.236 232.533 179.871L233.511 178.127ZM226.751 174.079C225.66 173.385 224.564 172.668 223.463 171.928L222.347 173.587C223.462 174.337 224.572 175.063 225.677 175.767L226.751 174.079ZM220.257 169.716C219.184 168.957 218.105 168.176 217.023 167.372L215.831 168.978C216.925 169.79 218.016 170.581 219.102 171.349L220.257 169.716ZM213.871 164.979C212.861 164.195 211.848 163.392 210.83 162.569L209.573 164.124C210.6 164.955 211.624 165.767 212.645 166.558L213.871 164.979ZM207.766 160.041C206.747 159.184 205.724 158.307 204.697 157.41L203.382 158.916C204.418 159.821 205.45 160.706 206.479 161.572L207.766 160.041ZM201.823 154.856C200.862 153.987 199.897 153.101 198.929 152.197L197.564 153.659C198.54 154.57 199.513 155.464 200.482 156.34L201.823 154.856ZM196.015 149.431C195.073 148.523 194.128 147.598 193.179 146.656L191.77 148.075C192.725 149.024 193.677 149.956 194.627 150.871L196.015 149.431ZM190.451 143.908C189.539 142.977 188.624 142.029 187.706 141.066L186.258 142.446C187.182 143.416 188.103 144.369 189.022 145.308L190.451 143.908ZM184.944 138.129C184.483 137.632 184.02 137.131 183.557 136.625L182.083 137.976C182.549 138.485 183.014 138.989 183.478 139.49L184.944 138.129ZM183.557 136.625C183.084 136.109 182.618 135.592 182.16 135.076L180.664 136.404C181.129 136.928 181.602 137.452 182.083 137.976L183.557 136.625ZM179.498 131.98C178.64 130.95 177.811 129.92 177.011 128.892L175.432 130.12C176.246 131.166 177.089 132.213 177.96 133.26L179.498 131.98ZM174.618 125.702C173.81 124.584 173.036 123.468 172.294 122.354L170.629 123.462C171.385 124.598 172.174 125.735 172.997 126.873L174.618 125.702ZM170.168 119.019C169.461 117.86 168.789 116.703 168.152 115.549L166.401 116.516C167.052 117.695 167.738 118.877 168.46 120.06L170.168 119.019ZM166.28 111.973C165.693 110.785 165.142 109.6 164.626 108.419L162.793 109.22C163.322 110.43 163.886 111.643 164.487 112.86L166.28 111.973ZM163.093 104.654C162.619 103.397 162.185 102.144 161.789 100.897L159.883 101.503C160.289 102.784 160.735 104.07 161.222 105.36L163.093 104.654ZM160.688 97.0693C160.351 95.7588 160.056 94.455 159.802 93.1584L157.839 93.5432C158.101 94.8782 158.404 96.2199 158.751 97.5678L160.688 97.0693ZM159.157 89.2633C158.976 87.9211 158.838 86.5872 158.743 85.2624L156.748 85.4062C156.846 86.7725 156.988 88.1476 157.175 89.5309L159.157 89.2633ZM158.581 81.3156C158.568 79.9679 158.599 78.6305 158.671 77.3038L156.674 77.1948C156.599 78.564 156.568 79.9442 156.581 81.3348L158.581 81.3156ZM159.014 73.3499C159.172 72.0211 159.371 70.7042 159.612 69.3998L157.645 69.0374C157.397 70.3834 157.191 71.7425 157.028 73.114L159.014 73.3499ZM160.456 65.5102C160.78 64.2171 161.144 62.9377 161.545 61.6726L159.639 61.0673C159.225 62.3715 158.85 63.6908 158.516 65.0245L160.456 65.5102ZM162.868 57.9101C163.347 56.6688 163.863 55.4427 164.414 54.2325L162.594 53.4033C162.026 54.6489 161.495 55.9114 161.002 57.1901L162.868 57.9101ZM166.174 50.6478C166.794 49.4712 167.448 48.3114 168.134 47.1691L166.42 46.1393C165.715 47.313 165.043 48.5052 164.405 49.7152L166.174 50.6478ZM170.285 43.7993C171.031 42.6971 171.807 41.6131 172.612 40.5482L171.016 39.3423C170.191 40.4346 169.394 41.547 168.629 42.6785L170.285 43.7993ZM175.104 37.4192C175.96 36.3983 176.843 35.3971 177.751 34.4163L176.284 33.0575C175.354 34.062 174.449 35.0878 173.572 36.1341L175.104 37.4192ZM180.54 31.5455C181.492 30.611 182.467 29.6975 183.464 28.8059L182.131 27.315C181.111 28.2271 180.113 29.1617 179.139 30.1182L180.54 31.5455ZM186.509 26.2057C187.544 25.3618 188.599 24.5404 189.673 23.7422L188.479 22.1373C187.382 22.9531 186.304 23.7929 185.245 24.6558L186.509 26.2057ZM192.939 21.423C194.046 20.6736 195.169 19.9481 196.307 19.2472L195.258 17.5442C194.095 18.2601 192.948 19.0014 191.818 19.7671L192.939 21.423ZM199.765 17.2199C200.932 16.5692 202.113 15.944 203.306 15.3449L202.408 13.5576C201.19 14.1696 199.984 14.8083 198.791 15.473L199.765 17.2199ZM206.93 13.6225C208.149 13.0752 209.378 12.555 210.617 12.0627L209.878 10.2041C208.612 10.7073 207.356 11.2388 206.11 11.798L206.93 13.6225ZM214.378 10.6628C215.641 10.2247 216.911 9.81549 218.186 9.43604L217.616 7.51904C216.311 7.90712 215.013 8.3255 213.722 8.77339L214.378 10.6628ZM222.057 8.38067C223.355 8.05908 224.656 7.76851 225.96 7.50971L225.571 5.54798C224.235 5.81294 222.903 6.11037 221.576 6.43946L222.057 8.38067ZM229.91 6.82481C231.232 6.62883 232.554 6.46611 233.876 6.33746L233.682 4.34685C232.327 4.4788 230.971 4.64562 229.617 4.84644L229.91 6.82481ZM237.87 6.05298C239.204 5.99308 240.535 5.96884 241.862 5.98107L241.881 3.98114C240.517 3.96862 239.15 3.99352 237.78 4.05499L237.87 6.05298ZM245.857 6.1297C247.188 6.21706 248.512 6.34247 249.829 6.50672L250.076 4.52213C248.72 4.35294 247.357 4.22388 245.988 4.13399L245.857 6.1297ZM253.771 7.1205C255.08 7.36547 256.378 7.6507 257.665 7.97706L258.156 6.03845C256.828 5.70156 255.489 5.40728 254.14 5.15467L253.771 7.1205ZM261.491 9.08126C262.754 9.49121 264.003 9.94321 265.237 10.4382L265.982 8.58187C264.705 8.06995 263.413 7.60263 262.108 7.17896L261.491 9.08126ZM268.872 12.0429C270.065 12.6194 271.24 13.239 272.398 13.9026L273.392 12.1676C272.194 11.4804 270.977 10.839 269.743 10.2423L268.872 12.0429ZM275.767 15.9953C276.863 16.7314 277.941 17.5107 278.998 18.3339L280.227 16.7562C279.133 15.9039 278.017 15.097 276.881 14.3347L275.767 15.9953ZM282.038 20.8774C283.017 21.7565 283.976 22.6776 284.912 23.6414L286.347 22.2477C285.379 21.2513 284.387 20.2986 283.373 19.3888L282.038 20.8774ZM287.586 26.5828C288.434 27.5798 289.26 28.6162 290.064 29.6928L291.667 28.4965C290.838 27.3862 289.985 26.3166 289.109 25.287L287.586 26.5828ZM292.364 32.9815C293.074 34.0659 293.763 35.1863 294.43 36.3432L296.163 35.3446C295.477 34.1551 294.768 33.0023 294.037 31.8856L292.364 32.9815ZM296.362 39.9244C296.941 41.0725 297.5 42.2529 298.038 43.4662L299.866 42.6561C299.315 41.4127 298.742 40.202 298.148 39.0235L296.362 39.9244ZM299.575 47.1792C300.052 48.4129 300.508 49.6776 300.942 50.9738L302.839 50.3381C302.395 49.0138 301.928 47.7207 301.441 46.4583L299.575 47.1792ZM302.116 54.7339C302.488 56.0156 302.839 57.3257 303.17 58.6646L305.112 58.1845C304.775 56.8204 304.416 55.4847 304.037 54.177L302.116 54.7339ZM304.058 62.5621C304.324 63.8336 304.572 65.1294 304.801 66.4496L306.772 66.1069C306.538 64.7649 306.286 63.4471 306.016 62.1531L304.058 62.5621ZM305.435 70.4839C305.531 71.1686 305.623 71.8595 305.71 72.5565L307.694 72.3093C307.606 71.6018 307.513 70.9005 307.416 70.2053L305.435 70.4839ZM305.71 72.5565C305.791 73.2044 305.865 73.8533 305.933 74.5031L307.922 74.2954C307.853 73.6325 307.777 72.9704 307.694 72.3093L305.71 72.5565ZM306.263 78.412C306.347 79.7158 306.406 81.0227 306.441 82.3323L308.44 82.2801C308.405 80.9451 308.345 79.6125 308.259 78.2828L306.263 78.412ZM306.469 86.2543C306.454 87.562 306.415 88.8718 306.351 90.1834L308.349 90.2797C308.414 88.944 308.454 87.6096 308.469 86.2772L306.469 86.2543ZM306.093 94.0946C305.983 95.3997 305.85 96.7062 305.694 98.0134L307.68 98.2502C307.839 96.9202 307.974 95.5906 308.086 94.2621L306.093 94.0946ZM305.165 101.894C304.966 103.188 304.745 104.482 304.502 105.776L306.468 106.145C306.715 104.829 306.939 103.513 307.141 102.197L305.165 101.894ZM303.718 109.62C303.436 110.897 303.134 112.173 302.811 113.449L304.749 113.94C305.078 112.645 305.385 111.348 305.671 110.05L303.718 109.62ZM301.788 117.245C301.429 118.501 301.05 119.756 300.652 121.009L302.559 121.614C302.962 120.343 303.346 119.069 303.711 117.794L301.788 117.245ZM299.406 124.748C298.976 125.979 298.527 127.209 298.06 128.436L299.929 129.147C300.403 127.903 300.858 126.656 301.294 125.407L299.406 124.748ZM296.605 132.109C296.108 133.314 295.595 134.516 295.064 135.715L296.892 136.525C297.43 135.31 297.951 134.092 298.454 132.871L296.605 132.109ZM293.42 139.301C292.86 140.482 292.284 141.66 291.691 142.834L293.476 143.736C294.077 142.547 294.66 141.354 295.227 140.158L293.42 139.301ZM289.873 146.327C289.254 147.483 288.618 148.635 287.967 149.783L289.707 150.769C290.366 149.608 291.009 148.442 291.636 147.272L289.873 146.327ZM285.988 153.178C285.314 154.306 284.624 155.428 283.919 156.545L285.611 157.612C286.324 156.482 287.022 155.346 287.704 154.205L285.988 153.178ZM281.786 159.846C281.062 160.939 280.324 162.027 279.572 163.11L281.215 164.251C281.975 163.156 282.722 162.056 283.454 160.95L281.786 159.846ZM277.287 166.323C276.517 167.382 275.734 168.435 274.937 169.481L276.529 170.692C277.334 169.634 278.126 168.57 278.905 167.5L277.287 166.323ZM272.51 172.602C271.696 173.625 270.87 174.642 270.031 175.653L271.57 176.93C272.418 175.909 273.253 174.881 274.075 173.847L272.51 172.602ZM267.48 178.663C266.621 179.655 265.751 180.64 264.869 181.617L266.354 182.957C267.245 181.969 268.125 180.974 268.992 179.972L267.48 178.663ZM262.201 184.515C261.3 185.474 260.388 186.425 259.465 187.368L260.895 188.767C261.827 187.814 262.749 186.853 263.659 185.885L262.201 184.515ZM256.686 190.152C255.749 191.072 254.802 191.985 253.844 192.889L255.216 194.343C256.184 193.43 257.141 192.509 258.088 191.579L256.686 190.152ZM250.948 195.567C249.976 196.448 248.995 197.32 248.003 198.184L249.317 199.692C250.318 198.819 251.31 197.938 252.291 197.048L250.948 195.567ZM244.999 200.749C243.994 201.591 242.98 202.423 241.956 203.247L243.209 204.805C244.243 203.974 245.268 203.133 246.283 202.283L244.999 200.749ZM238.857 205.688C237.818 206.491 236.769 207.285 235.711 208.068L236.902 209.675C237.97 208.883 239.03 208.082 240.08 207.271L238.857 205.688ZM232.523 210.383C231.452 211.145 230.372 211.897 229.284 212.638L230.41 214.291C231.509 213.542 232.6 212.782 233.682 212.013L232.523 210.383ZM226.006 214.825C224.906 215.543 223.799 216.251 222.683 216.948L223.743 218.644C224.87 217.94 225.989 217.225 227.099 216.5L226.006 214.825ZM219.316 219.006C218.19 219.679 217.055 220.341 215.914 220.992L216.905 222.729C218.058 222.071 219.204 221.402 220.342 220.722L219.316 219.006ZM212.468 222.912C211.315 223.539 210.154 224.155 208.986 224.76L209.906 226.536C211.086 225.925 212.258 225.302 213.424 224.669L212.468 222.912ZM205.468 226.536C204.288 227.116 203.102 227.685 201.91 228.241L202.756 230.054C203.961 229.492 205.159 228.917 206.351 228.331L205.468 226.536ZM198.324 229.87C197.122 230.4 195.914 230.918 194.7 231.424L195.469 233.27C196.696 232.759 197.917 232.235 199.131 231.699L198.324 229.87ZM191.045 232.901C189.823 233.38 188.596 233.847 187.362 234.3L188.052 236.177C189.299 235.719 190.54 235.248 191.775 234.764L191.045 232.901ZM183.646 235.62C182.405 236.046 181.158 236.459 179.907 236.858L180.515 238.763C181.78 238.36 183.04 237.942 184.295 237.512L183.646 235.62ZM176.14 238.014C174.88 238.386 173.615 238.744 172.345 239.088L172.868 241.018C174.152 240.67 175.431 240.308 176.706 239.933L176.14 238.014ZM168.535 240.074C167.26 240.389 165.981 240.69 164.697 240.976L165.133 242.928C166.431 242.639 167.725 242.334 169.014 242.016L168.535 240.074ZM160.843 241.79C159.557 242.046 158.267 242.288 156.973 242.515L157.318 244.485C158.627 244.255 159.932 244.011 161.234 243.752L160.843 241.79ZM153.08 243.151C151.785 243.347 150.486 243.529 149.184 243.695L149.437 245.679C150.755 245.511 152.069 245.327 153.379 245.129L153.08 243.151ZM145.27 244.147C143.965 244.283 142.656 244.403 141.344 244.507L141.502 246.501C142.83 246.395 144.155 246.274 145.477 246.137L145.27 244.147ZM137.421 244.773C136.111 244.845 134.798 244.903 133.482 244.944L133.545 246.943C134.877 246.901 136.206 246.843 137.532 246.769L137.421 244.773ZM129.546 245.02C128.237 245.029 126.926 245.023 125.612 245L125.578 247C126.908 247.023 128.235 247.029 129.56 247.02L129.546 245.02ZM121.666 244.884C120.36 244.829 119.053 244.759 117.743 244.672L117.611 246.667C118.937 246.755 120.261 246.827 121.582 246.882L121.666 244.884ZM113.818 244.363C112.51 244.244 111.2 244.108 109.889 243.956L109.658 245.943C110.986 246.097 112.312 246.234 113.637 246.355L113.818 244.363ZM105.999 243.457C104.701 243.274 103.402 243.074 102.102 242.858L101.775 244.831C103.091 245.05 104.406 245.252 105.72 245.437L105.999 243.457ZM98.2199 242.164C96.9392 241.918 95.6578 241.657 94.3757 241.379L93.9515 243.333C95.2496 243.615 96.5469 243.88 97.8435 244.128L98.2199 242.164ZM90.5276 240.494C89.886 240.338 89.2443 240.178 88.6025 240.014L88.1068 241.952C88.7565 242.118 89.4062 242.28 90.0557 242.437L90.5276 240.494ZM88.6025 240.014C87.9403 239.845 87.2826 239.671 86.6293 239.494L86.1061 241.425C86.7686 241.604 87.4355 241.78 88.1068 241.952L88.6025 240.014ZM82.7625 238.387C81.4743 237.997 80.204 237.593 78.9514 237.173L78.3165 239.07C79.5879 239.496 80.877 239.906 82.184 240.301L82.7625 238.387ZM75.1503 235.836C73.8904 235.371 72.6492 234.89 71.4265 234.395L70.6753 236.248C71.9175 236.752 73.1781 237.24 74.4575 237.712L75.1503 235.836ZM67.7162 232.821C66.4892 232.277 65.2816 231.717 64.0932 231.142L63.2225 232.943C64.4308 233.527 65.6583 234.096 66.9053 234.649L67.7162 232.821ZM60.4987 229.329C59.3103 228.704 58.1421 228.063 56.9937 227.408L56.0023 229.145C57.1706 229.811 58.3589 230.463 59.5675 231.099L60.4987 229.329ZM53.5386 225.355C52.3955 224.648 51.2732 223.927 50.1713 223.19L49.0602 224.853C50.1817 225.603 51.3239 226.337 52.487 227.056L53.5386 225.355ZM46.877 220.904C45.7861 220.117 44.7163 219.316 43.6673 218.5L42.44 220.08C43.5079 220.91 44.5968 221.725 45.7073 222.526L46.877 220.904ZM40.5522 215.988C39.5199 215.125 38.5088 214.247 37.5188 213.356L36.181 214.843C37.1889 215.75 38.218 216.643 39.269 217.522L40.5522 215.988ZM34.5977 210.632C33.6292 209.696 32.6822 208.747 31.7561 207.785L30.3157 209.173C31.2581 210.151 32.222 211.117 33.2077 212.07L34.5977 210.632ZM29.0305 204.854C28.1334 203.855 27.2574 202.843 26.4021 201.821L24.8681 203.104C25.7381 204.144 26.6293 205.173 27.5421 206.19L29.0305 204.854ZM23.8817 198.701C23.0576 197.645 22.2542 196.578 21.4711 195.501L19.8538 196.678C20.6498 197.772 21.4667 198.857 22.3047 199.931L23.8817 198.701ZM19.1619 192.214C18.4099 191.105 17.6783 189.987 16.9666 188.861L15.2761 189.93C15.9991 191.074 16.7425 192.209 17.5066 193.336L19.1619 192.214ZM14.8736 185.432C14.1926 184.276 13.5314 183.112 12.8896 181.942L11.1361 182.904C11.7875 184.092 12.4588 185.273 13.1504 186.447L14.8736 185.432ZM11.0135 178.397C10.4024 177.2 9.8106 175.997 9.23774 174.789L7.43072 175.646C8.01172 176.871 8.61201 178.091 9.23209 179.306L11.0135 178.397ZM7.56938 171.139C7.02782 169.909 6.50505 168.675 6.00053 167.438L4.1487 168.194C4.65999 169.447 5.18988 170.698 5.73892 171.945L7.56938 171.139ZM4.53157 163.695C4.05797 162.439 3.60251 161.182 3.16461 159.924L1.27574 160.581C1.71919 161.855 2.18053 163.129 2.66029 164.401L4.53157 163.695ZM1.88871 156.103C1.47844 154.821 1.08582 153.539 0.710245 152.259L-1.20889 152.822C-0.82886 154.117 -0.431463 155.415 -0.0161121 156.712L1.88871 156.103ZM-0.373484 148.393C-0.722837 147.088 -1.05494 145.786 -1.37041 144.487L-3.31392 144.959C-2.99483 146.273 -2.6589 147.59 -2.30549 148.911L-0.373484 148.393ZM-2.27487 140.569C-2.5632 139.253 -2.83484 137.942 -3.09052 136.637L-5.05321 137.021C-4.79475 138.34 -4.5201 139.666 -4.22858 140.997L-2.27487 140.569ZM-3.82299 132.669C-4.05394 131.337 -4.26857 130.013 -4.46762 128.698L-6.44508 128.998C-6.24395 130.326 -6.02701 131.664 -5.79359 133.01L-3.82299 132.669ZM-5.02615 124.728C-5.20161 123.378 -5.36089 122.04 -5.50485 120.716L-7.49315 120.932C-7.34771 122.27 -7.18674 123.622 -7.00947 124.986L-5.02615 124.728ZM-5.89843 116.705C-6.01691 115.354 -6.11961 114.018 -6.20747 112.701L-8.20304 112.834C-8.11427 114.165 -8.01048 115.514 -7.89079 116.88L-5.89843 116.705ZM-6.43264 108.695C-6.49519 107.325 -6.54181 105.978 -6.5737 104.657L-8.57311 104.705C-8.5409 106.041 -8.49377 107.402 -8.43057 108.786L-6.43264 108.695ZM-6.62667 100.625C-6.62941 99.2502 -6.61625 97.9075 -6.58863 96.6001L-8.58817 96.5579C-8.61613 97.8808 -8.62944 99.2388 -8.62665 100.629L-6.62667 100.625ZM-6.45472 92.5813C-6.39108 91.1938 -6.31111 89.8549 -6.21698 88.5687L-8.21163 88.4227C-8.30714 89.7274 -8.38817 91.0844 -8.45263 92.4897L-6.45472 92.5813ZM-5.86249 84.566C-5.79233 83.8969 -5.71829 83.2467 -5.6408 82.6162L-7.62585 82.3722C-7.70485 83.0149 -7.78022 83.6769 -7.85157 84.3574L-5.86249 84.566Z" fill="#79BBFF"/>
<path d="M536.356 266.501L535.482 266.014L536.356 266.501ZM459.014 182.866L458.914 181.871L459.014 182.866ZM638.04 383.581L639.039 383.548L638.04 383.581ZM522.261 540.758C521.91 541.184 521.97 541.814 522.396 542.166L529.338 547.895C529.764 548.246 530.394 548.186 530.746 547.76C531.097 547.334 531.037 546.703 530.611 546.352L524.441 541.26L529.532 535.09C529.884 534.664 529.824 534.033 529.398 533.682C528.972 533.33 528.341 533.391 527.99 533.817L522.261 540.758ZM458.914 75.222C459.573 75.2251 460.237 75.2327 460.905 75.2449L460.942 73.2453C460.264 73.2329 459.592 73.2252 458.923 73.222L458.914 75.222ZM464.959 75.3736C466.282 75.4333 467.62 75.5108 468.971 75.6069L469.113 73.612C467.745 73.5146 466.39 73.4361 465.049 73.3756L464.959 75.3736ZM472.992 75.9453C474.326 76.0749 475.669 76.2225 477.02 76.389L477.264 74.404C475.896 74.2354 474.536 74.0859 473.185 73.9547L472.992 75.9453ZM481.004 76.9321C482.328 77.1299 483.657 77.346 484.99 77.5809L485.337 75.6113C483.987 75.3733 482.641 75.1544 481.3 74.9541L481.004 76.9321ZM488.96 78.3349C490.27 78.6021 491.583 78.8878 492.895 79.1927L493.348 77.2445C492.017 76.9355 490.687 76.6459 489.359 76.3752L488.96 78.3349ZM496.816 80.161C498.113 80.5006 499.408 80.8594 500.7 81.238L501.263 79.3187C499.952 78.9346 498.638 78.5706 497.323 78.2262L496.816 80.161ZM504.552 82.4288C505.829 82.8446 507.101 83.2805 508.367 83.7368L509.045 81.8552C507.759 81.3918 506.467 80.9492 505.171 80.5271L504.552 82.4288ZM512.133 85.1626C513.381 85.6583 514.62 86.1747 515.851 86.7125L516.652 84.8798C515.4 84.3328 514.139 83.8077 512.871 83.3039L512.133 85.1626ZM519.511 88.3885C520.721 88.9687 521.921 89.5706 523.108 90.1948L524.038 88.4245C522.829 87.7887 521.608 87.1757 520.376 86.5851L519.511 88.3885ZM526.631 92.1343C527.793 92.8036 528.941 93.4957 530.074 94.2109L531.142 92.5197C529.985 91.7898 528.814 91.0838 527.63 90.4013L526.631 92.1343ZM533.426 96.4267C534.527 97.1887 535.612 97.9745 536.678 98.7844L537.888 97.1918C536.797 96.3637 535.689 95.5606 534.564 94.7821L533.426 96.4267ZM539.817 101.284C540.844 102.142 541.851 103.023 542.837 103.93L544.191 102.458C543.181 101.529 542.15 100.626 541.099 99.7491L539.817 101.284ZM545.719 106.714C546.655 107.665 547.568 108.64 548.458 109.641L549.953 108.313C549.04 107.286 548.103 106.285 547.144 105.311L545.719 106.714ZM551.043 112.706C551.872 113.744 552.678 114.807 553.457 115.896L555.083 114.732C554.283 113.614 553.457 112.523 552.605 111.458L551.043 112.706ZM555.708 119.228C556.418 120.342 557.102 121.482 557.759 122.648L559.501 121.665C558.826 120.468 558.124 119.298 557.395 118.153L555.708 119.228ZM559.634 126.196C560.221 127.381 560.78 128.591 561.311 129.827L563.148 129.037C562.603 127.769 562.029 126.526 561.427 125.31L559.634 126.196ZM562.796 133.546C563.254 134.789 563.686 136.056 564.089 137.347L565.998 136.751C565.585 135.427 565.142 134.128 564.672 132.853L562.796 133.546ZM565.185 141.19C565.517 142.475 565.823 143.783 566.1 145.115L568.058 144.707C567.774 143.344 567.462 142.005 567.121 140.689L565.185 141.19ZM566.824 149.038C567.035 150.35 567.22 151.684 567.378 153.039L569.365 152.808C569.204 151.424 569.015 150.061 568.798 148.72L566.824 149.038ZM567.757 157.013C567.856 158.337 567.93 159.68 567.978 161.044L569.977 160.974C569.928 159.584 569.853 158.214 569.752 156.864L567.757 157.013ZM568.043 165.053C568.04 166.374 568.014 167.714 567.963 169.072L569.962 169.147C570.013 167.766 570.04 166.403 570.043 165.057L568.043 165.053ZM567.743 173.117C567.651 174.425 567.536 175.749 567.399 177.09L569.388 177.293C569.528 175.932 569.644 174.587 569.738 173.258L567.743 173.117ZM566.919 181.161C566.748 182.454 566.556 183.76 566.343 185.082L568.318 185.4C568.533 184.06 568.728 182.735 568.902 181.425L566.919 181.161ZM565.647 189.07C565.4 190.383 565.133 191.71 564.845 193.051L566.801 193.47C567.092 192.113 567.362 190.769 567.612 189.44L565.647 189.07ZM563.966 196.936C563.654 198.244 563.323 199.565 562.972 200.899L564.907 201.407C565.261 200.058 565.595 198.723 565.911 197.4L563.966 196.936ZM561.91 204.779C561.549 206.047 561.171 207.327 560.775 208.618L562.688 209.204C563.087 207.9 563.469 206.608 563.834 205.327L561.91 204.779ZM559.536 212.527C559.125 213.785 558.697 215.054 558.253 216.333L560.142 216.989C560.59 215.699 561.022 214.419 561.437 213.149L559.536 212.527ZM556.908 220.104C556.444 221.371 555.965 222.648 555.469 223.936L557.336 224.654C557.835 223.356 558.319 222.069 558.786 220.791L556.908 220.104ZM553.985 227.708C553.494 228.927 552.99 230.155 552.471 231.393L554.315 232.166C554.838 230.92 555.346 229.683 555.84 228.454L553.985 227.708ZM550.871 235.133C550.326 236.384 549.767 237.644 549.193 238.914L551.015 239.738C551.593 238.46 552.156 237.192 552.705 235.932L550.871 235.133ZM547.543 242.504C546.98 243.708 546.405 244.921 545.816 246.142L547.618 247.011C548.21 245.782 548.789 244.562 549.355 243.35L547.543 242.504ZM544.012 249.83C543.414 251.034 542.804 252.245 542.182 253.464L543.963 254.374C544.589 253.148 545.202 251.93 545.803 250.719L544.012 249.83ZM540.355 256.995C539.735 258.18 539.103 259.371 538.459 260.57L540.221 261.516C540.868 260.312 541.503 259.114 542.127 257.923L540.355 256.995ZM536.492 264.189C536.158 264.795 535.822 265.404 535.482 266.014L537.23 266.987C537.571 266.374 537.909 265.762 538.245 265.152L536.492 264.189ZM535.482 266.014C535.135 266.637 534.789 267.255 534.443 267.869L536.185 268.851C536.533 268.235 536.881 267.613 537.23 266.987L535.482 266.014ZM532.372 271.49C531.684 272.678 530.997 273.847 530.311 274.997L532.029 276.021C532.719 274.864 533.41 273.688 534.103 272.493L532.372 271.49ZM528.259 278.389C527.577 279.501 526.896 280.595 526.217 281.669L527.908 282.738C528.592 281.655 529.277 280.555 529.964 279.435L528.259 278.389ZM523.994 285.131C523.23 286.302 522.467 287.45 521.707 288.575L523.364 289.695C524.13 288.561 524.898 287.405 525.669 286.224L523.994 285.131ZM519.433 291.878C518.678 292.957 517.924 294.012 517.174 295.044L518.791 296.22C519.549 295.178 520.309 294.114 521.071 293.026L519.433 291.878ZM514.778 298.273C513.928 299.394 513.082 300.486 512.24 301.55L513.807 302.792C514.659 301.717 515.514 300.613 516.372 299.481L514.778 298.273ZM509.722 304.655C508.886 305.661 508.053 306.64 507.224 307.59L508.732 308.905C509.571 307.942 510.414 306.951 511.26 305.933L509.722 304.655ZM504.472 310.659C503.532 311.676 502.598 312.658 501.668 313.605L503.094 315.006C504.039 314.045 504.988 313.048 505.942 312.015L504.472 310.659ZM498.893 316.34C497.901 317.286 496.915 318.192 495.935 319.058L497.259 320.557C498.259 319.673 499.263 318.751 500.273 317.788L498.893 316.34ZM492.828 321.691C491.8 322.524 490.778 323.314 489.765 324.062L490.952 325.672C491.991 324.905 493.036 324.097 494.087 323.244L492.828 321.691ZM486.439 326.381C485.298 327.131 484.167 327.826 483.046 328.469L484.041 330.204C485.198 329.54 486.364 328.823 487.537 328.052L486.439 326.381ZM479.609 330.293C478.363 330.9 477.131 331.442 475.914 331.921L476.645 333.782C477.914 333.284 479.194 332.72 480.486 332.091L479.609 330.293ZM472.279 333.177C470.959 333.57 469.656 333.888 468.372 334.134L468.749 336.098C470.1 335.839 471.467 335.505 472.849 335.094L472.279 333.177ZM464.546 334.663C463.204 334.776 461.883 334.809 460.583 334.766L460.518 336.765C461.896 336.81 463.295 336.775 464.713 336.656L464.546 334.663ZM456.71 334.41C455.408 334.212 454.128 333.936 452.872 333.586L452.336 335.513C453.669 335.884 455.026 336.177 456.408 336.387L456.71 334.41ZM449.173 332.32C447.964 331.827 446.778 331.264 445.615 330.634L444.662 332.393C445.887 333.056 447.139 333.651 448.418 334.172L449.173 332.32ZM442.268 328.595C441.182 327.858 440.12 327.061 439.082 326.208L437.812 327.753C438.896 328.644 440.007 329.477 441.145 330.25L442.268 328.595ZM436.157 323.596C435.21 322.679 434.285 321.714 433.384 320.704L431.891 322.035C432.824 323.081 433.782 324.081 434.767 325.033L436.157 323.596ZM430.863 317.681C430.048 316.638 429.255 315.556 428.485 314.437L426.838 315.572C427.63 316.722 428.447 317.836 429.287 318.912L430.863 317.681ZM426.333 311.125C425.638 309.99 424.964 308.825 424.312 307.631L422.557 308.59C423.224 309.812 423.915 311.006 424.628 312.17L426.333 311.125ZM422.495 304.117C421.91 302.921 421.346 301.701 420.804 300.46L418.971 301.261C419.525 302.528 420.101 303.773 420.698 304.995L422.495 304.117ZM419.282 296.782C418.798 295.544 418.335 294.287 417.892 293.014L416.003 293.671C416.454 294.967 416.926 296.248 417.42 297.51L419.282 296.782ZM416.644 289.209C416.253 287.939 415.882 286.656 415.531 285.361L413.6 285.884C413.957 287.201 414.335 288.506 414.733 289.798L416.644 289.209ZM414.545 281.464C414.241 280.169 413.957 278.866 413.693 277.554L411.732 277.948C412 279.281 412.289 280.606 412.598 281.921L414.545 281.464ZM412.964 273.597C412.743 272.283 412.543 270.963 412.364 269.639L410.382 269.907C410.564 271.252 410.767 272.593 410.991 273.928L412.964 273.597ZM411.89 265.654C411.753 264.323 411.637 262.99 411.542 261.655L409.547 261.797C409.643 263.152 409.761 264.507 409.9 265.859L411.89 265.654ZM411.323 257.651C411.272 256.314 411.242 254.977 411.235 253.643L409.235 253.654C409.242 255.01 409.272 256.369 409.325 257.728L411.323 257.651ZM411.28 249.628C411.318 248.293 411.378 246.962 411.462 245.638L409.466 245.512C409.381 246.86 409.319 248.214 409.281 249.571L411.28 249.628ZM411.787 241.627C411.92 240.296 412.076 238.973 412.257 237.66L410.276 237.387C410.092 238.725 409.932 240.073 409.797 241.429L411.787 241.627ZM412.883 233.697C413.119 232.377 413.381 231.069 413.668 229.775L411.716 229.341C411.422 230.663 411.155 231.999 410.915 233.345L412.883 233.697ZM414.621 225.898C414.971 224.6 415.348 223.319 415.754 222.057L413.85 221.444C413.434 222.738 413.048 224.05 412.69 225.377L414.621 225.898ZM417.065 218.307C417.542 217.048 418.048 215.812 418.586 214.6L416.758 213.789C416.205 215.036 415.684 216.307 415.195 217.599L417.065 218.307ZM420.293 211.032C420.909 209.837 421.558 208.671 422.24 207.535L420.525 206.506C419.821 207.68 419.151 208.884 418.516 210.115L420.293 211.032ZM424.385 204.22C425.149 203.125 425.948 202.063 426.782 201.038L425.231 199.775C424.365 200.84 423.536 201.941 422.744 203.076L424.385 204.22ZM429.392 198.073C430.305 197.116 431.253 196.198 432.239 195.322L430.91 193.827C429.882 194.741 428.894 195.697 427.945 196.693L429.392 198.073ZM435.308 192.822C436.355 192.041 437.439 191.304 438.56 190.613L437.51 188.911C436.338 189.633 435.206 190.403 434.113 191.218L435.308 192.822ZM442.033 188.678C443.186 188.101 444.376 187.568 445.601 187.082L444.864 185.223C443.585 185.73 442.343 186.287 441.138 186.889L442.033 188.678ZM449.371 185.772C450.599 185.402 451.861 185.076 453.156 184.796L452.733 182.841C451.387 183.132 450.074 183.472 448.794 183.857L449.371 185.772ZM457.079 184.104C457.749 184.011 458.427 183.93 459.114 183.861L458.914 181.871C458.203 181.943 457.5 182.027 456.805 182.123L457.079 184.104ZM459.114 183.861C459.775 183.795 460.435 183.731 461.093 183.671L460.911 181.679C460.247 181.74 459.581 181.804 458.914 181.871L459.114 183.861ZM465.029 183.348C466.338 183.253 467.643 183.171 468.942 183.101L468.835 181.104C467.523 181.174 466.206 181.257 464.884 181.353L465.029 183.348ZM472.899 182.929C474.212 182.885 475.52 182.854 476.822 182.837L476.795 180.837C475.479 180.854 474.158 180.886 472.832 180.93L472.899 182.929ZM480.773 182.825C482.09 182.835 483.402 182.858 484.707 182.896L484.765 180.897C483.445 180.859 482.119 180.835 480.788 180.825L480.773 182.825ZM488.64 183.053C489.958 183.12 491.27 183.202 492.575 183.298L492.722 181.303C491.401 181.206 490.075 181.123 488.742 181.056L488.64 183.053ZM496.486 183.631C497.801 183.759 499.109 183.902 500.411 184.059L500.651 182.074C499.334 181.914 498.01 181.77 496.679 181.641L496.486 183.631ZM504.294 184.577C505.602 184.768 506.903 184.975 508.196 185.197L508.535 183.225C507.225 183.001 505.908 182.792 504.583 182.598L504.294 184.577ZM512.054 185.909C513.348 186.165 514.634 186.438 515.912 186.726L516.351 184.775C515.056 184.483 513.753 184.207 512.443 183.947L512.054 185.909ZM519.731 187.64C521.006 187.964 522.274 188.304 523.533 188.66L524.077 186.735C522.8 186.374 521.515 186.03 520.222 185.702L519.731 187.64ZM527.299 189.782C528.552 190.174 529.798 190.583 531.034 191.009L531.686 189.118C530.431 188.686 529.168 188.271 527.896 187.873L527.299 189.782ZM534.732 192.342C535.96 192.805 537.179 193.285 538.389 193.781L539.148 191.931C537.92 191.427 536.683 190.94 535.437 190.471L534.732 192.342ZM542.003 195.327C543.201 195.86 544.389 196.41 545.568 196.978L546.435 195.175C545.238 194.599 544.032 194.041 542.817 193.5L542.003 195.327ZM549.084 198.735C550.246 199.338 551.399 199.958 552.543 200.596L553.517 198.849C552.356 198.202 551.185 197.572 550.004 196.959L549.084 198.735ZM555.946 202.561C557.069 203.233 558.184 203.922 559.288 204.628L560.366 202.943C559.244 202.226 558.113 201.526 556.972 200.844L555.946 202.561ZM562.564 206.794C563.645 207.533 564.716 208.289 565.777 209.062L566.955 207.445C565.877 206.66 564.79 205.893 563.692 205.143L562.564 206.794ZM568.914 211.42C569.949 212.222 570.974 213.042 571.99 213.879L573.262 212.336C572.231 211.486 571.19 210.654 570.14 209.839L568.914 211.42ZM574.977 216.417C575.963 217.28 576.939 218.159 577.904 219.056L579.265 217.59C578.285 216.68 577.295 215.788 576.294 214.912L574.977 216.417ZM580.737 221.763C581.671 222.681 582.594 223.615 583.508 224.566L584.95 223.181C584.023 222.216 583.087 221.268 582.14 220.337L580.737 221.763ZM586.184 227.432C587.063 228.4 587.932 229.384 588.791 230.384L590.308 229.08C589.437 228.067 588.556 227.069 587.664 226.087L586.184 227.432ZM591.311 233.397C592.134 234.41 592.948 235.437 593.752 236.481L595.336 235.26C594.522 234.203 593.697 233.161 592.862 232.135L591.311 233.397ZM596.116 239.632C596.883 240.683 597.642 241.749 598.39 242.83L600.034 241.692C599.276 240.597 598.509 239.517 597.731 238.452L596.116 239.632ZM600.601 246.11C601.313 247.194 602.016 248.293 602.709 249.406L604.407 248.349C603.705 247.222 602.994 246.11 602.273 245.012L600.601 246.11ZM604.761 252.788C605.422 253.907 606.074 255.039 606.716 256.185L608.461 255.207C607.811 254.048 607.151 252.902 606.483 251.77L604.761 252.788ZM608.606 259.644C609.22 260.799 609.825 261.966 610.421 263.147L612.207 262.246C611.604 261.052 610.992 259.872 610.371 258.705L608.606 259.644ZM612.153 266.668C612.721 267.854 613.28 269.054 613.831 270.266L615.652 269.439C615.096 268.214 614.531 267.003 613.956 265.804L612.153 266.668ZM615.413 273.842C615.93 275.043 616.439 276.257 616.94 277.483L618.792 276.727C618.286 275.489 617.772 274.263 617.249 273.05L615.413 273.842ZM618.399 281.152C618.868 282.364 619.329 283.588 619.781 284.823L621.659 284.135C621.202 282.889 620.737 281.654 620.264 280.43L618.399 281.152ZM621.115 288.563C621.54 289.79 621.958 291.029 622.367 292.278L624.268 291.655C623.855 290.395 623.433 289.146 623.004 287.908L621.115 288.563ZM623.565 296.032C623.955 297.291 624.337 298.56 624.711 299.84L626.631 299.279C626.254 297.989 625.868 296.709 625.475 295.44L623.565 296.032ZM625.779 303.599C626.128 304.862 626.469 306.136 626.802 307.419L628.738 306.916C628.402 305.623 628.058 304.34 627.707 303.067L625.779 303.599ZM627.77 311.26C628.078 312.521 628.379 313.792 628.672 315.072L630.622 314.625C630.326 313.335 630.023 312.056 629.713 310.786L627.77 311.26ZM629.532 318.941C629.807 320.222 630.075 321.511 630.337 322.81L632.297 322.416C632.035 321.108 631.764 319.81 631.487 318.521L629.532 318.941ZM631.085 326.661C631.328 327.953 631.563 329.255 631.792 330.565L633.762 330.221C633.532 328.902 633.295 327.593 633.051 326.292L631.085 326.661ZM632.448 334.461C632.656 335.745 632.858 337.037 633.053 338.337L635.031 338.041C634.834 336.733 634.632 335.433 634.422 334.141L632.448 334.461ZM633.618 342.264C633.798 343.564 633.971 344.872 634.138 346.189L636.122 345.938C635.954 344.614 635.78 343.298 635.599 341.99L633.618 342.264ZM634.609 350.08C634.76 351.384 634.904 352.697 635.043 354.018L637.032 353.809C636.893 352.482 636.747 351.162 636.595 349.85L634.609 350.08ZM635.436 357.975C635.558 359.267 635.674 360.565 635.784 361.871L637.777 361.704C637.666 360.391 637.55 359.086 637.428 357.788L635.436 357.975ZM636.096 365.811C636.194 367.132 636.286 368.46 636.372 369.795L638.368 369.667C638.281 368.325 638.189 366.99 638.09 365.663L636.096 365.811ZM636.606 373.701C636.678 375.005 636.744 376.316 636.805 377.635L638.803 377.543C638.742 376.218 638.675 374.901 638.603 373.59L636.606 373.701ZM636.97 381.61C636.995 382.276 637.018 382.944 637.04 383.613L639.039 383.548C639.017 382.876 638.994 382.205 638.969 381.536L636.97 381.61ZM637.04 383.613C637.062 384.291 637.082 384.966 637.098 385.639L639.098 385.589C639.081 384.912 639.062 384.231 639.039 383.548L637.04 383.613ZM637.165 389.641C637.176 390.965 637.177 392.277 637.167 393.579L639.167 393.595C639.177 392.282 639.176 390.958 639.165 389.624L637.165 389.641ZM637.101 397.591C637.067 398.928 637.023 400.253 636.966 401.566L638.965 401.652C639.021 400.326 639.067 398.989 639.1 397.641L637.101 397.591ZM636.762 405.512C636.681 406.859 636.587 408.193 636.481 409.514L638.475 409.673C638.582 408.339 638.676 406.993 638.759 405.634L636.762 405.512ZM636.13 413.442C635.997 414.781 635.852 416.107 635.696 417.421L637.681 417.658C637.84 416.331 637.986 414.992 638.12 413.639L636.13 413.442ZM635.184 421.358C634.999 422.678 634.802 423.986 634.592 425.279L636.566 425.599C636.778 424.291 636.978 422.97 637.165 421.636L635.184 421.358ZM633.911 429.212C633.671 430.515 633.418 431.805 633.153 433.08L635.111 433.487C635.379 432.197 635.635 430.893 635.878 429.575L633.911 429.212ZM632.293 436.993C631.994 438.282 631.682 439.557 631.358 440.817L633.296 441.315C633.623 440.039 633.939 438.749 634.241 437.445L632.293 436.993ZM630.314 444.684C629.952 445.961 629.578 447.221 629.191 448.467L631.102 449.06C631.493 447.799 631.872 446.522 632.238 445.23L630.314 444.684ZM627.958 452.266C627.532 453.524 627.093 454.765 626.642 455.99L628.519 456.681C628.976 455.44 629.421 454.182 629.853 452.908L627.958 452.266ZM625.213 459.714C624.721 460.947 624.216 462.162 623.699 463.361L625.536 464.153C626.06 462.938 626.572 461.705 627.071 460.455L625.213 459.714ZM622.069 467C621.51 468.202 620.938 469.387 620.355 470.553L622.144 471.448C622.736 470.264 623.315 469.063 623.882 467.844L622.069 467ZM618.519 474.096C617.892 475.263 617.253 476.412 616.602 477.543L618.336 478.541C618.996 477.393 619.645 476.227 620.281 475.042L618.519 474.096ZM614.563 480.97C613.866 482.101 613.158 483.213 612.438 484.306L614.109 485.405C614.839 484.295 615.558 483.167 616.266 482.018L614.563 480.97ZM610.204 487.59C609.438 488.68 608.661 489.75 607.873 490.8L609.474 492C610.273 490.933 611.062 489.847 611.84 488.741L610.204 487.59ZM605.451 493.928C604.617 494.971 603.773 495.994 602.92 496.996L604.442 498.293C605.309 497.275 606.167 496.236 607.013 495.177L605.451 493.928ZM600.311 499.964C599.414 500.953 598.508 501.92 597.594 502.867L599.033 504.256C599.962 503.295 600.882 502.312 601.792 501.308L600.311 499.964ZM594.795 505.676C593.844 506.602 592.884 507.505 591.918 508.388L593.267 509.865C594.249 508.968 595.223 508.05 596.19 507.11L594.795 505.676ZM588.939 511.026C587.93 511.891 586.914 512.735 585.893 513.558L587.147 515.115C588.184 514.28 589.216 513.423 590.241 512.544L588.939 511.026ZM582.769 515.993C581.704 516.798 580.634 517.58 579.56 518.34L580.715 519.972C581.805 519.201 582.892 518.406 583.975 517.589L582.769 515.993ZM576.291 520.578C575.182 521.312 574.07 522.024 572.957 522.713L574.009 524.413C575.14 523.714 576.269 522.991 577.395 522.245L576.291 520.578ZM569.543 524.754C568.388 525.42 567.232 526.063 566.078 526.683L567.024 528.445C568.196 527.816 569.369 527.163 570.542 526.486L569.543 524.754ZM562.566 528.5C561.368 529.097 560.173 529.669 558.981 530.218L559.818 532.034C561.027 531.478 562.241 530.896 563.458 530.29L562.566 528.5ZM555.347 531.823C554.116 532.344 552.89 532.84 551.673 533.311L552.395 535.176C553.631 534.698 554.876 534.194 556.127 533.665L555.347 531.823ZM547.962 534.68C546.697 535.124 545.443 535.541 544.202 535.932L544.803 537.84C546.065 537.442 547.339 537.018 548.624 536.567L547.962 534.68ZM540.392 537.063C539.094 537.425 537.813 537.758 536.552 538.063L537.022 540.007C538.306 539.696 539.609 539.358 540.929 538.99L540.392 537.063ZM532.683 538.924C531.358 539.193 530.059 539.431 528.789 539.638L529.11 541.612C530.406 541.401 531.731 541.159 533.082 540.884L532.683 538.924ZM524.872 540.191C524.217 540.269 523.572 540.339 522.937 540.399L523.128 542.39C523.778 542.328 524.439 542.257 525.108 542.177L524.872 540.191Z" fill="#79BBFF"/>
</g>
<defs>
<clipPath id="clip0_708_3602">
<rect width="604" height="293" fill="white"/>
</clipPath>
</defs>
</svg>
