<svg width="286" height="349" viewBox="0 0 286 349" fill="none" xmlns="http://www.w3.org/2000/svg">
<path d="M0 177.609H66.5M238.5 177.609H161.5M119.25 177.609C121.667 176.609 126.7 173.109 127.5 167.109V111.609M119.25 177.609H66.5M119.25 177.609H161.5M127.5 47.6089V111.609M127.5 111.609C128.294 107.64 131.931 100.344 140.225 101.389C141.076 101.496 141.932 101.609 142.789 101.609H199C205.627 101.609 211 96.2363 211 89.6089V14.4478C211 7.88364 216.274 2.53761 222.838 2.44892L285 1.60889M66.5 177.609C70.8333 177.609 79.4 179.909 79 189.109V348.109M161.5 177.609C166.401 178.241 175.319 181.812 173.836 191.053C173.669 192.093 173.5 193.143 173.5 194.196V332.109C173.5 338.736 178.873 344.109 185.5 344.109H282.5" stroke="#3F80FF" stroke-width="2"/>
</svg>
