<svg width="285" height="349" viewBox="0 0 285 349" fill="none" xmlns="http://www.w3.org/2000/svg">
<path d="M285 177.609H218.587M46.8134 177.609H123.712M165.907 177.609C163.493 176.609 158.466 173.109 157.668 167.109V111.609M165.907 177.609H218.587M165.907 177.609H123.712M157.668 47.6089V111.609M157.668 111.609C156.875 107.641 153.244 100.346 144.962 101.389C144.111 101.496 143.253 101.609 142.395 101.609H86.2773C79.6499 101.609 74.2773 96.2363 74.2773 89.6089V14.4476C74.2773 7.88351 69.0031 2.53752 62.4396 2.44871L0.37452 1.60889M218.587 177.609C214.26 177.609 205.704 179.909 206.104 189.109V348.109M123.712 177.609C118.818 178.241 109.91 181.813 111.393 191.055C111.559 192.093 111.728 193.142 111.728 194.194V332.109C111.728 338.736 106.355 344.109 99.728 344.109H2.87123" stroke="#3F80FF" stroke-width="2"/>
</svg>
