<svg width="40" height="40" viewBox="0 0 40 40" fill="none" xmlns="http://www.w3.org/2000/svg">
<path d="M27.2734 10.4688C27.4219 10.75 27.4609 10.9453 27.4609 11.4453C27.4609 12.2344 27.3047 12.5469 26.5391 13.3359L25.9922 13.9062H25.2578C24.8594 13.9062 24.5312 13.8828 24.5312 13.8516C24.5312 13.8203 24.9453 13.3828 25.4453 12.875L26.3594 11.9609L26.3906 11.5078C26.4219 11.0937 26.3984 11.0234 26.2109 10.7969C25.7656 10.2656 25.2422 10.1719 24.6797 10.5391C24.4922 10.6641 23.6328 11.4688 22.7734 12.3359L21.2109 13.9062H20.0078H18.7969L17.0703 12.1953C15.6484 10.7812 15.2969 10.4688 15.0234 10.3828C14.5938 10.2578 14.1875 10.375 13.8672 10.7031C13.6562 10.9219 13.6328 11 13.6328 11.4453V11.9531L14.5547 12.8672C15.0547 13.375 15.4688 13.8203 15.4688 13.8516C15.4688 13.8828 15.1406 13.9062 14.75 13.9062H14.0312L14.5703 14.4531L15.1094 15H16.4219H17.7344V16.3672V17.7344H13.6953H9.64844L10.4688 18.5547L11.2891 19.3828L11.3125 19.1016L11.3359 18.8281H14.5391H17.7344V24.8047V30.7891L14.7656 30.7656L11.7969 30.7422L15.7969 34.7422L19.7656 38.7109L20.625 38.75C23.7422 38.75 27.3281 37.6328 30.2188 35.7578C34.7969 32.8047 37.9531 27.8203 38.6016 22.5156L38.7109 21.5234L32.8984 15.9141C28.5469 11.5703 27.1406 10.2031 27.2734 10.4688ZM21.1719 22.8906V30.7812H20H18.8281V22.8906V15H20H21.1719V22.8906ZM30.4297 16.3672V17.6953L26.3516 17.7188L22.2656 17.7344V16.3672V15L26.3516 15.0156L30.4297 15.0391V16.3672ZM28.6719 24.5156C28.6719 29.6406 28.6562 30.2188 28.5469 30.3828C28.2812 30.7578 28.1016 30.7812 25.0781 30.7812H22.2656V24.8047V18.8281H25.4688H28.6719V24.5156Z" fill="#045841"/>
<path d="M17.7195 1.36726C13.5398 1.87508 9.59446 3.81258 6.66477 6.80477C3.6804 9.85164 1.94602 13.4063 1.36009 17.6954C1.20384 18.8751 1.2429 21.6485 1.43821 22.8907C2.03977 26.672 3.81321 30.2579 6.4304 32.961C9.18821 35.8204 12.4695 37.6173 16.3054 38.3985C17.3679 38.6095 18.8523 38.7735 19.3991 38.7345L19.7663 38.711L15.696 34.6485C13.4616 32.4141 11.5632 30.5235 11.4851 30.4454C11.407 30.3673 11.321 30.1954 11.2976 30.0626C11.2741 29.9298 11.2507 27.461 11.2507 24.5782V19.3282L10.3913 18.4766L9.53196 17.6329V16.3204V15.0001H12.321H15.1101L13.9304 13.8048C12.9616 12.8204 12.7351 12.5548 12.6335 12.2345C12.2585 11.1329 12.7038 9.99227 13.7038 9.47664C14.032 9.30477 14.2038 9.2657 14.6882 9.27352C15.0632 9.27352 15.3835 9.32039 15.5866 9.40633C15.7976 9.50008 16.571 10.211 17.9538 11.586L20.0007 13.6251L22.0554 11.586C23.4304 10.211 24.2038 9.50008 24.4148 9.40633C24.8913 9.2032 25.8054 9.21883 26.2507 9.44539C26.5007 9.57039 28.3992 11.4141 32.6335 15.6485C37.3913 20.3985 38.6804 21.6407 38.7195 21.5313C38.7507 21.461 38.7507 20.6173 38.7273 19.6641C38.696 18.2735 38.6492 17.7032 38.4851 16.7891C37.7585 12.7032 35.8523 9.15633 32.8523 6.3282C29.9538 3.58601 26.2663 1.85945 22.2663 1.36726C21.1023 1.22664 18.8991 1.22664 17.7195 1.36726Z" fill="#038F68"/>
<path d="M18.0312 11.7188L20 13.7109L21.9766 11.7188L23.9453 9.72656L21.9766 11.6797L20 13.6328L18.0312 11.6797L16.0547 9.72656L18.0312 11.7188Z" fill="#EC9696"/>
<path d="M13.125 12.9922C13.125 13.0078 13.2422 13.1172 13.3828 13.25L13.6328 13.4766L13.4062 13.2188C13.1875 12.9844 13.125 12.9297 13.125 12.9922Z" fill="#EC9696"/>
<path d="M12.5235 11.4462C12.5235 11.6181 12.5391 11.6806 12.5548 11.579C12.5704 11.4853 12.5704 11.3446 12.5548 11.2665C12.5313 11.1962 12.5157 11.2743 12.5235 11.4462Z" fill="#ECC1C1"/>
<path d="M9.56166 15.1016C9.54603 15.1562 9.53822 15.7656 9.54603 16.4453L9.56947 17.6953H13.632H17.6945V16.3438L17.7023 15L17.6788 16.3281L17.6554 17.6562H13.6242H9.60072L9.62416 16.3281C9.63978 15.5938 9.63978 15 9.62416 15C9.61635 15 9.5851 15.0469 9.56166 15.1016Z" fill="#ECC1C1"/>
<path d="M22.3047 16.3672V17.6953H26.3672H30.4297L30.4531 16.4141C30.4609 15.7031 30.4453 15.1016 30.4141 15.0703C30.375 15.0312 30.3594 15.6016 30.375 16.3281L30.3984 17.6562H26.375H22.3438L22.3203 16.3438L22.2969 15.0391L22.3047 16.3672Z" fill="#ECC1C1"/>
<path d="M17.6953 24.7661C17.6953 28.0552 17.7031 29.3989 17.7109 27.7583C17.7266 26.1098 17.7266 23.4223 17.7109 21.7817C17.7031 20.1333 17.6953 21.477 17.6953 24.7661Z" fill="#ECC1C1"/>
<path d="M22.3047 24.7661C22.3047 28.0552 22.3125 29.3989 22.3203 27.7583C22.3359 26.1098 22.3359 23.4223 22.3203 21.7817C22.3125 20.1333 22.3047 21.477 22.3047 24.7661Z" fill="#ECC1C1"/>
<path d="M14.0936 9.38281C13.6639 9.50781 13.1014 9.94531 12.8514 10.3437C12.6639 10.6562 12.617 10.8281 12.5858 11.3047C12.5467 12.1328 12.6951 12.4609 13.4608 13.2578L14.0858 13.9062H14.7342C15.0936 13.9062 15.3905 13.8828 15.3905 13.8437C15.3905 13.8125 14.9998 13.3984 14.5311 12.9297C13.9217 12.3281 13.6405 11.9844 13.578 11.7812C13.3201 10.9297 14.0858 10.1094 14.953 10.3125C15.2108 10.3672 15.5389 10.6562 17.0311 12.1406L18.7967 13.9062H19.9998H21.203L22.9686 12.1484C24.8905 10.2344 25.0155 10.1484 25.617 10.3125C25.992 10.4141 26.3826 10.8281 26.453 11.2187C26.5467 11.7344 26.3905 12.0078 25.4686 12.9297C24.9998 13.3984 24.6092 13.8125 24.6092 13.8437C24.6092 13.8828 24.8983 13.9062 25.2576 13.9062H25.9139L26.5076 13.2891C27.242 12.5312 27.4139 12.1875 27.4217 11.4375C27.4217 11 27.3826 10.8047 27.2186 10.4844C26.7498 9.54687 25.6951 9.10937 24.6405 9.41406C24.1951 9.53906 24.117 9.60937 22.0936 11.625L19.9998 13.7031L17.9139 11.625C15.953 9.67969 15.7967 9.53906 15.3983 9.42187C14.9295 9.28906 14.4686 9.27344 14.0936 9.38281Z" fill="white"/>
<path d="M9.66406 15.0547C9.63281 15.0781 9.60938 15.6797 9.60938 16.3828V17.6562H13.6328H17.6562V16.3281V15H13.6875C11.5 15 9.6875 15.0234 9.66406 15.0547Z" fill="white"/>
<path d="M18.8828 15.0469C18.8516 15.0781 18.8281 18.6172 18.8281 22.9062V30.7031H20H21.1719L21.1562 22.8672L21.1328 15.0391L20.0312 15.0156C19.4297 15.0078 18.9141 15.0234 18.8828 15.0469Z" fill="white"/>
<path d="M22.3438 16.3281V17.6562H26.3672H30.3906L30.375 16.3438L30.3516 15.0391L26.3516 15.0156L22.3438 15V16.3281Z" fill="white"/>
<path d="M11.3438 24.5391L11.3672 30.25L11.625 30.4766L11.875 30.7031H14.7656H17.6562V24.7656V18.8281H14.4922H11.3281L11.3438 24.5391Z" fill="white"/>
<path d="M22.3438 24.7656V30.7031H25.2344H28.125L28.375 30.4766L28.6328 30.25L28.6562 24.5391L28.6719 18.8281H25.5078H22.3438V24.7656Z" fill="white"/>
</svg>
