<svg width="79" height="76" viewBox="0 0 79 76" fill="none" xmlns="http://www.w3.org/2000/svg">
<path d="M71.4938 34.7868C70.6361 34.7868 69.7942 34.5803 68.9682 34.1673C68.174 33.7225 67.5227 33.0236 67.0144 32.0705C66.5061 31.1175 66.252 29.8944 66.252 28.4012C66.252 27.0669 66.4267 25.5103 66.7761 23.7312C67.1574 21.9204 67.5704 20.046 68.0151 18.1081C68.4917 16.1702 68.9047 14.2799 69.2541 12.4373C69.6036 10.5947 69.7624 8.95863 69.7307 7.52902C69.7307 6.16296 69.5718 5.19401 69.2541 4.62216L69.2065 4.4792C69.5559 3.4626 70.1754 2.66837 71.0649 2.09653C71.9545 1.52469 72.8917 1.23877 73.8765 1.23877C74.9884 1.23877 75.9733 1.66765 76.831 2.52541C77.7205 3.35141 78.1653 4.74924 78.1653 6.71891C78.1653 7.76729 78.0382 9.02216 77.7841 10.4835C77.5299 11.9131 77.2281 13.4539 76.8787 15.1059C76.5292 16.7261 76.1639 18.3305 75.7826 19.9189C75.4332 21.5074 75.1314 22.9687 74.8772 24.303C74.6231 25.6373 74.496 26.7334 74.496 27.5911C74.496 28.4806 74.6231 29.1001 74.8772 29.4496C75.1314 29.7673 75.4173 29.9261 75.735 29.9261C76.0844 29.9261 76.418 29.7991 76.7357 29.5449C77.0534 29.259 77.2599 29.0048 77.3552 28.7825L77.7364 28.8778C77.7047 30.0214 77.3711 31.0381 76.7357 31.9276C76.1321 32.8171 75.3538 33.516 74.4007 34.0243C73.4794 34.5326 72.5104 34.7868 71.4938 34.7868Z" fill="#102B52"/>
<path d="M56.9274 34.7868C56.0697 34.7868 55.2278 34.5803 54.4018 34.1673C53.6076 33.7225 52.9563 33.0236 52.448 32.0705C51.9397 31.1175 51.6855 29.8944 51.6855 28.4012C51.6855 27.0669 51.8603 25.5103 52.2097 23.7312C52.591 21.9204 53.004 20.046 53.4487 18.1081C53.9253 16.1702 54.3383 14.2799 54.6877 12.4373C55.0372 10.5947 55.196 8.95863 55.1642 7.52902C55.1642 6.16296 55.0054 5.19401 54.6877 4.62216L54.6401 4.4792C54.9895 3.4626 55.609 2.66837 56.4985 2.09653C57.3881 1.52469 58.3253 1.23877 59.3101 1.23877C60.422 1.23877 61.4068 1.66765 62.2646 2.52541C63.1541 3.35141 63.5989 4.74924 63.5989 6.71891C63.5989 7.76729 63.4718 9.02216 63.2177 10.4835C62.9635 11.9131 62.6617 13.4539 62.3123 15.1059C61.9628 16.7261 61.5975 18.3305 61.2162 19.9189C60.8668 21.5074 60.565 22.9687 60.3108 24.303C60.0567 25.6373 59.9296 26.7334 59.9296 27.5911C59.9296 28.4806 60.0567 29.1001 60.3108 29.4496C60.565 29.7673 60.8509 29.9261 61.1686 29.9261C61.518 29.9261 61.8516 29.7991 62.1693 29.5449C62.487 29.259 62.6935 29.0048 62.7888 28.7825L63.17 28.8778C63.1383 30.0214 62.8047 31.0381 62.1693 31.9276C61.5657 32.8171 60.7874 33.516 59.8343 34.0243C58.913 34.5326 57.944 34.7868 56.9274 34.7868Z" fill="#102B52"/>
<path d="M37.0761 34.9299C34.757 34.9299 32.835 34.4693 31.3101 33.548C29.7852 32.5949 28.6415 31.3559 27.879 29.831C27.1166 28.2743 26.7354 26.6064 26.7354 24.8274C26.7354 23.1436 27.053 21.4599 27.6884 19.7761C28.3556 18.0606 29.3086 16.5039 30.5476 15.1061C31.8184 13.7082 33.3433 12.5804 35.1224 11.7227C36.9332 10.8649 38.9664 10.436 41.222 10.436C44.0177 10.436 46.0509 11.0714 47.3216 12.3422C48.6242 13.5812 49.2754 15.0902 49.2754 16.8692C49.2754 18.3942 48.8624 19.8079 48.0364 21.1104C47.2422 22.3812 46.178 23.4137 44.8437 24.2079C43.5094 24.9703 42.048 25.3516 40.4595 25.3516C39.6335 25.3516 38.7917 25.2245 37.9339 24.9703C37.0761 24.7162 36.2343 24.3191 35.4083 23.779C35.5671 25.7487 36.139 27.1783 37.1238 28.0678C38.1086 28.9573 39.2841 29.4021 40.6502 29.4021C41.6032 29.4021 42.5563 29.2274 43.5094 28.8779C44.4624 28.4967 45.3361 28.0202 46.1303 27.4483C46.9563 26.8447 47.5917 26.2093 48.0364 25.5422L48.37 25.7804C48.37 27.4324 48.0206 28.8461 47.3216 30.0216C46.6545 31.1653 45.765 32.1025 44.653 32.8332C43.5411 33.5638 42.318 34.1039 40.9837 34.4534C39.6812 34.7711 38.3787 34.9299 37.0761 34.9299ZM38.1722 22.0635C39.1888 22.0635 40.0148 21.7776 40.6502 21.2057C41.2855 20.6021 41.7621 19.9032 42.0798 19.109C42.3974 18.3147 42.5563 17.6158 42.5563 17.0122C42.5563 16.2815 42.3498 15.6779 41.9368 15.2014C41.5238 14.6931 40.952 14.4389 40.2213 14.4389C39.6494 14.4389 39.0141 14.6454 38.3151 15.0584C37.648 15.4714 37.0444 16.1862 36.5043 17.2028C35.9642 18.1877 35.6148 19.5696 35.4559 21.3487C36.4725 21.8252 37.378 22.0635 38.1722 22.0635Z" fill="#102B52"/>
<path d="M9.34007 34.8823C7.21155 34.8823 5.44838 34.517 4.05054 33.7863C2.68448 33.0556 1.66787 32.1184 1.00072 30.9747C0.333574 29.831 0 28.6556 0 27.4484C0 26.2729 0.285921 25.161 0.857762 24.1126C1.4296 23.0325 2.23971 22.143 3.28809 21.444C4.36823 20.7451 5.63899 20.3957 7.10036 20.3957C7.06859 20.6816 7.05271 20.9516 7.05271 21.2058C7.05271 21.4282 7.05271 21.5394 7.05271 21.5394C7.05271 23.6679 7.25921 25.3516 7.6722 26.5906C8.0852 27.7978 8.60939 28.6715 9.24477 29.2116C9.88015 29.7199 10.5314 29.974 11.1986 29.974C12.2152 29.974 13.1206 29.5769 13.9148 28.7827C14.709 27.9567 15.1061 27.0036 15.1061 25.9235C15.1061 24.7162 14.5819 23.652 13.5336 22.7307C12.517 21.8094 11.2144 20.7928 9.62599 19.6809C8.73646 19.0137 7.78339 18.2671 6.76679 17.4412C5.78195 16.5834 4.94007 15.5827 4.24116 14.439C3.54224 13.2635 3.19278 11.8816 3.19278 10.2931C3.19278 8.64116 3.57401 7.17978 4.33646 5.90902C5.13069 4.63827 6.16318 3.57401 7.43394 2.71624C8.73646 1.82671 10.1502 1.15957 11.6751 0.714801C13.2318 0.238267 14.7726 0 16.2975 0C18.1718 0 19.7126 0.301805 20.9199 0.905415C22.1271 1.50902 23.0325 2.28736 23.6361 3.24043C24.2397 4.1935 24.5415 5.17834 24.5415 6.19495C24.5415 7.14801 24.2715 8.06931 23.7314 8.95884C23.2231 9.81661 22.4607 10.5155 21.444 11.0556C20.4274 11.5957 19.1726 11.8657 17.6794 11.8657C17.7747 11.4209 17.8383 11.0238 17.87 10.6744C17.9018 10.2931 17.9177 9.95957 17.9177 9.67365C17.9177 8.0852 17.5682 6.9574 16.8693 6.29025C16.2022 5.59133 15.4556 5.24188 14.6296 5.24188C13.8354 5.24188 13.0729 5.54368 12.3422 6.14729C11.6116 6.71913 11.2462 7.65632 11.2462 8.95884C11.2462 10.0708 11.5321 11.0238 12.104 11.8181C12.7076 12.6123 13.47 13.3112 14.3913 13.9148C15.3444 14.5184 16.3451 15.1061 17.3935 15.678C18.4736 16.2498 19.5061 16.8852 20.491 17.5841C21.5076 18.2513 22.3495 19.0455 23.0166 19.9668C23.6838 20.8881 24.0173 22.0477 24.0173 23.4455C24.0173 24.9069 23.6202 26.3365 22.826 27.7343C22.0318 29.1004 20.9516 30.3235 19.5856 31.4036C18.2195 32.452 16.6469 33.2939 14.8679 33.9292C13.1206 34.5646 11.278 34.8823 9.34007 34.8823Z" fill="#102B52"/>
<path d="M60.9409 75.669C59.9243 75.669 58.9554 75.4466 58.0341 75.0018C57.1446 74.5253 56.4139 73.7946 55.842 72.8098C55.302 71.825 55.0319 70.5701 55.0319 69.0452C55.0319 68.2192 55.1113 67.139 55.2702 65.8047C55.429 64.4704 55.6355 63.0091 55.8897 61.4206C56.1756 59.8322 56.4615 58.2437 56.7474 56.6553C56.1121 56.687 55.4926 56.7506 54.889 56.8459C54.3171 56.9412 53.7453 57.0524 53.1734 57.1795L53.0781 56.8459C53.7135 56.0834 54.3807 55.4322 55.0796 54.8921C55.7785 54.352 56.5092 53.9073 57.2716 53.5578C57.6846 51.4611 58.0341 49.6502 58.32 48.1253C58.6059 46.5686 58.7489 45.6473 58.7489 45.3614C58.7489 44.8213 59.1619 44.3766 59.9879 44.0271C60.8456 43.6777 61.7987 43.5029 62.8471 43.5029C63.7684 43.5029 64.6261 43.6777 65.4204 44.0271C66.2464 44.3766 66.8023 44.9643 67.0882 45.7903C66.8976 45.9809 66.6276 46.6957 66.2781 47.9347C65.9287 49.1419 65.5633 50.6192 65.1821 52.3665C65.7857 52.3982 66.4052 52.43 67.0406 52.4618C67.676 52.4935 68.3272 52.5412 68.9944 52.6047C69.0579 52.7953 69.1056 53.0018 69.1373 53.2242C69.1691 53.4466 69.185 53.6849 69.185 53.939C69.185 54.4156 69.1056 54.9398 68.9467 55.5116C68.8196 56.0517 68.6608 56.5441 68.4702 56.9888C67.7077 56.9253 66.9929 56.8618 66.3258 56.7982C65.6586 56.7029 65.0074 56.6394 64.372 56.6076C64.1178 57.9737 63.8796 59.3398 63.6572 60.7058C63.4666 62.0719 63.3077 63.3109 63.1806 64.4228C63.0853 65.5347 63.0377 66.4083 63.0377 67.0437C63.0377 68.378 63.276 69.2676 63.7525 69.7123C64.2608 70.1571 64.8644 70.3795 65.5633 70.3795C66.1987 70.3795 66.7706 70.2524 67.2789 69.9982C67.7872 69.7441 68.1525 69.4423 68.3749 69.0928L68.8514 69.2358C68.6608 70.5383 68.1525 71.682 67.3265 72.6668C66.5005 73.6199 65.5157 74.3665 64.372 74.9065C63.2283 75.4148 62.0846 75.669 60.9409 75.669Z" fill="#458FFF"/>
<path d="M47.6362 49.9841C46.3655 49.9841 45.3171 49.6028 44.4911 48.8404C43.6969 48.0461 43.2998 47.0613 43.2998 45.8859C43.2998 44.6151 43.7763 43.5191 44.7294 42.5978C45.6824 41.6765 46.842 41.2158 48.2081 41.2158C49.4788 41.2158 50.5113 41.6129 51.3055 42.4072C52.1315 43.2014 52.5445 44.1862 52.5445 45.3617C52.5445 46.6324 52.068 47.7285 51.1149 48.6498C50.1619 49.5393 49.0023 49.9841 47.6362 49.9841ZM44.3005 75.6693C43.0615 75.6693 41.9496 75.2404 40.9647 74.3826C39.9799 73.4931 39.4875 72.0794 39.4875 70.1415C39.4875 69.0295 39.6305 67.997 39.9164 67.044C40.2341 66.0591 40.5835 65.1061 40.9647 64.1848C41.3777 63.2635 41.7272 62.3739 42.0131 61.5162C42.3308 60.6267 42.4897 59.753 42.4897 58.8952C42.4897 58.1328 42.3626 57.5927 42.1084 57.275C41.8543 56.9256 41.5525 56.7508 41.203 56.7508C40.6629 56.7508 40.1388 57.1003 39.6305 57.7992L39.2969 57.6086C39.424 56.3378 39.8211 55.2577 40.4882 54.3682C41.1871 53.4469 42.029 52.7321 43.0138 52.2238C44.0305 51.7155 45.0312 51.4613 46.016 51.4613C47.2232 51.4613 48.2716 51.8584 49.1611 52.6526C50.0507 53.4151 50.4954 54.67 50.4954 56.4173C50.4954 57.4656 50.3366 58.5776 50.0189 59.753C49.733 60.8967 49.3835 62.0404 48.9705 63.1841C48.5893 64.3277 48.2398 65.392 47.9221 66.3768C47.6362 67.3617 47.4933 68.2035 47.4933 68.9025C47.4933 69.5061 47.6045 69.935 47.8268 70.1891C48.081 70.4433 48.351 70.5703 48.637 70.5703C48.9229 70.5703 49.1929 70.4909 49.4471 70.3321C49.733 70.1415 49.9395 69.935 50.0666 69.7126L50.4001 69.8079C50.4001 70.9833 50.0824 72.0158 49.4471 72.9054C48.8434 73.7631 48.081 74.4461 47.1597 74.9544C46.2384 75.431 45.2853 75.6693 44.3005 75.6693Z" fill="#458FFF"/>
<path d="M30.7114 75.812C29.4407 75.812 28.3923 75.5261 27.5663 74.9542C26.7403 74.3824 26.0731 73.6199 25.5648 72.6669C25.0565 71.682 24.6435 70.6019 24.3259 69.4264C24.0399 68.2192 23.7699 67.012 23.5157 65.8048C23.1981 64.121 22.8009 62.5485 22.3244 61.0871C21.8796 59.6257 21.149 58.6091 20.1323 58.0373C19.497 60.3564 18.8934 62.6914 18.3215 65.0423C17.7497 67.3615 17.4638 69.6647 17.4638 71.9521C17.4638 72.3015 17.4638 72.6669 17.4638 73.0481C17.4955 73.3976 17.5273 73.747 17.5591 74.0965C16.4471 75.1448 15.1605 75.669 13.6991 75.669C12.4919 75.669 11.3959 75.2084 10.411 74.2871C9.45798 73.3658 8.98145 71.8727 8.98145 69.8077C8.98145 68.251 9.23559 66.6625 9.7439 65.0423C10.2522 63.4221 10.8399 61.786 11.5071 60.134C12.206 58.482 12.8096 56.8459 13.3179 55.2257C13.8262 53.5737 14.0804 51.9535 14.0804 50.3651C14.0804 49.3167 13.9533 48.586 13.6991 48.173C13.445 47.7282 13.1114 47.5059 12.6984 47.5059C12.2536 47.5059 11.7612 47.7282 11.2212 48.173C10.7128 48.6178 10.2204 49.3008 9.7439 50.2221L9.41032 50.1268C9.47386 48.5066 9.83921 47.0134 10.5064 45.6474C11.1735 44.2813 12.063 43.2012 13.1749 42.4069C14.3186 41.581 15.5576 41.168 16.8919 41.168C18.2262 41.168 19.4017 41.6763 20.4183 42.6929C21.4349 43.6777 21.9432 45.3932 21.9432 47.8394C21.9432 48.9196 21.832 50.0791 21.6096 51.3181C21.419 52.5254 21.1807 53.7643 20.8948 55.0351C22.3244 53.7961 23.5634 52.43 24.6118 50.9369C25.6919 49.412 26.5179 47.9347 27.0898 46.5051C27.6934 45.0438 27.9952 43.773 27.9952 42.6929C27.9952 41.9939 27.8522 41.4062 27.5663 40.9297C29.123 40.9297 30.5049 41.1521 31.7121 41.5968C32.9511 42.0416 33.936 42.6611 34.6666 43.4553C35.3973 44.2178 35.7627 45.1073 35.7627 46.1239C35.7627 47.49 34.9843 48.9831 33.4277 50.6033C31.9027 52.2236 29.3136 53.8279 25.6601 55.4163C26.5814 55.8293 27.328 56.4488 27.8999 57.2748C28.5035 58.069 28.9959 58.9427 29.3771 59.8958C29.7901 60.8171 30.1396 61.7225 30.4255 62.612C30.9656 64.1687 31.4898 65.4871 31.9981 66.5672C32.5381 67.6156 33.3006 68.1398 34.2854 68.1398C34.9208 68.1398 35.4768 67.9333 35.9533 67.5203C36.4616 67.1073 36.8269 66.6467 37.0493 66.1384L37.3352 66.2813C37.3352 67.9968 37.0811 69.5853 36.5728 71.0467C36.0645 72.4763 35.3179 73.6358 34.3331 74.5254C33.3482 75.3831 32.141 75.812 30.7114 75.812Z" fill="#458FFF"/>
</svg>
