<svg width="24" height="25" viewBox="0 0 24 25" fill="none" xmlns="http://www.w3.org/2000/svg">
<g clip-path="url(#clip0_632_9415)">
<path d="M19 4.36719H17.9C17.6679 3.2386 17.0538 2.22453 16.1613 1.49591C15.2687 0.767278 14.1522 0.368642 13 0.367188L11 0.367188C9.8478 0.368642 8.73132 0.767278 7.83875 1.49591C6.94618 2.22453 6.3321 3.2386 6.1 4.36719H5C3.67441 4.36878 2.40356 4.89607 1.46622 5.83341C0.528882 6.77075 0.00158786 8.04159 0 9.36719L0 19.3672C0.00158786 20.6928 0.528882 21.9636 1.46622 22.901C2.40356 23.8383 3.67441 24.3656 5 24.3672H19C20.3256 24.3656 21.5964 23.8383 22.5338 22.901C23.4711 21.9636 23.9984 20.6928 24 19.3672V9.36719C23.9984 8.04159 23.4711 6.77075 22.5338 5.83341C21.5964 4.89607 20.3256 4.36878 19 4.36719ZM11 2.36719H13C13.6183 2.36975 14.2206 2.56327 14.7247 2.92128C15.2288 3.27928 15.6099 3.78428 15.816 4.36719H8.184C8.39008 3.78428 8.77123 3.27928 9.2753 2.92128C9.77937 2.56327 10.3817 2.36975 11 2.36719ZM5 6.36719H19C19.7956 6.36719 20.5587 6.68326 21.1213 7.24587C21.6839 7.80848 22 8.57154 22 9.36719V12.3672H2V9.36719C2 8.57154 2.31607 7.80848 2.87868 7.24587C3.44129 6.68326 4.20435 6.36719 5 6.36719ZM19 22.3672H5C4.20435 22.3672 3.44129 22.0511 2.87868 21.4885C2.31607 20.9259 2 20.1628 2 19.3672V14.3672H11V15.3672C11 15.6324 11.1054 15.8868 11.2929 16.0743C11.4804 16.2618 11.7348 16.3672 12 16.3672C12.2652 16.3672 12.5196 16.2618 12.7071 16.0743C12.8946 15.8868 13 15.6324 13 15.3672V14.3672H22V19.3672C22 20.1628 21.6839 20.9259 21.1213 21.4885C20.5587 22.0511 19.7956 22.3672 19 22.3672Z" fill="#4673A3"/>
</g>
<defs>
<clipPath id="clip0_632_9415">
<rect width="24" height="24" fill="white" transform="translate(0 0.367188)"/>
</clipPath>
</defs>
</svg>
