<svg width="6" height="9" viewBox="0 0 6 9" fill="none" xmlns="http://www.w3.org/2000/svg">
<path fill-rule="evenodd" clip-rule="evenodd" d="M0.249297 0.399577C0.0899159 0.558979 0.000378318 0.775163 0.000378318 1.00058C0.000378318 1.22599 0.0899159 1.44217 0.249297 1.60158L3.1483 4.50058L0.248296 7.39958C0.0890339 7.55924 -0.000280642 7.77563 6.62486e-07 8.00114C0.000281967 8.22665 0.0901362 8.44281 0.249797 8.60208C0.409457 8.76134 0.625845 8.85065 0.851357 8.85037C1.07687 8.85009 1.29303 8.76024 1.4523 8.60058L4.9523 5.10058C5.11168 4.94117 5.20122 4.72499 5.20122 4.49958C5.20122 4.27416 5.11168 4.05798 4.9523 3.89858L1.4523 0.398577C1.29289 0.239196 1.07671 0.149658 0.851297 0.149658C0.625883 0.149658 0.409699 0.239196 0.250297 0.398577L0.249297 0.399577Z" fill="#2D2D2D"/>
</svg>
