<svg width="9" height="6" viewBox="0 0 9 6" fill="none" xmlns="http://www.w3.org/2000/svg">
<path fill-rule="evenodd" clip-rule="evenodd" d="M8.45077 0.249297C8.29136 0.0899159 8.07518 0.000378318 7.84977 0.000378318C7.62435 0.000378318 7.40817 0.0899159 7.24877 0.249297L4.34976 3.1483L1.45076 0.248296C1.2911 0.0890339 1.07472 -0.000280642 0.849204 6.62486e-07C0.623692 0.000281967 0.407528 0.0901362 0.248265 0.249797C0.0890028 0.409457 -0.000312776 0.625845 -3.14713e-05 0.851357C0.000249833 1.07687 0.0901041 1.29303 0.249764 1.4523L3.74976 4.9523C3.90917 5.11168 4.12535 5.20122 4.35077 5.20122C4.57618 5.20122 4.79236 5.11168 4.95177 4.9523L8.45177 1.4523C8.61115 1.29289 8.70068 1.07671 8.70068 0.851297C8.70068 0.625883 8.61115 0.409699 8.45177 0.250297L8.45077 0.249297Z" fill="white"/>
</svg>
