<svg width="134" height="56" viewBox="0 0 134 56" fill="none" xmlns="http://www.w3.org/2000/svg">
<g clip-path="url(#clip0_289_37704)">
<g clip-path="url(#clip1_289_37704)">
<g clip-path="url(#clip2_289_37704)">
<mask id="mask0_289_37704" style="mask-type:luminance" maskUnits="userSpaceOnUse" x="0" y="13" width="134" height="30">
<path d="M133.187 13.0842H0.890625V42.3113H133.187V13.0842Z" fill="white"/>
</mask>
<g mask="url(#mask0_289_37704)">
<path d="M42.8339 29.0913C42.7177 28.9171 42.5436 28.801 42.3306 28.7816C42.1177 28.7623 41.9048 28.8397 41.75 28.9946C40.3757 30.1172 38.6724 30.7559 36.8917 30.7559C33.0593 30.7559 30.2721 27.7945 30.2721 23.7105C30.2721 19.6264 32.9625 16.936 36.8142 16.936C38.4402 16.936 40.0273 17.4392 41.3435 18.3683C41.6339 18.6393 42.0983 18.6005 42.3694 18.3103C42.3887 18.2909 42.4081 18.2522 42.4274 18.2328L42.6403 17.9231C42.9113 17.594 42.8532 17.1102 42.5048 16.8392C40.8596 15.6004 38.8273 14.9617 36.7755 15.0197C31.8012 15.0197 28.1816 18.6974 28.1816 23.7492C28.1816 28.9365 31.8205 32.6915 36.853 32.6915C39.0983 32.6915 41.2661 31.8979 42.9888 30.4463C43.2984 30.1752 43.3565 29.7107 43.0855 29.401C43.0661 29.3817 43.0661 29.3817 43.0468 29.3623L42.8339 29.0913Z" fill="white"/>
<path d="M48.0023 30.6397C47.5765 30.5816 46.9378 30.4848 46.9378 29.0913V16.0842C46.9765 15.6777 46.6668 15.3294 46.2603 15.2906C46.2216 15.2906 46.183 15.2906 46.1442 15.2906H45.699C45.3119 15.2519 44.9635 15.5616 44.9248 15.9488C44.9248 15.9875 44.9248 16.0455 44.9248 16.0842V29.3816C44.9248 32.0913 46.7636 32.4978 47.8475 32.4978C48.254 32.5559 48.6024 32.2655 48.6605 31.8591C48.6605 31.801 48.6605 31.7623 48.6605 31.7042V31.3558C48.6992 30.9881 48.4088 30.6784 48.0604 30.6397C48.0411 30.6397 48.0217 30.6397 48.0023 30.6397Z" fill="white"/>
<path d="M51.2537 20.0523H50.8086C50.4021 20.0137 50.0538 20.3234 50.015 20.7298C50.015 20.7686 50.015 20.8072 50.015 20.8459V31.6077C49.9763 32.0142 50.2859 32.3625 50.6924 32.4013C50.7311 32.4013 50.7699 32.4013 50.8086 32.4013H51.2537C51.6409 32.44 51.9893 32.1303 52.028 31.7432C52.028 31.7045 52.028 31.6464 52.028 31.6077V20.8459C52.0667 20.4588 51.7957 20.0911 51.4086 20.0523C51.3505 20.0523 51.3118 20.0523 51.2537 20.0523Z" fill="white"/>
<path d="M51.3321 15.2909H50.7321C50.3449 15.2522 49.9965 15.5618 49.9578 15.9489C49.9578 15.9876 49.9578 16.0457 49.9578 16.0845V16.9361C49.9191 17.3232 50.1901 17.6716 50.5579 17.7103C50.6159 17.7103 50.674 17.7103 50.7127 17.7103H51.3127C51.6998 17.749 52.0288 17.4781 52.0869 17.0909C52.0869 17.0329 52.0869 16.9942 52.0869 16.9361V16.0651C52.1257 15.678 51.8353 15.3296 51.4482 15.2715C51.4288 15.2909 51.3708 15.2909 51.3321 15.2909Z" fill="white"/>
<path d="M64.8219 29.8268C64.7251 29.6332 64.5316 29.4977 64.338 29.459C64.1251 29.4203 63.9122 29.4783 63.738 29.6332C62.8283 30.4075 61.6863 30.8526 60.4863 30.8526C58.0474 30.9107 56.0345 28.9751 55.9764 26.5556C55.9764 26.4395 55.9764 26.3427 55.9764 26.2266C55.8602 23.7878 57.7184 21.7167 60.1572 21.6006C60.254 21.6006 60.3508 21.6006 60.4475 21.6006C61.5121 21.62 62.5379 21.9878 63.3702 22.6652C63.5444 22.7813 63.738 22.8587 63.9509 22.8393C64.1638 22.82 64.3574 22.6845 64.4542 22.491L64.609 22.2393C64.7638 22.0651 64.8219 21.8522 64.8026 21.6393C64.7638 21.4457 64.6671 21.2715 64.5122 21.1554C63.3509 20.2457 61.9186 19.7618 60.4282 19.7812C56.9635 19.665 54.0795 22.3749 53.944 25.8201C53.944 25.9556 53.944 26.1105 53.944 26.246C53.8279 29.6913 56.5377 32.5946 59.983 32.7108C60.1379 32.7108 60.2733 32.7108 60.4282 32.7108C62.0347 32.7108 63.5831 32.1688 64.8219 31.143C65.1703 30.8913 65.2284 30.4268 64.9961 30.0784L64.8219 29.8268Z" fill="white"/>
<path d="M71.9062 25.4911L75.4483 21.078C75.6418 20.9038 75.6999 20.6135 75.6032 20.3812C75.4676 20.1489 75.216 20.0134 74.945 20.0522H74.345C73.9966 20.0522 73.6869 20.207 73.474 20.478L70.2222 24.6201H68.5771V16.0842C68.6157 15.6777 68.306 15.3294 67.8996 15.2906C67.8608 15.2906 67.8222 15.2906 67.7835 15.2906H67.3383C66.9511 15.2519 66.6028 15.5616 66.564 15.9488C66.564 15.9875 66.564 16.0455 66.564 16.0842V31.6075C66.5253 31.9946 66.8157 32.343 67.2028 32.4011C67.2415 32.4011 67.2995 32.4011 67.3383 32.4011H67.7835C68.1899 32.4397 68.5383 32.1494 68.5964 31.743C68.5964 31.7042 68.5964 31.6462 68.5964 31.6075V26.4395H70.2416L73.9191 31.9171C74.074 32.2462 74.4225 32.4397 74.7708 32.4204H75.3902C75.6612 32.4591 75.9128 32.343 76.0483 32.1107C76.1644 31.8784 76.1257 31.6075 75.9515 31.3946L71.9062 25.4911Z" fill="white"/>
<path d="M88.8615 16.3939V16.0842C88.9007 15.6777 88.5907 15.3294 88.1846 15.2906C88.1454 15.2906 88.1069 15.2906 88.0685 15.2906H75.6225C75.216 15.2519 74.8676 15.5616 74.8289 15.9681C74.8289 16.0068 74.8289 16.0455 74.8289 16.0842V16.3939C74.8096 16.8004 75.1387 17.1488 75.5258 17.1488C75.5451 17.1488 75.5838 17.1488 75.6031 17.1488H80.8102V31.6075C80.771 32.014 81.0809 32.3624 81.487 32.4011C81.5262 32.4011 81.5647 32.4011 81.6032 32.4011H82.0869C82.4746 32.4204 82.823 32.1301 82.8422 31.743C82.8422 31.7042 82.8422 31.6655 82.8422 31.6269V17.1488H88.0685C88.4746 17.1682 88.823 16.8391 88.823 16.4326C88.8615 16.4326 88.8615 16.4132 88.8615 16.3939Z" fill="white"/>
<path d="M93.3908 19.9749C91.8425 20.0328 90.4488 20.962 89.7712 22.3555V20.8264C89.8105 20.4393 89.5197 20.0716 89.1136 20.0329C89.0744 20.0329 89.0359 20.0329 88.9975 20.0329H88.5714C88.1645 19.9942 87.8161 20.3039 87.7776 20.7103C87.7776 20.7491 87.7776 20.7877 87.7776 20.8264V31.5882C87.7392 31.9947 88.0484 32.343 88.4553 32.3818C88.4937 32.3818 88.5329 32.3818 88.5714 32.3818H89.0167C89.4036 32.4205 89.752 32.1108 89.7905 31.7237C89.7905 31.685 89.7905 31.6269 89.7905 31.5882V27.1364C89.7905 24.6202 91.0295 21.9491 93.3331 21.9491C93.7584 21.9878 94.1461 21.6975 94.1845 21.2716C94.1845 21.2329 94.1845 21.1942 94.1845 21.1749V20.7491C94.223 20.362 93.9138 20.0135 93.5261 19.9749C93.5069 19.9749 93.4492 19.9749 93.3908 19.9749Z" fill="white"/>
<path d="M99.6816 19.762C98.3072 19.762 96.9528 20.1297 95.7721 20.8459C95.4237 21.0394 95.2876 21.4846 95.4814 21.833C95.5006 21.8524 95.5199 21.8911 95.5399 21.9105L95.6945 22.162C95.9075 22.5298 96.3721 22.646 96.7205 22.433C96.7397 22.433 96.7397 22.4137 96.7589 22.4137C97.6104 21.8911 98.5787 21.6201 99.5655 21.6007C101.424 21.6007 102.314 22.5491 102.314 24.5041V24.6976H101.811C96.8366 24.6976 94.3008 26.1493 94.3008 29.0139C94.3008 31.4334 96.4297 32.7109 98.5395 32.7109C99.7785 32.7109 100.959 32.2077 101.811 31.298C102.024 31.085 102.198 30.8334 102.372 30.5817C102.372 30.5817 102.372 30.6398 102.372 30.6592V31.6076C102.334 31.9947 102.604 32.3431 103.01 32.4012C103.069 32.4012 103.107 32.4012 103.166 32.4012H103.553C103.94 32.4206 104.288 32.1302 104.308 31.7431C104.308 31.7044 104.308 31.6657 104.308 31.627V24.5622C104.327 21.4653 102.682 19.762 99.6816 19.762ZM98.8494 30.9495C97.1458 30.9495 96.3721 29.8656 96.3721 28.8591C96.3721 26.5752 99.2948 26.2848 101.85 26.2848H102.334V26.6525C102.334 28.7237 100.998 30.9495 98.8494 30.9495Z" fill="white"/>
<path d="M115.379 20.0522H114.876C114.489 20.0329 114.141 20.2845 114.063 20.6523L110.908 28.9559C110.811 29.2268 110.715 29.5172 110.637 29.7881C110.56 29.5172 110.483 29.2268 110.386 28.9559L107.231 20.6716C107.134 20.2845 106.785 20.0329 106.399 20.0522H105.876C105.643 20.0329 105.411 20.1297 105.276 20.3232C105.159 20.5362 105.159 20.7684 105.276 20.9813L109.437 31.8011C109.553 32.1689 109.902 32.4012 110.289 32.3818H111.083C111.45 32.4012 111.799 32.1689 111.896 31.8011L116.037 21.02C116.134 20.8071 116.115 20.5555 115.999 20.362C115.843 20.1491 115.611 20.0329 115.379 20.0522Z" fill="white"/>
<path d="M122.367 19.762C118.767 19.762 116.27 22.4137 116.27 26.2461C116.154 29.6914 118.845 32.5754 122.29 32.6916C122.426 32.6916 122.58 32.6916 122.716 32.6916C124.206 32.6916 125.638 32.2077 126.838 31.3173C127.187 31.085 127.283 30.6205 127.051 30.2915C127.051 30.2915 127.051 30.2915 127.051 30.2721L126.858 30.0011C126.761 29.8269 126.606 29.7108 126.413 29.6527C126.2 29.614 125.967 29.6721 125.793 29.8075C124.922 30.485 123.858 30.8528 122.774 30.8528C120.664 30.8528 118.496 29.4979 118.342 26.459H126.761C127.207 26.459 127.555 26.1106 127.574 25.6848V25.6654C127.555 22.0266 125.561 19.762 122.367 19.762ZM122.309 21.4846C123.761 21.4846 125.348 22.3749 125.503 24.8525H118.418C118.69 22.9169 120.354 21.4846 122.309 21.4846Z" fill="white"/>
<path d="M132.509 30.6397C132.083 30.5816 131.444 30.4848 131.444 29.0913V16.0842C131.483 15.6777 131.173 15.3294 130.767 15.2906C130.728 15.2906 130.689 15.2906 130.651 15.2906H130.205C129.819 15.2519 129.47 15.5616 129.432 15.9488C129.432 15.9875 129.432 16.0455 129.432 16.0842V29.3816C129.432 32.0913 131.27 32.4978 132.354 32.4978C132.76 32.5365 133.109 32.2655 133.167 31.8591C133.167 31.801 133.167 31.7623 133.167 31.7042V31.3558C133.206 30.9881 132.915 30.6784 132.567 30.6397C132.547 30.6397 132.528 30.6397 132.509 30.6397Z" fill="white"/>
<path d="M14.1299 32.5366H7.08444C4.80047 32.5366 2.96168 30.6785 2.96168 28.4138V21.3877C3.0004 20.8071 2.57456 20.3232 2.01325 20.2651C1.45194 20.207 0.948692 20.6522 0.890625 21.2135C0.890625 21.2716 0.890625 21.3297 0.890625 21.3877V28.4138C0.890625 31.8398 3.67784 34.6077 7.08444 34.6077H14.1106C14.6912 34.569 15.117 34.0657 15.059 33.485C15.0396 32.9818 14.6332 32.5753 14.1299 32.5366Z" fill="white"/>
<path d="M16.2201 13.0842H9.19395C8.61326 13.1229 8.18746 13.6262 8.24553 14.2069C8.28424 14.7101 8.69071 15.1166 9.19395 15.1553H16.2201C18.504 15.1553 20.3428 17.0134 20.3428 19.2974V26.3235C20.3815 26.9042 20.8848 27.33 21.4655 27.2719C21.9687 27.2332 22.3752 26.8267 22.4139 26.3235V19.2974C22.4139 15.8714 19.646 13.0842 16.2201 13.0842Z" fill="white"/>
<path d="M6.07754 27.9687C5.70979 28.3945 5.7485 29.0525 6.17432 29.4396C6.56143 29.788 7.1421 29.7687 7.52922 29.4396L8.80673 28.1816C9.17445 27.7364 9.11638 27.0783 8.67121 26.7105C8.28409 26.4009 7.74213 26.4009 7.35502 26.7105L6.07754 27.9687Z" fill="white"/>
<path d="M10.2973 23.7492C9.92949 24.175 9.96825 24.8331 10.394 25.2202C10.7811 25.5686 11.3618 25.5493 11.7489 25.2202L13.0071 23.9621C13.3748 23.5169 13.3167 22.8588 12.8716 22.491C12.4845 22.1814 11.9425 22.1814 11.5554 22.491L10.2973 23.7492Z" fill="white"/>
<path d="M16.5302 17.9233C16.2592 17.9233 15.9882 18.0395 15.7947 18.233L14.5365 19.4911C14.1688 19.9169 14.2075 20.5751 14.6333 20.9622C15.0204 21.3105 15.6011 21.2912 15.9882 20.9622L17.2463 19.704C17.6528 19.2975 17.6334 18.6395 17.2269 18.233C17.0721 18.0395 16.8011 17.9426 16.5302 17.9233Z" fill="white"/>
<path d="M105.334 37.395V36.853H108.489V37.395H107.231V41.1113H106.612V37.395H105.334Z" fill="white"/>
<path d="M108.566 41.0918V38.0916H109.147V38.5174C109.322 38.2272 109.592 38.0723 109.941 38.0723C109.999 38.0723 110.076 38.0723 110.154 38.0916V38.6916C110.095 38.6916 110.038 38.6723 109.999 38.6723C109.96 38.6723 109.922 38.6723 109.902 38.6723C109.612 38.6723 109.399 38.7885 109.263 39.0014C109.244 39.0401 109.225 39.0788 109.225 39.1175C109.206 39.1562 109.206 39.1949 109.186 39.2337C109.166 39.2723 109.166 39.311 109.166 39.3498C109.166 39.3885 109.166 39.4272 109.147 39.4466C109.147 39.4659 109.147 39.5046 109.147 39.5433C109.147 39.582 109.147 39.6208 109.147 39.6788V41.1111H108.566V41.0918Z" fill="white"/>
<path d="M110.463 39.5822C110.463 39.3693 110.502 39.1757 110.56 39.0015C110.618 38.808 110.695 38.6532 110.811 38.4983C110.927 38.3434 111.064 38.2273 111.237 38.1499C111.412 38.0531 111.605 38.0144 111.818 38.0144C112.263 38.0144 112.593 38.1692 112.825 38.4596V38.1112H113.406V41.1113H112.825V40.7629C112.689 40.9177 112.553 41.0339 112.38 41.0919C112.224 41.15 112.031 41.1887 111.818 41.1887C111.605 41.1887 111.412 41.15 111.237 41.0532C111.064 40.9565 110.927 40.8404 110.811 40.6855C110.695 40.5306 110.618 40.3564 110.56 40.1822C110.483 39.9887 110.463 39.7951 110.463 39.5822ZM111.102 39.2145C111.083 39.3112 111.064 39.408 111.044 39.5048C111.044 39.6016 111.044 39.6983 111.064 39.7951C111.083 39.8919 111.102 39.9887 111.121 40.0661C111.16 40.1629 111.199 40.2403 111.237 40.2983C111.296 40.3952 111.392 40.4726 111.508 40.5306C111.624 40.5887 111.74 40.6081 111.896 40.6081C112.186 40.6081 112.399 40.5113 112.573 40.3177C112.728 40.1241 112.805 39.8726 112.805 39.5822C112.805 39.4467 112.786 39.3112 112.747 39.1757C112.709 39.0403 112.65 38.9434 112.573 38.8467C112.496 38.7499 112.399 38.6725 112.283 38.6144C112.167 38.5563 112.031 38.537 111.896 38.537C111.78 38.537 111.683 38.5563 111.586 38.5951C111.489 38.6338 111.412 38.6725 111.354 38.7305C111.296 38.7886 111.237 38.8661 111.18 38.9434C111.16 39.0403 111.121 39.1177 111.102 39.2145Z" fill="white"/>
<path d="M113.89 38.0918H114.509L115.244 40.2403L115.96 38.0918H116.561L115.476 41.0919H114.973L113.89 38.0918Z" fill="white"/>
<path d="M116.851 39.5628C116.851 39.408 116.87 39.2726 116.889 39.137C116.928 39.0015 116.967 38.8854 117.024 38.7693C117.083 38.6532 117.141 38.5563 117.218 38.479C117.296 38.4015 117.373 38.3241 117.47 38.2661C117.586 38.1692 117.721 38.1112 117.857 38.0725C117.993 38.0338 118.147 38.0144 118.283 38.0144C118.418 38.0144 118.553 38.0338 118.69 38.0725C118.825 38.1112 118.941 38.1692 119.076 38.2467C119.193 38.3241 119.309 38.4402 119.406 38.5757C119.503 38.7112 119.579 38.8854 119.619 39.079C119.657 39.2338 119.676 39.4274 119.676 39.6597V39.7177H117.451C117.451 40.0081 117.547 40.2403 117.721 40.4145C117.857 40.5694 118.07 40.6468 118.341 40.6468C118.418 40.6468 118.496 40.6274 118.573 40.6081C118.65 40.5887 118.709 40.55 118.766 40.5306C118.825 40.4919 118.883 40.4532 118.922 40.3952C118.96 40.3371 118.999 40.279 119.038 40.221H119.657C119.56 40.4532 119.444 40.6468 119.328 40.7823C119.193 40.9177 119.057 41.0146 118.902 41.0726C118.786 41.1113 118.69 41.15 118.612 41.1694C118.515 41.1888 118.418 41.1887 118.321 41.1887C117.877 41.1887 117.508 41.0532 117.237 40.7629C116.986 40.4532 116.851 40.0661 116.851 39.5628ZM119.057 39.2726C119.038 39.0403 118.96 38.8661 118.825 38.7305C118.67 38.5951 118.496 38.537 118.302 38.537C118.089 38.537 117.915 38.6144 117.78 38.7499C117.624 38.8854 117.547 39.079 117.508 39.2919H119.057V39.2726Z" fill="white"/>
<path d="M121.65 41.0918V36.8335H123.354C123.489 36.8335 123.606 36.8529 123.722 36.8723C123.838 36.8916 123.954 36.9496 124.051 37.0077C124.147 37.0658 124.244 37.1238 124.341 37.2207C124.438 37.2981 124.515 37.3948 124.573 37.5109C124.708 37.7239 124.767 37.9561 124.767 38.2272C124.767 38.4981 124.708 38.7304 124.573 38.9433C124.438 39.1562 124.263 39.311 124.051 39.4465C123.838 39.5627 123.606 39.6208 123.334 39.6208H122.231V41.1111H121.65V41.0918ZM122.27 39.0401H123.354C123.606 39.0401 123.799 38.9627 123.954 38.8078C124.109 38.653 124.186 38.4594 124.186 38.2078C124.186 37.9561 124.109 37.7626 123.954 37.6078C123.799 37.4529 123.586 37.3755 123.354 37.3755H122.27V39.0401Z" fill="white"/>
<path d="M124.96 39.5628C124.96 39.408 124.979 39.2726 124.999 39.137C125.038 39.0015 125.076 38.8854 125.135 38.7693C125.192 38.6532 125.251 38.5563 125.328 38.479C125.405 38.4015 125.483 38.3241 125.58 38.2661C125.696 38.1692 125.831 38.1112 125.967 38.0725C126.102 38.0338 126.257 38.0144 126.393 38.0144C126.528 38.0144 126.664 38.0338 126.799 38.0725C126.934 38.1112 127.05 38.1692 127.186 38.2467C127.302 38.3241 127.418 38.4402 127.515 38.5757C127.612 38.7112 127.69 38.8854 127.728 39.079C127.767 39.2338 127.786 39.4274 127.786 39.6597V39.7177H125.56C125.56 40.0081 125.657 40.2403 125.831 40.4145C125.967 40.5694 126.18 40.6468 126.451 40.6468C126.528 40.6468 126.605 40.6274 126.683 40.6081C126.76 40.5887 126.818 40.55 126.877 40.5306C126.934 40.4919 126.993 40.4532 127.031 40.3952C127.07 40.3371 127.109 40.279 127.147 40.221H127.767C127.67 40.4532 127.553 40.6468 127.437 40.7823C127.302 40.9177 127.167 41.0146 127.012 41.0726C126.896 41.1113 126.799 41.15 126.721 41.1694C126.625 41.1888 126.528 41.1887 126.431 41.1887C125.986 41.1887 125.618 41.0532 125.348 40.7629C125.095 40.4532 124.96 40.0661 124.96 39.5628ZM127.167 39.2726C127.147 39.0403 127.07 38.8661 126.934 38.7305C126.78 38.5951 126.605 38.537 126.412 38.537C126.199 38.537 126.024 38.6144 125.889 38.7499C125.734 38.8854 125.657 39.079 125.618 39.2919H127.167V39.2726Z" fill="white"/>
<path d="M128.503 41.0918V38.0916H129.084V38.5174C129.257 38.2272 129.529 38.0723 129.877 38.0723C129.935 38.0723 130.013 38.0723 130.09 38.0916V38.6916C130.032 38.6916 129.974 38.6723 129.935 38.6723C129.897 38.6723 129.857 38.6723 129.838 38.6723C129.548 38.6723 129.335 38.7885 129.2 39.0014C129.181 39.0401 129.161 39.0788 129.161 39.1175C129.141 39.1562 129.141 39.1949 129.122 39.2337C129.103 39.2723 129.103 39.311 129.103 39.3498C129.103 39.3885 129.103 39.4272 129.084 39.4466C129.084 39.4659 129.084 39.5046 129.084 39.5433C129.084 39.582 129.084 39.6208 129.084 39.6788V41.1111H128.503V41.0918Z" fill="white"/>
<path d="M130.632 41.0918V36.8335H131.213V39.2917L132.393 38.0916H133.148L131.754 39.4659L133.187 41.0918H132.374L131.213 39.7175V41.0918H130.632Z" fill="white"/>
<path d="M120.393 40.4917C120.393 40.6853 120.451 40.8401 120.567 40.9563C120.664 41.053 120.799 41.1111 120.973 41.1111V40.2788V38.6916V36.8335H120.393V40.4917Z" fill="white"/>
<path d="M75.6611 37.1626H76.7063C77.4612 37.1626 78.0419 37.4722 78.0419 38.2658V38.2852C78.0419 39.0981 77.4612 39.4079 76.7063 39.4079H75.9709V41.0918H75.6611V37.1626ZM76.7257 39.1562C77.3645 39.1562 77.7322 38.8852 77.7322 38.2852V38.2658C77.7322 37.6272 77.3257 37.4142 76.7063 37.4142H75.9515V39.1562H76.7257Z" fill="white"/>
<path d="M78.3906 39.6789V39.6402C78.3906 38.7692 79.0098 38.1692 79.7843 38.1692C80.558 38.1692 81.178 38.7498 81.178 39.6208V39.6595C81.178 40.5306 80.558 41.1306 79.7843 41.1306C78.9905 41.1306 78.3906 40.5306 78.3906 39.6789ZM80.868 39.6789V39.6402C80.868 38.8853 80.4034 38.4208 79.7843 38.4208C79.1651 38.4208 78.7006 38.8853 78.7006 39.6402V39.6789C78.7006 40.4144 79.1651 40.8789 79.7843 40.8789C80.4034 40.8789 80.868 40.4144 80.868 39.6789Z" fill="white"/>
<path d="M81.5068 38.208H81.816L82.5905 40.7242L83.3843 38.208H83.6358L84.3903 40.7242L85.1648 38.208H85.4548L84.5457 41.092H84.2165L83.5004 38.6919L82.7451 41.092H82.416L81.5068 38.208Z" fill="white"/>
<path d="M85.8037 39.6789V39.6402C85.8037 38.7692 86.3459 38.1692 87.1205 38.1692C87.8173 38.1692 88.378 38.6144 88.378 39.5628V39.6595H86.0944C86.1137 40.4337 86.4813 40.8596 87.1589 40.8596C87.6427 40.8596 87.9527 40.666 88.0688 40.2595H88.3588C88.2426 40.8015 87.7781 41.1112 87.1589 41.1112C86.3267 41.1306 85.8037 40.5499 85.8037 39.6789ZM88.0688 39.4466C88.0496 38.7498 87.6812 38.4208 87.1205 38.4208C86.559 38.4208 86.1721 38.8079 86.1137 39.4466H88.0688Z" fill="white"/>
<path d="M89.0557 38.2079H89.3464V38.8079C89.501 38.4595 89.791 38.1885 90.314 38.1692V38.4402C89.7525 38.4595 89.3464 38.7111 89.3464 39.4853V41.0725H89.0557V38.2079Z" fill="white"/>
<path d="M90.6426 39.6789V39.6402C90.6426 38.7692 91.1848 38.1692 91.9586 38.1692C92.6554 38.1692 93.2169 38.6144 93.2169 39.5628V39.6595H90.9325C90.9525 40.4337 91.3202 40.8596 91.997 40.8596C92.4816 40.8596 92.7908 40.666 92.9069 40.2595H93.1976C93.0815 40.8015 92.6169 41.1112 91.997 41.1112C91.1848 41.1306 90.6426 40.5499 90.6426 39.6789ZM92.9261 39.4466C92.9069 38.7498 92.5393 38.4208 91.9778 38.4208C91.4163 38.4208 91.0295 38.8079 90.9718 39.4466H92.9261Z" fill="white"/>
<path d="M93.7012 39.6983V39.6596C93.7012 38.7692 94.2819 38.1886 95.0364 38.1886C95.5979 38.1886 95.927 38.5176 96.0816 38.866V36.853H96.3724V41.1113H96.0816V40.4532C95.927 40.8016 95.5209 41.1693 94.9787 41.1693C94.2626 41.1306 93.7012 40.608 93.7012 39.6983ZM96.0816 39.679V39.6402C96.0816 38.8466 95.6563 38.4402 95.0564 38.4402C94.4365 38.4402 93.9911 38.8854 93.9911 39.6596V39.6983C93.9911 40.4919 94.4365 40.8984 95.0172 40.8984C95.5979 40.879 96.0816 40.4532 96.0816 39.679Z" fill="white"/>
<path d="M98.9274 40.4337V41.0918H98.6367V36.8335H98.9274V38.8852C99.1013 38.5174 99.5081 38.1691 100.03 38.1691C100.746 38.1691 101.327 38.7304 101.327 39.6208V39.6594C101.327 40.5692 100.786 41.1305 100.03 41.1305C99.4497 41.1305 99.082 40.7821 98.9274 40.4337ZM100.998 39.6788V39.6401C100.998 38.8465 100.533 38.4207 99.9727 38.4207C99.4112 38.4207 98.9075 38.8465 98.9075 39.6401V39.6788C98.9075 40.4724 99.392 40.8788 99.9919 40.8788C100.592 40.8788 100.998 40.453 100.998 39.6788Z" fill="white"/>
<path d="M102.76 40.8404L101.618 38.208H101.927L102.915 40.4919L103.825 38.208H104.115L102.527 42.0791H102.218L102.76 40.8404Z" fill="white"/>
</g>
</g>
</g>
</g>
<defs>
<clipPath id="clip0_289_37704">
<rect width="133.06" height="50" fill="white" transform="translate(0.890625)"/>
</clipPath>
<clipPath id="clip1_289_37704">
<rect width="133.06" height="50" fill="white" transform="translate(0.890625)"/>
</clipPath>
<clipPath id="clip2_289_37704">
<rect width="133.06" height="49.9936" fill="white" transform="translate(0.890625 0.00317383)"/>
</clipPath>
</defs>
</svg>
