<svg width="117" height="56" viewBox="0 0 117 56" fill="none" xmlns="http://www.w3.org/2000/svg">
<g clip-path="url(#clip0_289_37772)">
<g clip-path="url(#clip1_289_37772)">
<g clip-path="url(#clip2_289_37772)">
<mask id="mask0_289_37772" style="mask-type:luminance" maskUnits="userSpaceOnUse" x="0" y="13" width="117" height="24">
<path d="M116.181 13.1226H0.800781V36.9283H116.181V13.1226Z" fill="white"/>
</mask>
<g mask="url(#mask0_289_37772)">
<path d="M7.54994 20.0237L7.53876 20.0336L7.52813 20.0441C6.85709 20.7059 6.32472 21.4948 5.96215 22.3647C5.59988 23.2339 5.41438 24.1665 5.41647 25.1081C5.41133 26.049 5.59167 26.9816 5.94722 27.8527C6.30307 28.7246 6.82742 29.5177 7.49024 30.1866L7.50146 30.1979L7.51328 30.2086C7.71672 30.3923 7.88059 30.6156 7.99491 30.8649C8.10923 31.1141 8.1716 31.3839 8.17822 31.658C8.18484 31.9321 8.13557 32.2046 8.03342 32.4591C7.93126 32.7135 7.77836 32.9445 7.58404 33.1379C7.38972 33.3313 7.15804 33.4831 6.90313 33.5841C6.64822 33.685 6.37543 33.733 6.10137 33.725C5.82732 33.7171 5.55774 33.6535 5.30909 33.5381C5.06043 33.4225 4.8379 33.2576 4.65506 33.0533L4.645 33.0421L4.63437 33.0314C2.54032 30.9243 1.36898 28.0717 1.37798 25.101C1.38698 22.1304 2.57559 19.2849 4.68238 17.1906L4.69412 17.1789L4.70518 17.1666C4.88862 16.962 5.11188 16.797 5.3613 16.6817C5.61073 16.5664 5.88106 16.5033 6.15574 16.496C6.43043 16.4889 6.70369 16.5379 6.9588 16.64C7.21391 16.742 7.44549 16.8952 7.63937 17.0899C7.83324 17.2846 7.98534 17.5169 8.08633 17.7724C8.18733 18.0279 8.23511 18.3014 8.22674 18.576C8.21837 18.8507 8.15402 19.1208 8.03765 19.3697C7.92127 19.6186 7.75532 19.8411 7.54994 20.0237Z" stroke="white" stroke-width="1.1538"/>
<path d="M17.6915 20.1064L17.68 20.0934L17.6678 20.0811C16.3264 18.7342 14.5059 17.9741 12.6051 17.9673C10.7043 17.9606 8.87834 18.7077 7.52752 20.045L7.51637 20.056L7.50583 20.0676C7.32139 20.2712 7.09736 20.4351 6.84742 20.5491C6.59748 20.6631 6.3269 20.7249 6.05225 20.7308C5.77759 20.7366 5.50464 20.6863 5.25009 20.583C4.99554 20.4797 4.76474 20.3255 4.57183 20.1299C4.37892 19.9344 4.22795 19.7015 4.12816 19.4455C4.02836 19.1896 3.98186 18.916 3.99147 18.6414C4.00108 18.3669 4.06662 18.0972 4.18407 17.8488C4.30152 17.6005 4.46841 17.3787 4.67454 17.1971L4.68782 17.1854L4.70037 17.1729C5.74172 16.1352 6.97782 15.3134 8.33768 14.7548C9.69753 14.1961 11.1544 13.9116 12.6245 13.9176C14.0946 13.9236 15.5491 14.2199 16.9043 14.7896C18.2597 15.3594 19.489 16.1912 20.5219 17.2374L20.5348 17.2505L20.5486 17.2628C20.7542 17.446 20.9202 17.6693 21.0363 17.9189C21.1524 18.1686 21.2162 18.4394 21.2238 18.7146C21.2315 18.9898 21.1827 19.2637 21.0805 19.5194C20.9784 19.7752 20.825 20.0073 20.6299 20.2015C20.4346 20.3958 20.2018 20.548 19.9457 20.649C19.6894 20.7499 19.4154 20.7974 19.1402 20.7885C18.8649 20.7796 18.5945 20.7145 18.3453 20.5972C18.0962 20.4799 17.8737 20.3129 17.6915 20.1064Z" stroke="white" stroke-width="1.1538"/>
<path d="M12.5704 31.7277C11.7042 31.7289 10.8463 31.5574 10.0472 31.2231C9.24803 30.8887 8.5236 30.3983 7.91628 29.7806C7.68158 29.5165 7.39545 29.3031 7.07541 29.1535C6.75537 29.0039 6.40815 28.9212 6.05502 28.9104C5.7019 28.8996 5.35029 28.9611 5.02174 29.0909C4.69318 29.2208 4.39458 29.4164 4.14422 29.6656C3.89387 29.9149 3.69703 30.2126 3.56576 30.5406C3.43448 30.8686 3.37153 31.22 3.38077 31.5731C3.39001 31.9263 3.47123 32.2739 3.61947 32.5945C3.7677 32.9152 3.97984 33.2023 4.24287 33.4381C5.33099 34.5383 6.62553 35.4129 8.0523 36.0119C9.4791 36.6108 11.01 36.9223 12.5574 36.9284C14.1048 36.9346 15.6381 36.6353 17.0696 36.0478C18.5011 35.4602 19.8026 34.5959 20.8994 33.5045C21.1418 33.2644 21.3345 32.979 21.4665 32.6645C21.5985 32.3499 21.6672 32.0125 21.6688 31.6713C21.6705 31.3302 21.6048 30.9921 21.4758 30.6764C21.3468 30.3606 21.1568 30.0734 20.9167 29.831C20.6766 29.5887 20.3912 29.3961 20.0767 29.2641C19.7621 29.132 19.4247 29.0632 19.0836 29.0616C18.7425 29.06 18.4044 29.1256 18.0887 29.2547C17.7729 29.3837 17.4856 29.5737 17.2433 29.8137M12.5704 31.7277L12.5678 32.3045C12.5684 32.3046 12.5689 32.3046 12.5695 32.3046M12.5704 31.7277C13.4369 31.7316 14.2957 31.5646 15.0975 31.2361C15.8994 30.9078 16.6286 30.4244 17.2433 29.8137M12.5704 31.7277L12.5713 32.3046C12.5707 32.3046 12.57 32.3046 12.5695 32.3046M17.2433 29.8137L17.6496 30.2233M12.5695 32.3046C11.6271 32.3056 10.6939 32.1189 9.82454 31.7552C8.95458 31.3913 8.16599 30.8575 7.5049 30.185L7.49473 30.1747L7.4851 30.1639C7.30254 29.9585 7.08 29.7925 6.83108 29.6761C6.58216 29.5597 6.3121 29.4954 6.03745 29.4871C5.7628 29.4787 5.48932 29.5264 5.23378 29.6274C4.97823 29.7284 4.74599 29.8806 4.55127 30.0744C4.35655 30.2683 4.20345 30.4999 4.10135 30.755C3.99925 31.0101 3.95029 31.2834 3.95747 31.558C3.96465 31.8327 4.02783 32.103 4.14312 32.3525C4.25842 32.6019 4.42341 32.8252 4.628 33.0086L4.64088 33.0201L4.65304 33.0324C5.68779 34.0786 6.91882 34.9104 8.2756 35.48C9.6324 36.0495 11.0882 36.3457 12.5597 36.3515C14.0311 36.3574 15.4893 36.0728 16.8506 35.5141C18.2118 34.9554 19.4495 34.1335 20.4925 33.0955L20.4934 33.0946C20.682 32.9079 20.8318 32.6858 20.9345 32.4412C21.0372 32.1965 21.0907 31.934 21.0919 31.6687C21.0932 31.4033 21.0422 31.1403 20.9418 30.8947C20.8414 30.649 20.6936 30.4256 20.5069 30.2371C20.3201 30.0486 20.0981 29.8987 19.8534 29.796C19.6088 29.6933 19.3462 29.6397 19.0809 29.6385C18.8156 29.6373 18.5525 29.6883 18.3069 29.7887C18.0614 29.889 17.8381 30.0367 17.6496 30.2233M12.5695 32.3046C13.5112 32.3086 14.4446 32.1269 15.3162 31.77C16.1881 31.4129 16.981 30.8873 17.6496 30.2233M17.6496 30.2233C17.6497 30.2233 17.6495 30.2235 17.6496 30.2233Z" stroke="white" stroke-width="1.1538"/>
<path d="M32.4847 27.6533C33.2332 27.0879 33.3327 27.4039 33.9644 28.0355C34.2803 28.3514 35.1442 28.9009 34.5788 29.3653C33.399 30.3287 32.3347 30.7614 30.829 30.7614C27.421 30.7455 25.0109 28.2014 25.2042 24.8265C25.2864 23.315 25.885 21.8843 27.0661 20.9036C28.1464 19.9892 29.492 19.5912 30.9054 19.6243C31.5982 19.6222 32.2845 19.7576 32.9246 20.0224C33.3581 20.1789 33.7667 20.3975 34.1375 20.6714C34.8861 21.2483 34.537 21.5858 33.9543 22.167C33.8216 22.2997 33.6889 22.4338 33.5721 22.5665C33.2736 22.865 33.0731 23.0814 32.6751 22.7987C31.9106 22.2665 30.9444 21.9838 30.0314 22.2218C27.0892 22.9689 27.2219 28.2058 30.8304 28.2231C31.4287 28.2151 32.0085 28.0155 32.4847 27.6533ZM114.27 30.8263C114.152 30.8269 114.035 30.804 113.926 30.7592C113.817 30.7143 113.718 30.6483 113.634 30.5649C113.551 30.4815 113.485 30.3824 113.439 30.2733C113.395 30.1642 113.372 30.0472 113.372 29.9292L113.422 18.3263C113.422 18.2083 113.445 18.0913 113.489 17.9821C113.534 17.8729 113.6 17.7737 113.684 17.6902C113.767 17.6066 113.866 17.5405 113.975 17.4954C114.085 17.4504 114.202 17.4274 114.319 17.4278H115.285C115.402 17.4274 115.519 17.4504 115.628 17.4956C115.738 17.5407 115.837 17.607 115.921 17.6907C116.004 17.7744 116.07 17.8738 116.115 17.9831C116.159 18.0925 116.182 18.2096 116.181 18.3278L116.131 29.9307C116.132 30.0486 116.108 30.1655 116.064 30.2746C116.019 30.3837 115.953 30.4828 115.869 30.5663C115.786 30.6497 115.687 30.7157 115.578 30.7606C115.468 30.8055 115.352 30.8283 115.234 30.8277L114.27 30.8263ZM109.223 29.4807C108.176 30.4614 107.177 30.9763 105.697 30.9763C102.707 30.9589 101.276 28.4827 101.276 25.7063L101.293 20.9858C101.293 20.8678 101.316 20.751 101.361 20.642C101.406 20.5329 101.472 20.4339 101.555 20.3506C101.639 20.2674 101.738 20.2015 101.847 20.1568C101.957 20.1121 102.074 20.0894 102.191 20.0902H103.157C103.274 20.0896 103.391 20.1124 103.5 20.1573C103.61 20.2021 103.709 20.2682 103.792 20.3517C103.875 20.4351 103.941 20.5342 103.987 20.6433C104.031 20.7524 104.054 20.8693 104.054 20.9873L104.037 25.7078C104.037 27.2539 104.868 28.4667 106.498 28.4667C108.128 28.4667 109.124 27.1039 109.14 25.5822V23.8963C109.127 23.8308 109.122 23.764 109.124 23.6972L109.14 21.0204C109.139 20.9024 109.163 20.7856 109.207 20.6764C109.253 20.5674 109.319 20.4682 109.402 20.3848C109.485 20.3014 109.584 20.2354 109.693 20.1905C109.803 20.1456 109.919 20.1228 110.037 20.1234H110.989C111.107 20.1228 111.224 20.1456 111.333 20.1905C111.442 20.2354 111.542 20.3014 111.625 20.3848C111.709 20.4682 111.774 20.5674 111.819 20.6764C111.864 20.7856 111.887 20.9024 111.886 21.0204L111.855 29.9307C111.852 30.1664 111.756 30.3916 111.589 30.5568C111.42 30.722 111.193 30.8138 110.958 30.8119H110.143C109.911 30.8046 109.691 30.7095 109.527 30.5457C109.364 30.382 109.269 30.1621 109.262 29.9307L109.223 29.4807ZM97.7468 20.1234H99.6083C99.7268 20.125 99.8429 20.1501 99.9514 20.1971C100.06 20.244 100.158 20.3119 100.24 20.3969C100.321 20.482 100.386 20.5824 100.429 20.6924C100.471 20.8023 100.492 20.9197 100.49 21.0377V21.6522C100.488 21.889 100.393 22.1156 100.226 22.2834C100.058 22.4511 99.8321 22.5466 99.5952 22.5492H97.7292L97.6961 29.8801C97.6968 29.9982 97.6738 30.1152 97.6292 30.2244C97.5838 30.3335 97.5184 30.4327 97.4345 30.5163C97.3515 30.5998 97.2523 30.666 97.143 30.711C97.0338 30.7561 96.9169 30.7791 96.7992 30.7787H95.8354C95.7177 30.779 95.6008 30.7561 95.4915 30.711C95.3823 30.666 95.2831 30.5999 95.1993 30.5163C95.1162 30.4329 95.0493 30.3337 95.0046 30.2244C94.9593 30.1153 94.937 29.9983 94.937 29.8801L94.97 19.7412C94.97 17.5302 96.2338 15.7836 98.4953 15.5846C98.5614 15.5846 98.6106 15.5687 98.6768 15.5687C98.8099 15.5601 98.9429 15.5601 99.076 15.5687H99.9414C100.06 15.5704 100.176 15.5954 100.284 15.6423C100.392 15.6892 100.491 15.7569 100.572 15.8418C100.654 15.9267 100.718 16.0269 100.761 16.1367C100.804 16.2465 100.825 16.3638 100.823 16.4817V17.047C100.821 17.2846 100.727 17.5121 100.558 17.6802C100.391 17.8483 100.164 17.9436 99.926 17.9455H99.2276C98.163 17.9455 97.7145 18.759 97.6976 19.757L97.7468 20.1234ZM91.0648 20.0902H93.1055C93.3409 20.0925 93.5662 20.1882 93.7316 20.3564C93.897 20.5246 93.9885 20.7515 93.9862 20.9873V21.6016C93.9839 21.8374 93.8885 22.0626 93.7201 22.2278C93.5524 22.3931 93.3255 22.4848 93.0893 22.4829H91.0471L91.0317 26.9683C91.0317 27.8336 91.4471 28.3312 92.3109 28.3312H92.7263C92.9617 28.3338 93.187 28.4299 93.3524 28.5984C93.5178 28.7668 93.6093 28.9938 93.607 29.2297V29.8528C93.6047 30.0884 93.5086 30.3134 93.3409 30.4785C93.1724 30.6437 92.9455 30.7355 92.7101 30.734H91.9286C91.784 30.7369 91.6394 30.7311 91.4956 30.7166C89.2849 30.5724 88.3041 29.1389 88.3041 26.977C88.3211 24.0679 88.3211 21.1762 88.3372 18.2671C88.3388 18.1503 88.3626 18.0349 88.408 17.9273C88.4541 17.8198 88.5203 17.7223 88.6041 17.6405C88.6872 17.5586 88.7864 17.494 88.8949 17.4503C89.0033 17.4067 89.1187 17.3848 89.2356 17.386H90.1833C90.4194 17.3883 90.6441 17.484 90.8094 17.6522C90.9748 17.8204 91.0663 18.0473 91.0648 18.2831V20.0902ZM61.4984 19.9734H63.5392C63.775 19.9756 64.0002 20.0714 64.1654 20.2396C64.3306 20.4078 64.4223 20.6347 64.4204 20.8704V21.4877C64.4177 21.7233 64.3219 21.9484 64.1538 22.1135C63.9857 22.2786 63.759 22.3704 63.5234 22.3689H61.4754V26.8558C61.4754 27.7212 61.8907 28.2187 62.7546 28.2187H63.1715C63.2881 28.2198 63.4034 28.2439 63.5107 28.2896C63.6181 28.3353 63.7154 28.4017 63.7971 28.485C63.8788 28.5684 63.9433 28.6669 63.9869 28.7751C64.0305 28.8833 64.0523 28.9991 64.0512 29.1158V29.7302C64.0489 29.9659 63.9532 30.1911 63.785 30.3564C63.6167 30.5216 63.3899 30.6133 63.1541 30.6114H62.5397C60.1283 30.5955 58.7322 29.5643 58.7322 26.8616C58.7495 23.9525 58.7495 21.0593 58.7653 18.1504C58.768 17.9145 58.8641 17.6892 59.0325 17.5241C59.2009 17.3589 59.428 17.2672 59.6639 17.2691H60.6114C60.8472 17.2718 61.0722 17.368 61.2372 17.5364C61.4021 17.7049 61.4935 17.9319 61.4912 18.1677L61.4984 19.9734ZM49.4975 21.2368C50.4782 20.3224 51.5425 19.7412 52.9213 19.7412C55.9141 19.757 57.4601 22.193 57.4428 25.0097L57.4269 29.7302C57.4273 29.8483 57.4044 29.9653 57.3593 30.0744C57.3143 30.1837 57.2482 30.2829 57.1646 30.3664C57.0811 30.4499 56.9819 30.516 56.8727 30.561C56.7636 30.6061 56.6466 30.629 56.5284 30.6287H55.565C55.4469 30.629 55.3299 30.6061 55.2207 30.561C55.1115 30.516 55.0123 30.4499 54.9288 30.3664C54.8453 30.2829 54.7791 30.1837 54.7341 30.0744C54.6891 29.9653 54.6661 29.8483 54.6665 29.7302L54.6838 25.0429C54.6838 23.4968 53.8531 22.2838 52.2233 22.2838C50.5936 22.2838 49.597 23.6309 49.5811 25.1597L49.5638 29.7302C49.5615 29.9659 49.4658 30.1911 49.2976 30.3564C49.1294 30.5216 48.9025 30.6133 48.6667 30.6114H47.7192C47.4834 30.6091 47.2582 30.5134 47.0929 30.3451C46.9277 30.177 46.836 29.9501 46.838 29.7143C46.8538 26.8716 46.8538 24.0131 46.8711 21.1704V20.7882C46.8719 20.5527 46.966 20.3271 47.1328 20.1608C47.2996 19.9946 47.5255 19.9012 47.761 19.9012H48.5759C48.8074 19.9082 49.0276 20.0032 49.1913 20.167C49.3552 20.3308 49.4502 20.5509 49.4571 20.7824L49.4975 21.2368ZM79.1199 21.3522C80.1006 20.4392 81.1637 19.8565 82.5436 19.8565C85.5366 19.8739 87.0811 22.317 87.065 25.1265L87.048 29.8528C87.0488 29.9708 87.0257 30.0878 86.9811 30.197C86.9357 30.3061 86.8696 30.4054 86.7865 30.4889C86.7034 30.5724 86.6042 30.6386 86.495 30.6837C86.3858 30.7286 86.2688 30.7516 86.1512 30.7513H85.1873C85.0689 30.7516 84.952 30.7286 84.8427 30.6837C84.7335 30.6387 84.6351 30.5725 84.5512 30.489C84.4674 30.4054 84.4012 30.3063 84.3566 30.1971C84.3112 30.0879 84.2882 29.9708 84.2889 29.8528L84.3058 25.1655C84.3058 23.6194 83.4743 22.4064 81.8459 22.4064C80.2175 22.4064 79.2191 23.7521 79.2022 25.2823L79.1791 29.8528C79.176 30.0887 79.0799 30.3139 78.9114 30.479C78.7438 30.6443 78.5161 30.7359 78.2807 30.734H77.3329C77.0974 30.7313 76.8725 30.6354 76.7076 30.4673C76.5427 30.2991 76.4512 30.0724 76.4531 29.8369L76.4863 20.9093C76.4867 20.792 76.5102 20.6759 76.5557 20.5677C76.6011 20.4595 76.6675 20.3614 76.751 20.2789C76.8345 20.1965 76.9335 20.1314 77.0423 20.0874C77.1511 20.0433 77.2674 20.0212 77.3848 20.0224H78.1999C78.4322 20.0301 78.653 20.1264 78.8161 20.2916C78.9799 20.4568 79.0737 20.6784 79.0791 20.9108L79.1199 21.3522ZM40.4474 19.6575C37.2052 19.6402 34.912 21.9838 34.8947 25.2087C34.8788 28.4667 37.1388 30.7787 40.4141 30.7946C43.6895 30.8104 45.9827 28.5173 45.9985 25.2376C46.0158 22.0343 43.6722 19.6734 40.4474 19.6575ZM67.3597 26.3236C67.5919 27.8192 69.0226 28.4336 70.4187 28.4509C71.1186 28.4448 71.8094 28.292 72.4465 28.0024C72.549 27.9606 72.6487 27.9125 72.7451 27.8581C73.0782 27.675 73.3768 27.5596 73.6768 27.8581C73.8426 28.024 73.9926 28.1913 74.1585 28.3398C74.3152 28.4894 74.4599 28.6509 74.5912 28.823C75.0397 29.3869 74.7238 29.5211 74.2089 29.8701C73.1114 30.6013 71.6821 30.9662 70.3682 30.9662C66.8448 30.9503 64.517 28.8028 64.517 25.2491C64.5343 21.8901 66.8607 19.6632 70.2183 19.6792C73.6436 19.6965 75.5877 21.7084 75.6383 25.1323C75.6541 26.0625 75.6873 26.3625 74.7238 26.3625L67.3597 26.3236ZM40.4474 22.167C42.1261 22.167 43.2396 23.6309 43.2396 25.2433C43.2396 26.9221 42.1924 28.2721 40.4301 28.2721C38.6676 28.2721 37.6379 26.9091 37.6379 25.2303C37.6379 23.5516 38.7022 22.167 40.4474 22.167ZM67.4333 24.0131L72.9528 24.029C72.7523 22.6487 71.6057 22.1007 70.2933 22.1007C68.9808 22.1007 67.8414 22.7165 67.4333 24.0131Z" fill="white"/>
</g>
</g>
</g>
</g>
<defs>
<clipPath id="clip0_289_37772">
<rect width="115.37" height="50" fill="white" transform="translate(0.800781)"/>
</clipPath>
<clipPath id="clip1_289_37772">
<rect width="115.37" height="50" fill="white" transform="translate(0.800781)"/>
</clipPath>
<clipPath id="clip2_289_37772">
<rect width="115.38" height="49.998" fill="white" transform="translate(0.800781 0.000976562)"/>
</clipPath>
</defs>
</svg>
