<svg width="24" height="25" viewBox="0 0 24 25" fill="none" xmlns="http://www.w3.org/2000/svg">
<g clip-path="url(#clip0_632_9412)">
<path d="M12 8.36719C11.2089 8.36719 10.4355 8.60178 9.77772 9.04131C9.11993 9.48083 8.60723 10.1055 8.30448 10.8365C8.00173 11.5674 7.92252 12.3716 8.07686 13.1475C8.2312 13.9235 8.61216 14.6362 9.17157 15.1956C9.73098 15.755 10.4437 16.136 11.2196 16.2903C11.9956 16.4447 12.7998 16.3655 13.5307 16.0627C14.2616 15.76 14.8864 15.2473 15.3259 14.5895C15.7654 13.9317 16 13.1583 16 12.3672C16 11.3063 15.5786 10.2889 14.8284 9.53876C14.0783 8.78861 13.0609 8.36719 12 8.36719ZM12 14.3672C11.6044 14.3672 11.2178 14.2499 10.8889 14.0301C10.56 13.8104 10.3036 13.498 10.1522 13.1326C10.0009 12.7671 9.96126 12.365 10.0384 11.977C10.1156 11.589 10.3061 11.2327 10.5858 10.953C10.8655 10.6733 11.2219 10.4828 11.6098 10.4056C11.9978 10.3284 12.3999 10.3681 12.7654 10.5194C13.1308 10.6708 13.4432 10.9271 13.6629 11.256C13.8827 11.5849 14 11.9716 14 12.3672C14 12.8976 13.7893 13.4063 13.4142 13.7814C13.0391 14.1565 12.5304 14.3672 12 14.3672Z" fill="#4673A3"/>
<path d="M21.2938 14.2672L20.8498 14.0112C21.0497 12.9236 21.0497 11.8087 20.8498 10.7212L21.2938 10.4652C21.6352 10.2682 21.9345 10.0059 22.1746 9.69325C22.4147 9.3806 22.5908 9.02373 22.6929 8.64301C22.7951 8.26229 22.8212 7.86517 22.7699 7.47435C22.7186 7.08352 22.5908 6.70662 22.3938 6.36519C22.1968 6.02375 21.9345 5.72446 21.6219 5.48439C21.3092 5.24433 20.9523 5.06819 20.5716 4.96605C20.1909 4.86391 19.7938 4.83775 19.403 4.88908C19.0121 4.9404 18.6352 5.0682 18.2938 5.26519L17.8488 5.52219C17.0083 4.80411 16.0425 4.24744 14.9998 3.88019V3.36719C14.9998 2.57154 14.6837 1.80848 14.1211 1.24587C13.5585 0.683258 12.7954 0.367188 11.9998 0.367188C11.2041 0.367188 10.4411 0.683258 9.87848 1.24587C9.31587 1.80848 8.9998 2.57154 8.9998 3.36719V3.88019C7.95719 4.24875 6.99165 4.80679 6.1518 5.52619L5.7048 5.26719C5.01524 4.86936 4.19588 4.76176 3.42698 4.96805C2.65808 5.17434 2.00262 5.67762 1.6048 6.36719C1.20697 7.05675 1.09937 7.87611 1.30566 8.64501C1.51195 9.4139 2.01524 10.0694 2.7048 10.4672L3.1488 10.7232C2.94891 11.8107 2.94891 12.9256 3.1488 14.0132L2.7048 14.2692C2.01524 14.667 1.51195 15.3225 1.30566 16.0914C1.09937 16.8603 1.20697 17.6796 1.6048 18.3692C2.00262 19.0588 2.65808 19.562 3.42698 19.7683C4.19588 19.9746 5.01524 19.867 5.7048 19.4692L6.1498 19.2122C6.99056 19.9304 7.95678 20.4871 8.9998 20.8542V21.3672C8.9998 22.1628 9.31587 22.9259 9.87848 23.4885C10.4411 24.0511 11.2041 24.3672 11.9998 24.3672C12.7954 24.3672 13.5585 24.0511 14.1211 23.4885C14.6837 22.9259 14.9998 22.1628 14.9998 21.3672V20.8542C16.0424 20.4856 17.008 19.9276 17.8478 19.2082L18.2948 19.4662C18.9844 19.864 19.8037 19.9716 20.5726 19.7653C21.3415 19.559 21.997 19.0558 22.3948 18.3662C22.7926 17.6766 22.9002 16.8573 22.6939 16.0884C22.4876 15.3195 21.9844 14.664 21.2948 14.2662L21.2938 14.2672ZM18.7458 10.4912C19.0844 11.7183 19.0844 13.0141 18.7458 14.2412C18.6867 14.4548 18.7002 14.6819 18.7841 14.887C18.8681 15.0921 19.0178 15.2634 19.2098 15.3742L20.2938 16.0002C20.5236 16.1328 20.6913 16.3513 20.7601 16.6075C20.8288 16.8638 20.7929 17.1369 20.6603 17.3667C20.5277 17.5965 20.3092 17.7642 20.053 17.8329C19.7967 17.9017 19.5236 17.8658 19.2938 17.7332L18.2078 17.1052C18.0157 16.9939 17.792 16.9497 17.572 16.9796C17.3521 17.0095 17.1483 17.1117 16.9928 17.2702C16.1027 18.1788 14.9814 18.8272 13.7498 19.1452C13.5348 19.2005 13.3444 19.3257 13.2084 19.5011C13.0724 19.6765 12.9987 19.8922 12.9988 20.1142V21.3672C12.9988 21.6324 12.8934 21.8868 12.7059 22.0743C12.5184 22.2618 12.264 22.3672 11.9988 22.3672C11.7336 22.3672 11.4792 22.2618 11.2917 22.0743C11.1042 21.8868 10.9988 21.6324 10.9988 21.3672V20.1152C10.9989 19.8932 10.9252 19.6775 10.7892 19.5021C10.6532 19.3267 10.4628 19.2015 10.2478 19.1462C9.01615 18.8269 7.89513 18.1771 7.0058 17.2672C6.85032 17.1087 6.64654 17.0065 6.42655 16.9766C6.20657 16.9467 5.9829 16.9909 5.7908 17.1022L4.7068 17.7292C4.59303 17.7959 4.46719 17.8394 4.33652 17.8573C4.20586 17.8752 4.07295 17.867 3.94545 17.8333C3.81795 17.7996 3.69838 17.741 3.59362 17.6609C3.48886 17.5808 3.40098 17.4807 3.33504 17.3665C3.26909 17.2523 3.22639 17.1262 3.2094 16.9954C3.1924 16.8646 3.20144 16.7318 3.23599 16.6045C3.27054 16.4772 3.32993 16.358 3.41073 16.2538C3.49153 16.1496 3.59215 16.0624 3.7068 15.9972L4.7908 15.3712C4.98275 15.2604 5.13247 15.0891 5.21646 14.884C5.30044 14.6789 5.31393 14.4518 5.2548 14.2382C4.91616 13.0111 4.91616 11.7153 5.2548 10.4882C5.31286 10.2751 5.29873 10.0487 5.21461 9.84448C5.13049 9.64024 4.98111 9.46959 4.7898 9.35919L3.7058 8.73319C3.47599 8.60058 3.30827 8.38211 3.23954 8.12584C3.17081 7.86957 3.20669 7.5965 3.3393 7.36669C3.47191 7.13688 3.69038 6.96916 3.94664 6.90043C4.20291 6.83169 4.47599 6.86758 4.7058 7.00019L5.7918 7.62819C5.98338 7.7397 6.20658 7.7844 6.42633 7.75526C6.64607 7.72611 6.84991 7.62478 7.0058 7.46719C7.89589 6.55853 9.01722 5.91021 10.2488 5.59219C10.4644 5.53675 10.6554 5.41094 10.7914 5.23469C10.9275 5.05844 11.0008 4.84183 10.9998 4.61919V3.36719C10.9998 3.10197 11.1052 2.84762 11.2927 2.66008C11.4802 2.47254 11.7346 2.36719 11.9998 2.36719C12.265 2.36719 12.5194 2.47254 12.7069 2.66008C12.8944 2.84762 12.9998 3.10197 12.9998 3.36719V4.61919C12.9997 4.84115 13.0734 5.05683 13.2094 5.23227C13.3454 5.4077 13.5358 5.53292 13.7508 5.58819C14.9828 5.90734 16.1042 6.55707 16.9938 7.46719C17.1493 7.62565 17.3531 7.72788 17.573 7.75775C17.793 7.78763 18.0167 7.74345 18.2088 7.63219L19.2928 7.00519C19.4066 6.93849 19.5324 6.89496 19.6631 6.87709C19.7937 6.85922 19.9266 6.86738 20.0541 6.90109C20.1816 6.9348 20.3012 6.99339 20.406 7.0735C20.5107 7.15361 20.5986 7.25365 20.6646 7.36786C20.7305 7.48207 20.7732 7.6082 20.7902 7.73898C20.8072 7.86976 20.7982 8.00261 20.7636 8.12988C20.7291 8.25715 20.6697 8.37633 20.5889 8.48056C20.5081 8.58479 20.4074 8.672 20.2928 8.73719L19.2088 9.36319C19.0178 9.47389 18.8689 9.64466 18.7851 9.84888C18.7014 10.0531 18.6876 10.2793 18.7458 10.4922V10.4912Z" fill="#4673A3"/>
</g>
<defs>
<clipPath id="clip0_632_9412">
<rect width="24" height="24" fill="white" transform="translate(0 0.367188)"/>
</clipPath>
</defs>
</svg>
