<svg width="69" height="69" viewBox="0 0 69 69" fill="none" xmlns="http://www.w3.org/2000/svg">
<path opacity="0.956" fill-rule="evenodd" clip-rule="evenodd" d="M24.7303 2.0887C31.6472 1.58323 37.0155 4.18869 40.8348 9.9051C41.1043 10.4442 41.3738 10.9832 41.6433 11.5223C47.6529 9.58776 52.6842 11.0253 56.7371 15.8348C58.8568 18.7887 59.643 22.068 59.0955 25.6727C64.6081 26.9412 67.1463 30.4001 66.7098 36.0496C65.818 39.8613 63.4596 42.1749 59.6346 42.9901C53.031 43.0349 46.4275 43.08 39.824 43.1248C37.0865 43.3136 35.3569 44.7287 34.6355 47.3699C34.4377 48.9375 34.3928 50.5097 34.5008 52.0867C34.9276 51.6599 35.3542 51.2333 35.781 50.8065C37.2009 50.2678 37.8074 50.7395 37.6004 52.2215C36.5039 53.4529 35.3584 54.6432 34.1639 55.7928C33.6248 56.0623 33.0857 56.0623 32.5467 55.7928C31.446 54.6922 30.3455 53.5917 29.2449 52.491C28.7062 51.0711 29.1779 50.4647 30.6599 50.6717C31.2169 51.0937 31.7335 51.5653 32.2098 52.0867C32.2546 50.3797 32.2996 48.6727 32.3445 46.9656C33.0768 43.9942 34.8962 42.0401 37.8025 41.1033C40.2658 40.9083 42.7364 40.841 45.2146 40.9012C45.2371 34.7916 45.2146 28.6823 45.1473 22.5731C44.9002 20.7089 43.8445 19.6531 41.9803 19.4061C36.2302 19.3162 30.4803 19.3162 24.7303 19.4061C22.8682 19.6509 21.8126 20.7066 21.5633 22.5731C21.5184 27.7841 21.4734 32.9949 21.4285 38.2059C21.3611 38.4529 21.2038 38.6102 20.9568 38.6776C20.4523 38.8028 19.9806 38.7354 19.5418 38.4754C19.3187 32.7817 19.2737 27.0765 19.407 21.3602C19.9686 19.1814 21.3386 17.8114 23.5174 17.2498C30.076 17.1599 36.6345 17.1599 43.1931 17.2498C45.3719 17.8114 46.7419 19.1814 47.3035 21.3602C47.3709 27.8737 47.3934 34.3874 47.3709 40.9012C50.9649 40.9237 54.5586 40.9012 58.1521 40.8338C61.2241 40.6348 63.2681 39.085 64.284 36.1844C64.9542 32.1563 63.3595 29.4833 59.4998 28.1658C58.7811 28.121 58.0622 28.076 57.3435 28.0311C56.8267 27.8297 56.5572 27.4478 56.5349 26.8856C57.7377 22.1464 56.48 18.2158 52.7615 15.0936C49.0161 12.5825 45.1079 12.2905 41.0369 14.2176C40.8082 14.1638 40.5837 14.0964 40.3631 14.0155C38.8337 10.1951 36.2282 7.36499 32.5467 5.52522C29.17 4.08665 25.756 3.95188 22.3045 5.12092C21.3458 5.37574 20.7618 5.01637 20.5525 4.0428C20.6068 3.6537 20.7865 3.33925 21.0916 3.09944C22.2913 2.65394 23.5042 2.31703 24.7303 2.0887Z" fill="#202020"/>
<path opacity="0.874" fill-rule="evenodd" clip-rule="evenodd" d="M17.3172 5.05367C18.7129 4.88524 19.2296 5.46922 18.867 6.80562C18.2754 7.41688 17.6465 7.46181 16.9803 6.94039C16.6328 6.20954 16.7451 5.58063 17.3172 5.05367Z" fill="#202020"/>
<path opacity="0.961" fill-rule="evenodd" clip-rule="evenodd" d="M14.0833 8.42308C15.3173 8.28685 15.8339 8.82592 15.6331 10.0403C13.0697 13.6955 12.3509 17.6935 13.4768 22.0344C13.632 22.6178 13.5197 23.1344 13.1399 23.5842C8.83383 23.8957 5.98131 26.0743 4.58232 30.1203C3.7492 34.9011 5.52361 38.2927 9.90556 40.2951C10.8185 40.6304 11.7618 40.8101 12.7356 40.8342C17.8154 40.9621 22.8916 40.9172 27.9642 40.6994C30.6054 39.978 32.0205 38.2485 32.2093 35.511C32.2992 34.2981 32.2992 33.0852 32.2093 31.8723C31.733 32.3937 31.2164 32.8654 30.6595 33.2873C29.1774 33.4943 28.7058 32.8879 29.2444 31.468C30.3451 30.3674 31.4456 29.2669 32.5462 28.1662C33.0852 27.8967 33.6243 27.8967 34.1634 28.1662C35.3579 29.3158 36.5034 30.5062 37.5999 31.7375C37.8069 33.2195 37.2004 33.6912 35.7806 33.1526C35.3538 32.7258 34.9271 32.2991 34.5003 31.8723C34.4907 33.7664 34.4008 35.6531 34.2308 37.5324C33.2994 40.4375 31.3453 42.2568 28.3684 42.9905C26.0778 43.0578 23.7868 43.0803 21.4954 43.0578C21.4729 49.1674 21.4954 55.2768 21.5628 61.386C21.8098 63.2502 22.8656 64.3059 24.7298 64.553C30.4798 64.6428 36.2297 64.6428 41.9798 64.553C43.844 64.3059 44.8997 63.2502 45.1468 61.386C45.1916 56.175 45.2367 50.9641 45.2815 45.7532C45.3489 45.5061 45.5062 45.3489 45.7532 45.2815C46.2578 45.1563 46.7295 45.2237 47.1682 45.4836C47.3913 51.1773 47.4363 56.8825 47.303 62.5989C46.7414 64.7776 45.3714 66.1476 43.1927 66.7092C36.634 66.7991 30.0755 66.7991 23.5169 66.7092C21.3381 66.1476 19.9681 64.7776 19.4065 62.5989C19.3392 56.0854 19.3166 49.5716 19.3392 43.0578C16.5986 43.0803 13.8584 43.0578 11.1184 42.9905C7.20766 42.2693 4.44496 40.0906 2.83036 36.4543C1.06358 31.245 2.29893 26.91 6.53642 23.4494C7.88203 22.5142 9.36445 21.9077 10.9837 21.6301C10.1676 17.3621 10.8639 13.364 13.0725 9.63597C13.3492 9.16691 13.6861 8.76262 14.0833 8.42308Z" fill="#202020"/>
<path opacity="0.967" fill-rule="evenodd" clip-rule="evenodd" d="M30.6583 21.4953C32.4557 21.4728 34.2527 21.4953 36.0489 21.5626C36.296 21.63 36.4532 21.7873 36.5206 22.0343C36.6105 22.3937 36.6105 22.753 36.5206 23.1124C36.4532 23.3595 36.296 23.5167 36.0489 23.5841C34.2521 23.674 32.4552 23.674 30.6583 23.5841C30.2519 23.3781 30.0722 23.0412 30.1193 22.5734C30.0899 22.0928 30.2697 21.7335 30.6583 21.4953Z" fill="#202020"/>
<path opacity="0.889" fill-rule="evenodd" clip-rule="evenodd" d="M11.3879 49.2568C12.6284 49.2171 13.1001 49.8012 12.8029 51.0087C12.1818 51.8491 11.508 51.894 10.7814 51.1435C10.5375 50.3375 10.7397 49.7085 11.3879 49.2568Z" fill="#202020"/>
<path opacity="0.889" fill-rule="evenodd" clip-rule="evenodd" d="M54.5137 49.2568C55.7543 49.2171 56.2259 49.8012 55.9288 51.0087C55.3076 51.8491 54.6338 51.894 53.9073 51.1435C53.6634 50.3375 53.8655 49.7085 54.5137 49.2568Z" fill="#202020"/>
<path opacity="0.889" fill-rule="evenodd" clip-rule="evenodd" d="M11.3879 53.5695C12.6284 53.5299 13.1001 54.114 12.8029 55.3215C12.1818 56.1619 11.508 56.2067 10.7814 55.4562C10.5375 54.6502 10.7397 54.0212 11.3879 53.5695Z" fill="#202020"/>
<path opacity="0.889" fill-rule="evenodd" clip-rule="evenodd" d="M54.5137 53.5693C55.7543 53.5296 56.2259 54.1137 55.9288 55.3212C55.3076 56.1616 54.6338 56.2065 53.9073 55.456C53.6634 54.65 53.8655 54.021 54.5137 53.5693Z" fill="#202020"/>
<path opacity="0.889" fill-rule="evenodd" clip-rule="evenodd" d="M11.3879 57.882C12.6284 57.8424 13.1001 58.4265 12.8029 59.634C12.1818 60.4744 11.508 60.5192 10.7814 59.7687C10.5375 58.9627 10.7397 58.3337 11.3879 57.882Z" fill="#202020"/>
<path opacity="0.889" fill-rule="evenodd" clip-rule="evenodd" d="M54.5137 57.8818C55.7543 57.8421 56.2259 58.4262 55.9288 59.6337C55.3076 60.4741 54.6338 60.519 53.9073 59.7685C53.6634 58.9625 53.8655 58.3335 54.5137 57.8818Z" fill="#202020"/>
</svg>
