<svg width="70" height="71" viewBox="0 0 70 71" fill="none" xmlns="http://www.w3.org/2000/svg">
<path opacity="0.982" fill-rule="evenodd" clip-rule="evenodd" d="M22.0501 3.0586C30.6388 3.03646 39.2273 3.0586 47.8157 3.125C49.9629 3.67839 51.3131 5.02864 51.8665 7.17578C51.9978 13.1634 51.9536 19.1401 51.7337 25.1055C51.3012 25.3617 50.8364 25.4281 50.3391 25.3047C50.0957 25.2383 49.9407 25.0833 49.8743 24.8398C49.8301 19.3503 49.7857 13.8607 49.7415 8.3711C49.498 6.53386 48.4576 5.49349 46.6204 5.25C38.8287 5.16146 31.0371 5.16146 23.2454 5.25C21.4103 5.4913 20.37 6.53167 20.1243 8.3711C20.0801 13.8607 20.0357 19.3503 19.9915 24.8398C19.9251 25.0833 19.7701 25.2383 19.5266 25.3047C19.0666 25.4132 18.6238 25.3688 18.1985 25.1719C18.1154 25.0723 18.049 24.9615 17.9993 24.8398C17.9107 18.9519 17.9107 13.0638 17.9993 7.17578C18.5769 5.02669 19.9272 3.65429 22.0501 3.0586Z" fill="#202020"/>
<path opacity="0.976" fill-rule="evenodd" clip-rule="evenodd" d="M31.2141 7.30859C33.6937 7.28646 36.1728 7.3086 38.6516 7.37499C38.8951 7.4414 39.0501 7.59635 39.1165 7.83984C39.2051 8.19401 39.2051 8.54817 39.1165 8.90234C39.0501 9.14582 38.8951 9.30078 38.6516 9.36718C36.1724 9.45573 33.6933 9.45573 31.2141 9.36718C30.8136 9.16416 30.6365 8.83213 30.6829 8.37109C30.6539 7.89751 30.8311 7.54333 31.2141 7.30859Z" fill="#202020"/>
<path opacity="0.935" fill-rule="evenodd" clip-rule="evenodd" d="M34.4024 17.8009C34.9014 17.7439 35.3663 17.8324 35.797 18.0665C36.9195 20.2896 38.0926 22.481 39.3165 24.6408C41.7422 25.1262 44.177 25.569 46.6212 25.9689C47.2997 26.4159 47.4547 27.0136 47.086 27.7619C45.3555 29.448 43.6733 31.1746 42.0392 32.9415C42.3049 35.3565 42.637 37.7693 43.0353 40.1798C42.874 41.1693 42.2984 41.5235 41.3087 41.2423C39.1994 40.1655 37.0744 39.1252 34.9337 38.1212C32.793 39.1252 30.668 40.1655 28.5587 41.2423C27.5354 41.5887 26.9598 41.2346 26.8321 40.1798C27.2304 37.7693 27.5625 35.3565 27.8282 32.9415C26.1941 31.1746 24.5119 29.448 22.7814 27.7619C22.4127 27.0136 22.5677 26.4159 23.2462 25.9689C25.6903 25.569 28.1252 25.1262 30.5509 24.6408C31.5638 22.7697 32.5599 20.8883 33.5392 18.9962C33.7664 18.5368 34.0541 18.1384 34.4024 17.8009ZM34.8009 21.5197C34.9332 21.5082 35.0438 21.5526 35.1329 21.6525C35.9332 23.4534 36.8851 25.1578 37.9884 26.7658C39.9419 27.0913 41.8898 27.4455 43.8321 27.8283C42.3404 29.2312 40.9459 30.7143 39.6485 32.2775C39.8601 34.2238 40.1036 36.1718 40.379 38.1212C38.7131 37.4213 37.0752 36.6466 35.4649 35.797C35.1107 35.7084 34.7567 35.7084 34.4024 35.797C32.7762 36.5991 31.1604 37.4181 29.5548 38.254C29.6982 36.3641 29.9417 34.4827 30.2853 32.6095C30.2189 32.4103 30.1524 32.2111 30.086 32.0119C28.7841 30.577 27.4338 29.1824 26.0353 27.8283C27.9828 27.4742 29.9308 27.12 31.879 26.7658C33.0061 25.1099 33.9801 23.3611 34.8009 21.5197Z" fill="#202020"/>
<path opacity="0.93" fill-rule="evenodd" clip-rule="evenodd" d="M14.7462 24.1759C15.4149 24.0433 15.9684 24.2204 16.4064 24.7071C17.6017 27.0092 18.797 29.3113 19.9923 31.6134C20.1017 33.0643 19.4819 33.5071 18.1329 32.9415C17.237 31.1938 16.3073 29.4672 15.3439 27.7618C14.4426 29.5424 13.4908 31.291 12.4884 33.0079C10.5083 33.4487 8.51613 33.8471 6.51184 34.2032C7.91037 35.5574 9.26064 36.9519 10.5626 38.3868C10.475 40.4393 10.2315 42.4757 9.83216 44.4962C11.0167 44.0384 12.212 43.4851 13.4181 42.836C14.0584 42.5153 14.7224 42.2718 15.4103 42.1055C17.2561 42.818 19.0491 43.6591 20.7892 44.629C20.5307 42.598 20.3093 40.5616 20.1251 38.5196C21.5197 37.0365 22.9142 35.5535 24.3087 34.0704C25.0032 33.7223 25.6009 33.8329 26.1017 34.4024C26.2102 34.8625 26.1658 35.3053 25.9689 35.7305C24.8178 36.8816 23.6668 38.0326 22.5157 39.1837C22.7405 41.5986 23.0283 44.0113 23.379 46.422C23.4013 47.52 22.8701 47.9185 21.7853 47.6173C19.6381 46.5769 17.4911 45.5365 15.3439 44.4962C13.2328 45.5184 11.13 46.5589 9.03528 47.6173C7.68502 47.8607 7.13164 47.3074 7.37512 45.9571C7.66415 43.7789 7.99618 41.6096 8.37122 39.4493C6.59836 37.6543 4.84966 35.8392 3.12513 34.004C3.03658 33.6055 3.03658 33.2071 3.12513 32.8087C3.28636 32.6029 3.48558 32.4481 3.72278 32.3438C6.16686 31.9439 8.60177 31.5011 11.0275 31.0157C12.2181 28.7003 13.4577 26.4204 14.7462 24.1759Z" fill="#202020"/>
<path opacity="0.929" fill-rule="evenodd" clip-rule="evenodd" d="M54.0584 24.1759C54.7271 24.0433 55.2806 24.2204 55.7186 24.7071C56.8033 26.7879 57.8878 28.8685 58.9725 30.9493C61.3896 31.4703 63.8244 31.9352 66.2772 32.3438C67.124 32.8143 67.279 33.4563 66.742 34.2696C65.1041 35.9076 63.4659 37.5457 61.828 39.1837C62.0464 41.5775 62.3342 43.9681 62.6912 46.3555C62.7554 47.4988 62.2241 47.9194 61.0975 47.6173C58.9503 46.5769 56.8033 45.5365 54.6561 44.4962C52.545 45.5184 50.4422 46.5589 48.3475 47.6173C46.9972 47.8607 46.4439 47.3074 46.6873 45.9571C46.9763 43.7789 47.3084 41.6096 47.6834 39.4493C46.5343 38.2338 45.3611 37.0385 44.1639 35.8634C43.7114 35.2484 43.7335 34.6508 44.2303 34.0704C44.7173 33.8048 45.2042 33.8048 45.6912 34.0704C47.134 35.4688 48.5285 36.9077 49.8748 38.3868C49.9634 38.8738 49.9634 39.3607 49.8748 39.8477C49.6147 41.4473 49.3933 43.0411 49.2108 44.629C50.9798 43.6224 52.8172 42.7813 54.7225 42.1055C56.5683 42.818 58.3613 43.6591 60.1014 44.629C59.843 42.598 59.6216 40.5616 59.4373 38.5196C60.7876 37.0809 62.1378 35.642 63.4881 34.2032C61.4852 33.8473 59.493 33.4488 57.5116 33.0079C56.5766 31.2485 55.6248 29.4999 54.6561 27.7618C53.7706 29.4441 52.8853 31.1263 51.9998 32.8087C51.38 33.3399 50.7603 33.3399 50.1405 32.8087C49.9516 32.4727 49.9074 32.1184 50.0077 31.7462C51.292 29.1769 52.6423 26.6535 54.0584 24.1759Z" fill="#202020"/>
<path opacity="0.98" fill-rule="evenodd" clip-rule="evenodd" d="M18.4641 48.7461C18.821 48.7244 19.1752 48.7465 19.5266 48.8125C19.7701 48.8789 19.9251 49.0339 19.9915 49.2774C20.0357 53.3503 20.0801 57.4232 20.1243 61.4961C20.3677 63.3333 21.4082 64.3738 23.2454 64.6172C31.0371 64.7058 38.8287 64.7058 46.6204 64.6172C48.4576 64.3738 49.498 63.3333 49.7415 61.4961C49.7857 57.4232 49.8301 53.3503 49.8743 49.2774C49.9407 49.0339 50.0957 48.8789 50.3391 48.8125C50.6934 48.724 51.0474 48.724 51.4016 48.8125C51.6451 48.8789 51.8001 49.0339 51.8665 49.2774C51.9551 53.7488 51.9551 58.22 51.8665 62.6914C51.3131 64.8386 49.9629 66.1888 47.8157 66.7422C39.2271 66.8308 30.6387 66.8308 22.0501 66.7422C19.9029 66.1888 18.5527 64.8386 17.9993 62.6914C17.9107 58.22 17.9107 53.7488 17.9993 49.2774C18.0909 49.0317 18.2458 48.8545 18.4641 48.7461Z" fill="#202020"/>
</svg>
