<svg width="148" height="56" viewBox="0 0 148 56" fill="none" xmlns="http://www.w3.org/2000/svg">
<g clip-path="url(#clip0_289_37810)">
<g clip-path="url(#clip1_289_37810)">
<g clip-path="url(#clip2_289_37810)">
<path d="M61.6411 15.6249V34.3749H58.3859V19.6614H58.3425L52.5265 34.3749H50.3564L44.4103 19.6614H44.3668V34.3749H41.3721V15.6249H46.0596L51.4415 29.5138H51.5283L57.214 15.6249H61.6411ZM64.3322 17.0573C64.3322 16.5364 64.5057 16.1024 64.8964 15.7551C65.287 15.408 65.721 15.2343 66.2418 15.2343C66.8061 15.2343 67.2835 15.408 67.6307 15.7551C67.9779 16.1024 68.195 16.5364 68.195 17.0573C68.195 17.578 68.0214 18.0121 67.6307 18.3593C67.2401 18.7066 66.8061 18.8801 66.2418 18.8801C65.6776 18.8801 65.2436 18.7066 64.8964 18.3593C64.5491 17.9687 64.3322 17.5347 64.3322 17.0573ZM67.8478 20.9201V34.3749H64.6793V20.9201H67.8478ZM77.4397 32.0746C77.9171 32.0746 78.438 31.9878 79.002 31.7274C79.5668 31.5104 80.0872 31.2066 80.5645 30.8593V33.8107C80.0442 34.1145 79.4793 34.3316 78.8286 34.4618C78.1776 34.5919 77.4832 34.6787 76.7019 34.6787C74.7054 34.6787 73.0995 34.0712 71.8842 32.8124C70.6255 31.5537 70.0179 29.9479 70.0179 28.0381C70.0179 25.868 70.6689 24.0885 71.9276 22.6996C73.1863 21.3107 74.9658 20.6162 77.3096 20.6162C77.9172 20.6162 78.5248 20.703 79.0887 20.8333C79.6965 20.9635 80.1739 21.1805 80.5215 21.3541V24.3923C80.0442 24.0451 79.5231 23.7412 79.0457 23.5676C78.5248 23.3941 78.0039 23.2638 77.4832 23.2638C76.2245 23.2638 75.2262 23.6544 74.445 24.4791C73.6637 25.3037 73.3165 26.3888 73.3165 27.7777C73.3165 29.1232 73.7071 30.2083 74.445 30.9462C75.1828 31.684 76.1811 32.0746 77.4397 32.0746ZM89.5489 20.703C89.8098 20.703 90.0262 20.703 90.2434 20.7465C90.4606 20.7899 90.634 20.8333 90.7645 20.8767V24.0885C90.5911 23.9583 90.3739 23.828 90.0262 23.7412C89.6793 23.6544 89.3325 23.5676 88.8543 23.5676C88.0731 23.5676 87.4223 23.9149 86.9012 24.5659C86.3809 25.2169 86.077 26.2152 86.077 27.6041V34.3749H82.9082V20.9201H86.077V23.0468H86.12C86.4239 22.309 86.8582 21.7448 87.4223 21.3107C88.0301 20.9201 88.7247 20.703 89.5489 20.703ZM90.9379 27.8645C90.9379 25.651 91.5887 23.8715 92.8043 22.5694C94.0629 21.2673 95.7989 20.6162 98.0129 20.6162C100.096 20.6162 101.745 21.2239 102.917 22.4826C104.089 23.7412 104.697 25.434 104.697 27.5607C104.697 29.7308 104.046 31.4669 102.83 32.7691C101.572 34.0712 99.8793 34.7222 97.709 34.7222C95.6254 34.7222 93.9762 34.1145 92.7606 32.8993C91.5457 31.6405 90.9379 29.9479 90.9379 27.8645ZM94.2364 27.7343C94.2364 29.1232 94.5403 30.2083 95.1918 30.9462C95.8426 31.684 96.7543 32.0746 97.9262 32.0746C99.0543 32.0746 99.9661 31.7274 100.573 30.9462C101.181 30.2083 101.485 29.1232 101.485 27.6475C101.485 26.2152 101.181 25.1301 100.573 24.3489C99.9661 23.6111 99.0543 23.2205 97.9692 23.2205C96.7973 23.2205 95.9293 23.6111 95.2786 24.3923C94.5403 25.2169 94.2364 26.302 94.2364 27.7343ZM109.428 24.4791C109.428 24.9131 109.557 25.3037 109.861 25.5642C110.165 25.8246 110.773 26.1284 111.772 26.5191C113.03 27.0399 113.942 27.6041 114.419 28.2118C114.939 28.8628 115.2 29.6006 115.2 30.5121C115.2 31.7708 114.723 32.7691 113.725 33.5503C112.77 34.3316 111.424 34.6787 109.775 34.6787C109.211 34.6787 108.603 34.5919 107.908 34.4618C107.214 34.3316 106.65 34.158 106.172 33.9409V30.8159C106.736 31.2066 107.388 31.5537 108.039 31.7708C108.689 31.9878 109.297 32.118 109.861 32.118C110.556 32.118 111.12 32.0312 111.424 31.8142C111.772 31.5972 111.945 31.2934 111.945 30.8159C111.945 30.3819 111.772 30.0347 111.424 29.6874C111.077 29.3837 110.382 29.0364 109.428 28.6458C108.256 28.1683 107.431 27.6041 106.954 26.9965C106.476 26.3888 106.216 25.6076 106.216 24.6527C106.216 23.4374 106.693 22.4392 107.648 21.658C108.603 20.8767 109.861 20.4861 111.381 20.4861C111.858 20.4861 112.379 20.5294 112.943 20.6597C113.507 20.7899 114.029 20.9201 114.419 21.0503V24.1319C113.985 23.8715 113.507 23.6111 112.943 23.3941C112.379 23.177 111.814 23.0902 111.294 23.0902C110.686 23.0902 110.209 23.2205 109.905 23.4374C109.601 23.7412 109.428 24.0451 109.428 24.4791ZM116.546 27.8645C116.546 25.651 117.197 23.8715 118.412 22.5694C119.671 21.2673 121.407 20.6162 123.62 20.6162C125.704 20.6162 127.353 21.2239 128.525 22.4826C129.697 23.7412 130.304 25.434 130.304 27.5607C130.304 29.7308 129.654 31.4669 128.438 32.7691C127.179 34.0712 125.486 34.7222 123.317 34.7222C121.233 34.7222 119.584 34.1145 118.368 32.8993C117.197 31.6405 116.546 29.9479 116.546 27.8645ZM119.844 27.7343C119.844 29.1232 120.148 30.2083 120.799 30.9462C121.45 31.684 122.361 32.0746 123.533 32.0746C124.662 32.0746 125.573 31.7274 126.181 30.9462C126.789 30.2083 127.093 29.1232 127.093 27.6475C127.093 26.2152 126.789 25.1301 126.181 24.3489C125.573 23.6111 124.662 23.2205 123.577 23.2205C122.405 23.2205 121.537 23.6111 120.886 24.3923C120.192 25.2169 119.844 26.302 119.844 27.7343ZM140.851 23.5243H136.12V34.3749H132.908V23.5243H130.651V20.9201H132.908V19.0537C132.908 17.6649 133.386 16.493 134.297 15.5816C135.209 14.6701 136.381 14.2361 137.813 14.2361C138.204 14.2361 138.551 14.2794 138.854 14.2794C139.158 14.2794 139.419 14.3662 139.636 14.453V17.1874C139.549 17.1441 139.332 17.0573 139.072 16.9705C138.811 16.8837 138.507 16.8402 138.161 16.8402C137.509 16.8402 136.989 17.0573 136.641 17.4479C136.294 17.8385 136.12 18.4895 136.12 19.2708V20.8767H140.851V17.8385L144.02 16.8837V20.8767H147.232V23.4808H144.02V29.7743C144.02 30.5989 144.193 31.1631 144.454 31.5104C144.757 31.8576 145.235 32.0312 145.886 32.0312C146.06 32.0312 146.276 31.9878 146.537 31.901C146.797 31.8142 147.014 31.7274 147.188 31.5972V34.2013C146.971 34.3316 146.667 34.4183 146.189 34.5051C145.712 34.5919 145.279 34.6354 144.801 34.6354C143.455 34.6354 142.457 34.2881 141.806 33.5937C141.155 32.8993 140.807 31.8142 140.807 30.3819L140.851 23.5243Z" fill="white"/>
<path d="M15.5469 9.375H0.703125V24.2188H15.5469V9.375Z" fill="white"/>
<path d="M31.9531 9.375H17.1094V24.2188H31.9531V9.375Z" fill="white"/>
<path d="M15.5469 25.7812H0.703125V40.625H15.5469V25.7812Z" fill="white"/>
<path d="M31.9531 25.7812H17.1094V40.625H31.9531V25.7812Z" fill="white"/>
</g>
</g>
</g>
<defs>
<clipPath id="clip0_289_37810">
<rect width="146.88" height="50" fill="white" transform="translate(0.700195)"/>
</clipPath>
<clipPath id="clip1_289_37810">
<rect width="146.88" height="50" fill="white" transform="translate(0.700195)"/>
</clipPath>
<clipPath id="clip2_289_37810">
<rect width="146.875" height="50" fill="white" transform="translate(0.703125)"/>
</clipPath>
</defs>
</svg>
