<svg width="126" height="56" viewBox="0 0 126 56" fill="none" xmlns="http://www.w3.org/2000/svg">
<g clip-path="url(#clip0_289_37784)">
<g clip-path="url(#clip1_289_37784)">
<g clip-path="url(#clip2_289_37784)">
<mask id="mask0_289_37784" style="mask-type:luminance" maskUnits="userSpaceOnUse" x="0" y="13" width="126" height="24">
<path d="M125.412 13.2812H0.169922V36.7185H125.412V13.2812Z" fill="white"/>
</mask>
<g mask="url(#mask0_289_37784)">
<path fill-rule="evenodd" clip-rule="evenodd" d="M103.873 14.4592H106.768V17.0157H103.873V14.4592ZM103.873 18.8291H106.768V30.5603H103.873V18.8291ZM29.0547 18.8296H31.7182L31.9557 19.9751H32.0715C32.0715 19.9751 33.1107 18.5936 35.314 18.5936C37.9775 18.5936 39.9461 20.5486 39.9461 23.54V30.5607H37.0511V23.7789C37.0511 22.2838 36.0118 21.2488 34.5034 21.2488C32.995 21.2488 31.9557 22.2809 31.9557 23.7789V30.5607H29.0605L29.0547 18.8296ZM53.2579 27.1105C53.0263 28.0305 51.5209 30.7963 47.8151 30.7963C44.3395 30.7963 41.7918 28.2664 41.7918 24.7014C41.7918 21.1365 44.3395 18.6051 47.8151 18.6051C51.0576 18.6051 53.6053 21.1351 53.6053 24.4715C53.6097 24.8579 53.5709 25.2436 53.4895 25.6214H44.6869C44.92 27.2254 46.1938 28.3784 47.8151 28.3784C49.2047 28.3784 50.0153 27.5735 50.247 27.1134L53.2579 27.1105ZM50.7102 23.6606C50.4786 22.1656 49.4364 21.0156 47.8151 21.0156C46.078 21.0156 45.0358 22.1656 44.6869 23.6606H50.7102ZM57.1963 18.8285H54.1913L57.1963 30.5596H60.7269L62.6896 22.9698H62.8619L64.8305 30.5596H68.3551L71.366 18.8285H68.3551L66.3864 26.5348H66.2201L64.2514 18.8285H61.3059L59.3372 26.5348H59.1709L57.1963 18.8285ZM77.1533 18.8285H79.5872L79.8185 19.8605H79.9341C80.1771 19.5405 80.4911 19.2807 80.8513 19.1016C81.2122 18.9225 81.6091 18.829 82.013 18.8285H84.0325V21.5957H82.2505C80.7435 21.5957 80.0482 22.2857 80.0482 23.7807V30.5626H77.1533V18.8285ZM90.4379 30.7963C94.1441 30.7963 95.6496 28.0305 95.8816 27.1105L92.8707 27.1164C92.6379 27.5764 91.8285 28.3814 90.4379 28.3814C88.8176 28.3814 87.5434 27.2314 87.3098 25.6214H96.1128C96.1941 25.2436 96.2332 24.8579 96.2285 24.4715C96.2285 21.1351 93.6808 18.6051 90.4379 18.6051C86.9629 18.6051 84.4145 21.1365 84.4145 24.7014C84.4145 28.2664 86.9629 30.7963 90.4379 30.7963ZM90.4379 21.0156C92.0598 21.0156 93.1019 22.1656 93.3332 23.6606H87.3098C87.659 22.1656 88.7012 21.0156 90.4379 21.0156ZM114.76 30.7908C118.465 30.7908 119.97 28.0308 120.318 26.1908H117.423C117.192 26.9958 116.498 28.1458 114.76 28.1458C113.021 28.1458 111.631 26.7658 111.631 24.6959C111.631 22.6259 113.023 21.246 114.76 21.246C116.496 21.246 117.192 22.3945 117.423 23.0859H120.318C119.97 21.361 118.471 18.5996 114.76 18.5996C111.284 18.5996 108.736 21.131 108.736 24.6959C108.736 28.2608 111.284 30.7908 114.76 30.7908ZM96.6714 14.4612V17.0162H98.3152V30.5608H101.21V14.4612H96.6714ZM121.008 28.7508C120.861 28.9624 120.781 29.2124 120.776 29.4695C120.77 29.6437 120.799 29.8173 120.863 29.9797C120.926 30.1422 121.022 30.29 121.145 30.4143C121.268 30.5385 121.416 30.6365 121.578 30.7022C121.741 30.7679 121.915 30.7999 122.09 30.7964C122.349 30.7964 122.602 30.7204 122.818 30.578C123.034 30.4356 123.202 30.2331 123.302 29.996C123.402 29.7588 123.429 29.4977 123.381 29.2451C123.331 28.9927 123.209 28.7602 123.027 28.5768C122.845 28.3935 122.613 28.2675 122.359 28.2147C122.106 28.1619 121.843 28.1846 121.602 28.28C121.362 28.3753 121.156 28.5392 121.008 28.7508ZM123.003 28.8616C123.128 29.0407 123.196 29.2521 123.199 29.4695C123.206 29.6167 123.181 29.7635 123.128 29.901C123.074 30.0384 122.993 30.1635 122.889 30.2685C122.785 30.3735 122.66 30.4563 122.524 30.5116C122.386 30.5669 122.238 30.5935 122.09 30.5901C121.871 30.5902 121.657 30.5263 121.475 30.4061C121.292 30.2858 121.149 30.1147 121.065 29.9142C120.981 29.7138 120.957 29.493 120.998 29.2795C121.04 29.0659 121.143 28.8692 121.297 28.7142C121.45 28.5592 121.646 28.4526 121.861 28.408C122.074 28.3633 122.298 28.3825 122.501 28.4632C122.705 28.544 122.879 28.6825 123.003 28.8616ZM122.159 28.7707H121.566L121.574 30.1492H121.777V29.673H121.956L122.436 30.1506H122.695L122.214 29.673C122.333 29.673 122.446 29.6264 122.53 29.5435C122.613 29.4605 122.66 29.348 122.66 29.2306C122.66 29.1673 122.646 29.1046 122.62 29.0466C122.595 28.9885 122.557 28.9364 122.51 28.8932C122.463 28.8501 122.408 28.817 122.348 28.7959C122.288 28.7749 122.224 28.7663 122.159 28.7707ZM122.457 29.2306C122.457 29.3767 122.363 29.4695 122.159 29.4695H121.777V28.9728H122.159C122.197 28.9681 122.234 28.9714 122.27 28.9822C122.306 28.9931 122.338 29.0113 122.367 29.0356C122.395 29.0599 122.417 29.09 122.433 29.1236C122.449 29.1572 122.456 29.1937 122.457 29.2306Z" fill="white"/>
<path opacity="0.6" d="M16.6772 21.3948V28.6058L10.3896 32.212V36.719L20.6101 30.86V19.1406L16.6772 21.3948Z" fill="white"/>
<path opacity="0.4" d="M10.3904 17.7897L16.6779 21.3945L20.6108 19.1402L10.3904 13.2812L0.169922 19.1402L4.10132 21.3945L10.3904 17.7897Z" fill="white"/>
<path d="M6.45897 27.2552V34.4662L10.3904 36.719V25.001L0.169922 19.1406V23.6491L6.45897 27.2552Z" fill="white"/>
</g>
</g>
</g>
</g>
<defs>
<clipPath id="clip0_289_37784">
<rect width="125.78" height="50" fill="white" transform="translate(0.169922)"/>
</clipPath>
<clipPath id="clip1_289_37784">
<rect width="125.78" height="50" fill="white" transform="translate(0.169922)"/>
</clipPath>
<clipPath id="clip2_289_37784">
<rect width="125.78" height="49.9995" fill="white" transform="translate(0.169922 0.000244141)"/>
</clipPath>
</defs>
</svg>
