<svg width="92" height="50" viewBox="0 0 92 50" fill="none" xmlns="http://www.w3.org/2000/svg">
<g clip-path="url(#clip0_289_37751)">
<path fill-rule="evenodd" clip-rule="evenodd" d="M20.125 9.44603L2.83334 10.7231C1.43854 10.844 0.953125 11.7554 0.953125 12.8481V31.8044C0.953125 32.6554 1.25521 33.3835 1.98438 34.3565L6.04896 39.6419C6.71666 40.4929 7.32396 40.6752 8.59896 40.6148L28.6791 39.3992C30.3771 39.2784 30.8635 38.4877 30.8635 37.1513V15.8253C30.8635 15.1346 30.5906 14.9356 29.7875 14.346C29.7413 14.3127 29.6951 14.2795 29.649 14.246L24.1302 10.3575C22.7948 9.38666 22.249 9.26377 20.125 9.44603ZM9.05313 15.4763C7.41354 15.5867 7.04166 15.6117 6.11041 14.8544L3.74271 12.971C3.50209 12.7273 3.62291 12.4231 4.22916 12.3627L20.8521 11.1481C22.2479 11.0263 22.975 11.5128 23.5209 11.9378L26.3719 14.0034C26.4937 14.0648 26.7969 14.4284 26.4323 14.4284L9.26562 15.4617L9.05313 15.4763ZM7.14166 36.969V18.8648C7.14166 18.0742 7.38438 17.7096 8.11146 17.6481L27.8281 16.494C28.4969 16.4335 28.799 16.8585 28.799 17.6481V35.6315C28.799 36.4221 28.6771 37.0909 27.5854 37.1513L8.71771 38.245C7.62604 38.3054 7.14166 37.9419 7.14166 36.969ZM25.7666 19.8356C25.8875 20.3825 25.7666 20.9294 25.2198 20.9919L24.3104 21.1721V34.5388C23.5209 34.9638 22.7937 35.2065 22.1865 35.2065C21.2156 35.2065 20.9729 34.9023 20.2459 33.9919L14.299 24.6356V33.6878L16.1802 34.1138C16.1802 34.1138 16.1802 35.2075 14.6625 35.2075L10.4781 35.4503C10.3563 35.2065 10.4781 34.5992 10.9021 34.4784L11.9948 34.1753V22.2065L10.4781 22.0835C10.3563 21.5367 10.6594 20.7471 11.5094 20.6856L15.999 20.3835L22.1865 29.8606V21.4763L20.6094 21.295C20.4875 20.6253 20.9729 20.1388 21.5791 20.0794L25.7666 19.8356Z" fill="white"/>
<path d="M44.1139 31.5113V23.2717H44.2566L50.1982 31.5113H52.0691V19.403H49.9889V27.6342H49.8462L43.9045 19.403H42.0264V31.5103H44.115L44.1139 31.5113ZM57.9482 31.6967C60.6931 31.6967 62.3628 29.9009 62.3628 26.9217C62.3628 23.9509 60.6847 22.1467 57.9482 22.1467C55.2212 22.1467 53.5347 23.9592 53.5347 26.9217C53.5347 29.9009 55.1962 31.6967 57.9482 31.6967ZM57.9482 29.9509C56.4972 29.9509 55.667 28.8436 55.667 26.9217C55.667 25.0082 56.4972 23.8926 57.9482 23.8926C59.392 23.8926 60.2222 25.0082 60.2222 26.9217C60.2222 28.8436 59.4004 29.9509 57.9482 29.9509ZM64.2639 20.0832V22.3905H62.8129V24.052H64.2639V29.0613C64.2639 30.8405 65.1035 31.5541 67.2097 31.5541C67.6118 31.5541 67.9982 31.5124 68.3004 31.453V29.8249C68.0482 29.8499 67.8889 29.8666 67.5951 29.8666C66.7232 29.8666 66.3368 29.4645 66.3368 28.5582V24.052H68.3004V22.3905H66.3368V20.0822H64.2639V20.0832ZM69.5472 31.5113H71.6201V22.3311H69.5472V31.5113ZM70.5795 20.8134C71.267 20.8134 71.8212 20.2582 71.8212 19.5624C71.8212 18.8655 71.2681 18.303 70.5795 18.303C69.9004 18.303 69.3379 18.8655 69.3379 19.5624C69.3379 20.2582 69.9004 20.8124 70.5795 20.8124V20.8134ZM77.3066 31.6967C80.0504 31.6967 81.72 29.9009 81.72 26.9217C81.72 23.9509 80.0418 22.1467 77.3066 22.1467C74.5785 22.1467 72.892 23.9592 72.892 26.9217C72.892 29.9009 74.5535 31.6967 77.3066 31.6967ZM77.3066 29.9509C75.8545 29.9509 75.0232 28.8436 75.0232 26.9217C75.0232 25.0082 75.8545 23.8926 77.3066 23.8926C78.7493 23.8926 79.5809 25.0082 79.5809 26.9217C79.5809 28.8436 78.7576 29.9509 77.3066 29.9509ZM82.959 31.5113H85.0403V26.1666C85.0403 24.8155 85.8215 23.9592 87.0621 23.9592C88.3293 23.9592 88.9161 24.6645 88.9161 26.0655V31.5113H90.9981V25.5707C90.9981 23.3801 89.8817 22.1467 87.8348 22.1467C86.4661 22.1467 85.5434 22.7759 85.1067 23.7999H84.9637V22.3311H82.959V31.5113Z" fill="white"/>
</g>
<defs>
<clipPath id="clip0_289_37751">
<rect width="90.625" height="50" fill="white" transform="translate(0.953125)"/>
</clipPath>
</defs>
</svg>
