<svg width="58" height="59" viewBox="0 0 58 59" fill="none" xmlns="http://www.w3.org/2000/svg">
<g clip-path="url(#clip0_35_8534)">
<path opacity="0.936" fill-rule="evenodd" clip-rule="evenodd" d="M24.6838 0.790039C26.1412 0.790039 27.5986 0.790039 29.0561 0.790039C32.8653 1.28167 36.3407 2.64566 39.4822 4.88203C41.3937 6.30691 43.2061 7.85776 44.9195 9.53457C45.2505 9.95664 45.3253 10.4051 45.1438 10.8799C39.7625 16.2611 34.3813 21.6424 29 27.0236C28.9627 34.6844 28.9252 42.3453 28.8879 50.0061C28.603 50.5183 28.1732 50.6864 27.5986 50.5105C27.2194 50.3558 27.0139 50.0756 26.982 49.6697C26.8714 41.8171 26.9087 33.9695 27.0942 26.1268C32.2869 20.8405 37.5 15.5713 42.7334 10.3193C33.9311 1.55368 24.1776 0.376533 13.4729 6.78789C4.61584 13.1272 1.04703 21.7036 2.76642 32.517C4.86579 40.6329 9.70518 46.4812 17.2846 50.0621C20.7416 51.6082 24.3664 52.393 28.1592 52.4164C28.9002 52.6639 29.1431 53.1684 28.8879 53.9299C28.7518 54.1035 28.5836 54.2343 28.3834 54.3223C19.2097 54.3033 11.717 50.7719 5.90548 43.7279C2.69163 39.6362 0.804456 35.0022 0.243958 29.8264C0.243958 28.2942 0.243958 26.7621 0.243958 25.2299C1.37708 15.7292 6.08567 8.61026 14.3697 3.87305C17.6242 2.1819 21.0622 1.15423 24.6838 0.790039Z" fill="#2D2D2D"/>
<path opacity="0.939" fill-rule="evenodd" clip-rule="evenodd" d="M57.6438 25.5654C57.6438 26.7239 57.6438 27.8824 57.6438 29.0408C57.4799 29.1482 57.3305 29.2789 57.1954 29.4332C48.563 29.508 39.9305 29.508 31.2981 29.4332C30.8691 29.0623 30.7382 28.5953 30.9057 28.0318C36.1188 22.8188 41.3319 17.6057 46.545 12.3926C47.6968 12.0491 48.2013 12.4789 48.0585 13.6818C43.5585 18.2939 39.0181 22.8717 34.4372 27.4152C41.5 27.4713 48.5629 27.49 55.6259 27.4713C55.6039 21.9305 53.9408 16.9603 50.637 12.5607C50.1924 12.0038 49.7066 11.4807 49.1796 10.9912C48.7612 10.1055 49.0227 9.54498 49.9643 9.30957C50.216 9.381 50.459 9.47442 50.693 9.58984C54.0975 13.1284 56.2462 17.3325 57.1393 22.2021C57.3149 23.3386 57.4831 24.4597 57.6438 25.5654Z" fill="#2D2D2D"/>
<path opacity="0.942" fill-rule="evenodd" clip-rule="evenodd" d="M57.6439 31.844C57.6439 32.853 57.6439 33.8619 57.6439 34.8709C56.5897 44.4224 51.8065 51.3919 43.2939 55.7793C40.4224 57.0762 37.4328 57.8796 34.3251 58.1897C33.3162 58.1897 32.3072 58.1897 31.2982 58.1897C31.1908 58.0258 31.0601 57.8763 30.9058 57.7412C30.7944 49.0623 30.8317 40.3925 31.0179 31.7319C31.1191 31.5972 31.2499 31.5037 31.4103 31.4516C38.6974 31.3768 45.9845 31.3768 53.2716 31.4516C53.7935 31.7764 53.9617 32.2434 53.7761 32.853C53.5786 33.1633 53.2983 33.3314 52.9353 33.3574C46.2462 33.4135 39.5571 33.4322 32.8677 33.4135C32.8677 40.9996 32.8677 48.5856 32.8677 56.1717C40.4026 55.796 46.4752 52.657 51.0855 46.7545C54.204 42.2935 55.7736 37.3233 55.7941 31.844C56.4106 31.2501 57.0272 31.2501 57.6439 31.844Z" fill="#2D2D2D"/>
</g>
<defs>
<clipPath id="clip0_35_8534">
<rect width="57.4" height="57.4" fill="white" transform="translate(0.300049 0.84668)"/>
</clipPath>
</defs>
</svg>
