<svg width="24" height="24" viewBox="0 0 24 24" fill="none" xmlns="http://www.w3.org/2000/svg">
<path d="M23.8362 9.16163C23.6316 8.51053 23.223 7.94254 22.6706 7.54166C22.1183 7.14078 21.4516 6.9283 20.7692 6.93563H16.4002L15.0732 2.79963C14.8645 2.14859 14.4545 1.58064 13.9022 1.1777C13.3499 0.774747 12.6839 0.557617 12.0002 0.557617C11.3165 0.557617 10.6505 0.774747 10.0982 1.1777C9.54593 1.58064 9.13587 2.14859 8.92719 2.79963L7.60019 6.93563H3.23119C2.55094 6.9366 1.88838 7.15251 1.33817 7.55254C0.787961 7.95256 0.378234 8.51622 0.167514 9.16302C-0.043205 9.80982 -0.0441377 10.5067 0.16485 11.154C0.373837 11.8014 0.782054 12.3661 1.33119 12.7676L4.88719 15.3676L3.53519 19.5546C3.3167 20.204 3.31394 20.9066 3.5273 21.5577C3.74067 22.2088 4.15874 22.7735 4.71919 23.1676C5.27004 23.5744 5.93759 23.7923 6.62235 23.7889C7.30711 23.7855 7.97244 23.5609 8.51919 23.1486L12.0002 20.5866L15.4822 23.1456C16.032 23.5501 16.696 23.7698 17.3786 23.7731C18.0611 23.7764 18.7272 23.5632 19.281 23.1641C19.8347 22.7651 20.2477 22.2007 20.4605 21.5521C20.6733 20.9035 20.6749 20.2042 20.4652 19.5546L19.1132 15.3676L22.6732 12.7676C23.2286 12.3712 23.6416 11.8064 23.8511 11.157C24.0605 10.5075 24.0553 9.80789 23.8362 9.16163ZM21.4932 11.1526L17.3492 14.1816C17.179 14.3058 17.0523 14.4806 16.9873 14.681C16.9223 14.8814 16.9223 15.0972 16.9872 15.2976L18.5622 20.1676C18.6419 20.4146 18.6412 20.6806 18.5602 20.9271C18.4793 21.1737 18.3222 21.3883 18.1116 21.54C17.901 21.6917 17.6477 21.7727 17.3882 21.7714C17.1287 21.7701 16.8762 21.6865 16.6672 21.5326L12.5922 18.5326C12.4206 18.4066 12.2132 18.3386 12.0002 18.3386C11.7872 18.3386 11.5798 18.4066 11.4082 18.5326L7.33319 21.5326C7.12428 21.6885 6.87113 21.7739 6.61046 21.7762C6.34978 21.7786 6.09513 21.6979 5.88342 21.5458C5.67171 21.3937 5.51394 21.1781 5.43299 20.9303C5.35204 20.6825 5.35211 20.4154 5.43319 20.1676L7.01319 15.2976C7.07811 15.0972 7.07806 14.8814 7.01305 14.681C6.94805 14.4806 6.8214 14.3058 6.65119 14.1816L2.50719 11.1526C2.2985 10.9998 2.14343 10.785 2.06413 10.5388C1.98484 10.2926 1.98538 10.0276 2.06568 9.78173C2.14597 9.53585 2.30192 9.32164 2.51123 9.16968C2.72055 9.01773 2.97254 8.93581 3.23119 8.93563H8.33119C8.54291 8.93562 8.74916 8.86842 8.92024 8.74371C9.09132 8.61899 9.21841 8.44319 9.28319 8.24163L10.8332 3.41063C10.9128 3.16342 11.0687 2.94782 11.2786 2.79488C11.4885 2.64194 11.7415 2.55954 12.0012 2.55954C12.2609 2.55954 12.5139 2.64194 12.7238 2.79488C12.9337 2.94782 13.0896 3.16342 13.1692 3.41063L14.7192 8.24163C14.784 8.44319 14.9111 8.61899 15.0821 8.74371C15.2532 8.86842 15.4595 8.93562 15.6712 8.93563H20.7712C21.0299 8.93581 21.2818 9.01773 21.4912 9.16968C21.7005 9.32164 21.8564 9.53585 21.9367 9.78173C22.017 10.0276 22.0175 10.2926 21.9383 10.5388C21.859 10.785 21.7039 10.9998 21.4952 11.1526H21.4932Z" fill="#4673A3"/>
</svg>
