<svg width="380" height="495" viewBox="0 0 380 495" fill="none" xmlns="http://www.w3.org/2000/svg">
<g clip-path="url(#clip0_805_4613)">
<path d="M0 226H66.5M238.5 226H161.5M119.25 226C121.667 225 126.7 221.5 127.5 215.5V160M119.25 226H66.5M119.25 226H161.5M127.5 96V160M127.5 160C128.294 156.031 131.931 148.735 140.225 149.78C141.076 149.887 141.932 150 142.789 150H199C205.627 150 211 144.627 211 138V62.8389C211 56.2748 216.274 50.9287 222.838 50.84L285 50M66.5 226C70.8333 226 79.4 228.3 79 237.5V396.5M161.5 226C166.401 226.632 175.319 230.203 173.836 239.444C173.669 240.484 173.5 241.534 173.5 242.587V380.5C173.5 387.127 178.873 392.5 185.5 392.5H282.5" stroke="#3F80FF" stroke-width="2"/>
<rect x="30.5" y="395" width="100" height="100" rx="12" fill="#163759"/>
<rect x="50.5" y="415" width="60" height="60" rx="4" fill="#3F80FF"/>
<rect x="280.5" y="338" width="100" height="100" rx="12" fill="#163759"/>
<rect x="300.5" y="358" width="60" height="60" rx="4" fill="#3F80FF"/>
<rect x="234.5" y="176" width="100" height="100" rx="12" fill="#163759"/>
<rect x="254.5" y="196" width="60" height="60" rx="4" fill="#3F80FF"/>
<rect x="280.5" width="100" height="100" rx="12" fill="#163759"/>
<rect x="300.5" y="20" width="60" height="60" rx="4" fill="#3F80FF"/>
<rect x="75.5" width="100" height="100" rx="12" fill="#163759"/>
<rect x="95.5" y="20" width="60" height="60" rx="4" fill="#3F80FF"/>
</g>
<defs>
<clipPath id="clip0_805_4613">
<rect width="380" height="495" fill="white"/>
</clipPath>
</defs>
</svg>
