<svg width="31" height="27" viewBox="0 0 31 27" fill="none" xmlns="http://www.w3.org/2000/svg">
<path d="M30 8.50734C30 10.2779 29.3311 12.0637 27.978 13.4221L25.728 15.681L16.0439 25.4037C15.9983 25.4495 15.9831 25.4647 15.9375 25.4953C15.8919 25.4647 15.8767 25.4495 15.8311 25.4037L3.89696 13.4221C2.54392 12.0637 1.875 10.2931 1.875 8.50734C1.875 6.72155 2.54392 4.93576 3.89696 3.57734C6.60304 0.875751 10.9814 0.875751 13.6875 3.57734L15.9223 5.83628L18.1723 3.57734C20.8784 0.875751 25.2416 0.875751 27.9476 3.57734C29.3311 4.93576 30 6.70628 30 8.50734Z" stroke="#86868B" stroke-width="2" stroke-linecap="round" stroke-linejoin="round"/>
</svg>
