<svg width="10" height="14" viewBox="0 0 10 14" fill="none" xmlns="http://www.w3.org/2000/svg">
<path opacity="0.989" fill-rule="evenodd" clip-rule="evenodd" d="M6.28813 0C6.36624 0 6.44435 0 6.52247 0C6.58253 0.0403974 6.63026 0.0950849 6.66567 0.164062C6.70194 1.15339 6.99701 2.04662 7.55093 2.84375C8.05615 3.54938 8.54215 4.26945 9.009 5.00391C9.95424 6.63969 10.2233 8.38969 9.81614 10.2539C9.10986 12.413 7.68215 13.6617 5.53306 14C5.18591 14 4.83873 14 4.49158 14C2.57539 13.7073 1.20845 12.6409 0.39076 10.8008C0.062744 9.92977 -0.0587627 9.02743 0.0262428 8.09375C0.0579454 7.07339 0.344352 6.1437 0.885463 5.30469C1.07689 5.03062 1.31554 4.81644 1.60148 4.66211C1.75728 4.63682 1.87445 4.69607 1.95298 4.83984C2.04205 5.39418 2.23298 5.90461 2.52579 6.37109C2.73586 6.66146 3.00925 6.85286 3.34596 6.94531C3.31713 5.8809 3.4256 4.83273 3.67142 3.80078C4.16287 2.23801 5.0351 0.971083 6.28813 0ZM5.3508 8.53125C5.45521 8.72301 5.55504 8.92352 5.65023 9.13281C5.86719 9.47004 6.08418 9.8073 6.30115 10.1445C6.66491 10.8222 6.74302 11.5332 6.53548 12.2773C6.09278 13.2322 5.38543 13.5649 4.41347 13.2754C3.59818 12.8163 3.25537 12.1008 3.38501 11.1289C3.40167 10.936 3.4494 10.7537 3.52821 10.582C3.74216 11.0362 4.08934 11.2412 4.56969 11.1973C4.64471 11.1631 4.69243 11.1038 4.7129 11.0195C4.71576 10.5031 4.76783 9.99264 4.86912 9.48828C4.97579 9.1365 5.13636 8.81748 5.3508 8.53125Z" fill="white"/>
</svg>
