<svg width="16" height="21" viewBox="0 0 16 21" fill="none" xmlns="http://www.w3.org/2000/svg">
<path d="M7.7 1C4.01 1 1 4.01 1 7.7C1 12.28 7 19.02 7.25 19.3C7.49 19.57 7.90999 19.57 8.14999 19.3C8.40999 19.02 14.4 12.28 14.4 7.7C14.4 4.01 11.39 1 7.7 1Z" stroke="#86868B" stroke-width="1.5" stroke-linecap="round" stroke-linejoin="round"/>
<path d="M8.08525 10.0352C9.37793 9.82947 10.2591 8.61473 10.0533 7.32204C9.84753 6.02936 8.6328 5.14824 7.34012 5.354C6.04743 5.55976 5.16631 6.77449 5.37207 8.06717C5.57784 9.35985 6.79256 10.241 8.08525 10.0352Z" stroke="#86868B" stroke-width="1.5" stroke-linecap="round" stroke-linejoin="round"/>
</svg>
