<svg width="25" height="25" viewBox="0 0 25 25" fill="none" xmlns="http://www.w3.org/2000/svg">
<path opacity="0.995" fill-rule="evenodd" clip-rule="evenodd" d="M2.68058 3.4764C7.48328 3.46901 12.2859 3.4764 17.0886 3.49857C17.5569 3.73593 17.6825 4.09797 17.4654 4.58471C17.3651 4.71463 17.2395 4.81069 17.0886 4.87287C12.2859 4.90243 7.48323 4.90243 2.68058 4.87287C2.37083 4.74844 2.22306 4.51939 2.23726 4.18572C2.22849 3.84811 2.37626 3.61168 2.68058 3.4764Z" fill="#86868B"/>
<path opacity="0.962" fill-rule="evenodd" clip-rule="evenodd" d="M16.3792 5.95904C19.0297 5.89795 20.8695 7.08011 21.8986 9.50562C22.3313 10.8875 22.2722 12.2471 21.7213 13.5842C21.5606 13.928 21.3611 14.2458 21.1228 14.5373C21.9147 15.3144 22.6905 16.105 23.4502 16.9091C23.6675 17.5388 23.4532 17.9083 22.8074 18.0174C22.6081 18.0077 22.4308 17.9412 22.2754 17.8179C21.5433 17.0784 20.8044 16.3469 20.0588 15.6235C18.148 16.908 16.1678 17.0189 14.1183 15.956C12.0904 14.6334 11.2407 12.764 11.5692 10.3479C11.975 8.39151 13.1055 7.03937 14.9606 6.29153C15.4283 6.13171 15.9012 6.02088 16.3792 5.95904ZM16.4679 7.422C18.3518 7.37705 19.6891 8.2046 20.48 9.90461C21.0362 11.6182 20.6593 13.0886 19.3495 14.3157C17.6796 15.5274 16.0098 15.5274 14.34 14.3157C12.8252 12.8443 12.5518 11.1671 13.5198 9.28396C14.2237 8.21914 15.2064 7.59849 16.4679 7.422Z" fill="#86868B"/>
<path opacity="0.99" fill-rule="evenodd" clip-rule="evenodd" d="M2.68058 7.37753C5.07457 7.37013 7.46851 7.37753 9.86241 7.3997C10.3349 7.69464 10.431 8.08627 10.1506 8.5745C10.0584 8.64646 9.96234 8.71295 9.86241 8.774C7.46847 8.80357 5.07453 8.80357 2.68058 8.774C2.37083 8.64956 2.22306 8.42054 2.23726 8.08685C2.22849 7.74926 2.37626 7.51279 2.68058 7.37753Z" fill="#86868B"/>
<path opacity="0.99" fill-rule="evenodd" clip-rule="evenodd" d="M2.68058 11.2789C5.07457 11.2715 7.46851 11.2789 9.86241 11.3011C10.3349 11.596 10.431 11.9876 10.1506 12.4759C10.0584 12.5478 9.96234 12.6143 9.86241 12.6754C7.46847 12.7049 5.07453 12.7049 2.68058 12.6754C2.37083 12.5509 2.22306 12.3219 2.23726 11.9882C2.22849 11.6506 2.37626 11.4142 2.68058 11.2789Z" fill="#86868B"/>
<path opacity="0.99" fill-rule="evenodd" clip-rule="evenodd" d="M2.68058 15.18C5.07457 15.1726 7.46851 15.18 9.86241 15.2022C10.3349 15.4971 10.431 15.8888 10.1506 16.377C10.0584 16.4489 9.96234 16.5154 9.86241 16.5765C7.46847 16.6061 5.07453 16.6061 2.68058 16.5765C2.37083 16.452 2.22306 16.223 2.23726 15.8893C2.22849 15.5517 2.37626 15.3153 2.68058 15.18Z" fill="#86868B"/>
<path opacity="0.995" fill-rule="evenodd" clip-rule="evenodd" d="M2.68058 19.0814C7.67537 19.074 12.6702 19.0814 17.6649 19.1036C18.1369 19.3733 18.2477 19.7501 17.9974 20.234C17.9115 20.3496 17.8006 20.4308 17.6649 20.4779C12.6701 20.5074 7.67537 20.5074 2.68058 20.4779C2.37083 20.3534 2.22306 20.1244 2.23726 19.7907C2.22849 19.4531 2.37626 19.2166 2.68058 19.0814Z" fill="#86868B"/>
</svg>
