<svg width="36" height="36" viewBox="0 0 36 36" fill="none" xmlns="http://www.w3.org/2000/svg">
<circle cx="18" cy="18" r="18" fill="#F39325"/>
<path d="M24.4324 20.9109L22.1701 20.6526C21.9041 20.6214 21.6345 20.6508 21.3815 20.7388C21.1285 20.8267 20.8987 20.9708 20.7094 21.1603L19.0705 22.7992C16.5421 21.5132 14.4869 19.458 13.2009 16.9295L14.8487 15.2818C15.2317 14.8988 15.4187 14.3644 15.3564 13.821L15.0981 11.5765C15.0476 11.142 14.8391 10.7413 14.5122 10.4506C14.1854 10.1598 13.7631 9.99948 13.3256 10H11.7848C10.7783 10 9.94105 10.8372 10.0034 11.8437C10.4755 19.4502 16.5588 25.5247 24.1563 25.9967C25.1628 26.0591 26 25.2218 26 24.2154V22.6745C26.0089 21.7749 25.332 21.0178 24.4324 20.9109Z" fill="white"/>
</svg>
