<svg width="22" height="17" viewBox="0 0 22 17" fill="none" xmlns="http://www.w3.org/2000/svg">
<path d="M2.05731 7.40346C2.05731 7.40346 11.3451 3.67166 14.5662 2.35766C15.8011 1.83206 19.9886 0.150064 19.9886 0.150064C19.9886 0.150064 21.9214 -0.585736 21.7603 1.20126C21.7065 1.93716 21.2771 4.51267 20.8476 7.29837C20.2033 11.2405 19.5054 15.5505 19.5054 15.5505C19.5054 15.5505 19.398 16.7595 18.4854 16.9697C17.5727 17.18 16.0694 16.2339 15.8011 16.0236C15.5863 15.866 11.7745 13.5007 10.3787 12.3443C10.0029 12.029 9.57344 11.3983 10.4323 10.6624C12.3651 8.92776 14.6736 6.77276 16.0694 5.40626C16.7137 4.77546 17.3579 3.30376 14.6736 5.09076C10.8619 7.66636 7.10384 10.0842 7.10384 10.0842C7.10384 10.0842 6.24484 10.6098 4.63424 10.1367C3.02364 9.66366 1.14458 9.03297 1.14458 9.03297C1.14458 9.03297 -0.143821 8.24446 2.05731 7.40346Z" fill="white"/>
</svg>
