<svg width="26" height="16" viewBox="0 0 26 16" fill="none" xmlns="http://www.w3.org/2000/svg">
<path fill-rule="evenodd" clip-rule="evenodd" d="M13.0198 14.875H14.5198C14.5198 14.875 15.0198 14.875 15.2698 14.625C15.5198 14.375 15.5198 14 15.5198 14C15.5198 14 15.5198 12 16.3948 11.625C17.2698 11.375 18.5198 13.625 19.7698 14.5C20.7698 15.125 21.3948 15 21.3948 15H24.7698C24.7698 15 26.5198 14.875 25.6448 13.5C25.5198 13.375 25.1448 12.5 23.1448 10.625C21.0198 8.625 21.2698 9 23.8948 5.5C25.3948 3.375 26.0198 2.125 25.8948 1.625C25.7698 1.125 24.5198 1.25 24.5198 1.25H20.6448C20.6448 1.25 20.3948 1.25 20.1448 1.375C19.8948 1.5 19.7698 1.75 19.7698 1.75C19.7698 1.75 19.1448 3.375 18.3948 4.75C16.6448 7.625 16.0198 7.75 15.7698 7.625C15.1448 7.25 15.2698 6 15.2698 5C15.2698 2.25 15.6448 1 14.3948 0.75C14.0198 0.625 13.6448 0.625 12.6448 0.625C11.2698 0.625 10.1448 0.625 9.51985 1C9.14485 1.25 8.76985 1.625 8.89485 1.75C9.14485 1.75 9.76985 1.875 10.0198 2.375C10.3948 2.875 10.3948 4.125 10.3948 4.125C10.3948 4.125 10.6448 7.375 9.89485 7.875C9.39485 8.125 8.64485 7.625 7.14485 5C6.39485 3.625 5.76985 2.125 5.76985 2.125C5.76985 2.125 5.64485 1.875 5.39485 1.75C5.39485 1.125 5.01985 1.125 5.01985 1.125H1.39485C1.39485 1.125 0.89485 1.125 0.64485 1.375C0.51985 1.625 0.64485 2 0.64485 2C0.64485 2 3.51985 8.625 6.64485 12C9.64485 15.125 13.0198 14.875 13.0198 14.875Z" fill="white"/>
</svg>
