<svg width="58" height="58" viewBox="0 0 58 58" fill="none" xmlns="http://www.w3.org/2000/svg">
<g clip-path="url(#clip0_35_8510)">
<path opacity="0.947" fill-rule="evenodd" clip-rule="evenodd" d="M3.94351 0.244141C20.6105 0.244141 37.2773 0.244141 53.9443 0.244141C55.8128 0.842057 57.046 2.07526 57.6439 3.94375C57.6439 14.0336 57.6439 24.1234 57.6439 34.2133C57.4272 34.4483 57.1655 34.6164 56.8591 34.7178C38.6601 34.7738 20.461 34.7926 2.26187 34.7738C2.24318 41.0147 2.26187 47.2554 2.31792 53.4961C2.63556 54.5611 3.3269 55.2525 4.39194 55.5701C20.9142 55.6816 37.4316 55.6441 53.9443 55.458C54.776 55.0379 55.3179 54.384 55.5699 53.4961C55.6072 48.1522 55.6447 42.8084 55.682 37.4645C55.8544 36.7143 56.3216 36.4341 57.0834 36.6236C57.3285 36.7385 57.5154 36.9067 57.6439 37.1281C57.6439 42.7336 57.6439 48.3391 57.6439 53.9445C57.046 55.8131 55.8128 57.0463 53.9443 57.6441C37.2773 57.6441 20.6105 57.6441 3.94351 57.6441C2.07501 57.0463 0.841813 55.8131 0.243896 53.9445C0.243896 47.0311 0.243896 40.1177 0.243896 33.2043C0.413212 33.0545 0.600061 32.9237 0.804443 32.8119C19.0783 32.7559 37.3521 32.7371 55.6259 32.7559C55.6447 23.3012 55.6259 13.8467 55.5699 4.39219C55.2523 3.32715 54.5609 2.6358 53.4958 2.31816C37.1279 2.24342 20.7599 2.24342 4.39194 2.31816C3.3269 2.6358 2.63556 3.32715 2.31792 4.39219C2.28055 12.9125 2.24318 21.4328 2.20581 29.9531C2.0937 30.5137 1.75737 30.85 1.19683 30.9621C0.809589 30.8923 0.491946 30.7055 0.243896 30.4016C0.243896 21.5823 0.243896 12.7631 0.243896 3.94375C0.841813 2.07526 2.07501 0.842057 3.94351 0.244141Z" fill="black"/>
<path opacity="0.947" fill-rule="evenodd" clip-rule="evenodd" d="M44.7512 5.96111C46.9563 5.94243 49.1612 5.96111 51.3657 6.01716C51.6086 6.11058 51.7768 6.27874 51.8702 6.52165C51.945 14.4441 51.945 22.3664 51.8702 30.2888C51.4167 30.9724 50.8562 31.0845 50.1886 30.6252C50.0919 30.4473 50.0171 30.2604 49.9643 30.0646C49.9083 22.7028 49.8896 15.3411 49.9083 7.97907C48.6751 7.97907 47.4419 7.97907 46.2087 7.97907C46.2274 15.4157 46.2087 22.8524 46.1526 30.2888C45.6972 30.9645 45.1367 31.0766 44.471 30.6252C44.3962 30.4757 44.3215 30.3262 44.2468 30.1767C44.172 22.3291 44.172 14.4814 44.2468 6.63376C44.3565 6.35712 44.5247 6.1329 44.7512 5.96111Z" fill="black"/>
<path opacity="0.938" fill-rule="evenodd" clip-rule="evenodd" d="M12.2395 7.86755C12.9054 7.70715 13.3726 7.93137 13.6408 8.54021C13.6969 9.5859 13.7155 10.6322 13.6969 11.6793C14.7439 11.6607 15.7903 11.6793 16.8359 11.7353C17.4935 12.071 17.6616 12.5755 17.3404 13.2488C17.2043 13.4225 17.0362 13.5532 16.8359 13.6412C15.7903 13.6972 14.7439 13.7158 13.6969 13.6972C13.7155 14.7442 13.6969 15.7907 13.6408 16.8363C13.2526 17.5272 12.7107 17.6767 12.0152 17.2847C11.8937 17.1541 11.8003 17.0047 11.735 16.8363C11.6789 15.7907 11.6603 14.7442 11.6789 13.6972C10.6319 13.7158 9.58555 13.6972 8.53986 13.6412C7.91294 13.3719 7.70741 12.9047 7.92325 12.2398C8.05405 12.0343 8.22222 11.8662 8.42775 11.7353C9.51082 11.6793 10.5946 11.6607 11.6789 11.6793C11.6603 10.5949 11.6789 9.51117 11.735 8.4281C11.8881 8.21938 12.0563 8.03254 12.2395 7.86755Z" fill="black"/>
<path opacity="0.946" fill-rule="evenodd" clip-rule="evenodd" d="M35.3342 13.5851C37.4646 13.5664 39.5947 13.5851 41.7245 13.6412C42.0047 13.772 42.2102 13.9775 42.3411 14.2578C42.4158 19.5643 42.4158 24.8709 42.3411 30.1773C42.0585 30.8192 41.5915 31.0247 40.9397 30.7939C40.6967 30.7006 40.5286 30.5324 40.4352 30.2894C40.3791 25.3942 40.3604 20.4987 40.3791 15.6031C39.1459 15.6031 37.9127 15.6031 36.6795 15.6031C36.6983 20.4239 36.6795 25.2446 36.6235 30.0652C36.5202 30.622 36.1839 30.921 35.6145 30.9621C35.2971 30.9108 35.0356 30.7612 34.8297 30.5137C34.644 25.0671 34.6066 19.611 34.7176 14.1457C34.8752 13.8941 35.0807 13.7073 35.3342 13.5851Z" fill="black"/>
<path opacity="0.941" fill-rule="evenodd" clip-rule="evenodd" d="M25.9167 21.2092C27.935 21.1904 29.953 21.2092 31.9706 21.2652C32.4751 21.3213 32.7554 21.6016 32.8114 22.106C32.8862 24.7219 32.8862 27.3379 32.8114 29.9537C32.6076 30.8014 32.1031 31.0816 31.2979 30.7945C31.1671 30.6637 31.0364 30.533 30.9056 30.4021C30.8495 28.0107 30.8308 25.6191 30.8495 23.2271C29.579 23.2271 28.3083 23.2271 27.0378 23.2271C27.0565 25.6191 27.0378 28.0107 26.9817 30.4021C26.3839 31.1496 25.7859 31.1496 25.188 30.4021C25.0055 27.6423 24.9681 24.8769 25.0759 22.106C25.1521 21.6003 25.4324 21.3014 25.9167 21.2092Z" fill="black"/>
<path opacity="0.946" fill-rule="evenodd" clip-rule="evenodd" d="M6.52204 36.5675C7.24975 36.382 7.71686 36.6435 7.9234 37.3523C7.97946 41.5375 7.99815 45.7229 7.97946 49.9085C9.21266 49.9085 10.4459 49.9085 11.6791 49.9085C11.6603 45.6483 11.6791 41.3881 11.7351 37.1281C12.0649 36.6064 12.5321 36.4383 13.1365 36.6236C13.386 36.7611 13.5542 36.9667 13.641 37.2402C13.7158 41.9114 13.7158 46.5826 13.641 51.2538C13.5542 51.5273 13.386 51.7329 13.1365 51.8704C10.9317 51.9452 8.72686 51.9452 6.52204 51.8704C6.27913 51.7771 6.11097 51.6089 6.01754 51.366C5.9428 46.62 5.9428 41.874 6.01754 37.1281C6.13246 36.8829 6.30062 36.696 6.52204 36.5675Z" fill="black"/>
<path opacity="0.941" fill-rule="evenodd" clip-rule="evenodd" d="M16.0513 36.5682C16.6568 36.4384 17.1239 36.6253 17.4527 37.1288C17.5087 38.8474 17.5275 40.5664 17.5087 42.2858C18.7419 42.2858 19.9751 42.2858 21.2083 42.2858C21.1896 40.6412 21.2083 38.9969 21.2644 37.353C21.4714 36.6248 21.9384 36.3819 22.6658 36.6243C22.9087 36.7177 23.0769 36.8858 23.1703 37.1288C23.245 39.3336 23.245 41.5384 23.1703 43.7432C23.0327 43.9928 22.8271 44.161 22.5537 44.2477C20.4236 44.3225 18.2935 44.3225 16.1634 44.2477C15.9632 44.1597 15.795 44.029 15.6589 43.8553C15.4748 41.6606 15.4375 39.4557 15.5468 37.2409C15.6566 36.9642 15.8247 36.74 16.0513 36.5682Z" fill="black"/>
<path opacity="0.934" fill-rule="evenodd" clip-rule="evenodd" d="M41.0515 44.1916C43.8171 44.1729 46.5825 44.1916 49.3476 44.2476C49.9745 44.5169 50.18 44.9841 49.9642 45.649C49.8334 45.8545 49.6652 46.0227 49.4597 46.1535C46.657 46.2283 43.8542 46.2283 41.0515 46.1535C40.1593 45.5054 40.1593 44.8515 41.0515 44.1916Z" fill="black"/>
</g>
<defs>
<clipPath id="clip0_35_8510">
<rect width="57.4" height="57.4" fill="white" transform="translate(0.299988 0.299805)"/>
</clipPath>
</defs>
</svg>
