<svg width="41" height="41" viewBox="0 0 41 41" fill="none" xmlns="http://www.w3.org/2000/svg">
<path d="M15.5524 18.8182C18.3487 18.8182 20.6156 16.5514 20.6156 13.7551C20.6156 10.9588 18.3487 8.69189 15.5524 8.69189C12.7561 8.69189 10.4893 10.9588 10.4893 13.7551C10.4893 16.5514 12.7561 18.8182 15.5524 18.8182Z" stroke="#AEBF3A" stroke-width="1.5" stroke-linecap="round" stroke-linejoin="round"/>
<path d="M5.3418 32.8341V29.9505C5.3418 26.5974 8.0578 23.8813 11.4109 23.8813H20.4978C23.8509 23.8813 26.5669 26.5974 26.5669 29.9505V32.8341" stroke="#AEBF3A" stroke-width="1.5" stroke-linecap="round" stroke-linejoin="round"/>
<path d="M28.193 20.2601C30.2671 20.2601 31.9484 18.5787 31.9484 16.5046C31.9484 14.4305 30.2671 12.7491 28.193 12.7491C26.1189 12.7491 24.4375 14.4305 24.4375 16.5046C24.4375 18.5787 26.1189 20.2601 28.193 20.2601Z" stroke="#AEBF3A" stroke-width="1.5" stroke-linecap="round" stroke-linejoin="round"/>
<path d="M29.2656 24.0155H31.8475C34.3288 24.0155 36.3407 26.0274 36.3407 28.5087V30.6546" stroke="#AEBF3A" stroke-width="1.5" stroke-linecap="round" stroke-linejoin="round"/>
</svg>
