<svg width="40" height="41" viewBox="0 0 40 41" fill="none" xmlns="http://www.w3.org/2000/svg">
<path d="M24.6339 36.1309H15.3672V26.2143C15.3672 25.2976 16.1172 24.5476 17.0339 24.5476H22.9672C23.8839 24.5476 24.6339 25.2976 24.6339 26.2143V36.1309V36.1309Z" stroke="#AEBF3A" stroke-width="1.5" stroke-linecap="round" stroke-linejoin="round"/>
<path d="M35.4173 19.6976V30.881C35.4173 33.781 33.184 36.131 30.4173 36.131H9.58398C6.81732 36.131 4.58398 33.781 4.58398 30.881V19.6976C4.58398 18.131 5.23398 16.6643 6.38398 15.6643L16.8007 6.51431C18.6507 4.88097 21.3507 4.88097 23.2007 6.51431L33.6173 15.6643C34.7673 16.6643 35.4173 18.131 35.4173 19.6976Z" stroke="#AEBF3A" stroke-width="1.5" stroke-linecap="round" stroke-linejoin="round"/>
</svg>
