<svg width="41" height="41" viewBox="0 0 41 41" fill="none" xmlns="http://www.w3.org/2000/svg">
<path d="M36.3244 22.8541C36.3266 23.3989 36.2215 23.9389 36.015 24.4431C35.8085 24.9473 35.5048 25.4059 35.1211 25.7927C34.7373 26.1795 34.2812 26.4869 33.7787 26.6975C33.2762 26.908 32.7371 27.0175 32.1922 27.0197V31.5701C32.2034 32.1227 32.1044 32.672 31.901 33.186C31.6977 33.7 31.3941 34.1684 31.008 34.5639C30.6219 34.9593 30.1609 35.274 29.6519 35.4896C29.1429 35.7051 28.5961 35.8172 28.0434 35.8193H22.9075C22.9075 34.7234 22.4721 33.6724 21.6972 32.8975C20.9223 32.1225 19.8712 31.6872 18.7753 31.6872C17.6794 31.6872 16.6284 32.1225 15.8535 32.8975C15.0785 33.6724 14.6432 34.7234 14.6432 35.8193H9.52401C8.97556 35.8171 8.43293 35.7067 7.92728 35.4943C7.42163 35.2818 6.9629 34.9717 6.57742 34.5815C6.19194 34.1914 5.88731 33.729 5.68099 33.2208C5.47467 32.7126 5.37073 32.1687 5.37513 31.6202V27.0699C6.48436 27.0699 7.54815 26.6293 8.33249 25.8449C9.11683 25.0606 9.55747 23.9968 9.55747 22.8875C9.55747 21.7783 9.11683 20.7145 8.33249 19.9302C7.54815 19.1458 6.48436 18.7052 5.37513 18.7052V14.0712C5.37293 13.5242 5.4785 12.982 5.68581 12.4758C5.89312 11.9696 6.19812 11.5091 6.58338 11.1207C6.96863 10.7324 7.42662 10.4237 7.93117 10.2123C8.43573 10.001 8.97697 9.89105 9.52401 9.88886H14.6432C14.6432 8.79295 15.0785 7.74192 15.8535 6.967C16.6284 6.19207 17.6794 5.75671 18.7753 5.75671C19.8712 5.75671 20.9223 6.19207 21.6972 6.967C22.4721 7.74192 22.9075 8.79295 22.9075 9.88886H28.0434C28.5904 9.89105 29.1317 10.001 29.6362 10.2123C30.1408 10.4237 30.5987 10.7324 30.984 11.1207C31.3693 11.5091 31.6743 11.9696 31.8816 12.4758C32.0889 12.982 32.1944 13.5242 32.1922 14.0712V18.6216C32.7428 18.6237 33.2874 18.7354 33.7944 18.9501C34.3013 19.1648 34.7605 19.4782 35.145 19.8721C35.5296 20.2661 35.832 20.7326 36.0345 21.2446C36.2369 21.7565 36.3355 22.3037 36.3244 22.8541V22.8541Z" stroke="#AEBF3A" stroke-width="1.5" stroke-linecap="round" stroke-linejoin="round"/>
</svg>
