<svg width="24" height="24" viewBox="0 0 24 24" fill="none" xmlns="http://www.w3.org/2000/svg">
<path d="M10.4528 7.75151C10.2798 7.75151 10.1068 7.68782 9.97029 7.55128L7.06657 4.64756L4.16285 7.55128C3.89888 7.81526 3.46196 7.81526 3.19798 7.55128C2.93401 7.28731 2.93401 6.85039 3.19798 6.58641L6.58416 3.20023C6.7116 3.07279 6.88452 3 7.06657 3C7.24862 3 7.4216 3.07279 7.54903 3.20023L10.9352 6.58641C11.1991 6.85039 11.1991 7.28731 10.9352 7.55128C10.7986 7.68782 10.6257 7.75151 10.4528 7.75151Z" fill="#393D46"/>
<path d="M7.0655 20.75C6.6923 20.75 6.38281 20.4405 6.38281 20.0673V3.68269C6.38281 3.30949 6.6923 3 7.0655 3C7.43871 3 7.7482 3.30949 7.7482 3.68269V20.0673C7.7482 20.4405 7.43871 20.75 7.0655 20.75Z" fill="#393D46"/>
<path d="M16.6701 20.7493C16.488 20.7493 16.3151 20.6765 16.1876 20.549L12.8015 17.1629C12.5375 16.8989 12.5375 16.462 12.8015 16.198C13.0655 15.934 13.5024 15.934 13.7664 16.198L16.6701 19.1017L19.5738 16.198C19.8377 15.934 20.2747 15.934 20.5387 16.198C20.8027 16.462 20.8027 16.8989 20.5387 17.1629L17.1525 20.549C17.0251 20.6765 16.843 20.7493 16.6701 20.7493Z" fill="#393D46"/>
<path d="M16.6612 20.75C16.288 20.75 15.9785 20.4405 15.9785 20.0673V3.68269C15.9785 3.30949 16.288 3 16.6612 3C17.0344 3 17.3439 3.30949 17.3439 3.68269V20.0673C17.3439 20.4405 17.0435 20.75 16.6612 20.75Z" fill="#393D46"/>
</svg>
