<svg width="342" height="213" viewBox="0 0 342 213" fill="none" xmlns="http://www.w3.org/2000/svg">
<g clip-path="url(#clip0_709_3603)">
<path d="M13.5 0C-7.73961 0 -25 17.201 -25 38.3675C-25 63.551 6.93694 99.189 8.28056 100.683C9.62419 102.176 11.5362 103 13.5 103C15.4638 103 17.3758 102.176 18.7194 100.683C22.1302 96.923 52 62.9845 52 38.3675C52 17.201 34.7396 0 13.5 0ZM-2.62347 38.3675C-2.62347 29.5095 4.61141 22.2995 13.5 22.2995C22.3886 22.2995 29.6235 29.5095 29.6235 38.3675C29.6235 47.2255 22.3886 54.4355 13.5 54.4355C4.61141 54.4355 -2.62347 47.2255 -2.62347 38.3675Z" fill="#AAD4FE"/>
<path d="M325.91 52C292.859 52 266 78.8591 266 111.91C266 151.234 315.698 206.883 317.788 209.215C319.879 211.547 322.855 212.833 325.91 212.833C328.966 212.833 331.942 211.547 334.032 209.215C339.34 203.344 385.821 150.35 385.821 111.91C385.821 78.8591 358.962 52 325.91 52ZM300.82 111.91C300.82 98.0787 312.079 86.8204 325.91 86.8204C339.742 86.8204 351 98.0787 351 111.91C351 125.742 339.742 137 325.91 137C312.079 137 300.82 125.742 300.82 111.91Z" fill="#AAD4FE"/>
</g>
<defs>
<clipPath id="clip0_709_3603">
<rect width="342" height="213" fill="white"/>
</clipPath>
</defs>
</svg>
