<svg width="210" height="196" viewBox="0 0 210 196" fill="none" xmlns="http://www.w3.org/2000/svg">
<g clip-path="url(#clip0_703_3598)">
<path d="M149.91 35C116.859 35 90 61.8591 90 94.9104C90 134.234 139.698 189.883 141.788 192.215C143.879 194.547 146.855 195.833 149.91 195.833C152.966 195.833 155.942 194.547 158.032 192.215C163.34 186.344 209.821 133.35 209.821 94.9104C209.821 61.8591 182.962 35 149.91 35ZM124.82 94.9104C124.82 81.0787 136.079 69.8204 149.91 69.8204C163.742 69.8204 175 81.0787 175 94.9104C175 108.742 163.742 120 149.91 120C136.079 120 124.82 108.742 124.82 94.9104Z" fill="#AAD4FE"/>
<path d="M38.5 0C17.2604 0 0 17.201 0 38.3675C0 63.551 31.9369 99.189 33.2806 100.683C34.6242 102.176 36.5362 103 38.5 103C40.4638 103 42.3758 102.176 43.7194 100.683C47.1302 96.923 77 62.9845 77 38.3675C77 17.201 59.7396 0 38.5 0ZM22.3765 38.3675C22.3765 29.5095 29.6114 22.2995 38.5 22.2995C47.3886 22.2995 54.6235 29.5095 54.6235 38.3675C54.6235 47.2255 47.3886 54.4355 38.5 54.4355C29.6114 54.4355 22.3765 47.2255 22.3765 38.3675Z" fill="#AAD4FE"/>
</g>
<defs>
<clipPath id="clip0_703_3598">
<rect width="210" height="196" fill="white"/>
</clipPath>
</defs>
</svg>
