<svg width="64" height="33" viewBox="0 0 64 33" fill="none" xmlns="http://www.w3.org/2000/svg">
<path fill-rule="evenodd" clip-rule="evenodd" d="M33.2231 27.8216C32.0017 27.7627 30.6059 27.5274 29.5009 27.1745C29.2683 27.1157 28.4541 26.8216 28.2214 26.7039C24.383 24.8804 21.7077 20.9392 21.7077 16.4098C21.7077 10.1157 26.7675 5.05684 32.9323 5.05684C39.0971 5.05684 44.0987 10.0568 44.1568 16.2921H48.2279C48.1698 7.82155 41.3071 0.998018 32.9323 0.998018C24.4412 1.05684 17.6366 7.99802 17.6366 16.4686C17.6366 22.351 20.8935 27.4686 25.7206 30.1157C26.593 30.5863 27.8143 31.0568 28.2214 31.1745C29.5591 31.5863 31.2457 31.8804 32.7578 31.998C33.2812 32.0568 35.026 32.0568 35.5494 32.0568H63.4654V27.9392H35.5494C35.2004 27.8216 33.572 27.8216 33.2231 27.8216ZM35.5494 21.351C35.2586 21.351 33.6883 21.351 33.3975 21.2921C32.9323 21.2333 32.2344 21.1745 31.7691 21.0568C31.2457 20.9392 30.7804 20.7627 30.5478 20.6451C29.0357 19.8215 27.9888 18.2333 27.9888 16.351C27.9888 13.6451 30.1407 11.4686 32.816 11.4686C35.4331 11.4686 37.5849 13.5863 37.6431 16.2333H41.5397C41.4815 11.4098 37.5849 7.52743 32.816 7.52743C27.9888 7.52743 24.0922 11.4686 24.0922 16.351C24.0922 19.8216 26.0696 22.7627 28.8612 24.2333C29.3265 24.4686 30.1407 24.7627 30.3733 24.8216C31.1875 25.0568 32.2344 25.1745 33.1067 25.2333C33.4557 25.2333 35.026 25.2921 35.3749 25.2921H63.4072V21.351H35.5494ZM15.0777 31.9392H11.0066V4.99802H5.01628V0.880371H15.0777V31.9392ZM0.538086 7.05684V11.0568H5.01628V31.9392H8.97104V7.05684H0.538086Z" fill="white"/>
<path d="M56.2544 1.17529C54.8004 1.17529 53.5791 2.35176 53.5791 3.88118C53.5791 5.35176 54.8004 6.58706 56.2544 6.58706C57.7665 6.58706 58.9297 5.35176 58.9297 3.88118C58.9297 2.35176 57.7665 1.17529 56.2544 1.17529ZM56.2544 6.11647C55.0331 6.11647 53.9862 5.17529 53.9862 3.82235C53.9862 2.58706 55.0331 1.58706 56.2544 1.58706C57.4757 1.58706 58.5226 2.58706 58.5226 3.82235C58.5226 5.17529 57.4757 6.11647 56.2544 6.11647Z" fill="white"/>
<path d="M57.2977 4.58373C57.2977 4.28961 57.2395 3.99549 56.8906 3.87784C57.2977 3.70137 57.3559 3.46608 57.3559 3.28961C57.3559 2.58373 56.7161 2.5249 56.4835 2.5249H55.3203V5.23078H55.7856V4.05431H56.1927C56.7743 4.05431 56.7743 4.28961 56.7743 4.5249C56.7743 4.99549 56.7743 5.05431 56.8906 5.11314H57.3559C57.2977 5.05431 57.3559 4.99549 57.2977 4.58373ZM56.3672 3.70137H55.7856V2.81902H56.2508C56.5998 2.81902 56.8324 2.93667 56.8324 3.23078C56.8906 3.46608 56.7743 3.70137 56.3672 3.70137Z" fill="white"/>
</svg>
