<svg width="71" height="70" viewBox="0 0 71 70" fill="none" xmlns="http://www.w3.org/2000/svg">
<path d="M1.93639 25.9961V6.35385H9.45569C10.8752 6.35385 12.0548 6.57763 12.9947 7.02521C13.9411 7.46639 14.6476 8.07062 15.1143 8.8379C15.5875 9.60517 15.8241 10.4748 15.8241 11.4466C15.8241 12.2459 15.6706 12.93 15.3637 13.4991C15.0568 14.0618 14.6444 14.5189 14.1265 14.8706C13.6086 15.2223 13.0299 15.4748 12.3905 15.6283V15.8201C13.0875 15.8585 13.7556 16.0727 14.395 16.4627C15.0408 16.8463 15.5683 17.3898 15.9775 18.0932C16.3867 18.7965 16.5914 19.6469 16.5914 20.6443C16.5914 21.661 16.3452 22.5753 15.8529 23.3874C15.3605 24.193 14.6188 24.8292 13.6278 25.296C12.6367 25.7627 11.3899 25.9961 9.88728 25.9961H1.93639ZM5.49463 23.0229H9.32142C10.613 23.0229 11.5433 22.7767 12.1124 22.2844C12.6878 21.7857 12.9756 21.1463 12.9756 20.3662C12.9756 19.7844 12.8317 19.2601 12.544 18.7933C12.2562 18.3201 11.847 17.9493 11.3163 17.6807C10.7856 17.4058 10.1526 17.2683 9.41733 17.2683H5.49463V23.0229ZM5.49463 14.7076H9.01451C9.62833 14.7076 10.1814 14.5957 10.6737 14.3719C11.1661 14.1417 11.5529 13.8188 11.8342 13.4032C12.122 12.9812 12.2658 12.4825 12.2658 11.907C12.2658 11.1461 11.9973 10.5195 11.4602 10.0272C10.9295 9.53484 10.1398 9.28867 9.09124 9.28867H5.49463V14.7076ZM19.5334 25.9961V11.2644H23.0053V25.9961H19.5334ZM21.2789 9.17358C20.729 9.17358 20.2559 8.99135 19.8595 8.6269C19.463 8.25605 19.2648 7.81167 19.2648 7.29376C19.2648 6.76945 19.463 6.32507 19.8595 5.96062C20.2559 5.58977 20.729 5.40434 21.2789 5.40434C21.8352 5.40434 22.3084 5.58977 22.6984 5.96062C23.0948 6.32507 23.293 6.76945 23.293 7.29376C23.293 7.81167 23.0948 8.25605 22.6984 8.6269C22.3084 8.99135 21.8352 9.17358 21.2789 9.17358ZM33.9318 11.2644V13.9499H25.463V11.2644H33.9318ZM27.5538 7.73494H31.0257V21.5651C31.0257 22.0318 31.0961 22.3899 31.2367 22.6393C31.3838 22.8822 31.5756 23.0485 31.8122 23.138C32.0488 23.2275 32.3109 23.2723 32.5986 23.2723C32.816 23.2723 33.0142 23.2563 33.1933 23.2243C33.3787 23.1923 33.5194 23.1636 33.6153 23.138L34.2003 25.8522C34.0149 25.9162 33.7495 25.9865 33.4043 26.0632C33.0654 26.14 32.6498 26.1847 32.1575 26.1975C31.2879 26.2231 30.5046 26.092 29.8077 25.8043C29.1107 25.5102 28.5576 25.0562 28.1484 24.4424C27.7456 23.8285 27.5474 23.0613 27.5538 22.1405V7.73494ZM36.8354 25.9961V11.2644H40.2019V13.7197H40.3553C40.6239 12.8693 41.0842 12.2139 41.7364 11.7535C42.395 11.2868 43.1463 11.0534 43.9903 11.0534C44.1821 11.0534 44.3963 11.063 44.6329 11.0822C44.8758 11.095 45.0772 11.1173 45.2371 11.1493V14.3431C45.09 14.2919 44.8567 14.2472 44.537 14.2088C44.2237 14.1641 43.9199 14.1417 43.6258 14.1417C42.9928 14.1417 42.4238 14.2792 41.9186 14.5541C41.4199 14.8226 41.0267 15.1967 40.7389 15.6762C40.4512 16.1558 40.3074 16.7089 40.3074 17.3355V25.9961H36.8354ZM47.5437 25.9961V11.2644H51.0156V25.9961H47.5437ZM49.2893 9.17358C48.7394 9.17358 48.2662 8.99135 47.8698 8.6269C47.4734 8.25605 47.2752 7.81167 47.2752 7.29376C47.2752 6.76945 47.4734 6.32507 47.8698 5.96062C48.2662 5.58977 48.7394 5.40434 49.2893 5.40434C49.8455 5.40434 50.3187 5.58977 50.7087 5.96062C51.1052 6.32507 51.3034 6.76945 51.3034 7.29376C51.3034 7.81167 51.1052 8.25605 50.7087 8.6269C50.3187 8.99135 49.8455 9.17358 49.2893 9.17358ZM57.4248 11.2644L60.398 16.7025L63.4191 11.2644H67.0925L62.6518 18.6303L67.1692 25.9961H63.515L60.398 20.6923L57.3097 25.9961H53.6268L58.1153 18.6303L53.7419 11.2644H57.4248Z" fill="#36C7F3"/>
<path d="M2.31453 61.5786V58.169L11.3603 49.3013C12.2254 48.4277 12.9464 47.6516 13.5231 46.9731C14.0999 46.2946 14.5324 45.6372 14.8208 45.0011C15.1092 44.365 15.2534 43.6864 15.2534 42.9655C15.2534 42.1428 15.0668 41.4388 14.6936 40.8536C14.3204 40.2598 13.8072 39.8018 13.1542 39.4795C12.5011 39.1572 11.7589 38.9961 10.9277 38.9961C10.0711 38.9961 9.32042 39.1742 8.67581 39.5304C8.0312 39.8782 7.53078 40.3743 7.17455 41.019C6.8268 41.6636 6.65292 42.4312 6.65292 43.3217H2.16186C2.16186 41.6678 2.5393 40.2301 3.29417 39.0088C4.04904 37.7874 5.08805 36.8417 6.4112 36.1717C7.74282 35.5016 9.26953 35.1666 10.9913 35.1666C12.7386 35.1666 14.2737 35.4931 15.5969 36.1462C16.92 36.7993 17.9463 37.6941 18.6757 38.8307C19.4137 39.9672 19.7826 41.2649 19.7826 42.7238C19.7826 43.6992 19.596 44.6576 19.2228 45.5991C18.8496 46.5405 18.1923 47.5838 17.2508 48.7288C16.3178 49.8739 15.0074 51.2606 13.3195 52.8891L8.82848 57.4565V57.6346H20.177V61.5786H2.31453ZM23.5358 56.744V52.9909L34.5917 35.5228H37.7214V40.8663H35.813L28.3703 52.6601V52.8637H43.8028V56.744H23.5358ZM35.9657 61.5786V55.599L36.0166 53.9196V35.5228H40.4695V61.5786H35.9657Z" fill="white"/>
<path d="M58.2781 55.7818C63.6455 55.7818 67.9967 51.4307 67.9967 46.0633C67.9967 40.6959 63.6455 36.3447 58.2781 36.3447C52.9107 36.3447 48.5596 40.6959 48.5596 46.0633C48.5596 51.4307 52.9107 55.7818 58.2781 55.7818Z" stroke="white" stroke-width="1.57598" stroke-linecap="round" stroke-linejoin="round"/>
<path d="M57.9255 46.6806L58.0137 41.3906" stroke="white" stroke-width="1.57598" stroke-linecap="round" stroke-linejoin="round"/>
<path d="M57.9257 46.681L63.2157 46.6809" stroke="white" stroke-width="1.57598" stroke-linecap="round" stroke-linejoin="round"/>
</svg>
