<svg width="75" height="31" viewBox="0 0 75 31" fill="none" xmlns="http://www.w3.org/2000/svg">
<path d="M32.4103 19.359C33.319 18.0257 34.2883 16.6318 35.197 15.2984C35.8028 14.45 36.3481 13.6015 36.9539 12.753C37.1356 12.5106 37.3174 12.45 37.6203 12.45C40.4676 12.45 43.3755 12.45 46.2229 12.45C46.344 12.45 46.5864 12.3894 46.6469 12.5106C46.7075 12.6924 46.5258 12.8136 46.4652 12.9348C44.7083 15.2378 42.9515 17.4803 41.1946 19.7833C40.8917 20.1469 40.8917 20.3894 41.134 20.753C43.012 23.7227 44.8901 26.6924 46.7681 29.7227C47.0104 30.0863 46.8893 30.1469 46.5258 30.1469C43.5573 30.1469 40.5888 30.1469 37.5597 30.1469C37.1962 30.1469 37.0145 30.0257 36.8327 29.7227C35.3788 27.1166 33.9248 24.5106 32.4709 21.8439C32.4103 21.7833 32.4103 21.7227 32.2891 21.6015C32.1679 21.7833 32.2285 21.9651 32.2285 22.1469C32.2285 24.6318 32.2285 27.1166 32.2285 29.6015C32.2285 29.9651 32.1074 30.0863 31.7439 30.0863C29.1994 30.0863 26.7156 30.0863 24.1712 30.0863C23.8077 30.0863 23.6865 30.0257 23.6865 29.6015C23.6865 21.4197 23.6865 13.2984 23.6865 5.11663C23.6865 4.75299 23.8077 4.69238 24.1106 4.69238C26.655 4.69238 29.1994 4.69238 31.7439 4.69238C32.1679 4.69238 32.2285 4.8136 32.2285 5.23784C32.2285 9.72269 32.2285 14.2681 32.2285 18.753C32.2285 18.9348 32.2285 19.1166 32.2285 19.2984C32.2891 19.2984 32.3497 19.359 32.4103 19.359Z" fill="white"/>
<path d="M56.9447 12.0268C56.6418 11.6025 56.2784 11.3601 55.9754 11.0571C55.6725 10.8147 55.7331 10.6329 55.9754 10.3904C56.2784 10.148 56.5813 9.84497 56.8236 9.54194C57.6111 8.51164 57.5506 7.72376 56.6418 6.75406C56.2783 6.39043 55.9149 6.0874 55.5514 5.72376C53.6128 3.78437 54.5215 1.96619 56.1572 0.754064C56.2783 0.632852 56.3995 0.693458 56.5207 0.754064C56.6418 0.875276 56.8236 0.996488 56.9447 1.17831C57.1871 1.42073 57.4294 1.54194 57.6717 1.23891L57.7323 1.17831C58.3381 0.632852 58.3987 0.572246 59.0045 1.17831C59.3074 1.54194 59.4892 1.48134 59.8527 1.17831C60.4585 0.572246 60.4585 0.572246 61.0643 1.1177C61.3672 1.42073 61.8519 1.66315 61.9124 2.02679C61.973 2.39043 61.4278 2.57225 61.1249 2.87528C60.095 3.96619 60.095 5.17831 61.1855 6.26922C61.5489 6.63285 61.973 6.99649 62.3365 7.42073C63.4876 8.63285 63.5481 9.96619 62.3971 11.2389C62.3365 11.2995 62.2759 11.3601 62.2153 11.4207C61.9124 11.6632 61.6701 12.148 61.3672 12.2086C61.0643 12.2692 60.822 11.7844 60.5796 11.5419C60.3979 11.3601 60.2767 11.3601 60.095 11.5419C59.9738 11.7238 59.7921 11.845 59.5498 12.0874C60.095 12.148 60.5796 12.2086 61.0643 12.2692C63.0635 12.5116 64.8809 13.1177 66.5166 14.3904C68.5764 16.0268 69.5457 18.2086 69.6669 20.8147C69.7275 22.6329 69.4851 24.3298 68.5764 25.9056C67.4254 27.9662 65.5473 29.2995 63.3058 29.9056C59.7315 30.8147 56.1572 30.8147 52.704 29.2995C49.7355 27.9662 48.0998 25.6632 47.7364 22.451C47.494 20.2692 47.7969 18.148 49.0086 16.2692C50.3414 14.148 52.3406 13.0571 54.7032 12.451C55.4302 12.2692 56.1572 12.148 56.9447 12.0268ZM56.8236 21.2389C56.8236 22.148 56.8236 23.1177 57.0659 24.0268C57.2477 24.6329 57.5506 25.1783 58.217 25.3601C59.2468 25.6025 59.9738 25.0571 60.2767 23.9056C60.5796 22.6329 60.5191 21.2995 60.4585 19.9662C60.4585 19.3601 60.3373 18.7541 60.095 18.148C59.6709 17.2389 58.8228 16.8753 57.9746 17.2389C57.4294 17.4813 57.1871 17.9662 57.0053 18.5116C56.8236 19.3601 56.8236 20.2692 56.8236 21.2389ZM56.5207 3.60255C56.2784 3.78437 56.2178 4.02679 56.2178 4.20861C56.036 5.17831 56.5813 5.84497 57.1871 6.39043C57.9746 7.1177 58.8834 7.84497 59.0651 9.1177C59.4892 8.57225 59.4892 8.02679 59.1863 7.48134C59.0045 7.1177 58.7622 6.75406 58.3987 6.51164C57.5506 5.78437 56.6418 4.99649 56.5207 3.60255ZM61.1855 9.1177C61.6095 8.51164 61.6095 7.96619 61.3066 7.42073C61.0643 6.99649 60.7614 6.69346 60.3979 6.39043C59.4892 5.66316 58.7016 4.87528 58.5804 3.54194C58.217 4.0874 58.1564 4.51164 58.2775 4.99649C58.4593 5.66315 58.8834 6.148 59.368 6.57225C60.1556 7.23891 60.9431 7.96619 61.1855 9.1177ZM57.5506 11.9662C58.0352 11.9662 58.4593 11.9662 58.9439 11.9662C58.217 11.1177 58.0958 11.1177 57.5506 11.9662Z" fill="white"/>
<path d="M8.542 21.2382C8.542 23.9655 8.542 26.7533 8.542 29.4806C8.542 29.9049 8.48142 30.0867 7.99677 30.0261C5.51292 30.0261 2.9685 30.0261 0.484653 30.0261C0.0605816 30.0261 0 29.9049 0 29.5412C0 23.9655 0 18.3897 0 12.8139C0 12.3897 0.121163 12.3291 0.545234 12.3291C3.02908 12.3291 5.57351 12.3291 8.05735 12.3291C8.48142 12.3291 8.60258 12.4503 8.60258 12.8746C8.542 15.6624 8.542 18.4503 8.542 21.2382Z" fill="white"/>
<path d="M11.875 21.1776C11.875 18.3897 11.875 15.6624 11.875 12.8746C11.875 12.4503 11.9962 12.3291 12.4202 12.3291C14.9041 12.3291 17.4485 12.3291 19.9324 12.3291C20.2958 12.3291 20.417 12.4503 20.417 12.8139C20.417 18.3897 20.417 23.9655 20.417 29.5412C20.417 29.9655 20.2958 30.0261 19.9324 30.0261C17.4485 30.0261 14.9041 30.0261 12.4202 30.0261C11.9962 30.0261 11.875 29.9049 11.875 29.4806C11.875 26.7533 11.875 23.9655 11.875 21.1776Z" fill="white"/>
<path d="M4.30129 4.69293C5.57351 4.69293 6.84572 4.69293 8.11793 4.69293C8.48142 4.69293 8.542 4.81414 8.542 5.11717C8.542 6.81414 8.542 8.45051 8.542 10.1475C8.542 10.4505 8.48142 10.6323 8.11793 10.6323C5.57351 10.6323 3.02908 10.6323 0.484653 10.6323C0.121163 10.6323 0 10.5111 0 10.1475C0 8.45051 0 6.81414 0 5.11717C0 4.75354 0.121163 4.63232 0.484653 4.63232C1.75687 4.69293 3.02908 4.69293 4.30129 4.69293Z" fill="white"/>
<path d="M16.1157 4.69238C17.3879 4.69238 18.6601 4.69238 19.9324 4.69238C20.2958 4.69238 20.417 4.75299 20.417 5.17723C20.417 6.8742 20.417 8.51057 20.417 10.2075C20.417 10.5712 20.2958 10.6318 19.9929 10.6318C17.4485 10.6318 14.9041 10.6318 12.2991 10.6318C11.9356 10.6318 11.875 10.5106 11.875 10.1469C11.875 8.44996 11.875 6.8136 11.875 5.11663C11.875 4.75299 11.9962 4.69238 12.2991 4.69238C13.5713 4.69238 14.8435 4.69238 16.1157 4.69238Z" fill="white"/>
<path d="M72.9971 11.058C73.3 10.0883 73.6029 9.23983 73.9058 8.39135C74.0269 7.96711 74.451 7.78529 74.8145 7.9065C74.9963 7.96711 74.9963 8.08832 74.9963 8.20953C74.9963 9.42165 74.9963 10.6338 74.9963 11.8459C74.9963 12.0883 74.8751 12.1489 74.6328 12.1489C74.3299 12.1489 74.3299 12.0277 74.3299 11.7853C74.3299 11.058 74.3299 10.3307 74.3299 9.48226C73.9664 9.9065 73.9058 10.2701 73.7846 10.6338C73.6635 10.9974 73.5423 11.4217 73.4211 11.7853C73.3605 12.0277 73.2394 12.1489 72.9971 12.1489C72.7547 12.1489 72.6942 11.9671 72.6336 11.7853C72.3912 11.058 72.1489 10.3307 71.846 9.54286C71.6643 9.72468 71.7248 9.8459 71.7248 10.0277C71.7248 10.6338 71.7248 11.1792 71.7248 11.7853C71.7248 12.0883 71.6037 12.1489 71.3614 12.1489C71.0584 12.1489 71.0584 12.0277 71.0584 11.7853C71.0584 10.6338 71.0584 9.48226 71.0584 8.33074C71.0584 8.14893 70.9373 7.8459 71.3008 7.8459C71.6037 7.8459 71.9672 7.66408 72.0883 8.14893C72.3307 8.9368 72.573 9.66408 72.8153 10.3913C72.8153 10.6338 72.8759 10.8156 72.9971 11.058Z" fill="white"/>
<path d="M68.4537 10.3911C68.4537 9.90625 68.4537 9.48201 68.4537 8.99716C68.4537 8.69413 68.3325 8.57292 68.0296 8.57292C67.8479 8.57292 67.6661 8.57292 67.4238 8.57292C67.1815 8.57292 67.0603 8.4517 67.1209 8.20928C67.1209 7.96686 67.2421 7.90625 67.4238 7.90625C68.3325 7.90625 69.2413 7.90625 70.15 7.90625C70.3923 7.90625 70.4529 8.02746 70.4529 8.26989C70.4529 8.51231 70.3317 8.57292 70.0894 8.57292C69.0595 8.63352 69.0595 8.63352 69.0595 9.66383C69.0595 10.3911 69.0595 11.0578 69.0595 11.785C69.0595 12.0275 69.0595 12.2093 68.7566 12.2093C68.4537 12.2093 68.3325 12.0881 68.3931 11.785C68.4537 11.3002 68.4537 10.8759 68.4537 10.3911Z" fill="white"/>
</svg>
