<svg width="78" height="17" viewBox="0 0 78 17" fill="none" xmlns="http://www.w3.org/2000/svg">
<path d="M70.958 16.7774V4.19067H72.5883V7.61906L72.4205 7.01969C72.7721 6.0607 73.3635 5.33347 74.1946 4.83799C75.0257 4.32653 76.0566 4.0708 77.2873 4.0708V5.72506C77.2234 5.72506 77.1595 5.72506 77.0955 5.72506C77.0316 5.70907 76.9677 5.70108 76.9037 5.70108C75.5771 5.70108 74.5382 6.10865 73.787 6.92379C73.0358 7.72295 72.6602 8.86575 72.6602 10.3522V16.7774H70.958Z" fill="white"/>
<path d="M61.8348 16.8973C60.5242 16.8973 59.3734 16.6256 58.3824 16.0821C57.3915 15.5227 56.6163 14.7635 56.0569 13.8045C55.4975 12.8296 55.2178 11.7187 55.2178 10.4721C55.2178 9.22537 55.4815 8.12253 56.0089 7.16354C56.5524 6.20455 57.2876 5.45334 58.2146 4.90992C59.1576 4.35051 60.2125 4.0708 61.3793 4.0708C62.562 4.0708 63.6089 4.34251 64.52 4.88594C65.447 5.41339 66.1742 6.16459 66.7017 7.13957C67.2291 8.09856 67.4928 9.20938 67.4928 10.4721C67.4928 10.552 67.4848 10.6399 67.4689 10.7358C67.4689 10.8157 67.4689 10.9036 67.4689 10.9995H56.5124V9.72884H66.5578L65.8865 10.2323C65.8865 9.32127 65.6867 8.51412 65.2872 7.81086C64.9036 7.09162 64.3761 6.53221 63.7048 6.13263C63.0335 5.73305 62.2584 5.53326 61.3793 5.53326C60.5162 5.53326 59.741 5.73305 59.0537 6.13263C58.3665 6.53221 57.831 7.09162 57.4474 7.81086C57.0638 8.5301 56.872 9.35323 56.872 10.2803V10.544C56.872 11.503 57.0798 12.3501 57.4954 13.0853C57.9269 13.8045 58.5183 14.3719 59.2695 14.7875C60.0367 15.1871 60.9078 15.3869 61.8827 15.3869C62.6499 15.3869 63.3612 15.251 64.0165 14.9793C64.6878 14.7076 65.2632 14.292 65.7427 13.7326L66.7017 14.8355C66.1423 15.5067 65.439 16.0182 64.5919 16.3698C63.7608 16.7215 62.8417 16.8973 61.8348 16.8973Z" fill="white"/>
<path d="M51.1733 16.8978C49.9905 16.8978 49.0795 16.5782 48.4402 15.9388C47.8008 15.2995 47.4812 14.3965 47.4812 13.2297V1.41016H49.1834V13.1338C49.1834 13.869 49.3672 14.4364 49.7348 14.836C50.1184 15.2356 50.6618 15.4354 51.3651 15.4354C52.1163 15.4354 52.7396 15.2196 53.2351 14.7881L53.8345 16.0108C53.4988 16.3144 53.0913 16.5382 52.6118 16.6821C52.1482 16.8259 51.6687 16.8978 51.1733 16.8978ZM45.2275 5.60573V4.19122H53.0193V5.60573H45.2275Z" fill="white"/>
<path d="M37.8936 16.9962C36.7907 16.9962 35.7119 16.8683 34.657 16.6126C33.6181 16.3568 32.779 16.0372 32.1396 15.6536L33.5062 12.5369C34.1136 12.9045 34.8248 13.2002 35.64 13.4239C36.4551 13.6317 37.2543 13.7356 38.0374 13.7356C38.8046 13.7356 39.3321 13.6557 39.6198 13.4958C39.9234 13.336 40.0753 13.1202 40.0753 12.8485C40.0753 12.5928 39.9314 12.409 39.6437 12.2971C39.372 12.1692 39.0044 12.0733 38.5409 12.0094C38.0934 11.9455 37.5979 11.8736 37.0545 11.7936C36.511 11.7137 35.9596 11.6098 35.4002 11.482C34.8568 11.3381 34.3533 11.1303 33.8898 10.8586C33.4423 10.5709 33.0827 10.1873 32.8109 9.70784C32.5392 9.22835 32.4034 8.62099 32.4034 7.88576C32.4034 7.05464 32.6431 6.31941 33.1226 5.68009C33.6181 5.02478 34.3373 4.51332 35.2803 4.14571C36.2233 3.76211 37.3741 3.57031 38.7327 3.57031C39.6437 3.57031 40.5628 3.66621 41.4898 3.85801C42.4328 4.03382 43.224 4.30554 43.8633 4.67315L42.4967 7.76589C41.8574 7.39828 41.2181 7.15054 40.5788 7.02267C39.9394 6.87882 39.3321 6.8069 38.7567 6.8069C37.9895 6.8069 37.4461 6.89481 37.1264 7.07062C36.8227 7.24644 36.6709 7.46221 36.6709 7.71794C36.6709 7.97367 36.8067 8.17346 37.0784 8.31731C37.3502 8.44517 37.7098 8.54906 38.1573 8.62898C38.6208 8.69291 39.1243 8.76484 39.6677 8.84475C40.2111 8.90868 40.7546 9.01257 41.298 9.15642C41.8574 9.30027 42.3609 9.51604 42.8084 9.80374C43.2719 10.0755 43.6395 10.4511 43.9112 10.9306C44.183 11.3941 44.3188 11.9934 44.3188 12.7287C44.3188 13.5278 44.0711 14.2471 43.5756 14.8864C43.0961 15.5257 42.3769 16.0372 41.4179 16.4208C40.4749 16.8044 39.3001 16.9962 37.8936 16.9962Z" fill="white"/>
<path d="M23.724 16.9962C22.3015 16.9962 21.0388 16.7085 19.936 16.1331C18.8331 15.5577 17.962 14.7665 17.3227 13.7596C16.6994 12.7366 16.3877 11.5699 16.3877 10.2593C16.3877 8.94864 16.6994 7.78986 17.3227 6.78293C17.962 5.77599 18.8331 4.99281 19.936 4.4334C21.0388 3.85801 22.3015 3.57031 23.724 3.57031C25.1465 3.57031 26.4091 3.85801 27.512 4.4334C28.6308 4.99281 29.5019 5.77599 30.1252 6.78293C30.7486 7.78986 31.0602 8.94864 31.0602 10.2593C31.0602 11.5699 30.7486 12.7366 30.1252 13.7596C29.5019 14.7665 28.6308 15.5577 27.512 16.1331C26.4091 16.7085 25.1465 16.9962 23.724 16.9962ZM23.724 13.376C24.2514 13.376 24.7149 13.2561 25.1145 13.0164C25.5301 12.7766 25.8577 12.425 26.0975 11.9615C26.3372 11.482 26.4571 10.9146 26.4571 10.2593C26.4571 9.60395 26.3372 9.05253 26.0975 8.605C25.8577 8.14149 25.5301 7.78986 25.1145 7.55012C24.7149 7.31037 24.2514 7.1905 23.724 7.1905C23.2125 7.1905 22.749 7.31037 22.3334 7.55012C21.9338 7.78986 21.6062 8.14149 21.3505 8.605C21.1107 9.05253 20.9908 9.60395 20.9908 10.2593C20.9908 10.9146 21.1107 11.482 21.3505 11.9615C21.6062 12.425 21.9338 12.7766 22.3334 13.0164C22.749 13.2561 23.2125 13.376 23.724 13.376Z" fill="white"/>
<path d="M0 16.7784V-0.00390625H7.67191C9.2063 -0.00390625 10.5249 0.243833 11.6277 0.739311C12.7466 1.23479 13.6097 1.95403 14.217 2.89704C14.8244 3.82406 15.1281 4.9269 15.1281 6.20555C15.1281 7.46822 14.8244 8.56306 14.217 9.49009C13.6097 10.4171 12.7466 11.1364 11.6277 11.6478C10.5249 12.1433 9.2063 12.391 7.67191 12.391H2.63722L4.747 10.3292V16.7784H0ZM4.747 10.8327L2.63722 8.65097H7.38422C8.37517 8.65097 9.1104 8.4352 9.58989 8.00365C10.0854 7.57211 10.3331 6.97274 10.3331 6.20555C10.3331 5.42237 10.0854 4.81501 9.58989 4.38347C9.1104 3.95192 8.37517 3.73615 7.38422 3.73615H2.63722L4.747 1.55445V10.8327Z" fill="white"/>
</svg>
