<svg width="60" height="64" viewBox="0 0 60 64" fill="none" xmlns="http://www.w3.org/2000/svg">
<path d="M31.6377 28.8299C31.9039 29.729 32.8485 30.2421 33.7476 29.976C34.6467 29.7098 35.1598 28.7652 34.8937 27.8661L31.6377 28.8299ZM26.1748 28.348L24.7377 27.444L26.1748 28.348ZM33.2657 51.5227L33.1278 53.2149L33.2657 51.5227ZM57.7682 30.762L59.4324 31.098L59.4382 31.0695L59.443 31.0408L57.7682 30.762ZM20.3867 3.72408L19.9247 2.09034L19.8918 2.09966L19.8592 2.11029L20.3867 3.72408ZM5.28964 43.5562L6.79339 42.7679L5.28964 43.5562ZM34.8937 27.8661C34.4549 26.3836 33.1358 24.5579 31.1325 23.9972C30.0608 23.6972 28.8847 23.7946 27.7388 24.4056C26.6313 24.9961 25.6335 26.0198 24.7377 27.444L27.6119 29.252C28.3105 28.1415 28.9159 27.6261 29.3364 27.4019C29.7185 27.1981 29.9952 27.205 30.2173 27.2671C30.8015 27.4307 31.4334 28.1397 31.6377 28.8299L34.8937 27.8661ZM24.7377 27.444C22.0425 31.7287 24.2777 37.093 28.2039 39.7175C30.2415 41.0795 32.8273 41.8114 35.6688 41.4377C38.5095 41.0642 41.4781 39.6043 44.341 36.8038L41.9665 34.3764C39.5236 36.7662 37.2045 37.8109 35.2261 38.0711C33.2486 38.3312 31.4842 37.8259 30.091 36.8945C27.1557 34.9324 26.2072 31.4853 27.6119 29.252L24.7377 27.444ZM44.341 36.8038C47.3147 33.8947 48.6189 30.456 48.5173 27.045C48.4168 23.6684 46.9453 20.4557 44.6182 17.9085C39.9543 12.8033 31.7005 10.1922 23.1677 14.0029L24.5523 17.1034C31.6956 13.9133 38.3945 16.1303 42.1113 20.1987C43.9746 22.2383 45.0504 24.6987 45.1232 27.146C45.195 29.559 44.2985 32.0952 41.9665 34.3764L44.341 36.8038ZM23.1677 14.0029C14.401 17.9181 11.4082 27.4276 13.2475 35.8901C15.1017 44.4214 21.9107 52.3009 33.1278 53.2149L33.4036 49.8305C23.88 49.0545 18.1481 42.4498 16.5656 35.1689C14.9682 27.8194 17.6429 20.1891 24.5523 17.1034L23.1677 14.0029ZM33.1278 53.2149C42.026 53.9399 48.2752 50.37 52.4443 45.6036C56.5563 40.9027 58.6301 35.0718 59.4324 31.098L56.104 30.4259C55.379 34.0163 53.4978 39.2417 49.8885 43.368C46.3364 47.4289 41.0979 50.4574 33.4036 49.8305L33.1278 53.2149ZM59.443 31.0408C60.4937 24.7301 58.3405 15.3612 52.0678 8.62339C45.667 1.7481 35.1544 -2.21634 19.9247 2.09034L20.8487 5.35782C35.0167 1.35139 44.1595 5.11211 49.5825 10.9371C55.1334 16.8997 56.9721 25.2063 56.0935 30.4831L59.443 31.0408ZM19.8592 2.11029C13.9246 4.05006 7.39172 9.71162 3.58973 17.2372C-0.251364 24.8402 -1.37778 34.4933 3.7859 44.3444L6.79339 42.7679C2.21352 34.0306 3.19668 25.5454 6.62052 18.7684C10.0835 11.9139 15.9708 6.95365 20.9142 5.33787L19.8592 2.11029ZM3.7859 44.3444C10.9601 58.0312 22.3078 63.0844 32.8787 63.641C38.1314 63.9176 43.185 63.0871 47.4507 61.6836C51.6902 60.2886 55.2718 58.287 57.5037 56.1207L55.1387 53.6841C53.3912 55.3803 50.3199 57.1648 46.3894 58.4581C42.4853 59.7427 37.8519 60.5025 33.0572 60.2501C23.5333 59.7486 13.3446 55.2661 6.79339 42.7679L3.7859 44.3444Z" fill="#FFD02B"/>
</svg>
