<svg width="40" height="40" viewBox="0 0 40 40" fill="none" xmlns="http://www.w3.org/2000/svg">
<g clip-path="url(#clip0_43_27542)">
<g clip-path="url(#clip1_43_27542)">
<mask id="mask0_43_27542" style="mask-type:luminance" maskUnits="userSpaceOnUse" x="0" y="0" width="40" height="40">
<path d="M40 0H0V40H40V0Z" fill="white"/>
</mask>
<g mask="url(#mask0_43_27542)">
<path d="M17.7605 35.8184C16.9284 35.8076 16.155 35.2085 15.8782 34.3336L15.8633 34.2866L19.8484 33.0254L19.8719 33.0996C20.2586 34.4273 19.3122 35.816 17.8154 35.8183L17.7605 35.8184Z" stroke="#F39325" stroke-width="2"/>
<path d="M27.6794 27.7144L4.57114 35.0277C4.02309 35.2011 3.46287 34.9103 3.2894 34.3622L3.18387 34.0287C3.09499 33.7479 3.11652 33.4852 3.23708 33.2497L5.02971 29.9162L5.22992 29.5439L5.10237 29.1408L2.51059 20.9513C1.07694 16.4212 2.69062 11.718 6.50712 9.00225C6.61692 8.9349 6.72614 8.83995 6.81645 8.70872C6.9658 8.49171 6.99625 8.27257 6.99824 8.1361C7.00013 8.00578 6.97706 7.90312 6.96616 7.8586C6.9553 7.81426 6.94251 7.7745 6.94045 7.76809L6.84637 7.47082C6.58356 6.64039 6.73412 5.76713 7.22672 5.17625L7.22991 5.17241C8.67161 3.42542 11.1211 4.16193 11.6838 5.9399L11.7776 6.23639L11.9989 6.9357L12.7324 6.93467C17.4788 6.92799 21.562 9.84334 23.0112 14.4225L25.6149 22.6491L25.7412 23.048L26.1139 23.2381L29.5106 24.9709C29.5115 24.9714 29.5124 24.9718 29.5133 24.9723C29.749 25.0955 29.9184 25.2982 30.0077 25.5803L30.1132 25.9137L30.1186 25.9308L30.1246 25.9477C30.2887 26.4081 30.041 26.967 29.4732 27.1467L27.6794 27.7144Z" stroke="#F39325" stroke-width="2"/>
</g>
</g>
</g>
<defs>
<clipPath id="clip0_43_27542">
<rect width="40" height="40" fill="white"/>
</clipPath>
<clipPath id="clip1_43_27542">
<rect width="40" height="40" fill="white"/>
</clipPath>
</defs>
</svg>
