<svg width="40" height="40" viewBox="0 0 40 40" fill="none" xmlns="http://www.w3.org/2000/svg">
<g clip-path="url(#clip0_43_27554)">
<path d="M33.3699 28.294C33.2049 27.8448 32.9448 27.4342 32.6064 27.0887L28.7886 22.5643C28.4934 22.1629 28.1116 21.8289 27.6698 21.5855C27.228 21.3421 26.7369 21.1952 26.2308 21.1551C25.7264 21.103 25.2164 21.1665 24.7418 21.3405C24.3626 21.4642 24.0123 21.6596 23.711 21.9153H23.5965L19.9315 24.9192C19.7393 25.0807 19.6197 25.3088 19.5983 25.5548C19.5769 25.8008 19.6554 26.0452 19.8169 26.2358C19.8961 26.3297 19.9939 26.4074 20.1045 26.464C20.2151 26.5206 20.3363 26.5552 20.4609 26.5655C20.5854 26.5759 20.7109 26.5619 20.8298 26.5244C20.9487 26.4868 21.0587 26.4265 21.1532 26.347L21.5922 25.9947L21.764 25.8464C22.6612 25.0861 23.6729 24.3444 24.4937 23.6027L24.7037 23.4358C24.8738 23.2801 25.0753 23.1601 25.2954 23.0835C25.5159 23.0085 25.7495 22.977 25.9826 22.9908C26.2186 23.0076 26.4473 23.0774 26.6507 23.1948C26.7568 23.2473 26.8535 23.3162 26.937 23.3987L27.2043 23.714L31.2702 28.3867C31.4427 28.5534 31.5733 28.7564 31.652 28.9801C31.7645 29.3195 31.7581 29.6855 31.6337 30.021C31.5094 30.3565 31.2742 30.6425 30.9648 30.8344L29.9722 31.539C29.3422 32.0211 28.7123 32.5217 28.0633 33.0409C27.5954 33.4626 27.0336 33.7735 26.4216 33.9495C25.7945 34.0981 25.1399 34.0981 24.5128 33.9495C22.3019 33.5918 20.1903 32.7965 18.3089 31.6131C13.9496 29.1004 10.1994 25.7041 7.31382 21.6557C5.13168 18.727 3.49101 15.4517 2.46528 11.9764C1.94198 10.3657 1.78566 8.6637 2.00715 6.98844C2.13293 6.11923 2.60613 5.33314 3.32427 4.8004L5.23315 3.33553L6.47392 2.31568C6.64411 2.15994 6.84556 2.04 7.06567 1.96337C7.21349 1.91296 7.36754 1.88179 7.5238 1.87065H7.63833C7.87974 1.89027 8.11405 1.95982 8.32552 2.07462C8.54566 2.19998 8.73467 2.37092 8.8791 2.57528L10.578 4.52226L12.945 7.22949C13.1175 7.39618 13.2481 7.59922 13.3268 7.82286C13.3827 8.04833 13.3827 8.28347 13.3268 8.50894C13.3066 8.74345 13.235 8.97105 13.1168 9.17648C12.9712 9.40627 12.7758 9.60245 12.5441 9.7513L12.1051 10.1036C11.2843 10.7897 10.4635 11.4572 9.68082 12.0691C9.38756 12.2656 9.17208 12.5535 9.06998 12.885C8.96236 13.1916 8.96236 13.5241 9.06998 13.8307C9.65646 15.342 10.4598 16.7653 11.4561 18.0584C13.0478 20.342 14.9774 22.3851 17.1827 24.1219C17.2656 24.2211 17.3704 24.3009 17.4894 24.3555C17.6083 24.41 17.7384 24.4379 17.8699 24.4371C17.9943 24.4396 18.118 24.4179 18.2337 24.3734C18.3494 24.3288 18.4548 24.2623 18.5437 24.1776C18.6325 24.093 18.7032 23.992 18.7513 23.8806C18.7995 23.7691 18.8244 23.6494 18.8243 23.5285C18.8256 23.385 18.7895 23.2434 18.7194 23.117C18.6493 22.9906 18.5475 22.8834 18.4235 22.8054C16.3326 21.1401 14.5059 19.1844 13.0023 17.0015C12.198 15.9005 11.5555 14.696 11.0934 13.4228C11.876 12.8108 12.6587 12.1619 13.4413 11.5685L13.804 11.142C14.2386 10.8559 14.5982 10.4749 14.8539 10.0294C15.0923 9.61277 15.2355 9.15109 15.2738 8.67582C15.311 8.16647 15.2395 7.65514 15.0638 7.17387C14.8948 6.72232 14.6279 6.3113 14.2812 5.96859L12.0669 3.33553L10.3871 1.48126C10.0997 1.05986 9.71376 0.710409 9.26087 0.461408C8.82384 0.211101 8.33465 0.0590386 7.82922 0.0163834C7.31858 -0.0332235 6.80301 0.0301717 6.3212 0.20181C5.86608 0.36535 5.45029 0.617782 5.09953 0.943518L3.82058 1.87065L2.06442 3.2799C0.978428 4.14783 0.280621 5.39054 0.117365 6.74738C-0.146584 8.68437 0.0359803 10.6541 0.65185 12.5142C1.74544 16.217 3.49607 19.7059 5.8249 22.8239C8.86077 27.0716 12.7988 30.6378 17.3736 33.282C19.4617 34.5865 21.7987 35.4694 24.2455 35.878C25.1722 36.0318 26.1219 35.9939 27.0325 35.7667C27.9297 35.5083 28.753 35.0513 29.4377 34.4316C29.9912 33.931 30.583 33.4674 31.1747 33.0038C31.7665 32.5403 31.8047 32.5032 32.0528 32.2807C32.4866 32.0015 32.8464 31.6266 33.1027 31.1867C33.3512 30.7515 33.507 30.2723 33.5608 29.7774C33.6015 29.2755 33.5366 28.7708 33.3699 28.294Z" fill="#F39325"/>
</g>
<defs>
<clipPath id="clip0_43_27554">
<rect width="40" height="40" fill="white"/>
</clipPath>
</defs>
</svg>
