<svg width="40" height="40" viewBox="0 0 40 40" fill="none" xmlns="http://www.w3.org/2000/svg">
<g clip-path="url(#clip0_43_27511)">
<g clip-path="url(#clip1_43_27511)">
<g clip-path="url(#clip2_43_27511)">
<path d="M16 40C24.8366 40 32 32.8366 32 24C32 15.1634 24.8366 8 16 8C7.16344 8 0 15.1634 0 24C0 32.8366 7.16344 40 16 40Z" fill="#FFE4C5"/>
<path d="M32.3 5H10.7C9.215 5 8 6.26 8 7.8V23.2C8 24.74 9.215 26 10.7 26H32.3C33.785 26 35 24.74 35 23.2V7.8C35 6.26 33.785 5 32.3 5ZM33.65 23.2C33.65 23.9 33.11 24.6 32.3 24.6H10.7C10.025 24.6 9.35 24.04 9.35 23.2V7.8C9.35 7.1 9.89 6.4 10.7 6.4H32.3C32.975 6.4 33.65 6.96 33.65 7.8V23.2Z" fill="#F39325"/>
<path d="M30.3206 19H12.6776C12.2704 19 11.999 19.4 11.999 20C11.999 20.6 12.2704 21 12.6776 21H30.3206C30.7278 21 30.9992 20.6 30.9992 20C30.9992 19.4 30.7278 19 30.3206 19Z" fill="#F39325"/>
<path d="M37.3676 0H17.6306C16.1832 0 14.999 1.26 14.999 2.8V4.06C14.999 4.48 15.2622 4.76 15.6569 4.76C16.0516 4.76 16.3148 4.48 16.3148 4.2V2.8C16.3148 2.1 16.8411 1.4 17.6306 1.4H37.3676C38.0255 1.4 38.6834 1.96 38.6834 2.8V18.2C38.6834 18.9 38.1571 19.6 37.3676 19.6H36.0518C35.6571 19.6 35.3939 19.88 35.3939 20.3C35.3939 20.72 35.6571 21 36.0518 21H37.3676C38.815 21 39.9992 19.74 39.9992 18.2V2.8C39.9992 1.26 38.815 0 37.3676 0Z" fill="#F39325"/>
</g>
</g>
</g>
<defs>
<clipPath id="clip0_43_27511">
<rect width="40" height="40" fill="white"/>
</clipPath>
<clipPath id="clip1_43_27511">
<rect width="40" height="40" fill="white"/>
</clipPath>
<clipPath id="clip2_43_27511">
<rect width="40" height="40" fill="white"/>
</clipPath>
</defs>
</svg>
