<svg width="40" height="40" viewBox="0 0 40 40" fill="none" xmlns="http://www.w3.org/2000/svg">
<g clip-path="url(#clip0_43_27481)">
<g clip-path="url(#clip1_43_27481)">
<g clip-path="url(#clip2_43_27481)">
<path d="M16 40C24.8366 40 32 32.8366 32 24C32 15.1634 24.8366 8 16 8C7.16344 8 0 15.1634 0 24C0 32.8366 7.16344 40 16 40Z" fill="#FFE4C5"/>
<path d="M18.2993 18.9832L18.3001 18.9843L18.3035 18.9888L18.317 19.0068L18.3699 19.077L18.5728 19.3468C18.7488 19.5808 19.0031 19.9191 19.3164 20.336C19.9428 21.1698 20.8049 22.3183 21.7477 23.5771C23.632 26.093 25.8423 29.0546 27.1353 30.8225L27.1418 30.8313L27.1481 30.8404C27.297 31.0536 27.6249 31.0536 27.7738 30.8404L27.7832 30.8269L27.793 30.8138L36.6992 18.9068L36.7066 18.8971C38.1442 17.0232 39 14.7272 39 12.22C39 6.0578 33.845 1 27.5 1C21.1592 1 16 6.054 16 12.299C16 14.8062 16.8558 17.1016 18.2934 18.9755L18.2993 18.9832ZM18.2993 18.9832C18.2993 18.9831 18.299 18.9828 17.5223 19.5674L18.2993 18.9832Z" stroke="#F39325" stroke-width="2"/>
<path d="M28 16C29.6569 16 31 14.6569 31 13C31 11.3431 29.6569 10 28 10C26.3431 10 25 11.3431 25 13C25 14.6569 26.3431 16 28 16Z" stroke="#F39325" stroke-width="2"/>
</g>
</g>
</g>
<defs>
<clipPath id="clip0_43_27481">
<rect width="40" height="40" fill="white"/>
</clipPath>
<clipPath id="clip1_43_27481">
<rect width="40" height="40" fill="white"/>
</clipPath>
<clipPath id="clip2_43_27481">
<rect width="40" height="40" fill="white"/>
</clipPath>
</defs>
</svg>
