<svg width="40" height="40" viewBox="0 0 40 40" fill="none" xmlns="http://www.w3.org/2000/svg">
<g clip-path="url(#clip0_43_27535)">
<g clip-path="url(#clip1_43_27535)">
<path d="M38.3991 30.8515L37.8557 26.5039L37.2615 1.53454L37.2466 1.53508C37.2437 1.40885 37.215 1.28396 37.1353 1.18272C37.0228 1.03763 36.8496 0.953125 36.6662 0.953125H12.8567C12.5836 0.953125 12.3455 1.1394 12.2793 1.40433L11.0888 6.16623C11.0441 6.34428 11.0846 6.53241 11.1973 6.67644C11.3009 6.8093 11.4569 6.88292 11.6235 6.8954L10.8617 17.6199H3.64262C3.10212 17.6199 2.62596 17.9813 2.48616 18.4968L0.999148 23.8492C0.897377 24.2064 0.967529 24.5813 1.19261 24.8795C1.42167 25.1837 1.77243 25.3581 2.15458 25.3581H2.19444L2.68312 30.7152H2.14262C1.48601 30.7152 0.952148 31.249 0.952148 31.9057V37.858C0.952148 38.5146 1.48601 39.0485 2.14262 39.0485H37.8568C38.5135 39.0485 39.0473 38.5146 39.0473 37.858V31.9057C39.0473 31.4454 38.7823 31.0497 38.3991 30.8515ZM36.1762 5.96311L36.6662 26.5617C36.6662 26.5819 36.6681 26.6016 36.6704 26.6218L37.1822 30.7146H33.7686L34.2841 26.583L35.4418 6.9048H35.4758C35.7489 6.9048 35.987 6.71852 36.0532 6.45358L36.1762 5.96311ZM35.011 5.71492H26.547V2.1435H35.9035L35.011 5.71492ZM21.7851 2.1435H25.3565V7.13288L25.0273 6.96865C24.8601 6.88468 24.6625 6.88468 24.4945 6.96865L23.5709 7.4305L22.6463 6.96865C22.4792 6.88468 22.2816 6.88468 22.1136 6.96865L21.7852 7.13288L21.7851 2.1435ZM12.8164 6.90539H19.4044C19.7329 6.90539 19.9997 6.63939 19.9997 6.31015C19.9997 5.98092 19.7329 5.71492 19.4044 5.71492H12.429L13.3219 2.1435H20.5953V8.09587C20.5953 8.30234 20.7023 8.4934 20.8775 8.60235C21.0531 8.71131 21.2726 8.72033 21.4568 8.62866L22.381 8.16602L23.3055 8.62786C23.4726 8.71184 23.6703 8.71184 23.8382 8.62786L24.762 8.16602L25.6864 8.62786C25.7704 8.67038 25.8613 8.69111 25.9524 8.69111C26.0614 8.69111 26.1698 8.66134 26.2655 8.60235C26.4406 8.4934 26.5477 8.30233 26.5477 8.09587V6.90539H34.2503L33.1003 26.4741L32.57 30.7146H19.4604L19.9491 25.3575H19.9889C20.3711 25.3575 20.7216 25.1831 20.9514 24.8789C21.1757 24.5807 21.2466 24.205 21.146 23.8526L19.6583 18.4985C19.517 17.9807 19.0408 17.6194 18.5003 17.6194H12.0563L12.8164 6.90539ZM3.64232 18.8102L18.5097 18.8149L19.9877 24.1673H2.73803L2.14465 24.1721L3.64232 18.8102ZM9.2851 25.3578H12.8565V26.5483H9.2851V25.3578ZM8.09462 25.3578V26.5483C8.09462 27.2048 8.62848 27.7387 9.2851 27.7387H12.8565C13.5131 27.7387 14.047 27.2048 14.047 26.5483V25.3578H18.7464L18.2137 30.7148L3.8783 30.7144L3.39015 25.3578H8.09462ZM37.8565 37.8577H2.14225V31.9053H22.9756V34.2863H17.0232V33.0958C17.0232 32.7666 16.7563 32.5006 16.428 32.5006C16.0995 32.5006 15.8327 32.7666 15.8327 33.0958V34.2863C15.8327 34.9429 16.3665 35.4767 17.0232 35.4767H22.9756C23.6321 35.4767 24.1661 34.9429 24.1661 34.2863V31.9053H37.8565V37.8577Z" fill="#F39325" stroke="#F39325" stroke-width="0.47619"/>
</g>
</g>
<defs>
<clipPath id="clip0_43_27535">
<rect width="40" height="40" fill="white"/>
</clipPath>
<clipPath id="clip1_43_27535">
<rect width="40" height="40" fill="white"/>
</clipPath>
</defs>
</svg>
