<svg width="16" height="20" viewBox="0 0 16 20" fill="none" xmlns="http://www.w3.org/2000/svg">
<path d="M8.38341 0C4.27341 0 0.933411 3.34 0.933411 7.45C0.933411 12.34 7.11341 19.26 7.37341 19.55C7.63341 19.84 8.00341 20 8.38341 20C8.76341 20 9.1334 19.84 9.3934 19.55C10.0534 18.82 15.8334 12.23 15.8334 7.45C15.8334 3.34 12.4934 0 8.38341 0ZM5.26341 7.45C5.26341 5.73 6.66341 4.33 8.38341 4.33C10.1034 4.33 11.5034 5.73 11.5034 7.45C11.5034 9.17 10.1034 10.57 8.38341 10.57C6.66341 10.57 5.26341 9.17 5.26341 7.45Z" fill="#F39325"/>
</svg>
