<svg width="23" height="26" viewBox="0 0 23 26" fill="none" xmlns="http://www.w3.org/2000/svg">
<path d="M6.73266 9.69302V7.48876M16.198 9.69302V7.48876M6.73266 7.48876H4C2.89543 7.48876 2 8.38419 2 9.48876V23.1229C2 24.2274 2.89543 25.1229 4 25.1229H18.9307C20.0352 25.1229 20.9307 24.2274 20.9307 23.1229V9.48876C20.9307 8.38419 20.0352 7.48876 18.9307 7.48876H16.198M6.73266 7.48876H16.198M6.73266 7.48876V5.2845C6.73266 2.84879 8.85645 0.875977 11.4653 0.875977C14.0801 0.875977 16.198 2.8543 16.198 5.2845V7.48876" stroke="#1E1E1E" stroke-width="1.5" stroke-linecap="round"/>
<path d="M10.7468 17.9008L9.0293 16.4209" stroke="#1E1E1E" stroke-width="1.5" stroke-linecap="round" stroke-linejoin="round"/>
<path d="M14.2965 15.0393L10.746 17.903" stroke="#1E1E1E" stroke-width="1.5" stroke-linecap="round" stroke-linejoin="round"/>
</svg>
