<svg width="24" height="24" viewBox="0 0 24 24" fill="none" xmlns="http://www.w3.org/2000/svg">
<path d="M11.7 2.75C8.01 2.75 5 5.76 5 9.45C5 14.03 11 20.77 11.25 21.05C11.49 21.32 11.91 21.32 12.15 21.05C12.41 20.77 18.4 14.03 18.4 9.45C18.4 5.76 15.39 2.75 11.7 2.75Z" stroke="#038F68" stroke-width="1.5" stroke-linecap="round" stroke-linejoin="round"/>
<path d="M12.0857 11.7852C13.3784 11.5795 14.2595 10.3647 14.0538 9.07206C13.848 7.77937 12.6333 6.89825 11.3406 7.10401C10.0479 7.30978 9.1668 8.5245 9.37256 9.81719C9.57832 11.1099 10.7931 11.991 12.0857 11.7852Z" stroke="#038F68" stroke-width="1.5" stroke-linecap="round" stroke-linejoin="round"/>
</svg>
