<svg width="16" height="20" viewBox="0 0 16 20" fill="none" xmlns="http://www.w3.org/2000/svg">
<path d="M7.7 0.75C4.01 0.75 1 3.76 1 7.45C1 12.03 7 18.77 7.25 19.05C7.49 19.32 7.90999 19.32 8.14999 19.05C8.40999 18.77 14.4 12.03 14.4 7.45C14.4 3.76 11.39 0.75 7.7 0.75Z" stroke="#8C8C8C" stroke-width="1.5" stroke-linecap="round" stroke-linejoin="round"/>
<path d="M8.08525 9.78523C9.37793 9.57947 10.2591 8.36473 10.0533 7.07204C9.84753 5.77936 8.6328 4.89824 7.34012 5.104C6.04743 5.30976 5.16631 6.52449 5.37207 7.81717C5.57784 9.10985 6.79256 9.99099 8.08525 9.78523Z" stroke="#8C8C8C" stroke-width="1.5" stroke-linecap="round" stroke-linejoin="round"/>
</svg>
