<svg width="14" height="12" viewBox="0 0 14 12" fill="none" xmlns="http://www.w3.org/2000/svg">
<path d="M6.39901 5.80658C6.73874 6.13938 7.20328 6.13938 7.54302 5.80658L11.9249 1.45241L12.7361 0.641204C12.4311 0.481736 12.0913 0.391602 11.7238 0.391602H2.21818C1.85071 0.391602 1.51097 0.481736 1.2059 0.641204L2.01711 1.45241L6.39901 5.80658Z" fill="#86888B"/>
<path d="M4.83922 5.72282L1.19226 2.08972L0.429591 1.33398C0.179989 1.68759 0.0413208 2.11052 0.0413208 2.57506V8.95377C0.0413208 9.34204 0.145323 9.70951 0.318657 10.0215C0.325591 10.0146 0.325591 10.0146 0.332524 10.0076L1.12293 9.25191L4.83922 5.72282Z" fill="#86888B"/>
<path d="M8.41665 6.4043L8.27798 6.54296C7.90358 6.91043 7.43904 7.09764 6.96757 7.09764C6.50303 7.09764 6.0385 6.91043 5.66409 6.54296L5.57396 6.45283L1.82993 10.0305L1.05339 10.7654C1.04646 10.7723 1.03953 10.7793 1.03259 10.7793C1.37233 11.0081 1.77447 11.1398 2.2182 11.1398H11.7239C12.1607 11.1398 12.5697 11.0081 12.9095 10.7793L12.1329 10.0235L8.41665 6.4043Z" fill="#86888B"/>
<path d="M13.5203 1.33398L12.7576 2.08972L9.15222 5.66735L12.8269 9.25191L13.6243 10.0284C13.8045 9.71645 13.9085 9.34204 13.9085 8.95377V2.57506C13.9085 2.11052 13.7699 1.68759 13.5203 1.33398Z" fill="#86888B"/>
</svg>
