<svg width="32" height="32" viewBox="0 0 32 32" fill="none" xmlns="http://www.w3.org/2000/svg">
<circle cx="16" cy="16" r="16" fill="#038F68"/>
<g clip-path="url(#clip0_10_12385)">
<path d="M22.4301 18.8647L20.1395 18.6032C19.8702 18.5715 19.5971 18.6013 19.341 18.6904C19.0848 18.7794 18.8522 18.9253 18.6605 19.1172L17.0012 20.7765C14.4411 19.4745 12.3602 17.3936 11.0582 14.8335L12.7266 13.1652C13.1144 12.7774 13.3037 12.2363 13.2406 11.6862L12.9791 9.41361C12.928 8.97368 12.7168 8.56791 12.3859 8.27357C12.055 7.97922 11.6274 7.81686 11.1845 7.81738H9.62433C8.60528 7.81738 7.75757 8.66509 7.8207 9.68415C8.29866 17.3857 14.4581 23.5361 22.1505 24.0141C23.1696 24.0772 24.0173 23.2295 24.0173 22.2104V20.6503C24.0263 19.7394 23.3409 18.9729 22.4301 18.8647Z" fill="white"/>
</g>
<defs>
<clipPath id="clip0_10_12385">
<rect width="18" height="18" fill="white" transform="translate(7 7)"/>
</clipPath>
</defs>
</svg>
