<svg width="12" height="12" viewBox="0 0 12 12" fill="none" xmlns="http://www.w3.org/2000/svg">
<path d="M11.9585 9.0791C11.9585 9.21973 11.9325 9.40332 11.8804 9.62988C11.8283 9.85645 11.7736 10.0348 11.7163 10.165C11.6069 10.4255 11.2892 10.7015 10.7632 10.9932C10.2736 11.2588 9.78923 11.3916 9.31006 11.3916C9.16943 11.3916 9.03141 11.3825 8.896 11.3643C8.76058 11.346 8.61084 11.3135 8.44678 11.2666C8.28271 11.2197 8.16032 11.182 8.07959 11.1533C7.99886 11.1247 7.85433 11.0713 7.646 10.9932C7.43766 10.915 7.31006 10.8682 7.26318 10.8525C6.75277 10.6702 6.29704 10.4541 5.896 10.2041C5.23454 9.79264 4.54704 9.23014 3.8335 8.5166C3.11995 7.80306 2.55745 7.11556 2.146 6.4541C1.896 6.05306 1.67985 5.59733 1.49756 5.08691C1.48193 5.04004 1.43506 4.91244 1.35693 4.7041C1.27881 4.49577 1.22542 4.35124 1.19678 4.27051C1.16813 4.18978 1.13037 4.06738 1.0835 3.90332C1.03662 3.73926 1.00407 3.58952 0.98584 3.4541C0.967611 3.31868 0.958496 3.18066 0.958496 3.04004C0.958496 2.56087 1.09131 2.0765 1.35693 1.58691C1.6486 1.06087 1.92464 0.743164 2.18506 0.633789C2.31527 0.576497 2.49365 0.52181 2.72021 0.469727C2.94678 0.417644 3.13037 0.391602 3.271 0.391602C3.34391 0.391602 3.3986 0.399414 3.43506 0.415039C3.52881 0.446289 3.66683 0.644206 3.84912 1.00879C3.90641 1.10775 3.98454 1.24837 4.0835 1.43066C4.18245 1.61296 4.2736 1.77832 4.35693 1.92676C4.44027 2.0752 4.521 2.21452 4.59912 2.34473C4.61475 2.36556 4.66032 2.43066 4.73584 2.54004C4.81136 2.64941 4.86735 2.74186 4.90381 2.81738C4.94027 2.8929 4.9585 2.96712 4.9585 3.04004C4.9585 3.14421 4.88428 3.27441 4.73584 3.43066C4.5874 3.58691 4.42594 3.73014 4.25146 3.86035C4.07699 3.99056 3.91553 4.12858 3.76709 4.27441C3.61865 4.42025 3.54443 4.54004 3.54443 4.63379C3.54443 4.68066 3.55745 4.73926 3.5835 4.80957C3.60954 4.87988 3.63167 4.93327 3.6499 4.96973C3.66813 5.00619 3.70459 5.06869 3.75928 5.15723C3.81396 5.24577 3.84391 5.29525 3.84912 5.30566C4.24495 6.01921 4.69808 6.63119 5.2085 7.1416C5.71891 7.65202 6.33089 8.10514 7.04443 8.50098C7.05485 8.50618 7.10433 8.53613 7.19287 8.59082C7.28141 8.64551 7.34391 8.68197 7.38037 8.7002C7.41683 8.71842 7.47021 8.74056 7.54053 8.7666C7.61084 8.79264 7.66943 8.80566 7.71631 8.80566C7.81006 8.80566 7.92985 8.73145 8.07568 8.58301C8.22152 8.43457 8.35954 8.27311 8.48975 8.09863C8.61995 7.92415 8.76318 7.7627 8.91943 7.61426C9.07568 7.46582 9.20589 7.3916 9.31006 7.3916C9.38298 7.3916 9.45719 7.40983 9.53271 7.44629C9.60824 7.48275 9.70068 7.53874 9.81006 7.61426C9.91943 7.68978 9.98454 7.73535 10.0054 7.75098C10.1356 7.8291 10.2749 7.90983 10.4233 7.99316C10.5718 8.0765 10.7371 8.16764 10.9194 8.2666C11.1017 8.36556 11.2424 8.44368 11.3413 8.50098C11.7059 8.68327 11.9038 8.82129 11.9351 8.91504C11.9507 8.9515 11.9585 9.00618 11.9585 9.0791Z" fill="#86888B"/>
</svg>
