<svg width="119" height="34" viewBox="0 0 119 34" fill="none" xmlns="http://www.w3.org/2000/svg">
<path d="M18.875 9C18.7083 7.01042 17.8958 5.40104 16.4375 4.17187C14.9896 2.94271 13.1146 2.32813 10.8125 2.32813C9.26042 2.32813 7.88021 2.61458 6.67188 3.1875C5.46354 3.76042 4.51563 4.54167 3.82812 5.53125C3.14062 6.52083 2.79687 7.65625 2.79687 8.9375C2.79687 9.76042 2.95313 10.5052 3.26563 11.1719C3.58854 11.8281 4.04167 12.4167 4.625 12.9375C5.20833 13.4479 5.90104 13.8958 6.70313 14.2812C7.50521 14.6667 8.39063 15.0052 9.35938 15.2969L12.8594 16.3281C14.0573 16.6927 15.1615 17.1146 16.1719 17.5937C17.1927 18.0729 18.0781 18.6458 18.8281 19.3125C19.5885 19.9687 20.1771 20.7396 20.5938 21.625C21.0208 22.5104 21.2344 23.5312 21.2344 24.6875C21.2344 26.375 20.7969 27.8854 19.9219 29.2188C19.0573 30.5521 17.8229 31.6042 16.2188 32.375C14.625 33.1354 12.7448 33.5156 10.5781 33.5156C8.51562 33.5156 6.71875 33.1667 5.1875 32.4687C3.66667 31.7708 2.46354 30.8021 1.57813 29.5625C0.692708 28.3125 0.192709 26.875 0.0781252 25.25H2.07813C2.18229 26.5729 2.60417 27.7187 3.34375 28.6875C4.09375 29.6458 5.08854 30.3854 6.32813 30.9062C7.56771 31.4271 8.98438 31.6875 10.5781 31.6875C12.2969 31.6875 13.8125 31.3958 15.125 30.8125C16.4375 30.2187 17.4635 29.3958 18.2031 28.3437C18.9427 27.2917 19.3125 26.0677 19.3125 24.6719C19.3125 23.5469 19.0469 22.5833 18.5156 21.7812C17.9844 20.9792 17.1979 20.2865 16.1563 19.7031C15.125 19.1198 13.8438 18.599 12.3125 18.1406L8.57813 17.0156C6.07813 16.2552 4.16667 15.2187 2.84375 13.9062C1.53125 12.5937 0.875 10.9583 0.875 9C0.875 7.35417 1.3125 5.89583 2.1875 4.625C3.0625 3.34375 4.25 2.33854 5.75 1.60937C7.26042 0.880208 8.96354 0.515625 10.8594 0.515625C12.7656 0.515625 14.4479 0.885417 15.9062 1.625C17.3646 2.35417 18.5208 3.35937 19.375 4.64062C20.2292 5.91146 20.7031 7.36458 20.7969 9H18.875ZM54.4062 17C54.4062 20.3021 53.8333 23.1875 52.6875 25.6562C51.5417 28.1146 49.9479 30.026 47.9063 31.3906C45.875 32.7552 43.5313 33.4375 40.875 33.4375C38.2083 33.4375 35.8542 32.7552 33.8125 31.3906C31.7813 30.0156 30.1927 28.099 29.0469 25.6406C27.901 23.1719 27.3281 20.2917 27.3281 17C27.3281 13.6979 27.901 10.8177 29.0469 8.35937C30.2031 5.90104 31.7969 3.98958 33.8281 2.625C35.8594 1.25 38.2083 0.562499 40.875 0.562499C43.5313 0.562499 45.875 1.24479 47.9063 2.60937C49.9479 3.97396 51.5417 5.89062 52.6875 8.35937C53.8333 10.8177 54.4062 13.6979 54.4062 17ZM52.5 17C52.5 14.0312 52 11.4583 51 9.28125C50.0104 7.10417 48.6406 5.42187 46.8906 4.23437C45.1406 3.03646 43.1354 2.4375 40.875 2.4375C38.6146 2.4375 36.6094 3.03125 34.8594 4.21875C33.1094 5.39583 31.7344 7.07812 30.7344 9.26562C29.7448 11.4427 29.25 14.0208 29.25 17C29.25 19.9479 29.7396 22.5156 30.7188 24.7031C31.7083 26.8802 33.0781 28.5677 34.8281 29.7656C36.5781 30.9635 38.5938 31.5625 40.875 31.5625C43.1354 31.5625 45.1406 30.9687 46.8906 29.7812C48.6406 28.5833 50.0104 26.8958 51 24.7187C52 22.5417 52.5 19.9687 52.5 17ZM61.1289 33.2031C60.6602 33.2031 60.2591 33.0417 59.9258 32.7187C59.6029 32.3854 59.4414 31.9844 59.4414 31.5156C59.4414 31.0573 59.6029 30.6615 59.9258 30.3281C60.2591 29.9948 60.6602 29.8281 61.1289 29.8281C61.5872 29.8281 61.9831 29.9948 62.3164 30.3281C62.6497 30.6615 62.8164 31.0573 62.8164 31.5156C62.8164 31.8281 62.7383 32.1146 62.582 32.375C62.4362 32.625 62.2331 32.8281 61.9727 32.9844C61.7227 33.1302 61.4414 33.2031 61.1289 33.2031ZM70.2578 0.999999L80.7578 30.4844H80.9766L91.4766 0.999999H93.5391L81.9922 33H79.7422L68.1953 0.999999H70.2578ZM95.5234 33H93.4609L105.008 0.999999H107.258L118.805 33H116.742L106.211 3.51562H106.055L95.5234 33ZM98.4453 20.9531H113.82V22.7656H98.4453V20.9531Z" fill="#8F5F03"/>
</svg>
