<svg width="100" height="29" viewBox="0 0 100 29" fill="none" xmlns="http://www.w3.org/2000/svg">
<path d="M16.2342 7.99447C16.0953 6.33603 15.418 4.99451 14.2024 3.96992C12.9955 2.94533 11.4325 2.43304 9.5136 2.43304C8.21984 2.43304 7.06935 2.67182 6.06212 3.14938C5.0549 3.62695 4.26475 4.27817 3.69168 5.10305C3.1186 5.92793 2.83206 6.87437 2.83206 7.94238C2.83206 8.62833 2.96231 9.24916 3.2228 9.80487C3.49197 10.3519 3.86968 10.8425 4.35592 11.2766C4.84217 11.7021 5.41958 12.0755 6.08817 12.3967C6.75676 12.718 7.49481 13.0002 8.30233 13.2433L11.2198 14.1029C12.2183 14.4068 13.1387 14.7585 13.981 15.1579C14.8319 15.5573 15.57 16.0349 16.1951 16.5906C16.829 17.1376 17.3196 17.7802 17.6669 18.5182C18.0229 19.2563 18.2009 20.1072 18.2009 21.071C18.2009 22.4776 17.8362 23.7367 17.1068 24.8481C16.3862 25.9595 15.3572 26.8365 14.0201 27.479C12.6916 28.1129 11.1243 28.4298 9.31823 28.4298C7.59901 28.4298 6.1012 28.1389 4.8248 27.5572C3.55709 26.9754 2.55421 26.1679 1.81616 25.1346C1.07811 24.0927 0.661326 22.8944 0.565813 21.5399H2.23294C2.31977 22.6426 2.67143 23.5977 3.28792 24.4053C3.91309 25.2041 4.74231 25.8206 5.77559 26.2547C6.80886 26.6889 7.98974 26.9059 9.31823 26.9059C10.7509 26.9059 12.0143 26.6628 13.1083 26.1766C14.2024 25.6817 15.0577 24.9957 15.6742 24.1187C16.2906 23.2417 16.5989 22.2215 16.5989 21.058C16.5989 20.1202 16.3775 19.317 15.9346 18.6485C15.4918 17.9799 14.8362 17.4025 13.968 16.9162C13.1083 16.43 12.0403 15.9958 10.7639 15.6138L7.6511 14.676C5.5672 14.0422 3.97387 13.1782 2.87114 12.0841C1.77709 10.9901 1.23006 9.62687 1.23006 7.99447C1.23006 6.62257 1.59474 5.40695 2.32411 4.34763C3.05348 3.27963 4.04334 2.44172 5.29368 1.83392C6.55271 1.22611 7.97237 0.922206 9.55267 0.922206C11.1417 0.922206 12.5439 1.23045 13.7596 1.84694C14.9752 2.45475 15.939 3.29265 16.651 4.36066C17.363 5.41998 17.7581 6.63125 17.8362 7.99447H16.2342ZM45.8518 14.663C45.8518 17.4155 45.3742 19.8207 44.4191 21.8785C43.464 23.9277 42.1355 25.521 40.4336 26.6585C38.7404 27.796 36.7868 28.3647 34.5726 28.3647C32.3498 28.3647 30.3874 27.796 28.6856 26.6585C26.9924 25.5123 25.6682 23.9147 24.7131 21.8655C23.758 19.8076 23.2804 17.4068 23.2804 14.663C23.2804 11.9105 23.758 9.50965 24.7131 7.46047C25.6769 5.41129 27.0054 3.81797 28.6986 2.6805C30.3918 1.53435 32.3498 0.961279 34.5726 0.961279C36.7868 0.961279 38.7404 1.53001 40.4336 2.66748C42.1355 3.80495 43.464 5.40261 44.4191 7.46047C45.3742 9.50965 45.8518 11.9105 45.8518 14.663ZM44.2628 14.663C44.2628 12.1883 43.846 10.0437 43.0124 8.22891C42.1876 6.41418 41.0457 5.01188 39.587 4.02202C38.1283 3.02348 36.4568 2.52421 34.5726 2.52421C32.6884 2.52421 31.0169 3.01914 29.5582 4.009C28.0995 4.99017 26.9533 6.39247 26.1197 8.21589C25.2949 10.0306 24.8824 12.1797 24.8824 14.663C24.8824 17.1203 25.2905 19.2606 26.1067 21.084C26.9316 22.8988 28.0734 24.3054 29.5322 25.3039C30.9909 26.3025 32.671 26.8018 34.5726 26.8018C36.4568 26.8018 38.1283 26.3068 39.587 25.317C41.0457 24.3184 42.1876 22.9118 43.0124 21.0971C43.846 19.2823 44.2628 17.1376 44.2628 14.663ZM51.4555 28.1693C51.0648 28.1693 50.7305 28.0347 50.4526 27.7656C50.1835 27.4877 50.0489 27.1534 50.0489 26.7627C50.0489 26.3806 50.1835 26.0507 50.4526 25.7728C50.7305 25.495 51.0648 25.356 51.4555 25.356C51.8376 25.356 52.1675 25.495 52.4454 25.7728C52.7232 26.0507 52.8622 26.3806 52.8622 26.7627C52.8622 27.0232 52.797 27.2619 52.6668 27.479C52.5452 27.6874 52.3759 27.8567 52.1588 27.987C51.9505 28.1085 51.716 28.1693 51.4555 28.1693ZM59.065 1.32596L67.8175 25.9031H67.9998L76.7522 1.32596H78.4715L68.8464 28H66.9709L57.3458 1.32596H59.065ZM80.1256 28H78.4063L88.0314 1.32596H89.9069L99.532 28H97.8127L89.0343 3.4229H88.904L80.1256 28ZM82.5611 17.9582H95.3772V19.469H82.5611V17.9582Z" fill="#161B21"/>
</svg>
