<svg width="249" height="72" viewBox="0 0 249 72" fill="none" xmlns="http://www.w3.org/2000/svg">
<path d="M40.8452 18.6425C40.5108 13.9615 38.7164 10.1164 35.462 7.10716C32.2299 4.09793 27.9612 2.59332 22.6561 2.59332C19.1787 2.59332 16.0692 3.26203 13.3275 4.59947C10.5857 5.9369 8.42354 7.77587 6.84091 10.1164C5.25828 12.4346 4.46696 15.0983 4.46696 18.1076C4.46696 19.8462 4.75674 21.4511 5.33629 22.9223C5.91585 24.3935 6.79632 25.7421 7.97772 26.9681C9.18142 28.1717 10.686 29.264 12.4916 30.2448C14.3194 31.2033 16.4593 32.0614 18.9113 32.8193L26.6684 35.2267C29.633 36.1406 32.1964 37.166 34.3586 38.3028C36.5208 39.4396 38.304 40.7213 39.7084 42.1479C41.1349 43.5522 42.1937 45.1237 42.8848 46.8624C43.5758 48.5788 43.9213 50.4958 43.9213 52.6134C43.9213 56.1798 43.0074 59.3563 41.1795 62.1426C39.3517 64.9289 36.7994 67.1134 33.5227 68.696C30.246 70.2786 26.4455 71.0699 22.1211 71.0699C17.9528 71.0699 14.3082 70.3455 11.1876 68.8966C8.06689 67.4254 5.59263 65.4081 3.76481 62.8447C1.95927 60.259 0.945051 57.2944 0.722145 53.9508H2.86204C3.08495 56.8931 4.01 59.49 5.63722 61.7413C7.26443 63.9927 9.47119 65.7536 12.2575 67.0242C15.0661 68.2948 18.354 68.9301 22.1211 68.9301C26.0442 68.9301 29.477 68.2502 32.4193 66.8905C35.384 65.5084 37.6799 63.5915 39.3071 61.1395C40.9566 58.6875 41.7814 55.8455 41.7814 52.6134C41.7814 50.1614 41.2464 48.0104 40.1765 46.1602C39.1065 44.2878 37.4236 42.6383 35.1276 41.2117C32.8317 39.7851 29.8336 38.5034 26.1334 37.3666L18.3763 34.9592C13.0042 33.2651 8.9808 31.0249 6.30593 28.2386C3.65335 25.4523 2.32707 22.0753 2.32707 18.1076C2.32707 14.7417 3.20754 11.7324 4.9685 9.07987C6.72945 6.405 9.13683 4.29855 12.1906 2.76049C15.2667 1.22245 18.7552 0.453423 22.6561 0.453423C26.5792 0.453423 30.0231 1.23359 32.9877 2.79393C35.9524 4.35427 38.304 6.50531 40.0427 9.24705C41.7814 11.9888 42.7622 15.1206 42.9851 18.6425H40.8452ZM114.68 35.7617C114.68 42.7386 113.487 48.8685 111.102 54.1514C108.717 59.4343 105.396 63.558 101.138 66.5227C96.8809 69.465 91.9435 70.9362 86.3263 70.9362C80.6868 70.9362 75.7383 69.4539 71.4808 66.4892C67.2233 63.5246 63.902 59.4008 61.5169 54.118C59.1541 48.8351 57.9727 42.7163 57.9727 35.7617C57.9727 28.7847 59.1652 22.666 61.5503 17.4054C63.9354 12.1225 67.2567 7.99878 71.5142 5.03413C75.7717 2.06949 80.7091 0.587164 86.3263 0.587164C91.9435 0.587164 96.8809 2.06949 101.138 5.03413C105.396 7.97649 108.717 12.0891 111.102 17.372C113.487 22.6548 114.68 28.7847 114.68 35.7617ZM112.54 35.7617C112.54 29.2083 111.437 23.4573 109.23 18.5088C107.023 13.538 103.947 9.67057 100.002 6.90654C96.0784 4.12022 91.52 2.72706 86.3263 2.72706C81.1549 2.72706 76.5965 4.10907 72.651 6.87311C68.7279 9.61485 65.6518 13.4711 63.4227 18.4419C61.216 23.3904 60.1126 29.1637 60.1126 35.7617C60.1126 42.2705 61.2048 48.0104 63.3893 52.9812C65.5738 57.9297 68.6276 61.8082 72.5507 64.6168C76.4961 67.4031 81.088 68.7963 86.3263 68.7963C91.52 68.7963 96.0896 67.4143 100.035 64.6503C103.98 61.8639 107.057 57.9965 109.263 53.048C111.47 48.0772 112.562 42.3151 112.54 35.7617ZM129.074 70.4012C128.405 70.4012 127.837 70.1672 127.369 69.6991C126.901 69.231 126.667 68.6626 126.667 67.9938C126.667 67.3251 126.901 66.7567 127.369 66.2886C127.837 65.8205 128.405 65.5865 129.074 65.5865C129.743 65.5865 130.311 65.8205 130.779 66.2886C131.247 66.7567 131.481 67.3251 131.481 67.9938C131.481 68.4397 131.37 68.852 131.147 69.231C130.946 69.5876 130.657 69.8663 130.278 70.0669C129.921 70.2898 129.52 70.4012 129.074 70.4012ZM146.335 1.52337L169.874 67.3251H170.142L193.68 1.52337H195.954L171.479 70H168.537L144.062 1.52337H146.335ZM198.47 70H196.197L220.672 1.52337H223.614L248.089 70H245.815L222.276 4.19823H222.009L198.47 70ZM206.227 44.7225H238.058V46.8624H206.227V44.7225Z" fill="white"/>
</svg>
