<svg width="40" height="41" viewBox="0 0 40 41" fill="none" xmlns="http://www.w3.org/2000/svg">
<path d="M35.4173 10.1046V15.2378H4.58398V10.1046C4.58398 7.25455 6.88396 4.97119 9.7173 4.97119H30.2673C33.1173 4.97119 35.4173 7.27122 35.4173 10.1046Z" stroke="#EE1C70" stroke-width="1.5" stroke-linecap="round" stroke-linejoin="round"/>
<path d="M35.4172 15.2544V30.6711C35.4172 33.5211 33.1173 35.8044 30.2839 35.8044H9.7339C6.8839 35.8044 4.60059 33.5044 4.60059 30.6711V15.2544H35.4172Z" stroke="#EE1C70" stroke-width="1.5" stroke-linecap="round" stroke-linejoin="round"/>
<path d="M9.71666 11.8213C10.6648 11.8213 11.4333 11.0527 11.4333 10.1047C11.4333 9.15657 10.6648 8.38794 9.71666 8.38794C8.76858 8.38794 8 9.15657 8 10.1047C8 11.0527 8.76858 11.8213 9.71666 11.8213Z" fill="#EE1C70"/>
<path d="M14.9 21.7878L11.4834 25.2045" stroke="#EE1C70" stroke-width="1.5" stroke-linecap="round" stroke-linejoin="round"/>
<path d="M14.9 28.6379L11.4834 25.2046" stroke="#EE1C70" stroke-width="1.5" stroke-linecap="round" stroke-linejoin="round"/>
<path d="M25.2002 21.7878L28.6169 25.2045" stroke="#EE1C70" stroke-width="1.5" stroke-linecap="round" stroke-linejoin="round"/>
<path d="M25.2002 28.6379L28.6169 25.2046" stroke="#EE1C70" stroke-width="1.5" stroke-linecap="round" stroke-linejoin="round"/>
<path d="M21.1338 19.9712L18.8672 30.2545" stroke="#EE1C70" stroke-width="1.5" stroke-linecap="round" stroke-linejoin="round"/>
</svg>
