<svg width="40" height="41" viewBox="0 0 40 41" fill="none" xmlns="http://www.w3.org/2000/svg">
<path d="M24.6339 35.8045H15.3672V25.8879C15.3672 24.9712 16.1172 24.2212 17.0339 24.2212H22.9672C23.8839 24.2212 24.6339 24.9712 24.6339 25.8879V35.8045V35.8045Z" stroke="#EE1C70" stroke-width="1.5" stroke-linecap="round" stroke-linejoin="round"/>
<path d="M35.4173 19.3712V30.5546C35.4173 33.4546 33.184 35.8046 30.4173 35.8046H9.58398C6.81732 35.8046 4.58398 33.4546 4.58398 30.5546V19.3712C4.58398 17.8046 5.23398 16.3379 6.38398 15.3379L16.8007 6.18789C18.6507 4.55456 21.3507 4.55456 23.2007 6.18789L33.6173 15.3379C34.7673 16.3379 35.4173 17.8046 35.4173 19.3712Z" stroke="#EE1C70" stroke-width="1.5" stroke-linecap="round" stroke-linejoin="round"/>
</svg>
