<svg width="41" height="41" viewBox="0 0 41 41" fill="none" xmlns="http://www.w3.org/2000/svg">
<path d="M35.8244 22.5276C35.8266 23.0724 35.7215 23.6123 35.515 24.1166C35.3085 24.6208 35.0048 25.0793 34.6211 25.4662C34.2373 25.853 33.7812 26.1604 33.2787 26.3709C32.7762 26.5815 32.2371 26.6909 31.6922 26.6931V31.2435C31.7034 31.7961 31.6044 32.3455 31.401 32.8595C31.1977 33.3735 30.8941 33.8418 30.508 34.2373C30.1219 34.6328 29.6609 34.9475 29.1519 35.163C28.6429 35.3786 28.0961 35.4907 27.5434 35.4928H22.4075C22.4075 34.3969 21.9721 33.3458 21.1972 32.5709C20.4223 31.796 19.3712 31.3606 18.2753 31.3606C17.1794 31.3606 16.1284 31.796 15.3535 32.5709C14.5785 33.3458 14.1432 34.3969 14.1432 35.4928H9.02401C8.47556 35.4906 7.93293 35.3801 7.42728 35.1677C6.92163 34.9553 6.4629 34.6451 6.07742 34.255C5.69194 33.8648 5.38731 33.4024 5.18099 32.8942C4.97467 32.3861 4.87073 31.8421 4.87513 31.2937V26.7433C5.98436 26.7433 7.04815 26.3027 7.83249 25.5184C8.61683 24.7341 9.05747 23.6702 9.05747 22.561C9.05747 21.4518 8.61683 20.388 7.83249 19.6036C7.04815 18.8193 5.98436 18.3787 4.87513 18.3787V13.7447C4.87293 13.1976 4.9785 12.6555 5.18581 12.1493C5.39312 11.643 5.69812 11.1826 6.08338 10.7942C6.46863 10.4058 6.92662 10.0972 7.43117 9.8858C7.93573 9.67443 8.47697 9.56451 9.02401 9.56232H14.1432C14.1432 8.46641 14.5785 7.41539 15.3535 6.64046C16.1284 5.86553 17.1794 5.43018 18.2753 5.43018C19.3712 5.43018 20.4223 5.86553 21.1972 6.64046C21.9721 7.41539 22.4075 8.46641 22.4075 9.56232H27.5434C28.0904 9.56451 28.6317 9.67443 29.1362 9.8858C29.6408 10.0972 30.0987 10.4058 30.484 10.7942C30.8693 11.1826 31.1743 11.643 31.3816 12.1493C31.5889 12.6555 31.6944 13.1976 31.6922 13.7447V18.295C32.2428 18.2971 32.7874 18.4088 33.2944 18.6235C33.8013 18.8382 34.2605 19.1517 34.645 19.5456C35.0296 19.9395 35.332 20.4061 35.5345 20.918C35.7369 21.43 35.8355 21.9771 35.8244 22.5276V22.5276Z" stroke="#EE1C70" stroke-width="1.5" stroke-linecap="round" stroke-linejoin="round"/>
</svg>
