<svg width="41" height="41" viewBox="0 0 41 41" fill="none" xmlns="http://www.w3.org/2000/svg">
<path d="M15.0524 18.4916C17.8487 18.4916 20.1156 16.2247 20.1156 13.4284C20.1156 10.6321 17.8487 8.36523 15.0524 8.36523C12.2561 8.36523 9.98926 10.6321 9.98926 13.4284C9.98926 16.2247 12.2561 18.4916 15.0524 18.4916Z" stroke="#EE1C70" stroke-width="1.5" stroke-linecap="round" stroke-linejoin="round"/>
<path d="M4.8418 32.5075V29.6238C4.8418 26.2707 7.5578 23.5547 10.9109 23.5547H19.9978C23.3509 23.5547 26.0669 26.2707 26.0669 29.6238V32.5075" stroke="#EE1C70" stroke-width="1.5" stroke-linecap="round" stroke-linejoin="round"/>
<path d="M27.693 19.9335C29.7671 19.9335 31.4484 18.2522 31.4484 16.1781C31.4484 14.104 29.7671 12.4226 27.693 12.4226C25.6189 12.4226 23.9375 14.104 23.9375 16.1781C23.9375 18.2522 25.6189 19.9335 27.693 19.9335Z" stroke="#EE1C70" stroke-width="1.5" stroke-linecap="round" stroke-linejoin="round"/>
<path d="M28.7656 23.689H31.3475C33.8288 23.689 35.8407 25.7008 35.8407 28.1821V30.3281" stroke="#EE1C70" stroke-width="1.5" stroke-linecap="round" stroke-linejoin="round"/>
</svg>
