<svg width="34" height="33" viewBox="0 0 34 33" fill="none" xmlns="http://www.w3.org/2000/svg">
<path d="M32.4173 6.43097V11.5642H1.58398V6.43097C1.58398 3.58097 3.88396 1.29761 6.7173 1.29761H27.2673C30.1173 1.29761 32.4173 3.59764 32.4173 6.43097Z" stroke="#AEBF3A" stroke-width="1.5" stroke-linecap="round" stroke-linejoin="round"/>
<path d="M32.4172 11.5808V26.9975C32.4172 29.8475 30.1173 32.1308 27.2839 32.1308H6.7339C3.8839 32.1308 1.60059 29.8308 1.60059 26.9975V11.5808H32.4172Z" stroke="#AEBF3A" stroke-width="1.5" stroke-linecap="round" stroke-linejoin="round"/>
<path d="M6.71666 8.14768C7.66475 8.14768 8.43333 7.37916 8.43333 6.43107C8.43333 5.48298 7.66475 4.71436 6.71666 4.71436C5.76858 4.71436 5 5.48298 5 6.43107C5 7.37916 5.76858 8.14768 6.71666 8.14768Z" fill="#AEBF3A"/>
<path d="M11.9 18.1143L8.4834 21.5309" stroke="#AEBF3A" stroke-width="1.5" stroke-linecap="round" stroke-linejoin="round"/>
<path d="M11.9 24.9643L8.4834 21.531" stroke="#AEBF3A" stroke-width="1.5" stroke-linecap="round" stroke-linejoin="round"/>
<path d="M22.2002 18.1143L25.6169 21.5309" stroke="#AEBF3A" stroke-width="1.5" stroke-linecap="round" stroke-linejoin="round"/>
<path d="M22.2002 24.9643L25.6169 21.531" stroke="#AEBF3A" stroke-width="1.5" stroke-linecap="round" stroke-linejoin="round"/>
<path d="M18.1338 16.2976L15.8672 26.5809" stroke="#AEBF3A" stroke-width="1.5" stroke-linecap="round" stroke-linejoin="round"/>
</svg>
