<svg width="33" height="43" viewBox="0 0 33 43" fill="none" xmlns="http://www.w3.org/2000/svg">
<path d="M16.5155 42.0425C22.5644 38.244 19.0438 32.1268 15.5503 28.4556M14.6394 28.4569C11.1845 32.1267 8.09606 38.2399 13.7586 42.0383M17.927 41.9307C18.6823 41.3165 19.2622 40.6464 19.6817 39.9287C20.4893 38.5472 20.6607 37.0608 20.4323 35.6076C19.9831 32.7497 17.9801 29.9505 16.0789 27.9526C15.5427 27.389 14.6445 27.387 14.1081 27.9568C12.2137 29.9691 10.3514 32.7705 9.96895 35.6249C9.77515 37.0715 9.96064 38.5462 10.7308 39.9181C11.1294 40.6281 11.6752 41.2938 12.3814 41.9057C8.82543 41.4313 6.24822 40.0094 4.43879 38.0379C2.18232 35.5793 1.04299 32.1819 0.786265 28.4592C0.529751 24.7396 1.15988 20.7516 2.38189 17.1906C3.59128 13.6663 5.35978 10.6194 7.35676 8.6755L13.4961 14.3369C14.3849 15.1565 15.824 14.5261 15.824 13.3169V1.00609C19.7307 2.43759 23.2898 5.67338 26.0261 9.80302C28.7916 13.977 30.6734 19.0011 31.2153 23.8287C31.758 28.663 30.9511 33.2202 28.4476 36.5511C26.3382 39.3576 22.9557 41.3839 17.927 41.9307ZM15.1057 41.9933C13.5311 41.1559 12.5594 40.1942 12.0034 39.2037C11.4134 38.1528 11.2562 37.0072 11.4154 35.8186C11.7346 33.4361 13.3212 30.944 15.0959 29.037C16.9066 30.9582 18.6164 33.4537 18.9906 35.8342C19.1765 37.0165 19.0307 38.1507 18.4218 39.1923C17.8438 40.181 16.8116 41.149 15.1057 41.9933Z" stroke="#AEBF3A" stroke-width="1.45935" stroke-linecap="round" stroke-linejoin="round"/>
</svg>
